<?xml version="1.0" encoding="UTF-8"?>
<svg width="30px" height="30px" viewBox="0 0 30 30" version="1.1" xmlns="http://www.w3.org/2000/svg" xmlns:xlink="http://www.w3.org/1999/xlink">
    <title>4s店备份</title>
    <defs>
        <rect id="path-1" x="0" y="0" width="30" height="30"></rect>
    </defs>
    <g id="多色设计方案" stroke="none" stroke-width="1" fill="none" fill-rule="evenodd">
        <g id="控件库30*30" transform="translate(-366.000000, -177.000000)">
            <g id="4s店备份" transform="translate(366.000000, 177.000000)">
                <mask id="mask-2" fill="white">
                    <use xlink:href="#path-1"></use>
                </mask>
                <use id="蒙版" fill="#D8D8D8" opacity="0" xlink:href="#path-1"></use>
                <g id="编组" mask="url(#mask-2)">
                    <g transform="translate(0.000000, 2.100000)">
                        <polygon id="多边形备份-2" fill="#EDF4FC" fill-rule="evenodd" points="15 7.65 30 16.8 15 25.95 0 16.8"></polygon>
                        <polygon id="多边形" fill="#52B1CA" fill-rule="evenodd" points="15 0 30 9.15 15 18.3 0 9.15"></polygon>
                        <polygon id="多边形备份" fill="#1C7D96" fill-rule="evenodd" points="15 1.35 27.75 9.075 15 16.8 2.25 9.075"></polygon>
                        <polygon id="路径-27备份-5" fill="#EE0006" fill-rule="evenodd" points="16.95 16.65 16.95 11.6913913 26.55 5.85 26.55 10.8086087"></polygon>
                        <polygon id="路径-28" fill="#FF495C" fill-rule="evenodd" points="16.2 11.4 16.95 11.7208333 16.95 16.65 16.2 16.3291667"></polygon>
                        <polygon id="路径-29" fill="#FF495C" fill-rule="evenodd" points="16.05 11.5278571 16.8485915 11.85 26.55 5.87214286 25.7514085 5.55"></polygon>
                        <polygon id="路径-26" fill="#D9E2EE" fill-rule="evenodd" points="0 9.15 15 18.2366087 15 25.95 0 16.8633913"></polygon>
                        <polygon id="路径-26备份" fill="#52B1CA" fill-rule="evenodd" points="6.6 14.55 13.65 18.8026137 13.65 23.55 6.6 19.2973863"></polygon>
                        <polygon id="路径-27" fill="#EDF4FC" fill-rule="evenodd" points="15 25.95 15 18.2366087 30 9.15 30 16.8633913"></polygon>
                        <polygon id="路径-27备份" fill="#52B1CA" fill-rule="evenodd" points="15.75 24.3 15.75 19.085662 18.3 17.55 18.3 22.764338"></polygon>
                        <polygon id="路径-27备份-2" fill="#52B1CA" fill-rule="evenodd" points="19.2 22.35 19.2 17.135662 21.75 15.6 21.75 20.814338"></polygon>
                        <polygon id="路径-27备份-3" fill="#52B1CA" fill-rule="evenodd" points="22.5 20.4 22.5 15.185662 23.775 14.417831 25.05 13.65 25.05 18.864338 23.775 19.632169"></polygon>
                        <polygon id="路径-27备份-4" fill="#52B1CA" fill-rule="evenodd" points="27.15 17.7 27.15 12.485662 29.7 10.95 29.7 16.164338"></polygon>
                        <path d="M21.4583086,12.9211103 L21.4583086,12.4234826 L21.6545252,12.2834379 L21.6545252,11.8015248 L21.4583086,11.9415695 L21.4583086,10.0942359 L20.5454748,10.7457481 L19.95,13.0180869 L19.95,13.5 L20.7689911,12.9154657 L20.7689911,13.4130934 L21.4583086,12.9211103 Z M20.7689911,12.4335526 L20.4652819,12.6503174 L20.7689911,11.2305158 L20.7689911,12.4335526 Z M22.6031899,12.1633461 C22.778363,12.0383207 22.9319238,11.8964184 23.0638724,11.7376391 C23.195821,11.5788599 23.2848294,11.4353045 23.3308976,11.3069731 C23.3769659,11.1786416 23.4,11.0137863 23.4,10.8124072 C23.4,10.5353653 23.3584817,10.3642008 23.2754451,10.2989137 C23.1924085,10.2336266 22.9910732,10.2178509 22.6714392,10.2515868 C22.5599654,10.263634 22.4922849,10.2543192 22.4683976,10.2236424 C22.4433729,10.1937775 22.4308605,10.1317014 22.4308605,10.037414 C22.4308605,9.96407941 22.441951,9.90145389 22.464132,9.84953747 C22.4863131,9.79762105 22.5190158,9.75623763 22.5622404,9.72538721 C22.6020524,9.69697235 22.6304896,9.69006249 22.6475519,9.70465765 C22.6646142,9.7192528 22.6731454,9.77544011 22.6731454,9.87321958 L22.6731454,10.082747 L23.3402819,9.60659511 L23.3402819,9.49484714 C23.3402819,9.27018716 23.318954,9.12622675 23.2762982,9.06296592 C23.2336424,8.99970509 23.1466246,8.9841121 23.0152448,9.01618696 C22.883865,9.04826181 22.7249011,9.1308712 22.5383531,9.26401513 C22.36773,9.38579312 22.2221316,9.51793833 22.1015579,9.66045078 C21.9809842,9.80296323 21.893682,9.94355474 21.8396513,10.0822253 C21.7856207,10.2208959 21.7586053,10.3984871 21.7586053,10.6149987 C21.7586053,10.7651601 21.7776583,10.8749499 21.8157641,10.9443683 C21.8538699,11.0137866 21.9019288,11.0551485 21.9599407,11.0684539 C22.0179525,11.0817594 22.1362512,11.0852117 22.3148368,11.0788111 C22.4934224,11.0712464 22.6054649,11.0768359 22.6509644,11.0955796 C22.6953264,11.1151351 22.7175074,11.2081419 22.7175074,11.3745998 C22.7175074,11.4502625 22.7058482,11.515622 22.6825297,11.5706783 C22.6592112,11.6257347 22.6236647,11.6703118 22.5758902,11.7044096 C22.5281157,11.7385075 22.4948442,11.7471216 22.4760757,11.7302521 C22.4573071,11.7133826 22.4479228,11.651984 22.4479228,11.5460562 L22.4479228,11.202082 L21.7807864,11.6782339 L21.7807864,11.8633165 C21.7807864,12.075172 21.8018299,12.2237006 21.8439169,12.3089021 C21.886004,12.3941036 21.9750124,12.4254455 22.1109421,12.4029276 C22.2468719,12.3804098 22.4109545,12.3005493 22.6031899,12.1633461 Z" id="4S" fill="#FFFFFF" fill-rule="nonzero"></path>
                    </g>
                </g>
            </g>
        </g>
    </g>
</svg>