<?xml version="1.0" encoding="UTF-8"?>
<svg width="30px" height="30px" viewBox="0 0 30 30" version="1.1" xmlns="http://www.w3.org/2000/svg" xmlns:xlink="http://www.w3.org/1999/xlink">
    <title>案件备份 2</title>
    <defs>
        <rect id="path-1" x="0" y="0" width="30" height="30"></rect>
        <linearGradient x1="48.8412813%" y1="16.7048432%" x2="73.2754127%" y2="70.9534348%" id="linearGradient-3">
            <stop stop-color="#484C4C" offset="0%"></stop>
            <stop stop-color="#262828" offset="100%"></stop>
        </linearGradient>
        <linearGradient x1="49.1137245%" y1="17.3162281%" x2="70.2341785%" y2="100%" id="linearGradient-4">
            <stop stop-color="#FFFFFF" offset="0%"></stop>
            <stop stop-color="#C3D3DF" offset="100%"></stop>
        </linearGradient>
        <linearGradient x1="48.1829931%" y1="16.7048432%" x2="86.4985769%" y2="70.9534348%" id="linearGradient-5">
            <stop stop-color="#484C4C" offset="0%"></stop>
            <stop stop-color="#262828" offset="100%"></stop>
        </linearGradient>
        <linearGradient x1="47.1272289%" y1="36.7275085%" x2="107.705923%" y2="58.3526949%" id="linearGradient-6">
            <stop stop-color="#484C4C" offset="0%"></stop>
            <stop stop-color="#262828" offset="100%"></stop>
        </linearGradient>
    </defs>
    <g id="多色设计方案" stroke="none" stroke-width="1" fill="none" fill-rule="evenodd">
        <g id="控件库30*30" transform="translate(-166.000000, -481.000000)">
            <g id="案件备份-2" transform="translate(166.000000, 481.000000)">
                <mask id="mask-2" fill="white">
                    <use xlink:href="#path-1"></use>
                </mask>
                <use id="蒙版" fill="#D8D8D8" opacity="0" xlink:href="#path-1"></use>
                <g id="案件备份" mask="url(#mask-2)">
                    <g transform="translate(4.950000, 0.000000)">
                        <path d="M18.5249778,0.0303734579 L18.5268293,0.0277306615 L19.8731707,0.671633101 L18.643,2.617 L18.6439024,22.9619398 C18.6439024,23.0630538 18.5789951,23.1527453 18.4829481,23.1843526 L2.268,28.52 L1.46341463,29.7935843 L0.117073171,29.1496819 C0.0699346605,29.1193654 0.0307075516,29.0740521 0.0117335719,29.0163948 C0.0039608138,28.9927753 1.50184624e-15,28.9680684 0,28.9432028 L0,6.2154727 C-3.05493285e-16,6.11435871 0.0649073852,6.02466724 0.16095434,5.99305993 L18.3365641,0.0117969561 C18.4017419,-0.00965189059 18.4695978,-0.000909850934 18.5249778,0.0303734579 Z" id="形状结合" fill="#000000"></path>
                        <path d="M1.5072958,6.63696237 L19.6829056,0.655699395 C19.8057407,0.615276569 19.9380875,0.682084982 19.9785103,0.804920163 C19.9862831,0.828539692 19.9902439,0.853246567 19.9902439,0.878112165 L19.9902439,23.6058423 C19.9902439,23.7069563 19.9253365,23.7966477 19.8292896,23.8282551 L1.65367981,29.809518 C1.53084463,29.8499409 1.39849786,29.7831324 1.35807504,29.6602973 C1.35030228,29.6366777 1.34634146,29.6119709 1.34634146,29.5871053 L1.34634146,6.85937514 C1.34634146,6.75826115 1.41124885,6.66856968 1.5072958,6.63696237 Z" id="矩形" fill="url(#linearGradient-3)"></path>
                        <path d="M3.00008804,8.01678881 L18.1903319,3.02622782 C18.313187,2.98586536 18.4455009,3.05273881 18.4858633,3.17559384 C18.4936124,3.19918052 18.497561,3.22384953 18.497561,3.24867653 L18.497561,22.2259799 C18.497561,22.3271363 18.4326001,22.4168553 18.3364973,22.4484286 L3.14625342,27.4389896 C3.02339839,27.4793521 2.89108447,27.4124786 2.85072202,27.2896236 C2.84297292,27.2660369 2.83902439,27.2413679 2.83902439,27.2165409 L2.83902439,8.23923752 C2.83902439,8.13808115 2.9039853,8.04836214 3.00008804,8.01678881 Z" id="矩形备份-2" fill="url(#linearGradient-4)"></path>
                        <path d="M14.3895232,18.0087757 C14.631063,17.9242695 14.6986836,17.9978855 14.6986836,18.2109124 C14.6986836,18.2109124 14.756966,18.5008224 15.0078587,18.413044 C15.0078587,18.413044 15.9353548,18.3986993 15.9353548,19.3297794 L6.35121951,22.6829268 C6.35121951,22.0671591 6.68332764,21.3255008 7.27871553,21.1171958 C7.53686963,21.0268769 7.58789068,20.6987255 7.58789068,20.6987255 C7.58789068,20.4563094 7.64584905,20.368147 7.8970511,20.2802604 L14.3895232,18.0087757 Z M11.4542518,10.4268456 C11.5732028,10.265987 11.7661371,10.1984862 11.885088,10.2761114 L14.1873832,11.7803295 C14.3064961,11.857898 14.3064961,12.0515441 14.1873832,12.2124594 L14.1754528,12.2287557 C14.0565019,12.3897769 13.8635675,12.4572777 13.7446166,12.3794899 L13.7440127,12.3790951 L12.4530065,14.1257869 L16.0452474,16.2250887 C16.3036961,16.3761959 16.3109427,16.7821224 16.0612577,17.119966 L16.0517009,17.1327024 C15.8012884,17.4613016 15.4012422,17.5909331 15.1636614,17.4180962 L11.8180713,14.9849246 L10.5272271,16.7315598 L10.527831,16.7319546 C10.6469292,16.8095283 10.6469292,17.0031596 10.527831,17.1640697 L10.5159006,17.180366 C10.3969497,17.3412246 10.2040153,17.4087255 10.0850644,17.3311003 L7.78262196,15.8269189 C7.66367105,15.7491459 7.66367105,15.5556476 7.78262196,15.3946412 L7.79469969,15.3784412 C7.9136506,15.21742 8.10657025,15.1499243 8.22553588,15.2277069 L8.22613978,15.2281018 L11.442778,10.875866 L11.4421741,10.8754712 C11.3232232,10.7976981 11.3232232,10.6041999 11.4421741,10.4431934 L11.4542518,10.4268456 Z" id="形状结合" fill="url(#linearGradient-5)"></path>
                        <g id="编组" stroke-width="1" fill="none" transform="translate(7.346341, 2.925292)">
                            <polygon id="矩形备份-3" fill="url(#linearGradient-6)" points="0.409756098 2.71633907 7.87317073 0.263414634 7.87317073 2.52268532 0.409756098 4.97560976"></polygon>
                            <polygon id="路径-53" fill="#000000" points="0 2.45853659 0.409756098 2.72195122 0.409756098 4.97560976 0 4.71219512"></polygon>
                            <polygon id="路径-54" fill="#000000" points="0 2.45853659 0.409756098 2.72195122 7.87317073 0.263414634 7.46341463 0"></polygon>
                        </g>
                    </g>
                </g>
            </g>
        </g>
    </g>
</svg>