<?xml version="1.0" encoding="UTF-8"?>
<svg width="30px" height="30px" viewBox="0 0 30 30" version="1.1" xmlns="http://www.w3.org/2000/svg" xmlns:xlink="http://www.w3.org/1999/xlink">
    <title>北京银行备份 4</title>
    <defs>
        <rect id="path-1" x="0" y="0" width="30" height="30"></rect>
        <linearGradient x1="53.0595481%" y1="-7.70162057%" x2="53.0595481%" y2="124.311546%" id="linearGradient-3">
            <stop stop-color="#F58B8F" offset="0%"></stop>
            <stop stop-color="#FF242D" offset="100%"></stop>
        </linearGradient>
    </defs>
    <g id="多色设计方案" stroke="none" stroke-width="1" fill="none" fill-rule="evenodd">
        <g id="控件库30*30" transform="translate(-416.000000, -253.000000)">
            <g id="北京银行备份-4" transform="translate(416.000000, 253.000000)">
                <mask id="mask-2" fill="white">
                    <use xlink:href="#path-1"></use>
                </mask>
                <use id="蒙版" fill="#D8D8D8" opacity="0" xlink:href="#path-1"></use>
                <g id="北京银行" mask="url(#mask-2)">
                    <g transform="translate(1.650000, 1.650000)">
                        <path d="M23.0543615,3.07269213 C18.625107,-1.30346949 12.9445609,0.278577454 12.9445609,0.278577454 C6.87808372,1.21542693 3.14808055,6.2887827 3.14808055,6.2887827 C0.595763712,9.59617074 0.307310134,12.3057958 0.307310134,12.3057958 C-0.824621495,16.9274523 1.53472984,20.4992835 1.53472984,20.4992835 C3.29131267,23.3543206 5.14437825,24.5724346 8.15324747,25.6054779 C11.1621167,26.656655 15.7375873,25.9599358 18.577363,24.197178 C21.4171388,22.3982457 23.1508442,20.5696008 24.7393282,17.306732 C26.3268176,14.0101783 26.0871027,10.4703731 26.0871027,10.4703731 C25.9180092,5.75812987 23.0543615,3.07269213 23.0543615,3.07269213 Z" id="Fill-1" fill="#A5080E"></path>
                        <path d="M23.6344202,5.09679166 C19.6124535,1.29147094 14.4542564,2.87802814 14.4542564,2.87802814 C8.94561625,3.92880644 5.55860188,8.85828794 5.55860188,8.85828794 C3.24098084,12.1415331 2.97905173,14.7502598 2.97905173,14.7502598 C1.95120577,19.2627267 4.09360526,22.4758189 4.09360526,22.4758189 C5.68866323,25.0226279 7.37133197,25.9891722 10.1035236,26.6531287 C12.8357152,27.3216249 16.9904528,26.2217049 19.5690997,24.3512442 C22.1477467,22.4798756 23.722031,20.7012949 25.1644475,17.6782092 C26.6059608,14.6535087 26.3882887,11.5377487 26.3882887,11.5377487 C26.234744,7.3771933 23.6344202,5.09679166 23.6344202,5.09679166 Z" id="Fill-1" fill="#FFFFFF"></path>
                        <polygon id="北京银行icon" fill="url(#linearGradient-3)" points="14.0654039 1.90222632 13.767757 1.98349425 13.4526619 2.06971094 13.1447513 2.16049682 12.842999 2.26535633 12.5453521 2.37032431 12.2466789 2.48273583 11.9439002 2.60431281 11.6524115 2.72850659 11.3598965 2.86323523 11.0745661 3.00150263 10.7892356 3.15007439 10.5131425 3.30172394 10.2329439 3.45429544 9.95479806 3.6239234 9.68588952 3.79869 9.41800734 3.97013481 9.14499332 4.16127992 8.88429573 4.34656786 8.62154539 4.54262113 8.36597964 4.7483958 8.11041389 4.95623133 7.85484813 5.17334079 7.60646696 5.39501946 7.36116489 5.62218927 7.12099466 5.85748057 6.87774533 6.10067639 6.6375751 6.34936337 6.39843124 6.60812423 6.17365654 6.86056693 5.94067089 7.13237096 5.71486983 7.40153114 5.4911215 7.67744339 5.28071595 7.95757235 5.06928405 8.23071874 4.86811582 8.51907766 4.67310581 8.79574927 4.49246495 9.07743754 4.3118241 9.35912581 4.14144693 9.64675268 3.96593792 9.93450155 3.80890354 10.2263451 3.65905374 10.5155448 3.51638852 10.8041616 3.37474967 11.0997608 3.2464536 11.3923638 3.12636849 11.6893054 3.00628338 11.9893384 2.89235648 12.2848971 2.79690421 12.5866113 2.70042557 12.8854648 2.6080524 13.1854572 2.52799566 13.4888663 2.45204439 13.7934143 2.3832777 14.1025316 2.3247747 14.4093439 2.27037717 14.7142039 2.22726969 15.0278632 2.19032043 15.3370484 2.15952937 15.6510332 2.12873832 15.9681093 2.11436916 16.2804672 2.10718458 16.5901812 2.1 16.9091691 2.10718458 17.2228693 2.11436916 17.5376 2.12873832 17.8445346 2.15952937 18.1446901 2.19032043 18.4469064 2.22726969 18.7405268 2.27037717 19.0317337 2.3247747 19.3142227 2.3832777 19.5957898 2.45204439 19.8719606 2.52799566 20.1516702 2.6080524 20.4180926 2.70042557 20.6765969 2.79690421 20.9403619 2.89235648 21.1919922 3.00628338 21.4435954 3.12636849 21.687633 3.2464536 21.9327011 3.37474967 22.1687122 3.51638852 22.3996661 3.65905374 22.629359 3.80890354 22.8533168 3.96593792 23.0746307 4.14144693 23.2907654 4.3118241 23.5018699 4.49246495 23.7013956 4.67310581 23.9091648 4.86811582 24.1003114 5.06928405 24.2972882 5.28071595 24.4826862 5.4911215 24.6683146 5.71486983 24.8427032 5.94067089 25.0135395 6.17365654 25.1776102 6.39843124 25.3383727 6.6375751 25.4804517 6.87774533 25.6223002 7.12099466 25.7562443 7.36116489 25.8826363 7.60646696 26.0016932 7.85484813 26.1118151 8.11041389 26.2151715 8.36597964 26.3061626 8.62154539 26.3971537 8.88429573 26.4751966 9.14499332 26.5516396 9.41800734 26.6119211 9.68588952 26.6723245 9.95479806 26.7180714 10.2329439 26.7607134 10.5131425 26.7946509 10.7892356 26.8171452 11.0745661 26.8355042 11.3598965 26.8466501 11.6524115 26.85 11.9439002 26.8443064 12.2466789 26.827834 12.5453521 26.8061009 12.842999 26.7866592 13.1447513 26.7456868 13.4526619 26.7012705 13.767757 26.6439061 14.0838785 26.5894024 14.3989736 26.5186423 14.8423648 26.411858 15.2765187 26.299935 15.7065671 26.1652339 16.1335364 26.0219504 16.5522947 25.869176 16.9566839 25.7031414 17.3713368 25.518315 17.7685414 25.3322547 18.1606142 25.1236467 18.5516605 24.9080563 18.9314169 24.6795446 19.3080941 24.4424505 19.6734813 24.187283 20.0419476 23.9252415 20.4042557 23.6480959 20.7563001 23.3660421 20.9964703 23.1606335 21.2294559 22.9578687 21.4542306 22.7559174 21.6646362 22.5499799 21.8740154 22.3535468 22.0690254 22.152097 22.2547981 21.9516913 22.4344126 21.7526684 22.5996579 21.5486289 22.7679823 21.3531719 22.9157794 21.1561421 23.059471 20.9569428 23.1939252 20.7536354 23.3222213 20.558924 23.4340955 20.3606873 23.5480224 20.1609592 23.644501 19.9651494 23.7348214 19.7738139 23.8169309 19.581231 23.8928822 19.3828179 23.9606225 19.1872792 24.0129673 18.9951978 24.0663385 18.8018555 24.1032877 18.604988 24.1340788 18.4167165 24.1556325 18.2253672 24.1628171 18.0341534 24.171028 17.8427091 24.1628171 17.64877 24.1556325 17.462844 24.1340788 17.2719013 24.1032877 17.0820025 24.0663385 16.9326433 24.0283628 16.7763015 23.9832026 16.6349688 23.937016 16.4866536 23.8774866 16.3506086 23.8169309 16.2199463 23.750217 16.090667 23.6752921 15.9663229 23.5931826 15.8487443 23.5100467 15.7324267 23.4115154 15.6175056 23.3140103 15.5116279 23.2082944 15.4158376 23.1056575 15.317295 22.9835197 15.2241621 22.8644609 15.1303377 22.7361649 15.0468312 22.5996579 14.9703209 22.458019 14.8980542 22.3194593 14.8240657 22.1665304 14.7594867 22.0084696 14.6991514 21.845277 14.6451207 21.6728471 14.5849209 21.4993909 14.5414386 21.3197764 14.4993393 21.1319509 14.4580534 20.9359146 14.4268549 20.7347463 14.394748 20.530499 14.3664239 20.3200935 14.3466957 20.1025033 14.3265202 19.5421061 14.2565842 19.7186415 14.1118355 19.8920978 13.9605653 20.0573431 13.8101085 20.2061666 13.6540656 20.3529372 13.4953924 20.4853388 13.3368547 20.6054239 13.1738699 20.7183244 13.0063158 20.8240404 12.8403752 20.9133344 12.667818 21.0036549 12.4888477 21.0724216 12.3157481 21.1381091 12.1371574 21.1925067 11.9580107 21.2294559 11.7776302 21.2664052 11.5848844 21.2828271 11.3720179 21.2889853 11.174852 21.2828271 10.9722084 21.2664052 10.7739307 21.2294559 10.5854149 21.1771111 10.4003564 21.1175818 10.2261853 21.0416305 10.0484889 20.9513101 9.88020203 20.8466205 9.71308112 20.725509 9.55480021 20.5931075 9.40317644 20.4401786 9.255132 20.2749332 9.11088387 20.0942924 8.97936701 19.9074933 8.84820265 19.6970878 8.7130656 19.4877086 8.58903286 19.2690921 8.47943977 19.0422647 8.37787322 18.8133845 8.287072 18.5732143 8.20498879 18.3258595 8.14100599 18.0702937 8.07783666 17.806517 8.03093736 17.5365821 7.98748187 17.2584362 7.9572051 16.9720794 7.94010704 16.6795644 7.93160497 16.3808912 7.92242496 16.0709279 7.93123689 15.7599383 7.94852279 15.3966038 7.97859408 15.0384012 8.0126651 14.6627503 8.05992837 14.2860731 8.11154387 13.9032377 8.17072493 13.5132176 8.23461072 13.1211449 8.30617055 12.7198348 8.39010914 12.3144192 8.47393925 11.8997664 8.57426988 11.4799816 8.6685399 11.051986 8.77804951 10.6168057 8.89947691 10.1744409 9.02251773 9.73002336 9.14601953 9.28047397 9.28303902 9.28047397 13.1801507 9.63867657 13.05231 9.99995828 12.9258386 10.36124 12.8158542 10.7286799 12.7024261 11.0889352 12.5998852 11.4574015 12.5006527 11.8258678 12.4086332 12.5658795 12.2424506 12.9343458 12.176192 13.3099967 12.10832 13.6866739 12.0536132 14.0612984 11.9983369 14.4369493 11.9531345 14.8197847 11.9104405 15.2036465 11.8716376 15.5115571 11.8550432 15.8050985 11.8478582 16.0709279 11.8561704 16.3285464 11.8673569 16.5635848 11.8980403 16.7780958 11.932303 16.9802904 11.9775751 17.1609312 12.0338701 17.2430407 12.0618006 17.3179656 12.0964968 17.3928905 12.1394364 17.4616572 12.1765459 17.5283712 12.2244207 17.5817423 12.2722006 17.6422981 12.3183671 17.6864319 12.3682214 17.7315921 12.4260887 17.775726 12.4841865 17.8137016 12.5446977 17.8444927 12.6130049 17.8670728 12.6749125 17.8896529 12.7450637 17.9050484 12.8157978 17.9194176 12.8960363 17.9194176 13.0320539 17.9050484 13.10432 17.8896529 13.1829993 17.8290971 13.3604376 17.7459613 13.5676771 17.6936165 13.6546539 17.6340871 13.745305 17.5673732 13.8262348 17.4832109 13.8976871 17.4011015 13.9686785 17.310781 14.0343008 17.2122497 14.0945539 17.1075601 14.1489769 16.9956859 14.1957394 16.8673899 14.2472201 16.7401202 14.2840442 16.4547897 14.3481202 16.3039136 14.3737586 16.1489319 14.3858928 15.9734229 14.4036673 15.5248999 14.4508083 15.082535 14.5037794 14.6401702 14.5660245 14.2039636 14.6340996 13.775968 14.707544 13.350025 14.7887708 12.921003 14.8779022 12.5012183 14.9639287 12.0886182 15.0648288 11.676018 15.1646984 11.2623915 15.2720116 10.856976 15.3857244 10.458745 15.5050368 10.0625668 15.6311013 9.66946762 15.7657483 9.28047397 15.9066863 9.28047397 19.8779895 9.82752837 19.6922822 10.36124 19.5147234 10.8867407 19.3503434 11.4122413 19.1952373 11.9161883 19.0593975 12.4180824 18.9240188 12.9035547 18.8057235 13.3849216 18.6976242 13.8591038 18.6086557 14.3240487 18.5186702 14.7746245 18.4473682 15.2180157 18.3921057 15.6542223 18.3405175 16.082218 18.3031385 16.491739 18.2802126 16.8971545 18.2633609 17.221487 18.2513221 17.5211866 18.2592412 17.806517 18.2693567 18.0702937 18.2935864 18.3155958 18.3374214 18.5424232 18.3854053 18.6481392 18.4142172 18.7446178 18.4451035 18.8410965 18.4749594 18.9314169 18.5165025 19.0155791 18.5573678 19.0966622 18.5989245 19.1715871 18.6490771 19.2372747 18.6961521 19.3080941 18.7492876 19.3676235 18.8028976 19.4179156 18.8575516 19.4712867 18.9238793 19.5164469 18.9879293 19.5533962 19.0538231 19.5934246 19.1200559 19.6149783 19.198681 19.6457694 19.2669882 19.6591121 19.3464268 19.6734813 19.4266653 19.6899032 19.5136559 19.6899032 19.5806343 19.6970878 19.6532124 19.6899032 19.7310781 19.6899032 19.7990869 19.6734813 19.8769662 19.6591121 19.9482019 19.636532 20.0305554 19.6149783 20.1034045 19.5831609 20.1857715 19.5482644 20.261617 19.508236 20.3447975 19.4651285 20.4307303 19.3676235 20.6030706 19.2495911 20.781051 19.1715871 20.8882162 19.0822931 20.9896732 18.9899199 21.0928522 18.8934413 21.1928313 18.7990154 21.2882278 18.6912467 21.3866206 18.5886098 21.4787087 18.4757093 21.5720713 18.3628087 21.6644035 18.2427236 21.7521665 18.1154539 21.8425734 17.9871579 21.9301194 17.8506509 22.0133267 17.709012 22.0987169 17.5673732 22.1748332 17.4154706 22.2532543 17.2666472 22.3330449 17.1075601 22.4058664 16.9525784 22.4798268 16.7780958 22.5478622 16.4322096 22.6863328 16.0709279 22.8200172 15.6880925 22.9430853 15.2867824 23.0651501 14.8659713 23.1751071 14.1895945 23.3269994 13.9555824 23.3692466 13.7225968 23.4081719 13.4916639 23.4456058 13.2648364 23.4718134 13.0390354 23.4936688 12.823498 23.5121888 12.5976969 23.5237398 12.3811332 23.5270338 12.1645694 23.5241451 11.9541639 23.5178127 11.7437583 23.5042671 11.5323264 23.4909521 11.3219209 23.4650414 11.1197263 23.4352258 10.9165053 23.4046103 10.7143107 23.3613991 10.5131425 23.3138357 10.3171061 23.2671806 10.1200434 23.20633 9.93427069 23.1419135 9.74644526 23.0728059 9.55656709 23.0000374 9.37079439 22.9222253 9.19220628 22.8355866 9.01156542 22.7391046 8.83195093 22.6434226 8.65131008 22.5417884 8.47888017 22.4300668 8.30645027 22.3183452 8.14120494 22.1957362 7.9667223 22.0721103 7.80968792 21.9414748 7.65162717 21.8017959 7.49459279 21.6649778 7.34576936 21.5252853 7.2010514 21.3836405 7.06557076 21.2337386 6.93111649 21.0815454 6.80282043 20.9289996 6.68478805 20.766936 6.56367657 20.6148377 6.45077603 20.4433781 6.34711282 20.2780875 6.24858144 20.1054619 6.15107644 19.9315754 6.06178238 19.755845 5.97248832 19.5718711 5.88627336 19.39751 5.8134012 19.2005744 5.74360814 19.014282 5.6799733 18.8142415 5.61941756 18.6186617 5.56707276 18.421238 5.51472797 18.2135099 5.46956776 18.0041684 5.43159212 17.7942439 5.39464286 17.5768759 5.37001001 17.3588028 5.34229806 17.1362691 5.32587617 16.9163521 5.31150701 16.683609 5.30432243 16.4513132 5.30432243 15.983495 5.31150701 15.7510637 5.32587617 15.5139277 5.34229806 15.2825134 5.37001001 15.0506245 5.39464286 14.8183967 5.43159212 14.5937074 5.46956776 14.3595137 5.51472797 14.1381326 5.56707276 13.9058642 5.61941756 13.6839002 5.6799733 13.4528792 5.74360814 13.2345624 5.8134012 13.0076496 5.88627336 12.7872584 5.97248832 12.5649013 6.06178238 12.3418527 6.15107644 12.1249868 6.24858144 11.9083378 6.34711282 11.6914583 6.45077603 11.470335 6.56367657 11.2584722 6.68478805 11.0406437 6.80282043 10.8327806 6.93111649 10.6174604 7.06557076 10.4059095 7.2010514 10.1930976 7.34576936 9.98851572 7.49459279 9.780951 7.65162717 9.57463368 7.80968792 9.366025 7.9667223 9.16279899 8.14120494 8.95874597 8.31363485 8.76133656 8.48401202 8.57263161 8.65849466 8.38300472 8.83913551 8.19920794 9.01772363 8.02411563 9.19733812 7.8477624 9.37900534 7.67919169 9.56580441 7.51565115 9.7515771 7.35440197 9.94248164 7.19921341 10.1364653 7.04951599 10.3304489 6.89981858 10.5275117 6.7576732 10.7214953 6.62343234 11.1269109 6.36648885 11.3301318 6.24563014 11.5405374 6.123158 11.7437583 6.01672541 11.9613485 5.90706596 12.1697013 5.80051136 12.3903705 5.70664743 12.6048815 5.61313601 12.823498 5.52488525 13.0390354 5.43835639 13.2648364 5.35879657 13.4978221 5.28277551 13.7225968 5.2178723 13.9555824 5.15009474 14.1895945 5.09136061 14.4225801 5.03285698 14.6545394 4.98694908 14.887525 4.94081069 15.121537 4.90371574 15.3463117 4.86766475 15.5710864 4.84088769 15.7948348 4.81949331 16.0113985 4.80898628 16.2310414 4.79881822 16.4465788 4.79575474 16.6651953 4.79096935 16.8745744 4.80371492 17.0880591 4.81656897 17.2953855 4.83080595 17.4986065 4.860391 17.709012 4.88836263 17.9050484 4.92677416 18.107243 4.96483319 18.302253 5.01171871 18.497263 5.06581728 18.6912467 5.12838983 18.8821512 5.19165385 19.0751085 5.26063952 19.2536966 5.34006508 19.4456275 5.41855517 19.6221629 5.50668521 19.8017774 5.60236727 19.9742073 5.69863233 20.1548481 5.80129696 20.3283044 5.91278807 20.4945761 6.02589261 20.6659796 6.1460882 20.8332777 6.27338836 20.9892857 6.40631521 21.1473465 6.53465934 21.3043808 6.67250789 21.4542306 6.8130003 21.5968959 6.95407569 21.7303238 7.10443854 21.8678571 7.25490987 21.9961532 7.40745561 22.1162383 7.56802788 22.2281125 7.73250493 22.3379339 7.89641252 22.4498081 8.06604176 22.5483395 8.23351517 22.6448181 8.4138148 22.7361649 8.59114513 22.8264853 8.77282769 22.9106475 8.95692362 22.9835197 9.14458537 23.05126 9.33958219 23.117974 9.53687037 23.1785297 9.73348061 23.2339536 9.93227373 23.2862984 10.1389714 23.3283795 10.3490043 23.3663551 10.556868 23.3971462 10.7756189 23.4279372 10.9954003 23.4484646 11.2164562 23.4741238 11.4384205 23.4895194 11.6688723 23.4936248 11.8987682 23.4936248 12.1337078 23.4484646 13.1371903 23.644501 13.2157888 23.8405374 13.2851135 24.0355474 13.3690947 24.2233728 13.4546894 24.5836282 13.6447926 24.764269 13.7392137 25.1101552 13.9655177 25.2825851 14.0751785 25.4406459 14.1983704 25.6017857 14.3198405 25.7618992 14.458028 25.9096963 14.588677 26.0615988 14.7369519 26.212475 14.8833965 26.3253755 14.4438071 26.4228805 14.0076751 26.50499 13.5677873 26.5706776 13.1388005 26.6035214 12.9201853 26.6240487 12.6960925 26.6466288 12.4797822 26.6692089 12.2655328 26.6763935 12.0444363 26.6917891 11.8225264 26.6917891 11.6051043 26.7 11.3848078 26.6917891 11.0692772 26.6835781 10.7630205 26.6620244 10.4587297 26.6384179 10.1538695 26.6086532 9.85348357 26.5706776 9.56112414 26.5265437 9.26705633 26.4670144 8.98778066 26.4085113 8.70724407 26.3387183 8.42924286 26.270978 8.15696329 26.1888685 7.88997143 26.0985481 7.63100612 26.0000167 7.37594558 25.8984062 7.11848521 25.7916639 6.87248165 25.669526 6.62684411 25.5514937 6.38337593 25.4149866 6.15023916 25.2825851 5.91618045 25.1399199 5.69163968 24.9900701 5.46974277 24.8237984 5.25050325 24.6585531 5.03927673 24.4871495 4.82840271 24.3065087 4.62784659 24.1176569 4.42913438 23.9298314 4.23843517 23.7266105 4.04088894 23.5172313 3.86224306 23.3068258 3.67661461 23.0810247 3.50165655 22.8572764 3.33345058 22.6253171 3.16605808 22.3923314 3.01641349 22.1593458 2.8636776 21.9212283 2.72239851 21.6800317 2.58799351 21.4316505 2.462415 21.1842957 2.34587992 20.9359146 2.23575796 20.6813752 2.13320155 20.4258094 2.04014956 20.1630591 1.95077186 19.8992824 1.87295946 19.636532 1.80522094 19.3676235 1.73577404 19.0966622 1.68533598 18.8215955 1.63272856 18.5424232 1.58825616 18.2653037 1.56084021 17.9871579 1.53365474 17.7018274 1.51323489 17.4154706 1.50334988 17.1229556 1.5 16.8304406 1.50695448 16.5379256 1.51906115 16.2361732 1.54148571 15.9375 1.57043186 15.636774 1.60086943 15.3298899 1.64814648 15.0230057 1.70160616 14.7325434 1.75240844"></polygon>
                    </g>
                </g>
            </g>
        </g>
    </g>
</svg>