<?xml version="1.0" encoding="UTF-8"?>
<svg width="30px" height="30px" viewBox="0 0 30 30" version="1.1" xmlns="http://www.w3.org/2000/svg" xmlns:xlink="http://www.w3.org/1999/xlink">
    <title>被投保人备份</title>
    <defs>
        <rect id="path-1" x="0" y="0" width="30" height="30"></rect>
        <linearGradient x1="43.0762561%" y1="17.7662037%" x2="60.2612524%" y2="84.2001308%" id="linearGradient-3">
            <stop stop-color="#2E6DBC" offset="0%"></stop>
            <stop stop-color="#004AA7" offset="100%"></stop>
        </linearGradient>
        <linearGradient x1="50%" y1="9.77351458%" x2="50%" y2="86.5627233%" id="linearGradient-4">
            <stop stop-color="#2E6DBC" offset="0%"></stop>
            <stop stop-color="#004AA7" offset="100%"></stop>
        </linearGradient>
        <linearGradient x1="69.3221959%" y1="0%" x2="31.3777513%" y2="92.6181707%" id="linearGradient-5">
            <stop stop-color="#3072C5" offset="0%"></stop>
            <stop stop-color="#93C0F0" offset="100%"></stop>
        </linearGradient>
    </defs>
    <g id="多色设计方案" stroke="none" stroke-width="1" fill="none" fill-rule="evenodd">
        <g id="控件库30*30" transform="translate(-316.000000, -860.000000)">
            <g id="被投保人备份" transform="translate(316.000000, 860.000000)">
                <mask id="mask-2" fill="white">
                    <use xlink:href="#path-1"></use>
                </mask>
                <use id="蒙版" fill="#D8D8D8" opacity="0" xlink:href="#path-1"></use>
                <g id="税备份-2" mask="url(#mask-2)">
                    <g transform="translate(4.950000, 0.000000)" id="编组">
                        <polygon id="矩形备份" fill="#00367A" points="0 6.26451359 16.2734452 0 18.5982231 2.23364651 18.5982231 22.0704251 1.52910821 29.94077 0 29.2298692"></polygon>
                        <polygon id="矩形" fill="url(#linearGradient-3)" points="1.53998026 6.98772057 17.8134255 0.710760118 20.1382034 2.94884463 20.1382034 22.8263309 1.53998026 30"></polygon>
                        <path d="M15.7504924,13.2204063 L15.9253742,13.3393366 C15.9318054,13.3434795 16.7021048,13.8263088 18.4515434,13.0981315 L18.451898,13.0979839 C18.5180511,13.0704486 18.5863611,13.0409399 18.6550256,13.0102078 L18.9,12.9 L18.9,16.5416956 C18.9,17.49477 18.5824315,19.0175856 15.8356238,21.2252639 L15.7501477,21.2938156 L15.6646618,21.2964243 C14.5214545,21.3295176 13.8001519,21.1300039 13.3463377,20.8180962 L13.310932,20.793573 C12.7054983,20.3555395 12.6,19.7097806 12.6,19.1639753 L12.6,15.5222797 L12.8456835,15.4282586 C14.7546106,14.6989133 15.5678302,13.4963998 15.5756993,13.4848835 L15.7504924,13.2204063 Z M17.1396404,15 L15.1928993,15.8265384 L15.1928993,17.0597953 L15.9466143,16.7397864 L15.9466143,17.1040446 L14.9321885,17.5347449 L14.9321885,17.8991727 L15.700078,17.5731457 C15.4897242,17.9615495 15.2063421,18.3291662 14.85,18.6767044 C14.9137607,18.7245908 14.9916862,18.798682 15.0830837,18.9 C15.4486446,18.5393039 15.7365532,18.1321021 15.9466143,17.6786571 L15.9466143,18.7015597 L16.3582105,18.5268061 L16.3582105,17.4898133 C16.5314259,17.7434038 16.805599,17.9025262 17.1807298,17.96739 C17.2080057,17.9183355 17.2444905,17.8422067 17.2901844,17.7387941 C17.3450873,17.640885 17.3815722,17.5692833 17.4,17.5239755 C17.0436384,17.4978604 16.7737089,17.3883208 16.5909333,17.1949104 L17.3727241,16.8629812 L17.3727241,16.4985535 L16.3582105,16.929291 L16.3582105,16.5650328 L17.1396404,16.2332568 L17.1396404,15 Z M14.5829705,15.9560191 C14.4294698,16.5990928 14.2183602,17.1913099 13.95,17.7325368 C13.9592842,17.7842796 13.9737887,17.8525612 13.9931145,17.9369795 C14.0217244,18.0640246 14.0410605,18.1625713 14.0507234,18.2324146 C14.1558994,18.0518776 14.2521701,17.8704079 14.3383991,17.6881445 L14.3383991,19.35 L14.7409444,19.1890196 L14.7409445,16.7237721 C14.846489,16.4416276 14.9327283,16.1672035 15,15.9 L14.5829705,15.9560191 Z M16.8,15.45 L16.8,15.9879364 L15.6,16.5 L15.6,15.9620636 L16.8,15.45 Z" id="形状结合" fill="#FFFFFF" fill-rule="nonzero"></path>
                        <path d="M12.1335177,10.0154024 L12.081689,10.0369968 L11.6607395,9.7356956 L11.6000274,9.69866803 C11.5014209,9.6385133 11.2473029,9.4948017 11.022272,9.45510805 C10.9299855,9.43808702 10.8073682,9.46341713 10.6278207,9.53390455 C10.2498164,9.68230281 9.59117074,10.0524442 8.98691727,10.453236 C7.82757398,11.2253115 7.6379754,11.5850664 7.57348143,11.705459 C7.41799536,12.0061307 7.34971957,12.297918 7.31809442,12.4370724 L7.14491756,13.2797214 C6.96542076,13.436404 6.80734579,13.6886845 6.72899361,13.8259212 C6.53553707,14.159216 6.46091594,14.4116469 6.50901357,14.570311 C6.54058795,14.6783416 6.60759468,14.759811 6.7037138,14.8462951 L6.63792538,14.9330102 C6.52543529,15.018994 6.42172715,15.1180503 6.32824769,15.2308837 C5.39522978,16.1562326 4.54569107,17.4482694 3.93633596,18.8729935 C3.34588993,20.2521377 3.02105959,21.6462862 3.02105959,22.7936818 C3.01976515,22.8817032 3.01725239,22.9726975 3.00963799,23.0631236 C2.99958698,23.2192631 2.98940907,23.3817142 3.02362311,23.5952109 L3.03999407,23.85 L9.55708361,21.3206688 L9.60629802,18.7744609 C9.77450013,18.8910394 9.79975456,19.1866067 10.4609384,18.9270368 C10.8288155,18.7826143 11.0513082,18.3504071 11.0513082,18.0486672 L11.197987,18.0203055 L11.4495922,20.55105 L12.010875,20.3320232 L12.251084,17.3621556 C12.2574293,16.9552403 12.3433452,16.5626764 12.0904963,16.3449535 C11.819982,16.1126819 11.5974892,16.0808501 11.1828343,16.2461822 C11.0526027,16.297309 10.9249092,16.3626104 10.7757177,16.4439879 L8.89838717,15.265277 C9.21441019,15.2908088 9.55827653,15.234442 9.90724452,15.0961447 C11.1777834,14.597352 12.2093317,13.1844283 12.2093317,11.9431557 C12.2093317,11.8049877 12.1967172,11.6742919 12.19291,11.5096437 L12.7188874,11.1624656 C12.8895261,11.0498608 13.0323469,10.8821983 13.1208516,10.6952847 C13.2021737,10.5187291 13.2217884,10.3395851 13.1752438,10.198514 C13.0716118,9.87150516 12.4028136,9.90968124 12.1335177,10.0154024 Z" id="路径" fill="#FFFFFF"></path>
                        <polygon id="路径-77" fill="url(#linearGradient-4)" points="16.269466 0 17.798618 0.710155731 1.52915199 6.95952616 0 6.24937043"></polygon>
                        <polygon id="路径-78" fill="url(#linearGradient-5)" points="17.786772 0.710760118 17.786772 4.2112537 20.1145114 2.94965449"></polygon>
                    </g>
                </g>
            </g>
        </g>
    </g>
</svg>