<?xml version="1.0" encoding="UTF-8"?>
<svg width="30px" height="30px" viewBox="0 0 30 30" version="1.1" xmlns="http://www.w3.org/2000/svg" xmlns:xlink="http://www.w3.org/1999/xlink">
    <title>保险公司备份</title>
    <defs>
        <rect id="path-1" x="0" y="0" width="30" height="30"></rect>
    </defs>
    <g id="多色设计方案" stroke="none" stroke-width="1" fill="none" fill-rule="evenodd">
        <g id="控件库30*30" transform="translate(-266.000000, -177.000000)">
            <g id="保险公司备份" transform="translate(266.000000, 177.000000)">
                <mask id="mask-2" fill="white">
                    <use xlink:href="#path-1"></use>
                </mask>
                <use id="蒙版" fill="#D8D8D8" opacity="0" xlink:href="#path-1"></use>
                <g id="编组-3" mask="url(#mask-2)">
                    <g transform="translate(1.650000, 0.000000)">
                        <polygon id="多边形" stroke="none" fill="#EDF4FC" fill-rule="evenodd" points="13.2165829 0 26.4331658 6.50050251 13.2165829 13.001005 0 6.50050251"></polygon>
                        <g id="编组-2" stroke="none" stroke-width="1" fill="none" fill-rule="evenodd" transform="translate(3.482412, 1.044724)">
                            <polygon id="多边形备份-3" fill="#D9E2EE" points="9.71758794 0 19.4351759 4.7758794 9.71758794 9.55175879 0 4.7758794"></polygon>
                            <polygon id="路径-32" fill="#96A8C0" points="0 4.75929648 9.75075377 9.53517588 9.75075377 10.1984925 0 5.45577889"></polygon>
                            <polygon id="路径-33" fill="#BACADF" points="9.71758794 9.53517588 19.4351759 4.75929648 19.4351759 5.45577889 9.75075377 10.1984925"></polygon>
                        </g>
                        <g id="编组" stroke="none" stroke-width="1" fill="none" fill-rule="evenodd" transform="translate(5.439196, 1.326633)">
                            <polygon id="多边形备份-5" fill="#3D5770" points="7.77738693 0 15.5547739 3.81407035 7.77738693 7.6281407 0 3.81407035"></polygon>
                            <polygon id="路径-34" fill="#192633" points="0 3.81407035 7.79396985 7.6281407 7.79396985 8.52361809 0 4.70954774"></polygon>
                            <polygon id="路径-35" fill="#2F465D" points="7.79396985 7.6281407 7.79396985 8.52361809 15.5547739 4.70954774 15.5547739 3.81407035"></polygon>
                        </g>
                        <polygon id="路径-30" stroke="none" fill="#0E98CC" fill-rule="evenodd" points="0 6.6 13.2 13.001005 13.2 29.9668342 0 23.4663317"></polygon>
                        <polygon id="路径-31" stroke="none" fill="#05A4DC" fill-rule="evenodd" points="13.2 13.001005 26.4331658 6.50050251 26.4331658 23.4663317 13.2 29.9668342"></polygon>
                        <polyline id="路径" stroke="#EDF4FC" stroke-width="0.530653266" fill="none" opacity="0.5" points="26.4331658 12 13.2165829 18.5005025 1.70530257e-14 12"></polyline>
                        <polyline id="路径备份-4" stroke="#EDF4FC" stroke-width="0.530653266" fill="none" opacity="0.5" points="26.4331658 8.82211055 13.2165829 15.3226131 0 8.82211055"></polyline>
                        <polyline id="路径备份" stroke="#EDF4FC" stroke-width="0.530653266" fill="none" opacity="0.5" points="26.4331658 15.15 13.2165829 21.6505025 1.70530257e-14 15.15"></polyline>
                        <polyline id="路径备份-2" stroke="#EDF4FC" stroke-width="0.530653266" fill="none" opacity="0.5" points="26.4331658 18.3 13.2165829 24.8005025 1.70530257e-14 18.3"></polyline>
                        <polyline id="路径备份-3" stroke="#EDF4FC" stroke-width="0.530653266" fill="none" opacity="0.5" points="26.4331658 21.45 13.2165829 27.9505025 1.70530257e-14 21.45"></polyline>
                        <path d="M10.0731335,4.73706481 L11.823784,3.75619977 C12.0991494,3.70645245 12.3608815,3.64401723 12.6089802,3.56889411 L12.4278323,3.38291457 C11.8949285,3.54791926 11.3339898,3.65313323 10.7536508,3.6995262 L10.5712352,3.90045967 C10.7441377,3.89069819 10.9191028,3.87687727 11.0879854,3.86065681 L9.75075377,4.609889 L10.0731335,4.73706481 Z M11.3469563,5.23713962 L12.2835288,4.71239112 L12.304818,4.72078952 C12.1596664,4.97053517 12.1142152,5.21088053 12.1679752,5.43919598 L12.6070139,5.39066572 C12.5052559,5.19214669 12.489844,5.00332477 12.5602887,4.82157036 L13.1229325,5.04352815 L13.3832333,4.89768524 L12.5438296,4.56654821 L12.7454351,4.45359145 L13.3324095,4.68514742 L14.1949749,4.20186406 L12.7108118,3.61637539 L11.8482464,4.09965875 L12.4291381,4.32881518 L12.2275325,4.44177194 L11.418542,4.12263262 L11.1582412,4.26847553 L11.6904718,4.47843561 C11.2945008,4.54639228 10.9018869,4.57181517 10.5044846,4.55636415 L10.4440373,4.76155494 C10.9117055,4.76086714 11.4133544,4.70048757 11.9429012,4.57801667 L11.9672317,4.58761485 L11.0306592,5.11236334 L11.3469563,5.23713962 Z M13.2773919,4.41978745 L12.4136576,4.07905224 L12.7658293,3.88173537 L13.6295636,4.22247057 L13.2773919,4.41978745 Z" id="保" stroke="none" fill="#FFFFFF" fill-rule="nonzero"></path>
                        <path d="M16.4112314,6.13252822 L16.8098621,6.086935 C16.6679982,5.81862655 16.6807912,5.57602496 16.8482412,5.35913021 L16.5772545,5.2532688 C16.0418975,5.35189419 15.49037,5.38635226 14.9229652,5.3590716 L14.8616011,5.52484852 C15.033943,5.53432391 15.2139481,5.53753685 15.3960185,5.53461461 L15.2554547,5.60234573 L16.1980171,5.97055932 L16.3306245,5.90666204 C16.3420774,5.97824249 16.3709101,6.05429833 16.4112314,6.13252822 Z M12.8371252,5.93495549 L14.9561906,4.91387689 L15.3096515,5.05195698 C15.0267875,5.12657662 14.6905992,5.20119109 14.2987277,5.27950696 C14.2700575,5.46036984 14.1683482,5.59418779 13.9906544,5.67981015 C13.94822,5.70025728 13.9072644,5.70971202 13.8707329,5.70932502 C13.831256,5.70778735 13.7735193,5.69448845 13.7004683,5.67057899 C13.6592312,5.65446965 13.6115164,5.63120174 13.5573238,5.60077528 L13.3787023,5.77165366 C13.5904855,5.8520731 13.7722387,5.89299318 13.9295598,5.89428662 C14.044165,5.89046311 14.1637931,5.85851963 14.2910961,5.79717823 C14.4537691,5.70337392 14.5716846,5.56431691 14.6416038,5.37642791 C15.0057804,5.30117705 15.3446209,5.22528463 15.6525276,5.14887793 L15.859395,5.04919817 L14.9050506,4.67638191 L12.5366834,5.81758741 L12.8371252,5.93495549 Z M16.3206621,5.80095373 L15.6166858,5.5259442 C15.8815476,5.51139834 16.1558446,5.48202624 16.4422289,5.43654996 C16.3608567,5.55285851 16.3195482,5.67556195 16.3206621,5.80095373 Z M14.7454773,6.18988604 L15.0686268,6.26290269 C15.2849532,6.10212577 15.4609107,5.9556608 15.5959126,5.81865056 L15.254198,5.75457953 C15.1118264,5.90028083 14.9411732,6.0441899 14.7454773,6.18988604 Z M15.2147722,6.79899497 L15.4799869,6.67120041 L15.0440518,6.50090162 C15.4406409,6.41517263 15.8540348,6.30592635 16.2865924,6.16945621 L16.0604108,6.01630565 C15.5742235,6.17347748 15.1372536,6.29665389 14.74361,6.38353354 L13.7067913,5.97849859 L13.4415767,6.10629316 L15.2147722,6.79899497 Z M14.1875434,6.07837276 L14.5109863,6.15381802 C14.7261393,5.98332664 14.9009233,5.82714722 15.0320996,5.68170048 L14.690385,5.61762945 C14.551839,5.77176725 14.3853048,5.92654145 14.1875434,6.07837276 Z" id="险" stroke="none" fill="#FFFFFF" fill-rule="nonzero"></path>
                    </g>
                </g>
            </g>
        </g>
    </g>
</svg>