<?xml version="1.0" encoding="UTF-8"?>
<svg width="30px" height="30px" viewBox="0 0 30 30" version="1.1" xmlns="http://www.w3.org/2000/svg" xmlns:xlink="http://www.w3.org/1999/xlink">
    <title>乘客备份</title>
    <defs>
        <rect id="path-1" x="0" y="0" width="30" height="30"></rect>
        <polygon id="path-3" points="9.24639536e-14 0 4.8811209 0 4.8811209 9.24454716 9.24639536e-14 9.24454716"></polygon>
        <polygon id="path-5" points="0.0158890654 6.90452116 2.35158168 2.19557995 2.35158168 0.808897877 0.619673552 0.0144446049 0.619673552 1.92113246"></polygon>
        <path d="M0.508450094,7.41297126 C1.03808561,4.94775868 2.89180991,3.18551688 6.069623,2.12624585 L12.1074679,6.09562328 L14.360374,1.39051397 C15.1003058,1.58073011 15.6331736,1.73930644 15.9589773,1.86624296 C16.8850811,2.22706263 17.5185252,2.84336577 17.8593095,3.71515239 C18.5160576,5.75665656 18.9185806,7.48037941 19.0668785,8.88632096 C19.2893254,10.9952333 19.5117724,13.9997111 18.8126535,14.953055 C18.1135346,15.906399 6.60349559,18.5064278 4.56969522,18.5064278 C2.53589484,18.5064278 0.0953343926,17.7668641 0.0953343926,15.9179546 C0.0953343926,14.0690452 -0.286003178,11.1107901 0.508450094,7.41297126 Z" id="path-7"></path>
        <path d="M4.06760075,9.07035239 C6.08942723,9.07035239 7.32168135,6.34410474 7.32168135,3.89340598 C7.32168135,-1.28354043 5.68266715,0.195587114 3.66084068,0.195587114 C1.6390142,0.195587114 0,1.44270722 0,3.89340598 C0,6.34410474 2.04577427,9.07035239 4.06760075,9.07035239 Z" id="path-9"></path>
    </defs>
    <g id="多色设计方案" stroke="none" stroke-width="1" fill="none" fill-rule="evenodd">
        <g id="控件库30*30" transform="translate(-566.000000, -860.000000)">
            <g id="乘客备份" transform="translate(566.000000, 860.000000)">
                <mask id="mask-2" fill="white">
                    <use xlink:href="#path-1"></use>
                </mask>
                <use id="蒙版" fill="#D8D8D8" opacity="0" xlink:href="#path-1"></use>
                <g id="编组-16" mask="url(#mask-2)">
                    <g transform="translate(5.400000, 0.000000)">
                        <path d="M6.19351536,6.05988099 L13.1564846,5.55489004 C14.0089446,5.49306519 14.7,6.02466295 14.7,6.74224687 L14.7,8.87887457 C14.7,9.5964585 14.0089446,10.2282942 13.1564846,10.290119 L6.19351536,10.79511 C5.34105536,10.8569348 4.65,10.3253371 4.65,9.60775313 L4.65,7.47112543 C4.65,6.7535415 5.34105536,6.12170585 6.19351536,6.05988099 Z" id="矩形" fill="#2B3734" fill-rule="evenodd"></path>
                        <path d="M3.52250865,9.44514065 L14.4774913,8.55479456 C15.2173341,8.4946652 15.8827431,9.00708591 15.9637238,9.69931825 L17.8438278,25.77066 C17.9248085,26.4628923 17.1994852,27.0883423 16.2237728,27.1676415 L1.77622723,28.3418392 C0.800514844,28.4211384 0.0751915164,27.9135872 0.156172235,27.2081917 L2.03627623,10.831246 C2.11725695,10.1258505 2.78266587,9.50527001 3.52250865,9.44514065 Z" id="矩形备份-16" fill="#2B3734" fill-rule="evenodd"></path>
                        <g id="编组-14" stroke-width="1" fill="none" fill-rule="evenodd">
                            <g id="编组">
                                <g id="路径" transform="translate(7.823776, 9.914427)">
                                    <mask id="mask-4" fill="white">
                                        <use xlink:href="#path-3"></use>
                                    </mask>
                                    <use id="蒙版" fill="#EED5BE" xlink:href="#path-3"></use>
                                    <polygon fill="#D4B090" mask="url(#mask-4)" points="-2.44056045 -1.47912755 4.28369204 0.803469514 -4.35995956 12.0702614"></polygon>
                                </g>
                                <path d="M0.511266992,18.7776369 C0.987938955,16.3509433 2.89462681,15.0740402 4.16575204,14.3402543 C5.01316886,13.8510637 6.23344909,13.3580212 7.82659272,12.8611268 C8.81619247,13.9745573 9.87770234,14.5312726 11.0111223,14.5312726 C12.1445423,14.5312726 12.7100728,13.8512967 12.7077136,12.4913449 C13.9509969,12.6235677 15.0356904,12.870089 15.9617942,13.2309086 C16.887898,13.5917283 17.5213421,14.2080315 17.8621264,15.0798181 C18.5188745,17.1213222 18.9213975,18.8450451 19.0696954,20.2509866 C19.2921423,22.359899 19.5145893,25.3643768 18.8154704,26.3177207 C18.1163515,27.2710646 6.60631249,29.8710935 4.57251212,29.8710935 C2.53871174,29.8710935 0.0981512906,29.1315298 0.0981512906,27.2826203 C0.0981512906,25.4337109 0.0345950289,21.2043306 0.511266992,18.7776369 Z" id="蒙版-2" fill="#FFFFFF"></path>
                                <g id="路径-84" transform="translate(12.091579, 10.573451)">
                                    <mask id="mask-6" fill="white">
                                        <use xlink:href="#path-5"></use>
                                    </mask>
                                    <use id="蒙版" fill="#00AC48" xlink:href="#path-5"></use>
                                    <polygon fill="#008C3A" mask="url(#mask-6)" points="0.587895421 2.78780875 3.05070056 -0.0722230247 -1.87490972 -1.38668207"></polygon>
                                </g>
                                <g id="路径-2" transform="translate(0.000000, 11.376221)">
                                    <polygon id="路径-82" fill="#00AC48" points="14.4431605 0.0061273213 12.377582 1.1183619 12.377582 4.00728289 14.4431605 1.3928094"></polygon>
                                    <mask id="mask-8" fill="white">
                                        <use xlink:href="#path-7"></use>
                                    </mask>
                                    <use id="蒙版" fill="#00AC48" xlink:href="#path-7"></use>
                                </g>
                                <path d="M10.3177184,8.86649703 C12.873159,8.56960923 14.8064854,6.57680575 14.6359238,4.40000793 C14.4653621,2.21647471 12.2555007,0.383598647 9.70006005,0.321602634 C9.5847827,0.31927136 9.00490327,0.212070482 7.96042178,0 C8.18035754,0.299508858 8.17948749,0.464434313 7.95781162,0.494776365 C7.63442315,0.539040407 7.05799049,0.624488105 6.22851365,0.751119457 C6.647518,1.07578959 6.72406895,1.38370937 6.4581665,1.67487879 C5.71459955,2.48910203 5.29880161,3.60599686 5.38185464,4.84399754 C5.55241627,7.37967918 7.76227774,9.17370173 10.3177184,8.86649703 Z" id="椭圆形" fill="#111514"></path>
                                <g id="路径-5" transform="translate(6.603496, 3.114767)">
                                    <mask id="mask-10" fill="white">
                                        <use xlink:href="#path-9"></use>
                                    </mask>
                                    <use id="蒙版" fill="#EED5BE" xlink:href="#path-9"></use>
                                    <path d="M3.61317348,-1.06363296 C5.67536628,-1.06363296 7.34710386,-0.203512659 7.34710386,0.857499499 C7.34710386,1.91851166 5.67536628,2.77863196 3.61317348,2.77863196 C3.01183547,2.77863196 2.44369837,2.70549482 1.94053188,2.57556626 C1.63247869,3.27474563 1.06994338,3.79893861 0.508765105,3.84399651 C-0.219583843,3.90247682 -0.669835902,3.1316971 -0.496901017,2.12241183 C-0.431996706,1.74361628 -0.288535823,1.38506067 -0.0961223377,1.0818173 C-0.112149194,1.00873357 -0.120756897,0.933633727 -0.120756897,0.857499499 C-0.120756897,-0.203512659 1.55098068,-1.06363296 3.61317348,-1.06363296 Z" id="形状结合" fill="#D4B090" opacity="0.4" mask="url(#mask-10)"></path>
                                    <path d="M-2.77111667e-14,4.63296975 C0.271173383,5.86557604 1.22028023,6.9749217 2.84732053,7.96100673 C4.47436083,8.94709176 5.96581443,8.82383113 7.32168135,7.59122484 L2.03380038,10.5494799 L-2.77111667e-14,4.63296975 Z" fill="#D4B090" opacity="0.4" mask="url(#mask-10)"></path>
                                </g>
                                <ellipse id="椭圆形" fill="#111514" cx="10.2166691" cy="3.68337426" rx="3.73393038" ry="1.92113246"></ellipse>
                                <path d="M6.699145,6.84320653 C7.42749395,6.78472623 8.15812885,5.91913121 8.33106374,4.90984594 C8.50399862,3.90056068 8.05374656,3.12978096 7.32539762,3.18826126 C6.59704867,3.24674156 5.86641376,4.11233659 5.69347888,5.12162185 C5.52054399,6.13090712 5.97079605,6.90168684 6.699145,6.84320653 Z" id="椭圆形备份-2" fill="#111514"></path>
                                <path d="M6.75330981,8.85708227 C7.18951339,8.85708227 7.42469716,8.34618375 7.27860747,7.71595848 C7.13251778,7.08573321 6.66047581,6.57483469 6.22427223,6.57483469 C5.78806866,6.57483469 5.55288488,7.08573321 5.69897457,7.71595848 C5.84506427,8.34618375 6.31710623,8.85708227 6.75330981,8.85708227 Z" id="椭圆形" fill="#EED5BE"></path>
                                <path d="M6.56950449,8.2218582 C6.70260469,8.2218582 6.77436708,8.01491196 6.72979026,7.75963084 C6.68521344,7.50434972 6.54117776,7.29740348 6.40807755,7.29740348 C6.27497735,7.29740348 6.20321497,7.50434972 6.24779179,7.75963084 C6.29236861,8.01491196 6.43640429,8.2218582 6.56950449,8.2218582 Z" id="椭圆形备份" fill="#D4B090" opacity="0.4"></path>
                            </g>
                            <polygon id="路径-83" fill="#008C3A" points="6.069623 11.3823487 7.81742019 10.5012278 7.81742019 13.0579229"></polygon>
                            <polygon id="路径-81" fill="#00AC48" points="6.069623 11.3823487 6.069623 13.5057056 12.1074679 17.477972 8.37353748 13.5057056 8.37353748 12.1912466"></polygon>
                        </g>
                        <polygon id="路径-85" fill="#2B3734" fill-rule="nonzero" points="14.8426325 10.35 16.05 10.9984801 3.52125635 29.85 2.25 29.5188276"></polygon>
                    </g>
                </g>
            </g>
        </g>
    </g>
</svg>