<?xml version="1.0" encoding="UTF-8"?>
<svg width="30px" height="30px" viewBox="0 0 30 30" version="1.1" xmlns="http://www.w3.org/2000/svg" xmlns:xlink="http://www.w3.org/1999/xlink">
    <title>查勘员备份</title>
    <defs>
        <rect id="path-1" x="0" y="0" width="30" height="30"></rect>
        <polygon id="path-3" points="9.45654071e-14 0 4.99205547 0 4.99205547 9.45465051 9.45654071e-14 9.45465051"></polygon>
        <path d="M0.520005778,6.1632503 C1.06167846,3.64201016 2.95753286,1.83971741 6.20756897,0.75637204 L12.3826376,11.3160348 L14.6867462,0.00391898151 C15.4434946,0.198458216 15.988473,0.360638554 16.3216814,0.490459995 C17.268833,0.859480113 17.9166735,1.48979015 18.2652029,2.3813901 C18.9368771,4.46929208 19.3485483,6.23219046 19.5002167,7.67008522 C19.7277192,9.82692737 19.9552217,12.8996888 19.2402138,13.8746996 C18.5252058,14.8497105 6.75357504,17.5088309 4.67355193,17.5088309 C2.59352882,17.5088309 0.0975010833,16.7524589 0.0975010833,14.8615288 C0.0975010833,12.9705987 -0.29250325,9.9451105 0.520005778,6.1632503 Z" id="path-5"></path>
        <path d="M4.16004622,9.27649676 C6.2278233,9.27649676 7.4880832,6.48828894 7.4880832,3.98189248 C7.4880832,-1.31271181 5.81181868,0.200032275 3.7440416,0.200032275 C1.67626452,0.200032275 0,1.47549602 0,3.98189248 C0,6.48828894 2.09226914,9.27649676 4.16004622,9.27649676 Z" id="path-7"></path>
    </defs>
    <g id="多色设计方案" stroke="none" stroke-width="1" fill="none" fill-rule="evenodd">
        <g id="控件库30*30" transform="translate(-416.000000, -860.000000)">
            <g id="查勘员备份" transform="translate(416.000000, 860.000000)">
                <mask id="mask-2" fill="white">
                    <use xlink:href="#path-1"></use>
                </mask>
                <use id="蒙版" fill="#D8D8D8" opacity="0" xlink:href="#path-1"></use>
                <g id="编组-8备份-2" mask="url(#mask-2)">
                    <g transform="translate(3.300000, 0.000000)">
                        <g id="编组备份-3" stroke-width="1" fill="none" fill-rule="evenodd" transform="translate(3.600000, 0.000000)">
                            <g id="路径" transform="translate(8.001589, 9.460202)">
                                <mask id="mask-4" fill="white">
                                    <use xlink:href="#path-3"></use>
                                </mask>
                                <use id="蒙版" fill="#EED5BE" xlink:href="#path-3"></use>
                                <polygon fill="#D4B090" mask="url(#mask-4)" points="-2.49602773 -1.51274408 4.38104868 0.821730185 -4.45904954 12.3445855"></polygon>
                            </g>
                            <path d="M0.522886696,18.5248484 C1.01039211,16.0430027 2.96041378,14.7370791 4.26042822,13.9866162 C5.12710452,13.4863076 6.37511839,12.9820596 8.00446982,12.4738721 L11.6055098,14.2229824 L12.9965253,12.0956861 C14.268065,12.230914 15.3774106,12.483038 16.3245623,12.8520581 C17.2717139,13.2210782 17.9195544,13.8513883 18.2680839,14.7429882 C18.939758,16.8308902 19.3514292,18.5937886 19.5030976,20.0316833 C19.7306001,22.1885255 19.9581026,25.2612869 19.2430947,26.2362977 C18.5280868,27.2113086 6.75645596,29.870429 4.67643285,29.870429 C2.59640974,29.870429 0.100382002,29.114057 0.100382002,27.2231269 C0.100382002,25.3321968 0.0353812796,21.0066942 0.522886696,18.5248484 Z" id="蒙版" fill="#205EA6"></path>
                            <g id="路径-2" transform="translate(0.000000, 12.373416)">
                                <mask id="mask-6" fill="white">
                                    <use xlink:href="#path-5"></use>
                                </mask>
                                <use id="蒙版" fill="#205EA6" xlink:href="#path-5"></use>
                                <polygon id="矩形" fill="#FFFFFF" points="13.2926477 4.99236841 17.4851943 3.84721835 17.4851943 6.09983331 13.2926477 7.24498337"></polygon>
                                <path d="M14.1785872,6.63665523 L14.1785872,5.61460563 C14.2368775,5.5018161 14.2838336,5.38765799 14.3194555,5.27213129 L14.1591571,5.24596474 C14.084675,5.49578256 13.9680943,5.72732109 13.8126535,5.93820444 L13.8677054,6.09000759 C13.9162807,6.02904173 13.9632368,5.96553914 14.0069546,5.90292255 L14.0069546,6.6836135 L14.1785872,6.63665523 Z M14.8554026,6.44999029 L14.8554026,5.90320866 L14.8667368,5.90010764 C14.960649,6.06213689 15.080468,6.18728073 15.2245747,6.2744923 L15.3346786,6.10879012 C15.1921911,6.05093291 15.0820872,5.96931697 15.0027476,5.86289542 L15.3022951,5.78093995 L15.3022951,5.62897339 L14.8554026,5.7512421 L14.8554026,5.63354251 L15.1679035,5.54804302 L15.1679035,5.04446756 L14.3777458,5.2606528 L14.3777458,5.76422826 L14.6870083,5.67961477 L14.6870083,5.79731436 L14.2563076,5.91515304 L14.2563076,6.0671196 L14.5396633,5.98959415 C14.453847,6.15014117 14.3453623,6.29007258 14.2125899,6.41281115 L14.3081212,6.52672161 C14.453847,6.3736214 14.5769044,6.18202717 14.6740549,5.95282494 L14.6870083,5.94928092 L14.6870083,6.49606256 L14.8554026,6.44999029 Z M15.0027476,5.44424245 L14.5429017,5.57005518 L14.5429017,5.36445337 L15.0027476,5.23864064 L15.0027476,5.44424245 Z M16.8728955,5.12625737 L16.9651885,4.97138769 C16.7530765,4.89235315 16.6041123,4.77369349 16.518296,4.6154087 L16.3693319,4.65616494 C16.268943,4.88178357 16.1232172,5.08255956 15.9337736,5.25953979 L16.0195899,5.35822985 C16.0778802,5.30503505 16.1345514,5.24632379 16.1879842,5.18402892 L16.1879842,5.26299193 L16.7061204,5.12123112 L16.7061204,5.04673771 C16.7546957,5.07665381 16.8113668,5.10286503 16.8728955,5.12625737 Z M15.6633713,6.22893202 L15.6633713,5.03852731 L15.8576723,4.98536701 C15.8188121,5.11518852 15.7637602,5.26284888 15.6941356,5.43088481 C15.799382,5.52574871 15.8528148,5.62286974 15.8528148,5.72269091 C15.8528148,5.7465288 15.8463381,5.76468937 15.8350039,5.77672959 C15.8220505,5.78921282 15.7961437,5.80226034 15.7589026,5.81542913 C15.7362342,5.82163117 15.707089,5.82662548 15.6714671,5.83041206 L15.7248999,5.97073927 C15.8398614,5.93779622 15.9208202,5.89627781 15.9693955,5.84425116 C16.001779,5.80410387 16.0179707,5.74901833 16.0179707,5.67750465 C16.0082557,5.57885163 15.9564421,5.47383825 15.8592915,5.36186066 C15.9224394,5.20453595 15.9774913,5.05538572 16.0228283,4.91634285 L16.0228283,4.80013313 L15.4982153,4.94366596 L15.4982153,6.27411828 L15.6633713,6.22893202 Z M16.6364958,5.00023262 L16.2495129,5.10611023 C16.3207566,5.01063483 16.3855236,4.90501251 16.4438139,4.78775338 C16.4923892,4.86981487 16.5571562,4.94148686 16.6364958,5.00023262 Z M16.4033345,5.71062779 L16.5474412,5.63693359 C16.5118193,5.48875362 16.4729591,5.36082794 16.4276222,5.25106281 L16.2835155,5.33518609 C16.3320908,5.45151455 16.370951,5.57646049 16.4033345,5.71062779 Z M16.9295666,5.84078771 L16.9295666,5.69180089 L16.6899286,5.75736527 C16.7563148,5.58425587 16.812986,5.3944362 16.8583229,5.18536952 L16.693167,5.18883947 C16.6445917,5.42560978 16.5895397,5.62988513 16.5247727,5.80255153 L15.9548229,5.95848843 L15.9548229,6.10747525 L16.9295666,5.84078771 Z M16.1636965,5.84472611 L16.3094224,5.77207878 C16.2673238,5.61971134 16.2219869,5.48759819 16.1701732,5.37513547 L16.0260666,5.45925875 C16.0811186,5.5782848 16.1280747,5.70697521 16.1636965,5.84472611 Z" id="保险" fill="#333333" fill-rule="nonzero"></path>
                                <polygon id="矩形" fill="#FFFFFF" points="11.5051278 1.80855933 11.8301314 1.80855933 11.8301314 16.2121285 11.5051278 16.2859929"></polygon>
                            </g>
                            <path d="M10.552212,8.38845532 C13.1657308,8.08482007 14.7671002,6.15585962 14.5926621,3.92958912 C14.4182241,1.69643014 13.0001444,0.0590915657 9.91261014,0.0590915657 C5.52506139,-0.325003611 4.55005056,2.03865902 4.77755308,4.57959634 C5.00505561,7.12053366 7.93869314,8.70264195 10.552212,8.38845532 Z" id="椭圆形" fill="#111514"></path>
                            <g id="路径-5" transform="translate(6.753575, 2.506004)">
                                <mask id="mask-8" fill="white">
                                    <use xlink:href="#path-7"></use>
                                </mask>
                                <use id="蒙版" fill="#EED5BE" xlink:href="#path-7"></use>
                                <path d="M3.69529106,-1.08780643 C5.80435188,-1.08780643 7.51408349,-0.208137947 7.51408349,0.876988124 C7.51408349,1.9621142 5.80435188,2.84178268 3.69529106,2.84178268 C3.07981265,2.84178268 2.49834204,2.76686808 1.98344609,2.63379475 C1.66909144,3.34962728 1.09401635,3.88529771 0.520327948,3.93136007 C-0.224574385,3.99116947 -0.685059445,3.20287203 -0.508194222,2.17064847 C-0.441799579,1.78315501 -0.295026103,1.416371 -0.0981714347,1.10619053 C-0.114700193,1.03164055 -0.123501372,0.954843151 -0.123501372,0.876988124 C-0.123501372,-0.208137947 1.58623024,-1.08780643 3.69529106,-1.08780643 Z" id="形状结合" fill="#D4B090" opacity="0.4" mask="url(#mask-8)"></path>
                                <path d="M-2.77111667e-14,4.73826452 C0.277336415,5.99888459 1.24801387,7.13344265 2.91203236,8.1419387 C4.57605085,9.15043475 6.10140113,9.02437275 7.4880832,7.76375268 L2.08002311,10.7892408 L-2.77111667e-14,4.73826452 Z" fill="#D4B090" opacity="0.4" mask="url(#mask-8)"></path>
                            </g>
                            <path d="M10.7576195,5.34778669 C14.2026578,4.6386879 14.5601618,3.58981261 14.2351582,2.7477578 C13.9101546,1.90570299 12.3466746,1.09319396 10.2376138,1.09319396 C8.12855293,1.09319396 6.63007367,2.00240823 6.63007367,3.08753431 C6.63007367,4.17266038 7.31258125,6.05688548 10.7576195,5.34778669 Z" id="椭圆形" fill="#111514"></path>
                            <path d="M7.15007945,8.03645293 C7.89498178,7.97664353 8.83478674,6.17641834 8.71009678,4.46141321 C8.58540682,2.74640807 7.31258125,2.39320841 6.46757186,3.1023072 C5.62256247,3.81140599 5.65506283,7.59326619 7.15007945,8.03645293 Z" id="椭圆形备份-2" fill="#111514"></path>
                            <path d="M6.90679413,8.37882659 C7.35291142,8.37882659 7.59344028,7.85631674 7.44403037,7.21176817 C7.29462045,6.5672196 6.81185026,6.04470975 6.36573297,6.04470975 C5.91961567,6.04470975 5.67908681,6.5672196 5.82849672,7.21176817 C5.97790664,7.85631674 6.46067683,8.37882659 6.90679413,8.37882659 Z" id="椭圆形" fill="#EED5BE"></path>
                            <path d="M6.71881141,7.72916561 C6.85493662,7.72916561 6.92832996,7.51751605 6.88274004,7.25643308 C6.83715011,6.99535012 6.68984089,6.78370056 6.55371568,6.78370056 C6.41759047,6.78370056 6.34419713,6.99535012 6.38978706,7.25643308 C6.43537698,7.51751605 6.58268621,7.72916561 6.71881141,7.72916561 Z" id="椭圆形备份" fill="#D4B090" opacity="0.4"></path>
                            <polygon id="路径-6" fill="#FFFFFF" points="8.0275892 12.4797812 11.6351293 14.2229824 10.7901199 15.5525427 6.37007078 13.0411511"></polygon>
                            <polygon id="路径-9备份" fill="#FFFFFF" points="11.6351293 14.1934367 12.870143 14.961627 13.9751553 12.2138692 13.0001444 12.0661403"></polygon>
                        </g>
                        <polygon id="矩形备份-4" fill="#D8D8D8" fill-rule="evenodd" points="0 14.3937213 11.4722513 11.1 12.45 11.3961477 11.4722513 25.960131 0.977748691 29.55 0 29.2538523"></polygon>
                        <polygon id="矩形" fill="#EFECEC" fill-rule="evenodd" points="1.05 14.6930224 12.45 11.4 12.45 26.2569776 1.05 29.55"></polygon>
                        <polygon id="矩形备份-3" fill="#FFFFFF" fill-rule="evenodd" points="1.65 15.4847965 11.7 12.6 11.7 25.6152035 1.65 28.5"></polygon>
                        <path d="M8.51163465,15.9404833 L8.7,15.5247675 C8.12234625,15.5708413 7.68282709,15.5329539 7.37307073,15.4136521 L8.51582054,15.0660436 L8.51582054,14.7 L6.99215413,15.163478 L6.99215413,14.8546288 L6.56519266,14.9845045 L6.56519266,15.2933537 L5.04152624,15.7568318 L5.04152624,16.1228753 L6.19264785,15.7727202 C5.87870559,16.0741166 5.42662874,16.383215 4.8322314,16.7089146 L5.07082752,16.9871287 C5.7363851,16.5597111 6.23450682,16.1260309 6.56519266,15.686088 L6.56519266,16.2885347 L6.99215413,16.158659 L6.99215413,15.5562123 C7.30609638,15.8076942 7.81258989,15.9357845 8.51163465,15.9404833 Z M8.0553719,17.4144952 L8.0553719,15.9475248 L5.4768595,16.73798 L5.4768595,18.2049505 L8.0553719,17.4144952 Z M7.63636364,16.639554 L5.89586777,17.1653465 L5.89586777,16.9485648 L7.63636364,16.4227723 L7.63636364,16.639554 Z M7.63636364,17.1957056 L5.89586777,17.729703 L5.89586777,17.521126 L7.63636364,16.9871287 L7.63636364,17.1957056 Z M8.57107438,17.8219562 L8.57107438,17.4623762 L4.92892562,18.5582418 L4.92892562,18.9178218 L8.57107438,17.8219562 Z M7.06299545,22.2445545 C7.50875358,21.5946584 7.74204756,20.7214849 7.76287738,19.625034 L8.16280992,19.5015572 C8.15447799,20.4940063 8.14614606,21.0743278 8.12948221,21.245094 C8.10448642,21.4184327 8.02949907,21.5263212 7.90452016,21.5649077 C7.79620509,21.5983493 7.67122618,21.6292325 7.5295834,21.6614089 L7.6337325,21.9913095 C7.79620509,21.9565537 7.90868612,21.9295292 7.97534154,21.9089497 C8.29612076,21.809911 8.47525721,21.6082406 8.51691685,21.3103556 C8.55024456,21.0073396 8.57107438,20.2305765 8.57107438,18.9903419 L7.76287738,19.2398679 L7.76287738,18.4425743 L7.34211503,18.5724822 L7.34211503,19.3697759 L6.9880081,19.4791043 L6.9880081,19.8642703 L7.34211503,19.7549419 C7.32545117,20.7345568 7.1254849,21.5088524 6.7338843,22.0765494 L7.06299545,22.2445545 Z M6.63526582,22.1862061 L6.63526582,21.8271165 L5.38509621,22.205993 L5.38509621,21.3617505 L7.05619835,20.8553062 L7.05619835,20.5038568 L6.70682435,20.6097381 L6.70682435,19.4331468 L7.03936105,19.3323682 L7.03936105,18.9961993 L6.70682435,19.0969778 L6.70682435,18.7990099 L6.2985198,18.9227507 L6.2985198,19.2207186 L5.59556248,19.4337569 L5.59556248,19.1396091 L5.1830486,19.2646255 L5.1830486,19.5587734 L4.83788393,19.663379 L4.83788393,19.999548 L5.1830486,19.8949423 L5.1830486,21.0715337 L4.8,21.1876204 L4.8,21.5390698 L4.97258234,21.486767 L4.97258234,22.690099 L6.63526582,22.1862061 Z M6.28264463,19.7758596 L5.60578512,19.9871287 L5.60578512,19.7825563 L6.28264463,19.5712871 L6.28264463,19.7758596 Z M6.28264463,20.2707273 L5.60578512,20.4920792 L5.60578512,20.2975895 L6.28264463,20.0762376 L6.28264463,20.2707273 Z M6.28264463,20.7244122 L5.60578512,20.9376238 L5.60578512,20.7349937 L6.28264463,20.5217822 L6.28264463,20.7244122 Z M6.58923131,21.7693069 L6.89504132,21.4680085 C6.80533705,21.3419485 6.67485811,21.205617 6.51175943,21.0564356 L6.21818182,21.3191215 C6.37312556,21.4786023 6.49952703,21.6278047 6.58923131,21.7693069 Z M5.7196826,22.0366337 C5.86086802,21.8252951 5.98544339,21.5889642 6.0892562,21.3326436 L5.78197029,21.2940594 C5.67815748,21.5278788 5.55358211,21.7379582 5.41239669,21.9305458 L5.7196826,22.0366337 Z M7.99090909,23.3784412 L7.99090909,22.3336634 L5.54132231,23.0710637 L5.54132231,24.1158416 L7.99090909,23.3784412 Z M7.53966942,23.1886313 L5.96033058,23.670297 L5.96033058,23.3202796 L7.53966942,22.8386139 L7.53966942,23.1886313 Z M5.7223747,25.8246026 L5.7223747,24.6696051 L7.7776253,24.0476353 L7.7776253,25.1414409 L8.21652893,25.0086178 L8.21652893,23.5514851 L5.28347107,24.4391012 L5.28347107,25.9574257 L5.7223747,25.8246026 Z M5.07043561,26.7 C5.90100425,26.3815169 6.41799085,26.0695652 6.6298706,25.7692289 C6.83327516,25.5210542 6.96464061,25.0999101 7.02396694,24.5019802 L6.57478186,24.5989062 C6.5451187,25.0581586 6.43494123,25.4118687 6.24424945,25.6524037 C6.0238945,25.9094925 5.57470943,26.1552569 4.89669421,26.3896968 L5.07043561,26.7 Z M8.36826203,25.690099 L8.60330579,25.3091416 C8.15000711,25.2661277 7.65473633,25.2639822 7.11329624,25.2967006 L6.89504132,25.6368025 C7.39870652,25.6077079 7.88978009,25.6254734 8.36826203,25.690099 Z" id="查勘员" fill="#333333" fill-rule="nonzero"></path>
                    </g>
                </g>
            </g>
        </g>
    </g>
</svg>