<?xml version="1.0" standalone="no"?><!DOCTYPE svg PUBLIC "-//W3C//DTD SVG 1.1//EN" "http://www.w3.org/Graphics/SVG/1.1/DTD/svg11.dtd"><svg t="1692090284168" class="icon" viewBox="0 0 1024 1024" version="1.1" xmlns="http://www.w3.org/2000/svg" p-id="4257" xmlns:xlink="http://www.w3.org/1999/xlink" width="200" height="200"><path d="M309.333333 128L310.954667 128a106.24 106.24 0 0 1 73.728 31.146667L520.533333 295.04a42.624 42.624 0 1 1-60.330666 60.330667L351.957333 247.04v606.293333a42.666667 42.666667 0 1 1-85.333333 0V247.04L158.506667 355.413333A42.624 42.624 0 1 1 98.133333 295.04l135.68-135.808a106.325333 106.325333 0 0 1 75.434667-31.274667z m405.333334 0a42.666667 42.666667 0 0 1 42.666666 42.666667v606.165333l108.16-108.202667a42.624 42.624 0 1 1 60.330667 60.373334l-135.68 135.808a106.368 106.368 0 0 1-75.52 31.232l-4.437333-0.298667-3.712-0.128a106.24 106.24 0 0 1-67.242667-30.762667L503.466667 728.96a42.624 42.624 0 1 1 60.330666-60.330667l108.16 108.16V170.666667a42.666667 42.666667 0 0 1 42.666667-42.666667z" fill="#2c2c2c" p-id="4258"></path></svg>