<?xml version="1.0" encoding="UTF-8"?>
<svg width="30px" height="30px" viewBox="0 0 30 30" version="1.1" xmlns="http://www.w3.org/2000/svg" xmlns:xlink="http://www.w3.org/1999/xlink">
    <title>城市备份</title>
    <defs>
        <rect id="path-1" x="0" y="0" width="30" height="30"></rect>
    </defs>
    <g id="多色设计方案" stroke="none" stroke-width="1" fill="none" fill-rule="evenodd">
        <g id="控件库30*30" transform="translate(-166.000000, -709.000000)">
            <g id="城市备份" transform="translate(166.000000, 709.000000)">
                <mask id="mask-2" fill="white">
                    <use xlink:href="#path-1"></use>
                </mask>
                <use id="蒙版" fill="#D8D8D8" opacity="0" xlink:href="#path-1"></use>
                <g id="编组-27" mask="url(#mask-2)">
                    <g transform="translate(1.500000, 1.650000)">
                        <g id="编组-25" stroke-width="1" fill="none" transform="translate(12.075688, 0.000000)">
                            <polygon id="多边形备份-7" fill="#FEEBA5" points="4.4587156 0 7.43119266 1.67201835 4.4587156 3.3440367 1.48623853 1.67201835"></polygon>
                            <polygon id="多边形备份-8" fill="#FEEBA5" points="4.4587156 0.866972477 8.91743119 3.4059633 4.4587156 5.94495413 0 3.4059633"></polygon>
                            <polygon id="路径-133" fill="#FFDC5C" points="0 3.4059633 4.4587156 5.94495413 4.4587156 22.4174312 0 19.8784404"></polygon>
                            <polygon id="路径-139" fill="#F3D7C8" points="6.68807339 4.89220183 11.5802752 7.74082569 11.5802752 17.2775229 6.68807339 14.2431193"></polygon>
                            <polygon id="路径-140" fill="#ECAD90" points="11.5802752 7.74082569 14.4288991 6.13073394 14.4288991 15.7912844 11.5802752 17.2775229"></polygon>
                            <path d="M12.6226147,13.8285744 L12.6226147,14.6845744 L12.1376147,14.9862385 L12.1376147,14.0835744 L12.6226147,13.8285744 Z M13.2466147,13.5005744 L13.2466147,14.2985744 L12.8626147,14.5365744 L12.8626147,13.7025744 L13.2466147,13.5005744 Z M13.8706147,13.1725744 L13.8706147,13.9115744 L13.4866147,14.1495744 L13.4866147,13.3745744 L13.8706147,13.1725744 Z M12.6226147,12.8745744 L12.6226147,13.4945744 L12.1376147,13.7495744 L12.1376147,13.1295744 L12.6226147,12.8745744 Z M13.2466147,12.5465744 L13.2466147,13.1665744 L12.8626147,13.3685744 L12.8626147,12.7485744 L13.2466147,12.5465744 Z M13.8706147,12.2185744 L13.8706147,12.8385744 L13.4866147,13.0405744 L13.4866147,12.4205744 L13.8706147,12.2185744 Z M12.6226147,11.9195744 L12.6226147,12.5395744 L12.1376147,12.7945744 L12.1376147,12.1745744 L12.6226147,11.9195744 Z M13.2466147,11.5915744 L13.2466147,12.2115744 L12.8626147,12.4135744 L12.8626147,11.7935744 L13.2466147,11.5915744 Z M13.8706147,11.2635744 L13.8706147,11.8835744 L13.4866147,12.0855744 L13.4866147,11.4655744 L13.8706147,11.2635744 Z M12.6226147,10.9645744 L12.6226147,11.5855744 L12.1376147,11.8405744 L12.1376147,11.2195744 L12.6226147,10.9645744 Z M13.2466147,10.6365744 L13.2466147,11.2575744 L12.8626147,11.4595744 L12.8626147,10.8385744 L13.2466147,10.6365744 Z M13.8706147,10.3085744 L13.8706147,10.9295744 L13.4866147,11.1315744 L13.4866147,10.5105744 L13.8706147,10.3085744 Z M12.6226147,10.0105744 L12.6226147,10.6305744 L12.1376147,10.8855744 L12.1376147,10.2655744 L12.6226147,10.0105744 Z M13.2466147,9.68257445 L13.2466147,10.3025744 L12.8626147,10.5045744 L12.8626147,9.88457445 L13.2466147,9.68257445 Z M13.8706147,9.35457445 L13.8706147,9.97457445 L13.4866147,10.1765744 L13.4866147,9.55657445 L13.8706147,9.35457445 Z M12.6226147,9.05657445 L12.6226147,9.67657445 L12.1376147,9.93157445 L12.1376147,9.31057445 L12.6226147,9.05657445 Z M13.2466147,8.72857445 L13.2466147,9.34857445 L12.8626147,9.55057445 L12.8626147,8.92957445 L13.2466147,8.72857445 Z M13.8706147,8.40057445 L13.8706147,9.02057445 L13.4866147,9.22257445 L13.4866147,8.60157445 L13.8706147,8.40057445 Z M12.6226147,8.04957445 L12.6226147,8.72257445 L12.1376147,8.97657445 L12.1376147,8.33817259 L12.6226147,8.04957445 Z M13.2466147,7.67857445 L13.2466147,8.39457445 L12.8626147,8.59557445 L12.8626147,7.90657445 L13.2466147,7.67857445 Z M13.8706147,7.30757445 L13.8706147,8.06657445 L13.4866147,8.26757445 L13.4866147,7.53557445 L13.8706147,7.30757445 Z" id="形状结合" fill="#DF664A"></path>
                            <polygon id="路径-141" fill="#FCF7E0" points="6.68807339 4.89220183 11.5802752 7.74082569 14.4288991 6.13073394 9.66055046 3.28211009"></polygon>
                            <polygon id="路径-141备份" fill="#DF664A" points="8.08142202 5.11582569 11.2124312 6.93577982 13.0355505 5.90711009 9.98380734 4.08715596"></polygon>
                            <polygon id="路径-134" fill="#FCAB01" points="4.4587156 5.94495413 8.91743119 3.4059633 8.9793578 19.8784404 4.4587156 22.4174312"></polygon>
                            <path d="M6.19161468,15.614386 L6.19161468,17.041386 L5.38761468,17.5424903 L5.38761468,16.039386 L6.19161468,15.614386 Z M7.22561468,15.068386 L7.22561468,16.397386 L6.58961468,16.793386 L6.58961468,15.404386 L7.22561468,15.068386 Z M8.25861468,14.522386 L8.25861468,15.753386 L7.62261468,16.149386 L7.62261468,14.858386 L8.25861468,14.522386 Z M6.19161468,14.024386 L6.19161468,15.058386 L5.38761468,15.483386 L5.38761468,14.449386 L6.19161468,14.024386 Z M7.22561468,13.478386 L7.22561468,14.511386 L6.58961468,14.848386 L6.58961468,13.814386 L7.22561468,13.478386 Z M8.25861468,12.932386 L8.25861468,13.965386 L7.62261468,14.302386 L7.62261468,13.268386 L8.25861468,12.932386 Z M6.19161468,12.434386 L6.19161468,13.468386 L5.38761468,13.893386 L5.38761468,12.859386 L6.19161468,12.434386 Z M7.22561468,11.888386 L7.22561468,12.921386 L6.58961468,13.258386 L6.58961468,12.224386 L7.22561468,11.888386 Z M8.25861468,11.342386 L8.25861468,12.375386 L7.62261468,12.712386 L7.62261468,11.678386 L8.25861468,11.342386 Z M6.19161468,10.844386 L6.19161468,11.878386 L5.38761468,12.303386 L5.38761468,11.269386 L6.19161468,10.844386 Z M7.22561468,10.298386 L7.22561468,11.331386 L6.58961468,11.668386 L6.58961468,10.634386 L7.22561468,10.298386 Z M8.25861468,9.75238601 L8.25861468,10.785386 L7.62261468,11.122386 L7.62261468,10.088386 L8.25861468,9.75238601 Z M6.19161468,9.25438601 L6.19161468,10.288386 L5.38761468,10.713386 L5.38761468,9.67938601 L6.19161468,9.25438601 Z M7.22561468,8.70838601 L7.22561468,9.74138601 L6.58961468,10.078386 L6.58961468,9.04438601 L7.22561468,8.70838601 Z M8.25861468,8.16238601 L8.25861468,9.19538601 L7.62261468,9.53238601 L7.62261468,8.49838601 L8.25861468,8.16238601 Z M6.19161468,7.66438601 L6.19161468,8.69838601 L5.38761468,9.12338601 L5.38761468,8.08938601 L6.19161468,7.66438601 Z M7.22561468,7.11838601 L7.22561468,8.15138601 L6.58961468,8.48838601 L6.58961468,7.45438601 L7.22561468,7.11838601 Z M8.25861468,6.57238601 L8.25861468,7.60538601 L7.62261468,7.94238601 L7.62261468,6.90838601 L8.25861468,6.57238601 Z M6.19161468,5.98938601 L6.19161468,7.10738601 L5.38761468,7.53238601 L5.38761468,6.46966831 L6.19161468,5.98938601 Z M7.22561468,5.37138601 L7.22561468,6.56138601 L6.58961468,6.89738601 L6.58961468,5.75138601 L7.22561468,5.37138601 Z M8.25861468,4.75438601 L8.25861468,6.01538601 L7.62261468,6.35138601 L7.62261468,5.13438601 L8.25861468,4.75438601 Z" id="形状结合" fill="#FFFFFF"></path>
                            <polygon id="路径-131" fill="#FFDC5C" points="1.48623853 1.67201835 4.4587156 3.3440367 4.4587156 5.07798165 1.48623853 3.4059633"></polygon>
                            <polygon id="路径-132" fill="#FCAB01" points="4.4587156 3.3440367 7.43119266 1.67201835 7.43119266 3.4059633 4.4587156 5.07798165"></polygon>
                            <polygon id="多边形备份-9" fill="#FCAB01" points="4.4587156 0.743119266 6.06880734 1.67201835 4.4587156 2.60091743 2.84862385 1.67201835"></polygon>
                        </g>
                        <g id="编组-26" stroke-width="1" fill="none" transform="translate(19.506881, 8.607798)">
                            <polygon id="路径-135" fill="#D2F3FA" points="-8.76592377e-16 1.79587156 1.48623853 0 1.54816514 2.60091743"></polygon>
                            <polygon id="路径-136" fill="#62BBEE" points="0 1.79587156 1.54816514 2.60091743 1.54816514 10.0940367 0 9.47477064"></polygon>
                            <polygon id="路径-137" fill="#98E9F7" points="1.48623853 -8.7917059e-16 3.03440367 1.91972477 1.54816514 2.60091743"></polygon>
                            <polygon id="路径-138" fill="#4577E6" points="1.54816514 2.60091743 3.03440367 1.91972477 3.03440367 9.28899083 1.54816514 10.0940367"></polygon>
                        </g>
                        <g id="编组-24" stroke-width="1" fill="none" transform="translate(0.000000, 2.786697)">
                            <polygon id="路径-113" fill="#F3D7C8" points="0 3.59174312 3.15825688 5.32568807 3.15825688 16.9678899 0 15.2958716"></polygon>
                            <polygon id="路径-113备份-2" fill="#FFFFFF" points="0.712155963 6.75 2.44610092 7.66513761 2.44610092 12.5711009 0.712155963 11.5647936"></polygon>
                            <polygon id="路径-113备份" fill="#DF664A" points="0 12.2614679 3.15825688 13.9954128 3.15825688 16.9678899 0 15.2958716"></polygon>
                            <polygon id="路径-114" fill="#ECAD90" points="3.15825688 5.32568807 9.47477064 1.73394495 9.47477064 13.6238532 3.15825688 16.9678899"></polygon>
                            <polygon id="路径-114备份" fill="#DF664A" points="3.15825688 13.9954128 9.47477064 10.4036697 9.47477064 13.6238532 3.15825688 16.9678899"></polygon>
                            <polygon id="路径-115" fill="#FCF7E0" points="0 3.59174312 3.15825688 5.32568807 9.47477064 1.73394495 6.31651376 -1.12655441e-13"></polygon>
                            <polygon id="路径-115备份" fill="#DF664A" opacity="0.400000006" points="1.64105505 3.26770856 3.70527523 4.39678899 7.8337156 2.05797952 5.76949541 0.928899083"></polygon>
                            <polygon id="路径-118" fill="#62BBEE" points="7.98853211 9.0412844 11.456422 10.9610092 11.456422 21.4885321 7.98853211 19.6307339"></polygon>
                            <polygon id="路径-118备份" fill="#C1D9F5" points="7.98853211 18.4541284 11.456422 20.3738532 11.456422 21.4885321 7.98853211 19.6307339"></polygon>
                        </g>
                        <polygon id="多边形备份-6" fill="#98E9F7" points="11.456422 9.90825688 14.9243119 11.8279817 11.456422 13.7477064 7.98853211 11.8279817"></polygon>
                        <polygon id="路径-116" fill="#3FA5E5" points="9.35091743 9.22706422 11.456422 10.4036697 11.456422 12.6330275 9.35091743 11.456422"></polygon>
                        <polygon id="路径-117" fill="#3889BA" points="11.456422 12.6330275 13.5619266 11.456422 13.5619266 9.22706422 11.456422 10.4036697"></polygon>
                        <polygon id="多边形" fill="#79CBFF" points="11.456422 8.05045872 13.5619266 9.22706422 11.456422 10.4036697 9.35091743 9.22706422"></polygon>
                        <polygon id="路径-119" fill="#4577E6" points="11.456422 13.7477064 14.9243119 11.8279817 14.9243119 22.293578 11.456422 24.2752294"></polygon>
                        <polygon id="路径-119备份" fill="#C1D9F5" points="11.456422 23.1605505 14.9243119 21.2408257 14.9243119 22.293578 11.456422 24.2752294"></polygon>
                        <polygon id="路径-120" fill="#F5FAFF" points="5.75917431 14.9243119 4.64449541 16.162844 6.75 17.3394495 7.67889908 15.9770642"></polygon>
                        <polygon id="路径-121" fill="#CFD9E6" points="4.64449541 16.162844 6.75 17.3394495 6.75 21.7362385 4.64449541 20.6215596"></polygon>
                        <polygon id="路径-121备份" fill="#2F62B2" points="4.64449541 19.8784404 6.75 21.0550459 6.75 21.7362385 4.64449541 20.6215596"></polygon>
                        <polygon id="路径-122" fill="#B3C0D2" points="6.75 17.3394495 6.75 21.7362385 7.67889908 21.2408257 7.67889908 15.9770642"></polygon>
                        <polygon id="路径-122备份" fill="#2F62B2" points="6.75 21.0550459 6.75 21.7362385 7.67889908 21.2408257 7.67889908 20.559633"></polygon>
                        <polygon id="路径-123" fill="#CFD9E6" points="13.0045872 20.1880734 14.1811927 18.9495413 15.543578 21.4885321 15.543578 26.690367 13.0045872 25.3899083"></polygon>
                        <polygon id="路径-123备份-2" fill="#2F62B2" points="13.0045872 23.9036697 15.543578 25.2041284 15.543578 26.690367 13.0045872 25.3899083"></polygon>
                        <polygon id="路径-123备份" fill="#D8D8D8" opacity="0.5" points="15.6055046 18.8256881 16.7821101 17.587156 18.1444954 20.1261468 18.1444954 25.3279817 15.6055046 24.0275229"></polygon>
                        <polygon id="路径-126" fill="#B3C0D2" points="17.896789 17.587156 20.0022936 18.9495413 20.0022936 23.9655963 17.896789 22.7270642"></polygon>
                        <polygon id="路径-126备份" fill="#2F62B2" points="17.896789 21.7981651 20.0022936 23.1605505 20.0022936 23.9655963 17.896789 22.7270642"></polygon>
                        <polygon id="路径-130" fill="#F5FAFF" points="24.3990826 16.4724771 26.9380734 15.233945 24.4610092 13.9954128 22.912844 14.8004587"></polygon>
                        <polygon id="路径-124" fill="#F5FAFF" points="14.1811927 18.9495413 16.8440367 17.587156 18.1444954 20.1261468 15.543578 21.4885321"></polygon>
                        <polygon id="路径-125" fill="#B3C0D2" points="15.543578 21.4885321 18.1444954 20.1261468 18.1444954 25.3279817 15.543578 26.690367"></polygon>
                        <polygon id="路径-125备份" fill="#2F62B2" points="15.543578 25.2041284 18.1444954 23.8417431 18.1444954 25.3279817 15.543578 26.690367"></polygon>
                        <polygon id="路径-127" fill="#F5FAFF" points="17.896789 17.587156 20.0022936 16.4724771 22.1077982 17.7110092 20.0022936 18.9495413"></polygon>
                        <polygon id="路径-127备份" fill="#F5FAFF" points="20.0022936 15.4816514 22.2316514 14.2431193 24.3990826 15.4816514 22.1077982 16.7201835"></polygon>
                        <polygon id="路径-128" fill="#CFD9E6" points="20.0022936 15.4816514 22.1077982 16.7201835 22.1077982 17.7110092 20.0022936 16.4724771"></polygon>
                        <polygon id="路径-129" fill="#CFD9E6" points="20.0022936 23.9655963 20.0022936 18.9495413 22.1077982 17.7110092 22.1077982 16.7201835 24.3990826 15.4816514 24.3990826 16.4724771 26.9380734 15.233945 26.9380734 20.0022936"></polygon>
                        <polygon id="路径-125" fill="#F2F8FF" points="22.603211 18.1877272 24.337156 17.2155963 24.337156 20.4544746 22.603211 21.4266055"></polygon>
                        <polygon id="路径-129备份" fill="#2F62B2" points="20.0022936 23.9655963 20.0022936 23.1605505 26.9380734 19.3211009 26.9380734 20.0022936"></polygon>
                    </g>
                </g>
            </g>
        </g>
    </g>
</svg>