<?xml version="1.0" encoding="UTF-8"?>
<svg width="30px" height="30px" viewBox="0 0 30 30" version="1.1" xmlns="http://www.w3.org/2000/svg" xmlns:xlink="http://www.w3.org/1999/xlink">
    <title>车主备份</title>
    <defs>
        <rect id="path-1" x="0" y="0" width="30" height="30"></rect>
        <polygon id="path-3" points="1.97871324e-16 7.91641076 23.5918431 6.99794277e-13 23.5918431 16.7054115 1.97871324e-16 24.6218222"></polygon>
        <linearGradient x1="9.86662111%" y1="100%" x2="95.5442081%" y2="0%" id="linearGradient-5">
            <stop stop-color="#00BF78" offset="0%"></stop>
            <stop stop-color="#1DC084" offset="100%"></stop>
        </linearGradient>
        <linearGradient x1="49.8922125%" y1="11.2827911%" x2="50.170375%" y2="116.864056%" id="linearGradient-6">
            <stop stop-color="#00B572" offset="0%"></stop>
            <stop stop-color="#007E3E" offset="100%"></stop>
        </linearGradient>
        <linearGradient x1="27.0093715%" y1="45.2321757%" x2="86.34028%" y2="58.2339633%" id="linearGradient-7">
            <stop stop-color="#007E3E" offset="0%"></stop>
            <stop stop-color="#00B572" offset="100%"></stop>
        </linearGradient>
        <path d="M4.18344528,10.6332558 L12.3954411,7.47531838 C12.4241405,7.46428201 12.4563526,7.47860065 12.467389,7.50729996 C12.4698412,7.51367695 12.4710988,7.52045084 12.4710988,7.52728308 L12.4710988,17.9031665 C12.4710988,17.9262042 12.45691,17.9468624 12.4354074,17.9551312 L4.22341151,21.1130687 C4.1947122,21.124105 4.16250006,21.1097864 4.15146369,21.0810871 C4.14901141,21.0747101 4.14775385,21.0679362 4.14775385,21.061104 L4.14775385,10.6852205 C4.14775385,10.6621829 4.1619427,10.6415247 4.18344528,10.6332558 Z" id="path-8"></path>
    </defs>
    <g id="多色设计方案" stroke="none" stroke-width="1" fill="none" fill-rule="evenodd">
        <g id="控件库30*30" transform="translate(-216.000000, -860.000000)">
            <g id="车主备份" transform="translate(216.000000, 860.000000)">
                <mask id="mask-2" fill="white">
                    <use xlink:href="#path-1"></use>
                </mask>
                <use id="蒙版" fill="#D8D8D8" opacity="0" xlink:href="#path-1"></use>
                <g id="编组-2备份-5" mask="url(#mask-2)">
                    <g transform="translate(2.550000, 2.250000)">
                        <g id="编组" stroke="none" stroke-width="1" fill="none" fill-rule="evenodd">
                            <g id="椭圆形" transform="translate(1.197003, 0.779444)">
                                <mask id="mask-4" fill="white">
                                    <use xlink:href="#path-3"></use>
                                </mask>
                                <use id="蒙版" fill="#007E3E" xlink:href="#path-3"></use>
                                <ellipse fill="url(#linearGradient-5)" opacity="0.200000003" mask="url(#mask-4)" cx="-1.55888735" cy="8.69890143" rx="16.8972254" ry="17.7045063"></ellipse>
                            </g>
                            <polygon id="路径-43" fill="url(#linearGradient-6)" points="0 7.91945775 1.19700279 8.69890143 1.19700279 25.4012659 0 24.6218222"></polygon>
                            <polygon id="路径-44" fill="url(#linearGradient-7)" points="0 7.91945775 23.5918431 0 24.7888459 0.779443676 1.19700279 8.69890143"></polygon>
                        </g>
                        <polygon id="路径" stroke="none" fill="#D2F4E3" fill-rule="evenodd" points="23.6338457 5.41410308 23.6338457 6.53479237 14.1970098 9.95157876 14.1970098 8.83088925"></polygon>
                        <path d="M9.50953471,10.5807491 C9.80213056,10.4576051 10.0732065,10.5933401 10.2287542,10.9408968 L10.5845885,11.7370704 C10.6247968,11.6554957 10.6623624,11.606104 10.6946423,11.5925185 L11.0810576,11.4298889 C11.1911114,11.3835708 11.3576078,11.5256579 11.3576078,11.8514304 C11.354965,12.0377119 11.2664312,12.1863884 11.0300893,12.2811493 C10.9885595,12.2986278 10.9362698,12.3165548 10.8745415,12.3403373 L11.1348575,12.9692591 C11.2099885,13.1494851 11.2501969,13.3757936 11.2515183,13.623176 L11.2635996,16.29112 L11.2635996,16.511754 C11.2635996,16.8042587 11.1214547,17.1004092 10.9455196,17.1744545 L10.6667041,17.2917989 C10.5823287,17.327393 10.5013947,17.3057663 10.4417322,17.2316832 C10.3820698,17.1576001 10.348574,17.0371387 10.3486241,16.8968374 L10.3486241,16.6762035 L6.32212768,18.3708248 L6.32212768,18.5914587 C6.32212768,18.8839634 6.17979396,19.1801934 6.00404768,19.2541593 L5.7248546,19.3716626 C5.64047919,19.4072567 5.55954517,19.3856299 5.49988273,19.3115468 C5.44022029,19.2374637 5.40672448,19.1170023 5.4067746,18.976701 L5.4067746,18.7560671 L5.4028104,16.0821961 C5.4028104,15.8367683 5.4405647,15.5798448 5.51418559,15.334817 L5.76657311,14.4923119 C5.72504338,14.5119874 5.68332487,14.5317423 5.64179514,14.5492208 C5.4041318,14.6558363 5.31691936,14.5789288 5.31691936,14.3959565 C5.31691936,14.072381 5.48473724,13.7873949 5.59346963,13.741633 L5.97988492,13.5790033 C6.00820065,13.5670862 6.04161321,13.5775039 6.07917874,13.6131646 L6.44426285,12.5179738 C6.59990272,12.0488698 6.86851022,11.6918888 7.15687532,11.5709069 L9.50953471,10.5807491 Z M5.87366484,16.3287336 C5.87366484,16.6648581 6.03535199,16.8657482 6.23545616,16.7796173 C6.43574682,16.6934062 6.59743397,16.353009 6.59743397,16.0172016 C6.59743397,15.6810771 6.43444139,15.481066 6.23564265,15.566635 C6.03535199,15.6528461 5.87366484,15.9929262 5.87366484,16.3287336 Z M10.4388846,13.7853144 C10.2387804,13.8714323 10.0770932,14.2114615 10.0770932,14.5472186 C10.0770932,14.8832928 10.2387804,15.0841527 10.4388846,14.9980348 C10.6391752,14.9118365 10.8008624,14.5714903 10.8008624,14.2357332 C10.8008624,13.8996591 10.6391752,13.6991161 10.439071,13.7852341 L10.4388846,13.7853144 Z M7.26076304,12.2226164 C7.03876135,12.3159923 6.83284675,12.5925385 6.71701978,12.95635 L6.4183679,13.8913978 C6.40355155,13.9372909 6.39891502,13.9871114 6.40549438,14.0297264 C6.41207374,14.0723414 6.42932059,14.1041988 6.45338096,14.1181799 C6.46980858,14.1288004 6.48893179,14.1300382 6.50845554,14.1217477 L10.1657109,12.5834734 C10.2041858,12.5676725 10.2397423,12.5183043 10.2585212,12.4546082 C10.2773001,12.3909121 10.2763295,12.3229686 10.2559878,12.2772606 L9.95582184,11.5962821 C9.83990512,11.3322893 9.63464927,11.2281614 9.41359266,11.321205 L7.26076304,12.2226164 Z" id="形状" stroke="none" fill="#D2F4E3" fill-rule="evenodd"></path>
                        <polygon id="路径备份-54" stroke="none" fill="#D2F4E3" fill-rule="evenodd" points="21.9636093 8.75457598 21.9636093 9.87526526 14.1970098 12.7353062 14.1970098 11.6146167"></polygon>
                        <polygon id="路径备份" stroke="none" fill="#D2F4E3" fill-rule="evenodd" points="18.0942282 14.417275 14.1970098 15.8530809 14.1970098 14.7278574 18.0942282 13.2920517"></polygon>
                        <mask id="mask-9" fill="white">
                            <use xlink:href="#path-8"></use>
                        </mask>
                        <path stroke="#B5EDD1" stroke-width="0.5" d="M12.1480794,7.83985476 L12.2198553,17.7326814 L4.47077325,20.7485323 L4.39899735,10.8557057 L12.1480794,7.83985476 Z"></path>
                    </g>
                </g>
            </g>
        </g>
    </g>
</svg>