<?xml version="1.0" encoding="UTF-8"?>
<svg width="30px" height="30px" viewBox="0 0 30 30" version="1.1" xmlns="http://www.w3.org/2000/svg" xmlns:xlink="http://www.w3.org/1999/xlink">
    <title>代办人备份</title>
    <defs>
        <rect id="path-1" x="0" y="0" width="30" height="30"></rect>
        <polygon id="path-3" points="9.72562926e-14 0 5.13410583 0 5.13410583 9.72368528 9.72562926e-14 9.72368528"></polygon>
        <path d="M13.5330814,0.00841499471 L15.1046617,0.307895662 C15.8829436,0.507970566 16.4434295,0.674765792 16.7861194,0.808281339 C17.7602225,1.18780203 18.4264976,1.83604771 18.7849445,2.75301839 C19.4757313,4.90033223 19.8991168,6.71339438 20.0551009,8.19220485 C20.2890771,10.4104205 20.5230532,13.5706183 19.7876995,14.5733733 C19.4200227,15.0747508 16.2095353,16.0091362 12.8235658,16.8181772 L12.1213914,16.9835934 C8.95821334,17.7182694 5.80237867,18.3109148 4.80653918,18.3109148 C2.66732842,18.3109148 0.100275504,17.53302 0.100275504,15.588283 C0.100275504,13.6435459 -0.300826513,10.5319666 0.53480269,6.6424925 C1.09188883,4.04950976 3.0416903,2.19593226 6.38420711,1.08175999 L8.15655032,0.429601539 C8.15601182,0.443357847 8.15574103,0.457154968 8.15574103,0.470991006 C8.15574103,1.40239254 9.38286754,2.15744267 10.8966048,2.15744267 C12.4103421,2.15744267 13.6374686,1.40239254 13.6374686,0.470991006 C13.6374686,0.310582963 13.6010714,0.155405591 13.5330814,0.00841499471 Z" id="path-5"></path>
        <path d="M4.27842152,9.54046212 C6.40503779,9.54046212 7.70115874,6.67291504 7.70115874,4.09519836 C7.70115874,-1.35006539 5.97719563,0.20572425 3.85057937,0.20572425 C1.72396311,0.20572425 0,1.51748168 0,4.09519836 C0,6.67291504 2.15180526,9.54046212 4.27842152,9.54046212 Z" id="path-7"></path>
    </defs>
    <g id="多色设计方案" stroke="none" stroke-width="1" fill="none" fill-rule="evenodd">
        <g id="控件库30*30" transform="translate(-266.000000, -633.000000)">
            <g id="代办人备份" transform="translate(266.000000, 633.000000)">
                <mask id="mask-2" fill="white">
                    <use xlink:href="#path-1"></use>
                </mask>
                <use id="蒙版" fill="#D8D8D8" opacity="0" xlink:href="#path-1"></use>
                <g id="代办人" mask="url(#mask-2)">
                    <g transform="translate(3.300000, -0.150000)">
                        <g id="编组">
                            <g id="路径" transform="translate(8.229276, 8.878573)">
                                <mask id="mask-4" fill="white">
                                    <use xlink:href="#path-3"></use>
                                </mask>
                                <use id="蒙版" fill="#D4B090" xlink:href="#path-3"></use>
                                <polygon fill="#D4B090" mask="url(#mask-4)" points="-2.56705291 -1.55578964 4.50571267 0.845112751 -4.58593307 12.6958542"></polygon>
                            </g>
                            <path d="M0.537765586,18.2011558 C1.03914311,15.6486884 3.0446532,14.3056044 4.38165992,13.5337869 C5.27299774,13.0192418 6.5565242,12.5006453 8.23223929,11.9779972 L11.9357479,13.776879 L13.3663451,11.5890498 C14.6740668,11.7281257 15.8149792,11.9874239 16.7890823,12.3669446 C17.7631854,12.7464653 18.4294605,13.394711 18.7879074,14.3116817 C19.4786942,16.4589955 19.9020797,18.2720577 20.0580638,19.7508681 C20.29204,21.9690838 20.5260161,25.1292815 19.7906624,26.1320366 C19.0553087,27.1347916 6.94871284,29.8695781 4.80950207,29.8695781 C2.67029131,29.8695781 0.1032384,29.0916833 0.1032384,27.1469462 C0.1032384,25.2022092 0.0363880639,20.7536232 0.537765586,18.2011558 Z" id="蒙版" fill="#D4B090"></path>
                            <g id="路径-2" transform="translate(0.000000, 11.570818)">
                                <mask id="mask-6" fill="white">
                                    <use xlink:href="#path-5"></use>
                                </mask>
                                <use id="形状结合" fill="#00AC48" xlink:href="#path-5"></use>
                            </g>
                            <path d="M10.8524782,8.9917894 C13.5403654,8.67951412 15.5738947,6.5834251 15.394493,4.29380544 C15.2150913,1.99710129 12.8906943,0.0692286023 10.2028071,0.00401938187 C7.51491981,-0.0503382222 5.4813905,2.08661805 5.66079222,4.76080671 C5.84019394,7.42791087 8.16459091,9.3149163 10.8524782,8.9917894 Z" id="椭圆形" fill="#111514"></path>
                            <g id="路径-5" transform="translate(6.945750, 2.941951)">
                                <mask id="mask-8" fill="white">
                                    <use xlink:href="#path-7"></use>
                                </mask>
                                <use id="蒙版" fill="#EED5BE" xlink:href="#path-7"></use>
                                <path d="M3.80044162,-1.11876028 C5.96951637,-1.11876028 7.72789887,-0.214060572 7.72789887,0.901943071 C7.72789887,2.01794671 5.96951637,2.92264642 3.80044162,2.92264642 C3.16767816,2.92264642 2.56986494,2.84565573 2.04045926,2.70888836 C1.71742779,3.44415743 1.12556682,3.99582125 0.535134028,4.04322804 C-0.230964713,4.10473933 -0.704553007,3.29401067 -0.522655033,2.23241488 C-0.454319625,1.83359471 -0.303193475,1.4561054 -0.100506885,1.136946 C-0.118038725,1.06034294 -0.127015639,0.98168238 -0.127015639,0.901943071 C-0.127015639,-0.214060572 1.63136687,-1.11876028 3.80044162,-1.11876028 Z" id="形状结合" fill="#D4B090" opacity="0.4" mask="url(#mask-8)"></path>
                                <path d="M-2.77111667e-14,4.87309318 C0.285228101,6.16958455 1.28352646,7.33642679 2.99489507,8.37361988 C4.70626367,9.41081298 6.27501823,9.28116384 7.70115874,7.98467247 L2.13921076,11.0962518 L-2.77111667e-14,4.87309318 Z" fill="#D4B090" opacity="0.4" mask="url(#mask-8)"></path>
                            </g>
                            <ellipse id="椭圆形" fill="#111514" cx="10.7461916" cy="3.54002917" rx="3.92745726" ry="2.02070335"></ellipse>
                            <path d="M7.04635678,6.86363324 C7.81245552,6.80212195 8.5809587,5.89166377 8.76285668,4.83006799 C8.94475465,3.7684722 8.47116636,2.95774354 7.70506761,3.01925483 C6.93896887,3.08076612 6.17046569,3.9912243 5.98856772,5.05282008 C5.80666975,6.11441587 6.28025804,6.92514453 7.04635678,6.86363324 Z" id="椭圆形备份-2" fill="#111514"></path>
                            <path d="M7.10332892,8.98188668 C7.56214061,8.98188668 7.80951378,8.44450866 7.65585237,7.78161928 C7.50219096,7.1187299 7.0056834,6.58135188 6.54687171,6.58135188 C6.08806002,6.58135188 5.84068684,7.1187299 5.99434826,7.78161928 C6.14800967,8.44450866 6.64451723,8.98188668 7.10332892,8.98188668 Z" id="椭圆形" fill="#EED5BE"></path>
                            <path d="M6.9099971,8.31373941 C7.04999579,8.31373941 7.12547756,8.0960673 7.07859036,7.82755515 C7.03170316,7.55904299 6.88020221,7.34137088 6.74020352,7.34137088 C6.60020484,7.34137088 6.52472306,7.55904299 6.57161026,7.82755515 C6.61849747,8.0960673 6.76999841,8.31373941 6.9099971,8.31373941 Z" id="椭圆形备份" fill="#D4B090" opacity="0.4"></path>
                        </g>
                        <g id="编组-12" transform="translate(10.650000, 7.200000)">
                            <polygon id="矩形备份-4" fill="#D8D8D8" points="0 3.36982908 11.7656592 -2.12649326e-15 12.7684142 0.302990733 11.7656592 15.2035028 1.00275504 18.8763227 0 18.5733319"></polygon>
                            <polygon id="矩形" fill="#EFECEC" points="1.00275504 3.67281982 12.7684142 0.302990733 12.7684142 15.5064936 1.00275504 18.8763227"></polygon>
                            <polygon id="矩形备份-3" fill="#FFFFFF" points="1.73810874 4.40089449 12.0330605 1.45435552 12.0330605 14.7481198 1.73810874 17.6946588"></polygon>
                            <path d="M6.17517348,4.82062388 C6.03349552,5.2505385 5.85214774,5.67219185 5.63679725,6.07867833 L5.63679725,9.55703289 L5.09275391,9.72600252 L5.09275391,6.97830824 C4.92274037,7.22149456 4.74139259,7.46305558 4.54871057,7.70299132 L4.37869703,7.24639033 C4.96807731,6.46646249 5.39877829,5.63805305 5.67079996,4.76116202 L6.17517348,4.82062388 Z M7.53528183,4.1975255 C7.53528183,4.72236598 7.55228318,5.18532572 7.58628589,5.58640471 L9.37142811,4.81586232 L9.45643488,5.25255536 L7.62595572,6.04232404 C7.65995843,6.30962017 7.69962826,6.54428322 7.7449652,6.73602222 C7.87530892,7.23067138 8.05098958,7.58774786 8.27200719,7.80210617 C8.47602344,8.0063083 8.67437258,8.08363315 8.85572036,8.03760093 C8.98606407,7.98682763 9.0880722,7.64641613 9.15607762,7.00783554 L9.62644842,7.10873097 C9.54710877,7.55530295 9.43943353,7.90262005 9.31475693,8.14716205 C9.20141456,8.33672891 9.05973661,8.46305933 8.88405595,8.52276794 C8.60070004,8.61077295 8.3060099,8.53764233 8.00565264,8.30161597 C7.67695978,8.04351715 7.42760659,7.64757603 7.26326016,7.11717801 C7.19525474,6.89646096 7.13858356,6.61562325 7.09891373,6.27290481 L5.92015316,6.78307953 L5.83514639,6.34638649 L7.05357679,5.81874557 C7.01957408,5.3970846 6.99690561,4.91015749 6.99123849,4.36649513 L7.53528183,4.1975255 Z M8.14166347,4.02977675 C8.48169056,4.18144547 8.76504647,4.34556971 9.00306543,4.52892024 L8.63470275,4.97263844 C8.43635361,4.78725819 8.15866483,4.61108287 7.79596926,4.44072706 L8.14166347,4.02977675 Z" id="形状结合" fill="#333333" fill-rule="nonzero"></path>
                            <path d="M7.26256022,9.90779696 L7.26256022,10.8681114 L9.05509705,10.3113736 C9.04375188,10.6763059 9.0380793,11.0136614 9.02673413,11.3269639 L9.40112473,11.0454679 C9.66206364,11.429092 9.91732996,11.8609448 10.1612511,12.3479511 L9.66773623,12.7180753 C9.46352317,12.2755291 9.24229236,11.8795721 9.01538896,11.5370068 C8.99269862,11.9261147 8.97000828,12.2739187 8.94731794,12.570093 C8.89059209,13.1453131 8.79415815,13.5676508 8.66368869,13.835344 C8.53321924,14.0927112 8.3233336,14.2714844 8.03403177,14.3819896 L7.37033933,14.5881235 L7.22285212,14.1589369 C7.41572001,14.1093606 7.59724273,14.0581451 7.76742028,14.0052903 C8.04537694,13.9189607 8.23257224,13.685279 8.32900618,13.3145712 C8.41976754,12.9249733 8.47649339,12.1380709 8.50485632,10.9572651 L7.23986988,11.3501529 C7.18314403,12.1886851 7.02431165,12.9092038 6.76337274,13.5117089 C6.46839833,14.1660889 5.98055602,14.7512965 5.30551842,15.2707329 L5.010544,14.9338206 C5.65721868,14.4077044 6.09968031,13.8572433 6.33792887,13.2876004 C6.53079676,12.7785189 6.64992105,12.1890816 6.69530172,11.5192884 L5.34522651,11.9386036 L5.34522651,11.4636094 L6.71799206,11.0372469 L6.71799206,10.0769325 L7.26256022,9.90779696 Z M6.02026412,12.2968739 C5.83306882,12.9694089 5.58914766,13.5149988 5.28282808,13.9405683 L4.88007455,13.7455533 C5.17504896,13.3338334 5.39627978,12.8469207 5.54376698,12.2744891 L6.02026412,12.2968739 Z" id="形状结合" fill="#333333" fill-rule="nonzero"></path>
                        </g>
                    </g>
                </g>
            </g>
        </g>
    </g>
</svg>