<?xml version="1.0" encoding="UTF-8"?>
<svg width="30px" height="30px" viewBox="0 0 30 30" version="1.1" xmlns="http://www.w3.org/2000/svg" xmlns:xlink="http://www.w3.org/1999/xlink">
    <title>定损单位备份</title>
    <defs>
        <rect id="path-1" x="0" y="0" width="30" height="30"></rect>
        <polygon id="path-3" points="14.3680204 19.7362062 14.3680204 6.4617801 21.5520306 1.33036649 28.1507853 0 28.1507853 10.9353202"></polygon>
        <path d="M14.9933446,0 L29.9866891,7.5617801 C27.5988571,7.69511594 24.8071276,8.56762903 21.6115006,10.1793194 C18.4158736,11.7910097 16.2098216,13.43909 14.9933446,15.1235602 L0,7.5617801 C3.19562699,4.78673898 5.69451775,2.9447669 7.49667229,2.03586387 C9.29882682,1.12696085 11.7977176,0.448339555 14.9933446,0 Z" id="path-5"></path>
    </defs>
    <g id="多色设计方案" stroke="none" stroke-width="1" fill="none" fill-rule="evenodd">
        <g id="控件库30*30" transform="translate(-416.000000, -177.000000)">
            <g id="定损单位备份" transform="translate(416.000000, 177.000000)">
                <mask id="mask-2" fill="white">
                    <use xlink:href="#path-1"></use>
                </mask>
                <use id="蒙版" fill="#D8D8D8" opacity="0" xlink:href="#path-1"></use>
                <g id="编组备份-4" mask="url(#mask-2)">
                    <g transform="translate(0.000000, 1.050000)">
                        <g id="蒙版备份-4" stroke-width="1" fill="none" fill-rule="evenodd" transform="translate(0.750000, 8.100000)">
                            <polygon id="蒙版" fill="#2F62B2" points="0 0.58477648 14.3680204 7.63133306 14.3680204 19.7362062 0 12.6896496"></polygon>
                            <mask id="mask-4" fill="white">
                                <use xlink:href="#path-3"></use>
                            </mask>
                            <use id="蒙版" fill="#3E75CB" xlink:href="#path-3"></use>
                            <polygon fill="#8C99A2" mask="url(#mask-4)" points="17.4113485 19.3561015 17.4113485 12.7929452 26.5998585 7.10503423 26.5998585 13.3758022"></polygon>
                            <polygon id="路径-2" fill="#5C707D" mask="url(#mask-4)" points="26.5998585 7.10503423 26.5998585 12.0463955 22.0056035 9.88272251"></polygon>
                        </g>
                        <polygon id="蒙版备份" fill="#EDF4FC" fill-rule="evenodd" points="17.85 18.3 17.85 14.163619 26.1 9.15 26.1 13.054"></polygon>
                        <path d="M15,1.2 L30,7.69701923 L30,8.775 C27.611108,8.90856894 24.8181393,9.7826074 21.6210937,11.3971154 C18.4240482,13.0116234 16.217017,14.6625849 15,16.35 L0,8.775 C3.19704551,5.9951074 5.69704551,4.1499151 7.5,3.23942308 C9.30295449,2.32893106 11.8029545,1.64912337 15,1.2 Z" id="多边形备份" fill="#D9E2EE" fill-rule="evenodd"></path>
                        <g id="路径-25" stroke-width="1" fill="none" fill-rule="evenodd">
                            <mask id="mask-6" fill="white">
                                <use xlink:href="#path-5"></use>
                            </mask>
                            <use id="蒙版" fill="#EDF4FC" xlink:href="#path-5"></use>
                            <path d="M-0.263554885,10.3829058 C2.23972267,7.62364183 4.99240703,5.40358074 7.99449818,3.72272251 C10.9965893,2.04186428 14.8815836,0.897902676 19.6494809,0.290837696" stroke="#3E75CB" stroke-width="0.5" opacity="0.08" mask="url(#mask-6)"></path>
                            <path d="M6.94027864,14.134712 C9.4435562,11.3754481 12.1962406,9.15538703 15.1983317,7.4745288 C18.2004229,5.79367056 22.0854171,4.64970896 26.8533144,4.04264398" id="路径-25备份-4" stroke="#3E75CB" stroke-width="0.5" opacity="0.08" mask="url(#mask-6)"></path>
                            <path d="M9.692963,15.1235602 C12.1962406,12.3642963 14.9489249,10.1442352 17.9510161,8.46337696 C20.9531072,6.78251873 24.8381014,5.63855713 29.6059988,5.03149215" id="路径-25备份-5" stroke="#3E75CB" stroke-width="0.5" opacity="0.08" mask="url(#mask-6)"></path>
                            <path d="M11.6256988,16.4323298 C14.1289764,13.6730659 16.8816607,11.4530048 19.8837519,9.7721466 C22.885843,8.09128837 26.7708373,6.94732676 31.5387346,6.34026178" id="路径-25备份-6" stroke="#3E75CB" stroke-width="0.5" opacity="0.08" mask="url(#mask-6)"></path>
                            <path d="M0.995651788,11.4008377 C3.49892935,8.64157376 6.2516137,6.42151268 9.25370485,4.74065445 C12.255796,3.05979622 16.1407902,1.91583461 20.9086875,1.30876963" id="路径-25备份" stroke="#3E75CB" stroke-width="0.5" opacity="0.08" mask="url(#mask-6)"></path>
                            <path d="M2.25485846,12.4187696 C4.75813602,9.6595057 7.51082037,7.43944462 10.5129115,5.75858639 C13.5150027,4.07772816 17.3999969,2.93376655 22.1678942,2.32670157" id="路径-25备份-2" stroke="#3E75CB" stroke-width="0.5" opacity="0.08" mask="url(#mask-6)"></path>
                            <path d="M4.09974266,13.4367016 C6.60302021,10.6774376 9.35570457,8.45737656 12.3577957,6.77651832 C15.3598869,5.09566009 19.2448811,3.95169849 24.0127784,3.34463351" id="路径-25备份-3" stroke="#3E75CB" stroke-width="0.5" opacity="0.08" mask="url(#mask-6)"></path>
                        </g>
                        <polygon id="路径-23" fill="#D9E2EE" fill-rule="evenodd" points="0 8.73383838 0 7.65 15 15.2661616 15 16.35"></polygon>
                        <path d="M19.6087092,14.6988506 L19.6087092,14.1981458 L21.4059098,13.0746741 L21.4059098,13.5576234 L21.6914463,13.3791278 L21.6914463,12.5552733 L20.6696734,13.1940072 C20.6332815,13.085366 20.5968896,12.9873781 20.5576983,12.9053446 L20.244168,13.1652594 C20.288958,13.2260376 20.3281493,13.3009689 20.3673406,13.3830024 L19.3231726,14.035736 L19.3231726,14.8773461 L19.6087092,14.6988506 Z M19.3875583,16.95 C19.5415241,16.6619932 19.6702955,16.3471228 19.7766719,16.0000878 C19.8914463,16.127201 20.037014,16.1889005 20.2105754,16.183385 C20.4650883,16.1576373 20.883635,15.9634556 21.471619,15.597462 L21.7362364,15.4320716 L21.7950233,15.0295595 C21.6466563,15.1400626 21.503888,15.2399637 21.3639191,15.3274615 C21.0895801,15.4954061 20.8572317,15.6228969 20.666874,15.706383 L20.666874,15.0813898 L21.4618974,14.5844023 L21.4618974,14.2363948 L20.666874,14.7333823 L20.666874,14.2362287 L21.3443235,13.8127393 L21.3443235,13.4647318 L19.6758942,14.5077055 L19.6758942,14.8557131 L20.3757387,14.4182241 L20.3757387,15.8067031 L20.3729393,15.8084531 C20.1769829,15.8528259 20.014619,15.7838706 19.8858476,15.5980363 C19.9362364,15.3889822 19.9754277,15.1762747 20.0090202,14.9528627 L19.726283,15.0656885 C19.636703,15.6969648 19.4603421,16.2653036 19.2,16.7689549 L19.3875583,16.95 Z M22.3856921,15.0438373 C22.5788491,14.9230903 22.6768274,14.7375535 22.6768274,14.4960788 L22.6768274,13.5230782 C22.7720062,13.4103132 22.8643857,13.2957471 22.9567652,13.1776299 L22.9567652,12.8012136 C22.8643857,12.9228819 22.7720062,13.037448 22.6768274,13.153764 L22.6768274,12.5855885 L22.9791602,12.3965932 L22.9791602,12.0379324 L22.6768274,12.2269276 L22.6768274,11.61969 L22.3884914,11.7999355 L22.3884914,12.4071731 L22.044168,12.6224177 L22.044168,12.9810785 L22.3884914,12.7658339 L22.3884914,13.4796045 C22.2541213,13.6204199 22.1197512,13.7541332 21.985381,13.8771932 L22.0609642,14.2063607 C22.17014,14.0919481 22.2793157,13.9739845 22.3884914,13.8560208 L22.3884914,14.5804447 C22.3884914,14.665671 22.3520995,14.7345847 22.2849145,14.7765836 C22.2121306,14.8220825 22.1365474,14.8622291 22.0581649,14.8970235 L22.1225505,15.2083331 L22.3856921,15.0438373 Z M24.3984448,11.5413254 L24.3984448,10.65 L23.1415241,11.4357302 L23.1415241,12.3270557 L24.3984448,11.5413254 Z M24.1129082,11.4144266 L23.4270607,11.8431658 L23.4270607,11.5697313 L24.1129082,11.1409921 L24.1129082,11.4144266 Z M23.3374806,13.7741438 L23.3374806,12.6910591 L24.1940902,12.1555725 L24.1940902,13.2351061 L24.4796267,13.0566106 L24.4796267,11.6503761 L23.051944,12.5428536 L23.051944,13.9526393 L23.3374806,13.7741438 Z M23.0379471,14.689364 C23.3318818,14.3990857 23.5446345,14.116943 23.6790047,13.8411858 C23.8133748,13.5441221 23.8861586,13.2145355 23.9001555,12.854227 L23.9001555,12.4920151 L23.6090202,12.6740105 L23.6090202,13.0362225 C23.5978227,13.2917991 23.5446345,13.5310119 23.4494557,13.7503098 C23.3486781,13.9624543 23.1611198,14.2004386 22.881182,14.474865 L23.0379471,14.689364 Z M24.4348367,13.8303404 L24.6,13.4074942 C24.4068429,13.3435841 24.1940902,13.3167814 23.9617418,13.3306371 L23.8189736,13.6933194 C24.0289269,13.6899122 24.2332815,13.7361692 24.4348367,13.8303404 Z" id="定损" fill="#3E75CB" fill-rule="nonzero"></path>
                    </g>
                </g>
            </g>
        </g>
    </g>
</svg>