<?xml version="1.0" encoding="UTF-8"?>
<svg width="30px" height="30px" viewBox="0 0 30 30" version="1.1" xmlns="http://www.w3.org/2000/svg" xmlns:xlink="http://www.w3.org/1999/xlink">
    <title>定损员备份</title>
    <defs>
        <rect id="path-1" x="0" y="0" width="30" height="30"></rect>
        <polygon id="path-3" points="9.44720552e-14 0 4.98712748 0 4.98712748 9.44531719 9.44720552e-14 9.44531719"></polygon>
        <path d="M0.519492445,6.15716614 C1.06063041,3.63841489 2.95461328,1.8379013 6.20144107,0.755625375 L12.3704139,11.304864 L14.6722479,0.00391511282 C15.4282493,0.198262305 15.9726897,0.360282544 16.3055691,0.489975829 C17.2517858,0.858631663 17.8989868,1.48831948 18.2471721,2.37903927 C18.9181832,4.46488015 19.3294481,6.22603825 19.4809667,7.66251357 C19.7082446,9.81722655 19.9355226,12.8869546 19.2212205,13.861003 C18.5069184,14.8350513 6.74690813,17.4915468 4.66893835,17.4915468 C2.59096857,17.4915468 0.0974048335,16.7359214 0.0974048335,14.846858 C0.0974048335,12.9577945 -0.292214501,9.93529302 0.519492445,6.15716614 Z" id="path-5"></path>
        <path d="M4.15593956,9.26733931 C6.2216754,9.26733931 7.48069121,6.48188391 7.48069121,3.97796169 C7.48069121,-1.31141594 5.80608144,0.19983481 3.74034561,0.19983481 C1.67460977,0.19983481 0,1.47403946 0,3.97796169 C0,6.48188391 2.09020373,9.26733931 4.15593956,9.26733931 Z" id="path-7"></path>
    </defs>
    <g id="多色设计方案" stroke="none" stroke-width="1" fill="none" fill-rule="evenodd">
        <g id="控件库30*30" transform="translate(-366.000000, -860.000000)">
            <g id="定损员备份" transform="translate(366.000000, 860.000000)">
                <mask id="mask-2" fill="white">
                    <use xlink:href="#path-1"></use>
                </mask>
                <use id="蒙版" fill="#D8D8D8" opacity="0" xlink:href="#path-1"></use>
                <g id="编组-8" mask="url(#mask-2)">
                    <g transform="translate(3.300000, 0.000000)">
                        <g id="编组备份-3" stroke-width="1" fill="none" fill-rule="evenodd" transform="translate(3.600000, 0.000000)">
                            <g id="路径" transform="translate(7.993690, 9.450863)">
                                <mask id="mask-4" fill="white">
                                    <use xlink:href="#path-3"></use>
                                </mask>
                                <use id="蒙版" fill="#EED5BE" xlink:href="#path-3"></use>
                                <polygon fill="#D4B090" mask="url(#mask-4)" points="-2.49356374 -1.51125075 4.37672385 0.820919 -4.45464772 12.3323993"></polygon>
                            </g>
                            <path d="M0.52237052,18.5065613 C1.00939469,16.0271655 2.95749136,14.7225311 4.25622247,13.972809 C5.12204321,13.4729943 6.36882508,12.9692441 7.99656808,12.4615583 L11.5940533,14.208942 L12.9836956,12.0837456 C14.25398,12.21884 15.3622306,12.4707152 16.3084472,12.839371 C17.2546638,13.2080268 17.9018648,13.8377146 18.2500502,14.7284344 C18.9210613,16.8142753 19.3323261,18.5754334 19.4838448,20.0119087 C19.7111227,22.1666217 19.9384007,25.2363498 19.2240986,26.2103981 C18.5097964,27.1844465 6.74978621,29.8409419 4.67181643,29.8409419 C2.59384665,29.8409419 0.100282908,29.0853165 0.100282908,27.1962531 C0.100282908,25.3071897 0.0353463523,20.9859571 0.52237052,18.5065613 Z" id="蒙版" fill="#B8B8C5"></path>
                            <g id="路径-2" transform="translate(0.000000, 12.361202)">
                                <mask id="mask-6" fill="white">
                                    <use xlink:href="#path-5"></use>
                                </mask>
                                <use id="蒙版" fill="#B8B8C5" xlink:href="#path-5"></use>
                                <polygon id="矩形" fill="#D6D6E2" points="13.2795256 4.98744011 17.4679335 3.8434205 17.4679335 6.09381176 13.2795256 7.23783137"></polygon>
                                <path d="M14.1645905,6.63010374 L14.1645905,5.60906308 C14.2228233,5.49638489 14.2697331,5.38233947 14.3053198,5.26692682 L14.1451796,5.2407861 C14.0707711,5.49035731 13.9543055,5.72166726 13.7990181,5.93234244 L13.8540157,6.08399574 C13.902543,6.02309006 13.9494528,5.95965016 13.9931274,5.89709538 L13.9931274,6.67701566 L14.1645905,6.63010374 Z M14.8407378,6.44362308 L14.8407378,5.8973812 L14.8520609,5.89428325 C14.9458804,6.05615255 15.0655811,6.18117285 15.2095455,6.26829833 L15.3195407,6.10275972 C15.1771939,6.04495963 15.0671987,5.96342425 14.9879374,5.85710777 L15.2871892,5.7752332 L15.2871892,5.62341666 L14.8407378,5.74556466 L14.8407378,5.62798126 L15.1529303,5.54256617 L15.1529303,5.03948783 L14.3635525,5.25545966 L14.3635525,5.75853801 L14.6725098,5.67400805 L14.6725098,5.79159145 L14.2422343,5.9093138 L14.2422343,6.06113034 L14.5253103,5.98368143 C14.4395787,6.14406995 14.331201,6.28386323 14.1985597,6.40648064 L14.2939967,6.52027865 C14.4395787,6.36732957 14.5625146,6.17592448 14.6595692,5.94694851 L14.6725098,5.94340799 L14.6725098,6.48964986 L14.8407378,6.44362308 Z M14.9879374,5.43886808 L14.5285454,5.56455661 L14.5285454,5.35915776 L14.9879374,5.23346923 L14.9879374,5.43886808 Z M16.8562391,5.1211969 L16.948441,4.9664801 C16.7365384,4.88752358 16.5877213,4.76898106 16.5019897,4.61085252 L16.3531726,4.65156852 C16.2528828,4.87696443 16.1073008,5.07754223 15.9180443,5.25434775 L16.0037759,5.35294038 C16.0620087,5.2997981 16.1186239,5.24114479 16.1720039,5.17891142 L16.1720039,5.25779648 L16.6896287,5.11617561 L16.6896287,5.04175574 C16.738156,5.0716423 16.7947712,5.09782765 16.8562391,5.1211969 Z M15.6479089,6.22278302 L15.6479089,5.03355345 L15.8420182,4.98044562 C15.8031963,5.11013898 15.7481987,5.25765357 15.6786429,5.42552363 C15.7837854,5.52029387 15.8371654,5.61731903 15.8371654,5.71704166 C15.8371654,5.74085602 15.8306951,5.75899866 15.8193721,5.771027 C15.8064315,5.7834979 15.7805502,5.79653254 15.743346,5.80968833 C15.7206999,5.81588425 15.6915835,5.82087363 15.6559968,5.82465647 L15.7093768,5.96484515 C15.8242248,5.93193463 15.9051037,5.8904572 15.953631,5.83848191 C15.9859826,5.79837425 16.0021583,5.74334309 16.0021583,5.67190001 C15.9924529,5.57334437 15.9406904,5.46843466 15.8436358,5.35656761 C15.9067213,5.19939821 15.9617189,5.05039521 16.0070111,4.9114896 L16.0070111,4.7953946 L15.482916,4.93878574 L15.482916,6.26792468 L15.6479089,6.22278302 Z M16.6200728,4.99529655 L16.2334719,5.10106964 C16.3046453,5.0056885 16.3693484,4.90017044 16.4275811,4.78302706 C16.4761085,4.86500755 16.5408116,4.93660878 16.6200728,4.99529655 Z M16.3871417,5.70499045 L16.5311061,5.631369 C16.4955194,5.4833353 16.4566975,5.3555359 16.4114054,5.24587914 L16.267441,5.32991937 C16.3159683,5.44613299 16.3547902,5.5709556 16.3871417,5.70499045 Z M16.9128543,5.83502188 L16.9128543,5.68618213 L16.6734529,5.75168179 C16.7397736,5.57874328 16.7963888,5.38911099 16.8416809,5.1802507 L16.676688,5.18371722 C16.6281607,5.4202538 16.5731631,5.6243275 16.50846,5.79682344 L15.9390728,5.95260641 L15.9390728,6.10144615 L16.9128543,5.83502188 Z M16.1477403,5.83895639 L16.2933222,5.76638077 C16.2512652,5.61416374 16.2059731,5.48218102 16.1542106,5.36982932 L16.0102462,5.45386955 C16.0652438,5.5727781 16.1121536,5.70134147 16.1477403,5.83895639 Z" id="保险" fill="#333333" fill-rule="nonzero"></path>
                                <polygon id="矩形" fill="#000000" points="11.4937704 1.80677398 11.8184531 1.80677398 11.8184531 16.1961244 11.4937704 16.2699159"></polygon>
                            </g>
                            <path d="M10.5417952,8.38017451 C13.152734,8.076839 14.7525226,6.14978276 14.5782567,3.92570996 C14.4039909,1.69475548 12.9873111,0.0590332324 9.90282474,0.0590332324 C5.51960723,-0.324682778 4.5455589,2.03664652 4.77283684,4.57507551 C5.00011479,7.11350451 7.93085632,8.69405099 10.5417952,8.38017451 Z" id="椭圆形" fill="#111514"></path>
                            <g id="路径-5" transform="translate(6.746908, 2.503530)">
                                <mask id="mask-8" fill="white">
                                    <use xlink:href="#path-7"></use>
                                </mask>
                                <use id="蒙版" fill="#EED5BE" xlink:href="#path-7"></use>
                                <path d="M3.69164319,-1.08673259 C5.79862202,-1.08673259 7.50666584,-0.20793248 7.50666584,0.87612239 C7.50666584,1.96017726 5.79862202,2.83897737 3.69164319,2.83897737 C3.07677236,2.83897737 2.49587576,2.76413672 1.9814881,2.63119475 C1.66791422,3.34588234 1.09317103,3.88144343 0.519814298,3.92747916 C-0.224352692,3.98722952 -0.684383178,3.19971027 -0.507692549,2.16850567 C-0.441363449,1.78139474 -0.294734863,1.41497281 -0.0980745231,1.10509854 C-0.114586965,1.03062214 -0.123379456,0.953900562 -0.123379456,0.87612239 C-0.123379456,-0.20793248 1.58466436,-1.08673259 3.69164319,-1.08673259 Z" id="形状结合" fill="#D4B090" opacity="0.4" mask="url(#mask-8)"></path>
                                <path d="M-2.77111667e-14,4.73358706 C0.277062638,5.99296269 1.24678187,7.12640075 2.90915769,8.13390125 C4.57153352,9.14140175 6.09537803,9.01546419 7.48069121,7.75608856 L2.07796978,10.7785901 L-2.77111667e-14,4.73358706 Z" fill="#D4B090" opacity="0.4" mask="url(#mask-8)"></path>
                            </g>
                            <path d="M10.747,5.34250753 C14.1886374,4.63410875 14.5457885,3.58626887 14.2211057,2.74504531 C13.8964229,1.90382175 12.3344863,1.0921148 10.2275075,1.0921148 C8.12052869,1.0921148 6.62352868,2.00043152 6.62352868,3.08448639 C6.62352868,4.16854127 7.30536251,6.05090632 10.747,5.34250753 Z" id="椭圆形" fill="#111514"></path>
                            <path d="M7.14302112,8.02851961 C7.88718811,7.96876925 8.82606533,6.17032119 8.70149846,4.45700905 C8.57693159,2.74369691 7.30536251,2.39084591 6.46118729,3.0992447 C5.61701207,3.80764349 5.64948034,7.58577037 7.14302112,8.02851961 Z" id="椭圆形备份-2" fill="#111514"></path>
                            <path d="M6.89997597,8.37055529 C7.34565287,8.37055529 7.58594429,7.84856124 7.43668187,7.20464895 C7.28741945,6.56073666 6.80512583,6.03874261 6.35944893,6.03874261 C5.91377202,6.03874261 5.67348061,6.56073666 5.82274303,7.20464895 C5.97200545,7.84856124 6.45429906,8.37055529 6.89997597,8.37055529 Z" id="椭圆形" fill="#EED5BE"></path>
                            <path d="M6.71217882,7.72153563 C6.84816965,7.72153563 6.92149055,7.510095 6.87594562,7.24926977 C6.8304007,6.98844454 6.6832369,6.77700391 6.54724607,6.77700391 C6.41125524,6.77700391 6.33793435,6.98844454 6.38347927,7.24926977 C6.42902419,7.510095 6.576188,7.72153563 6.71217882,7.72153563 Z" id="椭圆形备份" fill="#D4B090" opacity="0.4"></path>
                            <polygon id="路径-6" fill="#000000" points="8.01966463 12.4674616 11.6236435 14.208942 10.7794682 15.5371897 6.36378246 13.0282773"></polygon>
                            <polygon id="路径-9备份" fill="#000000" points="11.6236435 14.1794254 12.857438 14.9468574 13.9613595 12.2018121 12.9873111 12.054229"></polygon>
                        </g>
                        <polygon id="矩形备份-4" fill="#D8D8D8" fill-rule="evenodd" points="0 14.3937213 11.4722513 11.1 12.45 11.3961477 11.4722513 25.960131 0.977748691 29.55 0 29.2538523"></polygon>
                        <polygon id="矩形" fill="#EFECEC" fill-rule="evenodd" points="1.05 14.6930224 12.45 11.4 12.45 26.2569776 1.05 29.55"></polygon>
                        <polygon id="矩形备份-3" fill="#FFFFFF" fill-rule="evenodd" points="1.65 15.4575814 11.7 12.6 11.7 25.4924186 1.65 28.35"></polygon>
                        <path d="M5.27085458,16.5559788 L5.27085458,16.0124851 L7.96137682,15.1992447 L7.96137682,15.7234655 L8.38884298,15.5942591 L8.38884298,14.7 L6.85918469,15.1623563 C6.80470371,15.0362049 6.75022273,14.9216172 6.69155091,14.8237144 L6.22217631,15.0349703 C6.28922982,15.1110668 6.34790165,15.2012604 6.40657347,15.2991631 L4.84338843,15.7716533 L4.84338843,16.6851852 L5.27085458,16.5559788 Z M4.96177887,18.9666667 C5.19125812,18.6882391 5.38318623,18.3748807 5.54173554,18.0214589 C5.71280189,18.1857391 5.9297641,18.2858351 6.18844981,18.3191533 C6.56817854,18.3488309 7.19289354,18.2321391 8.07067323,17.9666198 L8.46238065,17.847461 L8.55,17.4229079 C8.32886544,17.5095074 8.11607558,17.5858418 7.90745808,17.6493176 C7.49856776,17.769867 7.1522627,17.8559215 6.86854289,17.9036182 L6.86854289,17.2237229 L8.05349033,16.8631807 L8.05349033,16.4846026 L6.86854289,16.8451449 L6.86854289,16.3043192 L7.87825162,15.9970965 L7.87825162,15.6185185 L5.39153093,16.3751495 L5.39153093,16.7537275 L6.43461847,16.4363487 L6.43461847,17.9467978 L6.43044612,17.9480673 C6.13838161,17.9519464 5.8963853,17.8401524 5.70445719,17.608822 C5.7795595,17.3928186 5.8379724,17.1703043 5.8880406,16.9348767 L5.46663323,16.993563 C5.33311803,17.6600002 5.07025997,18.2383119 4.6822314,18.7272287 L4.96177887,18.9666667 Z M5.24723431,22.6700395 C5.53541031,22.582799 5.68158654,22.4038897 5.68158654,22.1422707 L5.68158654,21.0880997 C5.82358631,20.9874016 5.96140961,20.8841204 6.09923292,20.776992 L6.09923292,20.369174 C5.96140961,20.4801498 5.82358631,20.583431 5.68158654,20.6879765 L5.68158654,20.0724022 L6.13264463,19.9358519 L6.13264463,19.5472706 L5.68158654,19.6838209 L5.68158654,19.0259259 L5.25141078,19.1561545 L5.25141078,19.8140495 L4.73770574,19.9695651 L4.73770574,20.3581464 L5.25141078,20.2026307 L5.25141078,20.9759459 C5.05094052,21.0981924 4.85047026,21.2127442 4.65,21.3157539 L4.76276452,21.6894343 C4.92564661,21.5901091 5.08852869,21.4869365 5.25141078,21.3837639 L5.25141078,22.1686211 C5.25141078,22.2609572 5.19711675,22.3274092 5.09688162,22.3577538 C4.98829356,22.390627 4.87552904,22.4170699 4.75858806,22.4370825 L4.85464672,22.7888889 L5.24723431,22.6700395 Z M8.25991736,19.3443934 L8.25991736,18.3740741 L6.39049587,18.9444955 L6.39049587,19.9148148 L8.25991736,19.3443934 Z M7.84090909,19.1378332 L6.80950413,19.4407407 L6.80950413,19.1510557 L7.84090909,18.8481481 L7.84090909,19.1378332 Z M6.65479339,21.5049184 L6.65479339,20.3364778 L7.93115702,19.951233 L7.93115702,21.1158427 L8.35661157,20.9874277 L8.35661157,19.4703704 L6.22933884,20.112445 L6.22933884,21.6333333 L6.65479339,21.5049184 Z M6.23677686,22.462963 C6.67376033,22.2140517 6.99005313,21.9556106 7.189817,21.6863715 C7.38958087,21.3939801 7.4977863,21.0523125 7.51859504,20.6639593 L7.51859504,20.2703704 L7.08577332,20.4022521 L7.08577332,20.795841 C7.06912633,21.0710234 6.99005313,21.3189226 6.84855372,21.53568 C6.69873081,21.7433974 6.41989374,21.9595559 6.00371901,22.1944093 L6.23677686,22.462963 Z M8.30462543,21.8407407 L8.55,21.4174652 C8.26303652,21.3039958 7.94696081,21.2265139 7.60177286,21.1888889 L7.38966942,21.5516887 C7.70158624,21.5956172 8.00518528,21.6923918 8.30462543,21.8407407 Z M7.84090909,23.3935414 L7.84090909,22.3444444 L5.42355372,23.0731253 L5.42355372,24.1222222 L7.84090909,23.3935414 Z M7.42190083,23.1709153 L5.84256198,23.6481481 L5.84256198,23.2957514 L7.42190083,22.8185185 L7.42190083,23.1709153 Z M5.59978298,25.7984712 L5.59978298,24.6395302 L7.63244842,24.0253556 L7.63244842,25.1228957 L8.06652893,24.9917373 L8.06652893,23.5296296 L5.16570248,24.4061211 L5.16570248,25.9296296 L5.59978298,25.7984712 Z M4.95003457,26.7 C5.76801883,26.3806671 6.2771723,26.066444 6.48584176,25.7625335 C6.68616443,25.5115428 6.81553949,25.0845825 6.87396694,24.4777778 L6.4315877,24.5740092 C6.40237398,25.0401553 6.29386586,25.398751 6.10606335,25.6420466 C5.88904712,25.9020057 5.44666787,26.1493563 4.77892562,26.3840985 L4.95003457,26.7 Z M8.21826203,25.6925926 L8.45330579,25.2891066 C8.00000711,25.2412263 7.50473633,25.2365503 6.96329624,25.2686804 L6.74504132,25.6288541 C7.24870652,25.60039 7.73978009,25.6216362 8.21826203,25.6925926 Z" id="定损员" fill="#333333" fill-rule="nonzero"></path>
                    </g>
                </g>
            </g>
        </g>
    </g>
</svg>