<?xml version="1.0" encoding="UTF-8"?>
<svg width="30px" height="30px" viewBox="0 0 30 30" version="1.1" xmlns="http://www.w3.org/2000/svg" xmlns:xlink="http://www.w3.org/1999/xlink">
    <title>二手车备份</title>
    <defs>
        <rect id="path-1" x="0" y="0" width="30" height="30"></rect>
        <linearGradient x1="34.6098854%" y1="43.3908071%" x2="65.2659912%" y2="54.2076925%" id="linearGradient-3">
            <stop stop-color="#8D98C8" offset="0%"></stop>
            <stop stop-color="#7680B1" offset="100%"></stop>
        </linearGradient>
        <path d="M0,0 L11.5271838,0 C12.4095043,-5.01648476e-16 13.248063,0.384324621 13.8240592,1.05269414 L17.2224729,4.9961159 L17.2224729,4.9961159 L0,4.9961159 L0,0 Z" id="path-4"></path>
        <linearGradient x1="50%" y1="31.0722208%" x2="77.4697454%" y2="64.7323957%" id="linearGradient-6">
            <stop stop-color="#7680B1" offset="0%"></stop>
            <stop stop-color="#8D98C8" offset="100%"></stop>
        </linearGradient>
        <linearGradient x1="80.1060519%" y1="26.8272179%" x2="31.9866091%" y2="65.7150873%" id="linearGradient-7">
            <stop stop-color="#8D98C8" offset="0%"></stop>
            <stop stop-color="#33355B" offset="100%"></stop>
        </linearGradient>
        <linearGradient x1="50%" y1="0%" x2="50%" y2="100%" id="linearGradient-8">
            <stop stop-color="#8D98C8" offset="0%"></stop>
            <stop stop-color="#7680B1" offset="100%"></stop>
        </linearGradient>
        <path d="M0,5.85751519 L0,4.34145244 L1.804,4.341 L1.80411468,0 L13.9326167,0 L13.9326167,4.64466499 C13.9326167,5.31450366 13.3896052,5.85751519 12.7197665,5.85751519 L0,5.85751519 Z" id="path-9"></path>
        <linearGradient x1="-10.7000926%" y1="52.8004229%" x2="50%" y2="49.1443993%" id="linearGradient-11">
            <stop stop-color="#8D98C8" offset="0%"></stop>
            <stop stop-color="#33355B" offset="100%"></stop>
        </linearGradient>
        <linearGradient x1="7.95481584%" y1="49.3626431%" x2="50%" y2="50%" id="linearGradient-12">
            <stop stop-color="#8D98C8" offset="0%"></stop>
            <stop stop-color="#7680B1" offset="100%"></stop>
        </linearGradient>
        <linearGradient x1="5.88625118%" y1="44.3191932%" x2="100%" y2="51.4639568%" id="linearGradient-13">
            <stop stop-color="#8D98C8" offset="0%"></stop>
            <stop stop-color="#33355B" offset="100%"></stop>
        </linearGradient>
        <path d="M13.0381397,0.017055706 L17.828898,1.92729478 L17.828898,6.51338461 C17.828898,7.14135837 17.3516418,7.65786296 16.7400547,7.71997301 L16.6160478,7.72623482 L14.5077068,7.72671385 C14.5576781,7.41324405 14.5845237,7.08101192 14.5845237,6.73700387 C14.5845237,4.83424339 13.7632188,3.29175126 12.7500878,3.29175126 C11.7369568,3.29175126 10.9156518,4.83424339 10.9156518,6.73700387 C10.9156518,7.08101192 10.9424975,7.41324405 10.9924688,7.72671385 L6.41447107,7.72671385 C6.46279043,7.41324405 6.48874859,7.08101192 6.48874859,6.73700387 C6.48874859,4.83424339 5.69459423,3.29175126 4.71495517,3.29175126 C3.73531611,3.29175126 2.94116175,4.83424339 2.94116175,6.73700387 C2.94116175,7.08101192 2.96711991,7.41324405 3.01543927,7.72671385 L2.66962553,7.72623482 C2.36523177,7.72623482 2.07366052,7.61186665 1.851288,7.4085626 L1.7603865,7.31606139 L0.303780067,5.66607789 C0.0935191459,5.42790302 -0.0136952928,5.11826382 0.00159492806,4.80444788 L0.0157048945,4.66989579 L0.68222824,0.545782592 L1.87991782,0.017055706 L13.0381397,0.017055706 Z" id="path-14"></path>
        <linearGradient x1="-10.7000926%" y1="66.2494481%" x2="50%" y2="45.0353785%" id="linearGradient-16">
            <stop stop-color="#8D98C8" offset="0%"></stop>
            <stop stop-color="#33355B" offset="100%"></stop>
        </linearGradient>
        <linearGradient x1="50%" y1="0%" x2="50%" y2="100%" id="linearGradient-17">
            <stop stop-color="#AECDF2" offset="0%"></stop>
            <stop stop-color="#FFFFFF" offset="100%"></stop>
        </linearGradient>
        <linearGradient x1="63.9521176%" y1="-3.55575771%" x2="63.9521176%" y2="96.3131421%" id="linearGradient-18">
            <stop stop-color="#8CC3FE" offset="0%"></stop>
            <stop stop-color="#8CC3FE" stop-opacity="0" offset="100%"></stop>
        </linearGradient>
    </defs>
    <g id="多色设计方案" stroke="none" stroke-width="1" fill="none" fill-rule="evenodd">
        <g id="控件库30*30" transform="translate(-566.000000, -405.000000)">
            <g id="二手车备份" transform="translate(566.000000, 405.000000)">
                <mask id="mask-2" fill="white">
                    <use xlink:href="#path-1"></use>
                </mask>
                <use id="蒙版" fill="#D8D8D8" opacity="0" xlink:href="#path-1"></use>
                <g id="小汽车备份" mask="url(#mask-2)">
                    <g transform="translate(0.000000, 7.650000)">
                        <ellipse id="椭圆形备份-18" fill="#212240" cx="26.09144" cy="11.3360147" rx="2.50150355" ry="3.48005314"></ellipse>
                        <g id="椭圆形" stroke-width="1" fill="none" transform="translate(7.640956, 0.000000)">
                            <mask id="mask-5" fill="white">
                                <use xlink:href="#path-4"></use>
                            </mask>
                            <use id="蒙版" fill="url(#linearGradient-3)" xlink:href="#path-4"></use>
                            <ellipse fill="url(#linearGradient-6)" mask="url(#mask-5)" cx="5.36686215" cy="-2.10181427" rx="8.23222076" ry="5.06502784"></ellipse>
                        </g>
                        <path d="M13.189746,6.39158275 C13.189746,2.86160907 11.2440169,0 8.09577512,0 C4.94753336,0 1.78895405,2.86160907 1.78895405,6.39158275 L13.189746,6.39158275 Z" id="路径" fill="url(#linearGradient-7)"></path>
                        <g id="路径-57" stroke-width="1" fill="none" transform="translate(16.024783, 6.925650)">
                            <mask id="mask-10" fill="white">
                                <use xlink:href="#path-9"></use>
                            </mask>
                            <use id="蒙版" fill="url(#linearGradient-8)" xlink:href="#path-9"></use>
                            <rect id="矩形" fill="#FFFFFF" mask="url(#mask-10)" x="1.81927531" y="0" width="2.81987673" height="1"></rect>
                            <rect id="矩形备份-6" fill="#FFFFFF" mask="url(#mask-10)" x="11.1430613" y="0.0689119434" width="2.81987673" height="1"></rect>
                            <path d="M3.80531752,0 L12.2346264,0 L12.2346264,2.87362804 C12.2346264,3.20854738 11.9631207,3.48005314 11.6282013,3.48005314 L4.41174262,3.48005314 C4.07682328,3.48005314 3.80531752,3.20854738 3.80531752,2.87362804 L3.80531752,0 L3.80531752,0 Z" id="矩形" fill="#33355B" mask="url(#mask-10)"></path>
                            <text id="二手车" mask="url(#mask-10)" font-family="PingFangSC-Semibold, PingFang SC" font-size="2.42570041" font-weight="500" line-spacing="2.42570041" fill="#FFFFFF">
                                <tspan x="4.38142136" y="3.44951141">二手车</tspan>
                            </text>
                            <path d="M-0.485140082,4.97268584 L3.70699046,4.97268584 C4.07012614,4.97268584 4.40782058,4.78621364 4.60125046,4.47888254 C4.79468034,4.17155144 5.13237479,3.98507924 5.49551047,3.98507924 L9.69543834,3.98507924 C10.058574,3.98507924 10.3962685,4.17155144 10.5896983,4.47888254 C10.7831282,4.78621364 11.1208227,4.97268584 11.4839584,4.97268584 L15.751892,4.97268584 L15.751892,4.97268584 L15.751892,8.35133998 L-0.485140082,8.35133998 L-0.485140082,4.97268584 Z" fill="url(#linearGradient-11)" mask="url(#mask-10)"></path>
                        </g>
                        <polygon id="矩形备份" fill="url(#linearGradient-12)" points="13.0381397 4.94615474 24.8733071 4.94615474 29.9574001 6.85639381 17.8190201 6.85639381"></polygon>
                        <ellipse id="椭圆形备份" fill="#212240" cx="13.2655491" cy="11.256766" rx="2.50150355" ry="3.44525261"></ellipse>
                        <ellipse id="椭圆形备份-17" fill="#212240" cx="5.26073776" cy="11.2226545" rx="2.50150355" ry="3.44525261"></ellipse>
                        <g id="路径-58" stroke-width="1" fill="none" transform="translate(0.000000, 4.929099)">
                            <mask id="mask-15" fill="white">
                                <use xlink:href="#path-14"></use>
                            </mask>
                            <use id="形状结合" fill="url(#linearGradient-13)" xlink:href="#path-14"></use>
                            <path d="M-1.06124393,-0.921008124 C1.12188644,1.15978801 3.11803573,2.20018607 4.92720396,2.20018607 C7.64095629,2.20018607 12.2649477,1.58618066 14.1448655,1.58618066 C15.3981441,1.58618066 16.6312084,2.16607466 17.8440586,3.32586267 L17.8440586,11.3249888 L-1.06124393,11.3249888 L-1.06124393,-0.921008124 Z" fill="url(#linearGradient-16)" mask="url(#mask-15)"></path>
                        </g>
                        <ellipse id="椭圆形" fill="url(#linearGradient-17)" cx="12.7955697" cy="11.4955458" rx="1.03092267" ry="2.49013308"></ellipse>
                        <path d="M12.7955697,9.00541277 C12.8526116,9.00541277 12.9085715,9.01660288 12.9630936,9.03812386 C12.472404,9.23000305 12.0981808,10.2572142 12.0981808,11.4955458 C12.0981808,12.733027 12.4718901,13.7596775 12.9615795,13.9529678 C12.9078806,13.9746265 12.8522595,13.9856789 12.7955697,13.9856789 C12.2262068,13.9856789 11.764647,12.8708084 11.764647,11.4955458 C11.764647,10.1202833 12.2262068,9.00541277 12.7955697,9.00541277 Z" id="形状结合" fill="url(#linearGradient-18)"></path>
                        <ellipse id="椭圆形备份" fill="url(#linearGradient-17)" cx="4.69979454" cy="11.4955458" rx="1.03092267" ry="2.49013308"></ellipse>
                        <path d="M4.69979454,9.00541277 C4.75683646,9.00541277 4.81279635,9.01660288 4.86731847,9.03812386 C4.37662886,9.23000305 4.00240567,10.2572142 4.00240567,11.4955458 C4.00240567,12.733027 4.37611499,13.7596775 4.86580442,13.9529678 C4.81210544,13.9746265 4.75648435,13.9856789 4.69979454,13.9856789 C4.13043167,13.9856789 3.66887187,12.8708084 3.66887187,11.4955458 C3.66887187,10.1202833 4.13043167,9.00541277 4.69979454,9.00541277 Z" id="形状结合" fill="url(#linearGradient-18)"></path>
                    </g>
                </g>
            </g>
        </g>
    </g>
</svg>