<?xml version="1.0" encoding="UTF-8"?>
<svg width="30px" height="30px" viewBox="0 0 30 30" version="1.1" xmlns="http://www.w3.org/2000/svg" xmlns:xlink="http://www.w3.org/1999/xlink">
    <title>儿童备份</title>
    <defs>
        <rect id="path-1" x="0" y="0" width="30" height="30"></rect>
        <polygon id="path-3" points="7.05435882e-14 0 3.72395695 0 3.72395695 7.79130435 7.05435882e-14 7.79130435"></polygon>
        <polygon id="path-5" points="0.480041326 -0.77426087 4.20399828 -0.77426087 0.256991821 5.22017391 -0.974629359 7.01704348"></polygon>
        <path d="M2.47294016,6.53982609 C2.24665806,3.63107246 2.45677716,1.97055072 3.10329746,1.55826087 C3.74981776,1.14597101 4.680807,0.730434783 5.89626517,0.311652174 L9.62022213,5.2089242e-14 C10.5687611,0.111437413 11.3963071,0.319205529 12.1028601,0.623304348 C12.8094131,0.927403167 12.9694269,2.5749394 12.5829014,5.56591304 C14.0698981,8.43895652 14.6356034,10.1433043 14.2800172,10.6789565 C13.746638,11.4824348 4.96527594,13.6737391 3.41362721,13.6737391 C1.86197848,13.6737391 8.29891403e-13,13.0504348 8.29891403e-13,11.4921739 C8.29891403e-13,10.4533333 0.824313388,8.80255072 2.47294016,6.53982609 Z" id="path-7"></path>
        <path d="M0.50552271,3.41856536 C0.50552271,5.90510055 2.33921605,8.67290469 5.56130498,8.13541375 C6.70511502,7.95494962 7.54653819,7.57019382 8.15612253,7.06009044 C7.53633792,7.8096614 6.56112199,8.38812123 5.07641475,8.62237028 C1.85432582,9.15986121 0.020632482,6.39205707 0.020632482,3.90552188 C0.020632482,2.65880076 0.532764785,1.62608685 1.36022553,0.939831238 C0.821883313,1.59102013 0.50552271,2.43869318 0.50552271,3.41856536 Z" id="path-9"></path>
        <linearGradient x1="71.5333924%" y1="21.5510671%" x2="50%" y2="50%" id="linearGradient-11">
            <stop stop-color="#383838" offset="0%"></stop>
            <stop stop-color="#1A1A1A" offset="100%"></stop>
        </linearGradient>
        <linearGradient x1="100%" y1="50%" x2="0%" y2="50%" id="linearGradient-12">
            <stop stop-color="#383838" offset="0%"></stop>
            <stop stop-color="#1A1A1A" offset="100%"></stop>
        </linearGradient>
        <polygon id="path-13" points="-6.33041634e-14 1.35690174 3.34157699 0.29497864 5.39342251 0 7.98688525 0.328846558 8.7 9.80366972 1.87597305 10.5908257"></polygon>
        <path d="M0.07125,0.0713709677 C0.505778388,0.366952021 0.957028388,1.17582299 1.425,2.49798387 C1.89297161,3.82014475 2.36797161,5.91369314 2.85,8.77862903 L1.425,8.85 L0.07125,5.85241935 L0.07125,0.0713709677 Z" id="path-15"></path>
        <path d="M1.50204069,0.279406027 L3.92056137,2.40744522 C4.24420905,2.69222052 4.4296875,3.10247811 4.4296875,3.5335753 L4.4296875,7.49548193 L4.4296875,7.49548193 L4.4296875,9.85120482 L4.4296875,10.9933735 L4.1484375,11.85 L0.140625,11.85 L0.0703125,1.57048193 L1.06930297,0.317602031 C1.17259679,0.188056495 1.36135039,0.166775278 1.49089593,0.270069102 C1.49468573,0.273090921 1.49840174,0.276204144 1.50204069,0.279406027 Z" id="path-17"></path>
        <path d="M0.4125,0 C0.779166667,0.52295082 1.07708333,1.23606557 1.30625,2.13934426 C1.53541667,3.04262295 1.60416667,5.2057377 1.5125,8.62868852 L0.06875,8.34344262 L0.06875,5.70491803 L0.4125,0 Z" id="path-19"></path>
    </defs>
    <g id="多色设计方案" stroke="none" stroke-width="1" fill="none" fill-rule="evenodd">
        <g id="控件库30*30" transform="translate(-366.000000, -101.000000)">
            <g id="儿童备份" transform="translate(366.000000, 101.000000)">
                <mask id="mask-2" fill="white">
                    <use xlink:href="#path-1"></use>
                </mask>
                <use id="蒙版" fill="#D8D8D8" opacity="0" xlink:href="#path-1"></use>
                <g id="儿童" mask="url(#mask-2)">
                    <g transform="translate(4.500000, 0.000000)">
                        <g id="编组-3备份" stroke-width="1" fill="none" transform="translate(0.000000, 4.800000)">
                            <g id="路径" transform="translate(5.896265, 8.102957)">
                                <mask id="mask-4" fill="white">
                                    <use xlink:href="#path-3"></use>
                                </mask>
                                <use id="蒙版" fill="#EED5BE" xlink:href="#path-3"></use>
                                <mask id="mask-6" fill="white">
                                    <use xlink:href="#path-5"></use>
                                </mask>
                                <use id="蒙版备份" fill="#D4B090" xlink:href="#path-5"></use>
                            </g>
                            <g id="路径-17" transform="translate(0.000000, 11.248696)">
                                <g id="蒙版" transform="translate(0.000000, 0.009739)">
                                    <mask id="mask-8" fill="white">
                                        <use xlink:href="#path-7"></use>
                                    </mask>
                                    <use fill="#E02020" xlink:href="#path-7"></use>
                                </g>
                                <path d="M1.76984933,6.50086957 C3.28917205,7.36115942 5.18024394,7.63710145 7.443065,7.32869565 C9.70588607,7.02028986 12.0171962,6.12753623 14.3769953,4.65043478 L13.1647697,-2.67826087 C4.38825656,-1.05507246 0,-0.243478261 0,-0.243478261 C0,-0.243478261 0.589949778,2.00463768 1.76984933,6.50086957 Z" fill="#E7DCC9"></path>
                                <g id="编组-4" transform="translate(5.624727, 0.706087)" fill="#E02020">
                                    <polygon id="矩形" points="-2.27393251e-14 0 1.60013775 0.365217391 1.60013775 1.26608696 -2.27393251e-14 1.80173913"></polygon>
                                    <polygon id="矩形备份-2" transform="translate(3.854877, 0.900870) scale(-1, 1) translate(-3.854877, -0.900870) " points="3.05480844 0 4.65494619 0.365217391 4.65494619 1.26608696 3.05480844 1.80173913"></polygon>
                                    <rect id="矩形" x="1.60013775" y="0.170434783" width="1.45467068" height="1.26608696"></rect>
                                </g>
                            </g>
                            <g id="路径-5" transform="translate(0.189107, 0.000000)">
                                <ellipse id="椭圆形" fill="#432B07" cx="3.01844167" cy="9.31304348" rx="1" ry="1"></ellipse>
                                <ellipse id="椭圆形备份-5" fill="#432B07" cx="2.05351012" cy="9.86086957" rx="1" ry="1"></ellipse>
                                <ellipse id="椭圆形备份-6" fill="#432B07" cx="1.22919673" cy="9.6173913" rx="1" ry="1"></ellipse>
                                <ellipse id="椭圆形备份-8" fill="#F9E1CC" cx="10.9027568" cy="5.34434783" rx="1.22434783" ry="1.22956522"></ellipse>
                                <g id="椭圆形-+-椭圆形备份-7-蒙版" transform="translate(2.361415, 2.526580)">
                                    <path d="M5.07641475,8.62237028 C8.29850368,8.11400659 9.12104056,5.9845128 9.12104056,3.99858679 C9.11520697,1.40493252 7.08384482,0.31750047 4.57083652,0.0506224004 C2.05782822,-0.21625567 0.020632482,1.41898669 0.020632482,3.90552188 C0.020632482,6.39205707 1.85432582,9.15986121 5.07641475,8.62237028 Z" id="蒙版" fill="#F9E1CC"></path>
                                    <ellipse id="椭圆形" fill="#EECBBE" opacity="0.5" cx="3.38938269" cy="6.4821157" rx="1" ry="1"></ellipse>
                                    <ellipse id="椭圆形备份-7" fill="#EECBBE" opacity="0.5" cx="7.29274903" cy="4.82646353" rx="1" ry="1"></ellipse>
                                    <mask id="mask-10" fill="white">
                                        <use xlink:href="#path-9"></use>
                                    </mask>
                                    <use id="形状结合" fill="#D4B090" opacity="0.4" xlink:href="#path-9"></use>
                                </g>
                                <path d="M7.54489195,1.09565217 C6.94484839,1.80971781 6.91252237,2.483341 7.4479139,3.11652174 C8.74095451,3.00289855 9.94509858,3.88753623 11.0603461,5.77043478 C11.0926721,4.26086957 10.7936565,3.09217391 10.1632992,2.26434783 C9.53294189,1.43652174 8.66013947,1.04695652 7.54489195,1.09565217 Z" id="路径-14" fill="#432B07"></path>
                                <ellipse id="椭圆形" fill="#F9E1CC" cx="2.70811192" cy="7.6573913" rx="1.22434783" ry="1.22956522"></ellipse>
                                <path d="M7.98129316,1.92347826 C7.98129316,3.04347826 7.62570699,3.87130435 6.91453465,4.40695652 C5.84777615,5.21043478 4.2476384,5.5026087 3.95670426,5.81913043 C3.76274817,6.03014493 3.63344411,6.67130435 3.56879208,7.7426087 C3.06773884,7.48289855 2.67982666,6.98782609 2.40505553,6.2573913 C2.1302844,5.52695652 2.40505553,4.55304348 3.22936892,3.33565217 L7.98129316,1.92347826 Z" id="路径-13备份" fill="#D4B090" opacity="0.4"></path>
                                <path d="M7.78733706,1.07130435 C8.23990128,2.27246377 8.11059722,3.14086957 7.39942488,3.67652174 C6.33266638,4.48 4.0294378,5.23478261 3.73850366,5.55130435 C3.54454757,5.76231884 3.41524351,6.40347826 3.35059148,7.47478261 C2.84953824,7.21507246 2.46162606,6.72 2.18685493,5.98956522 C1.9120838,5.25913043 2.18685493,3.87942029 3.01116832,1.85043478 L7.78733706,1.07130435 Z" id="路径-13" fill="#67430C"></path>
                                <path d="M7.8600706,1.09688718 C6.96852085,1.27585285 5.94489098,1.69072781 4.78918099,2.34151206 C3.63347099,2.99229632 2.74192328,4.05795553 2.11453786,5.5384897 C1.85037557,5.13174954 1.82561036,4.47283049 2.04024221,3.56173254 C2.32087243,2.37047594 3.58365112,0.700754428 4.96253749,0.242732849 C6.4319402,-0.24535534 7.39778457,0.0393627705 7.8600706,1.09688718 Z" id="路径-15" fill="#E02020"></path>
                                <polygon id="路径-16" fill="#432B07" points="0.417005596 8.81391304 1.09585192 9.4226087 1.02311838 9.95826087 0.00484890228 10.1043478"></polygon>
                            </g>
                        </g>
                        <g id="路径-5" stroke-width="1" fill="none" transform="translate(10.050000, 0.000000)">
                            <ellipse id="椭圆形备份-8" fill="#F9E1CC" cx="9.44583982" cy="5.46494722" rx="1.22032037" ry="1.22450528"></ellipse>
                            <g id="椭圆形-+-椭圆形备份-7-蒙版" transform="translate(0.932595, 2.658775)" fill="#F9E1CC">
                                <path d="M5.06839359,8.68077468 C8.28847456,8.17063261 9.11049886,6.03368936 9.11049886,4.04081613 C9.1046689,1.43808865 7.07457267,0.346852516 4.56313043,0.0790408452 C2.0516882,-0.188770826 0.0157620137,1.45219199 0.0157620137,3.94742565 C0.0157620137,6.44265932 1.84831262,9.22014588 5.06839359,8.68077468 Z" id="蒙版"></path>
                            </g>
                            <path d="M6.09902059,1.23373591 C5.50095086,1.94486301 5.46873118,2.61571408 6.00236156,3.24628914 C7.29114874,3.13313354 8.49133181,4.01413073 9.60291076,5.88928073 C9.63513043,4.38592772 9.3370984,3.22204151 8.70881465,2.39762211 C8.08053089,1.57320272 7.21059954,1.18524065 6.09902059,1.23373591 Z" id="路径-14" fill="#432B07"></path>
                            <ellipse id="椭圆形" fill="#F9E1CC" cx="1.27815103" cy="7.768472" rx="1.22032037" ry="1.22450528"></ellipse>
                            <path d="M6.76698398,1.35208087 C7.2180595,2.54829725 7.08918078,3.41312936 6.38034783,3.94657721 C5.3170984,4.74674897 2.7372357,5.92620326 2.44725858,6.24142244 C2.2539405,6.45156856 2.12506178,7.09008946 2.06062243,8.15698515 C1.56121739,7.89834377 1.17458124,7.40530864 0.900713959,6.67787976 C0.626846682,5.95045089 0.995450801,4.43382597 2.00652632,2.12800501 L6.76698398,1.35208087 Z" id="路径-13" fill="#67430C"></path>
                            <g id="编组-21" transform="translate(0.522041, 0.000000)">
                                <path d="M3.90789474,0 C5.84807354,0 7.45802001,1.18658371 7.76357702,2.74220745 C6.94321328,2.66350043 5.95986139,2.7248486 4.90263158,2.94810293 C3.07975581,3.33303805 1.47650922,4.10654065 0.551513552,4.9596333 C0.201270862,4.46884981 0,3.89396558 0,3.27962963 C0,1.4683402 1.74962407,0 3.90789474,0 Z" id="形状结合" fill="#2C6CFB"></path>
                                <polygon id="矩形" fill="#FFFFFF" points="5.54210526 1.38849155 6.5661677 1.14074074 7.10526316 1.89113808 6.08120072 2.13888889"></polygon>
                                <path d="M5.19726477,1.81025752 C7.72808967,1.23500086 9.77972862,1.79011725 9.77972862,3.05014468 C9.77972862,3.55352877 9.45228245,4.09326455 8.89765206,4.59664484 C8.9174044,4.50776712 8.92709704,4.42008455 8.92709704,4.33347801 C8.92709704,3.07345058 6.87545809,2.51833419 4.34463319,3.09359086 C2.82487913,3.43903105 1.47791821,4.11352889 0.64424589,4.87016651 C0.899098842,3.67309373 2.8403932,2.34597458 5.19726477,1.81025752 Z" id="形状结合" fill="#174DC6"></path>
                            </g>
                        </g>
                        <g id="椭圆形" stroke-width="1" fill="none" transform="translate(11.400000, 11.700000)">
                            <path d="M8.55737705,9.37431193 L8.55737705,14.6958864 L8.53483845,14.6970164 C8.39264841,15.0057808 7.59484922,15.2422018 6.63196721,15.2422018 C5.79075818,15.2422018 5.07554714,15.0617556 4.81341474,14.8102694 L4.70655738,14.812844 L4.70655738,9.49126961 L8.55737705,9.37431193 Z" id="形状结合" fill="url(#linearGradient-11)"></path>
                            <path d="M5.70491803,9.66055046 L5.70491803,14.8420835 L5.69909836,14.8415505 L5.70491803,14.8844037 C5.70491803,15.2191723 4.94131579,15.4942844 3.96493801,15.5254921 L3.7795082,15.5284404 C2.78893948,15.5284404 1.97308366,15.2782277 1.86600918,14.9564448 L1.85409836,14.9559633 L1.85409836,9.7744303 L5.70491803,9.66055046 Z" id="形状结合" fill="url(#linearGradient-12)"></path>
                            <mask id="mask-14" fill="white">
                                <use xlink:href="#path-13"></use>
                            </mask>
                            <use id="蒙版" fill="#E3F1FF" xlink:href="#path-13"></use>
                            <path d="M4.58834923,1.44170477 C5.55500362,1.48316756 6.28090138,1.12695626 6.20968723,0.646084557 C6.13847309,0.165212859 5.2971144,-0.258222909 4.33046001,-0.2996857 C3.36380561,-0.341148492 2.63790786,0.015062809 2.709122,0.495934508 C2.78033614,0.976806207 3.62169483,1.40024197 4.58834923,1.44170477 Z" fill="#F9E1CC" mask="url(#mask-14)"></path>
                        </g>
                        <g id="路径-147" stroke-width="1" fill="none" transform="translate(20.400000, 12.600000)"></g>
                        <g id="路径-147" stroke-width="1" fill="none" transform="translate(20.400000, 12.600000)">
                            <mask id="mask-16" fill="white">
                                <use xlink:href="#path-15"></use>
                            </mask>
                            <use id="蒙版" fill="#2C6CFB" xlink:href="#path-15"></use>
                            <polygon fill="#174DC6" mask="url(#mask-16)" points="0.07125 -0.999193548 0.64125 5.85241935 2.06625 10.3487903 -0.855 7.56532258 -0.855 1.49879032"></polygon>
                        </g>
                        <path d="M18.6428571,11.7 C20.2142857,12.2732484 21,12.9181529 21,13.6347134 C21,13.8818208 21,16.5409815 21,17.7907643 C21,18.3051767 21,19.0695084 21,20.083758 C21,20.5230035 21,21.2873347 21,22.3767516 L18.6428571,22.95 L18,21.9468153 L18,20.8003185 L18,18.4356688 L18,13.7780255 L18.6428571,11.7 Z" id="路径-143" fill="#2C6CFB"></path>
                        <path d="M12.6,11.5409106 C15.0391304,11.5409106 16.5934783,11.4679079 17.2630435,11.3219024 C18.2673913,11.1028943 19.2,11.3949051 19.2,12.0519295 C19.2,12.4899458 18.8173913,13.122636 18.0521739,13.95 C18.2434783,12.8306251 18.2673913,12.197935 18.123913,12.0519295 C18.0237781,11.9500308 16.5456522,11.8329214 15.1826087,12.0519295 C14.5563192,12.1525591 14.0302323,12.347233 13.6043478,12.6359512 L12.6,11.5409106 Z" id="路径-144" fill="#174DC6"></path>
                        <path d="M15.0677419,9.9 L16.9548387,9.9 C16.7411933,10.6156699 16.6444191,11.1604067 16.6645161,11.5342105 C16.6846131,11.9080144 16.8297744,12.2632775 17.1,12.6 L14.85,12.5289474 L15.0677419,9.9 Z" id="矩形" fill="#F9E1CC"></path>
                        <g id="路径-145" stroke-width="1" fill="none" transform="translate(11.250000, 11.250000)">
                            <mask id="mask-18" fill="white">
                                <use xlink:href="#path-17"></use>
                            </mask>
                            <use id="蒙版" fill="#2C6CFB" xlink:href="#path-17"></use>
                            <polygon fill="#174DC6" mask="url(#mask-18)" points="-0.28125 0.99939759 1.265625 -0.571084337 5.625 3.42650602"></polygon>
                        </g>
                        <g id="路径-147备份" stroke-width="1" fill="none" transform="translate(10.850000, 17.250000) scale(-1, 1) translate(-10.850000, -17.250000) translate(9.850000, 12.750000)">
                            <mask id="mask-20" fill="white">
                                <use xlink:href="#path-19"></use>
                            </mask>
                            <use id="蒙版" fill="#2C6CFB" xlink:href="#path-19"></use>
                        </g>
                    </g>
                </g>
            </g>
        </g>
    </g>
</svg>