<?xml version="1.0" encoding="UTF-8"?>
<svg width="30px" height="30px" viewBox="0 0 30 30" version="1.1" xmlns="http://www.w3.org/2000/svg" xmlns:xlink="http://www.w3.org/1999/xlink">
    <title>飞机备份</title>
    <defs>
        <rect id="path-1" x="0" y="0" width="30" height="30"></rect>
        <linearGradient x1="54.6180996%" y1="29.1986219%" x2="59.8079528%" y2="70.7375267%" id="linearGradient-3">
            <stop stop-color="#8D98C8" offset="0%"></stop>
            <stop stop-color="#8D98C8" offset="42.7820324%"></stop>
            <stop stop-color="#33355B" offset="100%"></stop>
        </linearGradient>
        <linearGradient x1="64.7310236%" y1="43.7372372%" x2="67.5681853%" y2="55.2841526%" id="linearGradient-4">
            <stop stop-color="#8D98C8" offset="0%"></stop>
            <stop stop-color="#33355B" offset="100%"></stop>
        </linearGradient>
        <path d="M0,7.57111107 L21.856849,0.13764447 C22.996685,-0.250011251 24.2119981,0.195383254 25.0132603,1.29442307 L27.2252524,4.32847057 C27.7019927,4.98238465 27.6705917,6.00275459 27.1551162,6.60753062 C26.9779642,6.81537235 26.757843,6.95496624 26.5204735,7.01000097 L5.51658431,11.8798069 C4.82488419,12.0401794 4.11078772,11.905044 3.48609972,11.4955587 L0.174808073,9.32499451 L0,7.57111107 Z" id="path-5"></path>
        <linearGradient x1="61.6007805%" y1="-8.44716528%" x2="61.6007805%" y2="121.699695%" id="linearGradient-7">
            <stop stop-color="#66A2FF" offset="0%"></stop>
            <stop stop-color="#2D6EDF" offset="100%"></stop>
        </linearGradient>
        <linearGradient x1="73.1981808%" y1="40.0271774%" x2="22.0619917%" y2="59.5859464%" id="linearGradient-8">
            <stop stop-color="#FFFFFF" offset="0%"></stop>
            <stop stop-color="#D7DFEB" offset="100%"></stop>
        </linearGradient>
        <linearGradient x1="61.6007805%" y1="-8.44716528%" x2="61.6007805%" y2="121.699695%" id="linearGradient-9">
            <stop stop-color="#66A2FF" offset="0%"></stop>
            <stop stop-color="#2D6EDF" offset="100%"></stop>
        </linearGradient>
        <linearGradient x1="94.5443039%" y1="44.0155555%" x2="30.2163304%" y2="42.5467519%" id="linearGradient-10">
            <stop stop-color="#8D98C8" offset="0%"></stop>
            <stop stop-color="#33355B" offset="100%"></stop>
        </linearGradient>
        <linearGradient x1="69.7974684%" y1="28.3961553%" x2="41.2072579%" y2="23.0937743%" id="linearGradient-11">
            <stop stop-color="#8D98C8" offset="0%"></stop>
            <stop stop-color="#33355B" offset="100%"></stop>
        </linearGradient>
        <linearGradient x1="61.6007805%" y1="-8.44716528%" x2="61.6007805%" y2="121.699695%" id="linearGradient-12">
            <stop stop-color="#66A2FF" offset="0%"></stop>
            <stop stop-color="#2D6EDF" offset="100%"></stop>
        </linearGradient>
        <linearGradient x1="61.6007805%" y1="-8.44716528%" x2="61.6007805%" y2="121.699695%" id="linearGradient-13">
            <stop stop-color="#66A2FF" offset="0%"></stop>
            <stop stop-color="#2D6EDF" offset="100%"></stop>
        </linearGradient>
        <linearGradient x1="61.6007805%" y1="-8.44716528%" x2="61.6007805%" y2="121.699695%" id="linearGradient-14">
            <stop stop-color="#66A2FF" offset="0%"></stop>
            <stop stop-color="#2D6EDF" offset="100%"></stop>
        </linearGradient>
        <polygon id="path-15" points="-1.83255507e-14 0.499293858 0.34247135 0 18.7224243 1.75751438 19.1376101 4.53358823"></polygon>
        <linearGradient x1="62.9982834%" y1="47.4856032%" x2="61.1186132%" y2="50.4564535%" id="linearGradient-17">
            <stop stop-color="#8D98C8" offset="0%"></stop>
            <stop stop-color="#33355B" offset="100%"></stop>
        </linearGradient>
        <linearGradient x1="50%" y1="4.21596817%" x2="56.7627709%" y2="63.0614492%" id="linearGradient-18">
            <stop stop-color="#8D98C8" offset="0%"></stop>
            <stop stop-color="#8D98C8" offset="28.8078739%"></stop>
            <stop stop-color="#33355B" offset="100%"></stop>
        </linearGradient>
        <linearGradient x1="50%" y1="0%" x2="50%" y2="99.9709671%" id="linearGradient-19">
            <stop stop-color="#ADB8E5" offset="0%"></stop>
            <stop stop-color="#5F6AA0" offset="99.9709671%"></stop>
        </linearGradient>
    </defs>
    <g id="多色设计方案" stroke="none" stroke-width="1" fill="none" fill-rule="evenodd">
        <g id="控件库30*30" transform="translate(-316.000000, -405.000000)">
            <g id="飞机备份" transform="translate(316.000000, 405.000000)">
                <mask id="mask-2" fill="white">
                    <use xlink:href="#path-1"></use>
                </mask>
                <use id="蒙版" fill="#D8D8D8" opacity="0" xlink:href="#path-1"></use>
                <g id="飞机" mask="url(#mask-2)">
                    <g transform="translate(0.000000, 9.000000)">
                        <path d="M22.4147208,6.15 C23.0417182,6.15 23.55,7.00321735 23.55,8.05571429 C23.55,9.10821122 23.0417182,9.96142857 22.4147208,9.96142857 L22.4147208,9.96142857 L18.06566,10.4895573 C18.0342179,10.4964446 18.0021336,10.5 17.9695431,10.5 C17.5721504,10.5 17.25,9.97137621 17.25,9.31928571 C17.25,8.66719522 17.5721504,8.13857143 17.9695431,8.13857143 L17.9695431,8.13857143 L21.8504477,6.40169459 C22.0166691,6.24156108 22.2093251,6.15 22.4147208,6.15 Z" id="形状结合备份" fill="url(#linearGradient-3)"></path>
                        <g id="路径-66" stroke-width="1" fill="none" transform="translate(2.400000, 0.000000)">
                            <mask id="mask-6" fill="white">
                                <use xlink:href="#path-5"></use>
                            </mask>
                            <use id="蒙版" fill="url(#linearGradient-4)" xlink:href="#path-5"></use>
                            <polygon id="路径备份" fill="url(#linearGradient-7)" mask="url(#mask-6)" points="-0.0158957549 11.7437294 27.7857795 5.23714951 24.7337946 -2.54245688 -2.16182266 7.88423637"></polygon>
                            <polygon id="路径" fill="url(#linearGradient-8)" mask="url(#mask-6)" points="-0.0158957549 10.5330357 27.7857795 4.02645576 24.7337946 -3.75315064 -2.16182266 6.67354261"></polygon>
                            <path d="M5.13432883,5.83150825 L22.4414054,1.5225726 C22.9454319,1.39708533 23.4717291,1.39047999 23.9787462,1.50327808 C24.0768308,1.52509933 24.1386544,1.62230219 24.1168332,1.72038675 C24.1017134,1.78834856 24.0491348,1.84172246 23.9814076,1.8578606 L5.86553355,6.17453814 L5.86553355,6.17453814 L5.13432883,5.83150825 Z" fill="url(#linearGradient-9)" mask="url(#mask-6)"></path>
                        </g>
                        <polygon id="矩形" fill="url(#linearGradient-10)" points="25.6666667 2.73529412 27.5666667 2.25 28.2 2.95588235 25.35 3.75"></polygon>
                        <ellipse id="椭圆形" fill="url(#linearGradient-11)" cx="16.65" cy="5.1" rx="1" ry="1"></ellipse>
                        <ellipse id="椭圆形备份-2" fill="url(#linearGradient-12)" cx="17.4" cy="4.95" rx="1" ry="1"></ellipse>
                        <ellipse id="椭圆形备份-3" fill="url(#linearGradient-11)" cx="18.45" cy="4.8" rx="1" ry="1"></ellipse>
                        <ellipse id="椭圆形备份-4" fill="url(#linearGradient-12)" cx="19.2" cy="4.5" rx="1" ry="1"></ellipse>
                        <ellipse id="椭圆形备份-5" fill="url(#linearGradient-11)" cx="19.95" cy="4.2" rx="1" ry="1"></ellipse>
                        <ellipse id="椭圆形备份-6" fill="url(#linearGradient-12)" cx="21" cy="4.2" rx="1" ry="1"></ellipse>
                        <ellipse id="椭圆形备份-7" fill="url(#linearGradient-11)" cx="21.9" cy="4.05" rx="1" ry="1"></ellipse>
                        <ellipse id="椭圆形备份-8" fill="url(#linearGradient-12)" cx="22.65" cy="3.6" rx="1" ry="1"></ellipse>
                        <ellipse id="椭圆形备份-9" fill="url(#linearGradient-11)" cx="23.55" cy="3.6" rx="1" ry="1"></ellipse>
                        <polygon id="路径-62" fill="url(#linearGradient-13)" points="2.46176471 7.78136095 0.75 1.5 2.64803922 1.5 7.95 8.4"></polygon>
                        <g id="路径-67" stroke-width="1" fill="none" transform="translate(0.000000, 5.100000)">
                            <mask id="mask-16" fill="white">
                                <use xlink:href="#path-15"></use>
                            </mask>
                            <use id="蒙版" fill="url(#linearGradient-14)" xlink:href="#path-15"></use>
                            <polygon fill="url(#linearGradient-17)" mask="url(#mask-16)" points="0.0390663915 0 19.4250464 2.55638455 19.4250464 1.27819228"></polygon>
                        </g>
                        <path d="M16.5,6.45 L16.5,10.2614286 L12.079836,10.7894042 C12.0476484,10.7963919 12.0147973,10.8 11.9814241,10.8 C11.5774697,10.8 11.25,10.2713762 11.25,9.61928571 C11.25,9.12431798 11.4386728,8.70048599 11.7062556,8.52497619 L11.7051084,8.52142857 L11.7285923,8.51101349 C11.767009,8.48816802 11.8069411,8.47037906 11.8480786,8.45814663 L16.5,6.45 Z" id="形状结合" fill="url(#linearGradient-18)"></path>
                        <ellipse id="椭圆形" fill="url(#linearGradient-19)" cx="16.425" cy="8.475" rx="1.125" ry="1.875"></ellipse>
                    </g>
                </g>
            </g>
        </g>
    </g>
</svg>