<?xml version="1.0" encoding="UTF-8"?>
<svg width="30px" height="30px" viewBox="0 0 30 30" version="1.1" xmlns="http://www.w3.org/2000/svg" xmlns:xlink="http://www.w3.org/1999/xlink">
    <title>公司备份</title>
    <defs>
        <rect id="path-1" x="0" y="0" width="30" height="30"></rect>
        <linearGradient x1="85.0171267%" y1="35.4627562%" x2="-2.72618596%" y2="65.6229378%" id="linearGradient-3">
            <stop stop-color="#217CFF" offset="0%"></stop>
            <stop stop-color="#6BCFF2" offset="100%"></stop>
        </linearGradient>
        <linearGradient x1="50.9421446%" y1="20.9010508%" x2="50%" y2="92.8538695%" id="linearGradient-4">
            <stop stop-color="#3C94FF" offset="0%"></stop>
            <stop stop-color="#0073FF" offset="100%"></stop>
        </linearGradient>
        <linearGradient x1="50%" y1="11.1531486%" x2="50.875453%" y2="84.4630321%" id="linearGradient-5">
            <stop stop-color="#72CFFF" offset="0%"></stop>
            <stop stop-color="#4694F4" offset="100%"></stop>
        </linearGradient>
        <linearGradient x1="64.5494346%" y1="9.04547014%" x2="64.5494346%" y2="84.3287612%" id="linearGradient-6">
            <stop stop-color="#1439B8" offset="0%"></stop>
            <stop stop-color="#2D6BDD" offset="100%"></stop>
        </linearGradient>
        <linearGradient x1="27.2016497%" y1="34.5914415%" x2="71.1617038%" y2="59.1221429%" id="linearGradient-7">
            <stop stop-color="#4694F4" offset="0%"></stop>
            <stop stop-color="#72CFFF" offset="100%"></stop>
        </linearGradient>
        <linearGradient x1="50%" y1="0%" x2="50%" y2="100%" id="linearGradient-8">
            <stop stop-color="#2D6BDD" offset="0%"></stop>
            <stop stop-color="#1439B8" offset="100%"></stop>
        </linearGradient>
    </defs>
    <g id="多色设计方案" stroke="none" stroke-width="1" fill="none" fill-rule="evenodd">
        <g id="控件库30*30" transform="translate(-216.000000, -177.000000)">
            <g id="公司备份" transform="translate(216.000000, 177.000000)">
                <mask id="mask-2" fill="white">
                    <use xlink:href="#path-1"></use>
                </mask>
                <use id="蒙版" fill="#D8D8D8" opacity="0" xlink:href="#path-1"></use>
                <g id="编组" mask="url(#mask-2)">
                    <g transform="translate(4.350000, 0.000000)">
                        <polygon id="矩形" fill="url(#linearGradient-3)" points="0 9.42121874 14.4526211 -4.39648318e-15 21.159799 2.78380638 6.37551963 13.2"></polygon>
                        <polygon id="路径-39" fill="url(#linearGradient-4)" points="0 9.41909548 6.3678392 13.2 6.3678392 29.9668342 0 26.1859296"></polygon>
                        <path d="M0.696482412,23.6984925 L1.98994975,24.4567294 L1.98994975,26.8492462 L0.696482412,26.0910093 L0.696482412,23.6984925 Z M0.696482412,21.0452261 L1.98994975,21.8034631 L1.98994975,24.1959799 L0.696482412,23.437743 L0.696482412,21.0452261 Z M0.696482412,18.3919598 L1.98994975,19.1501967 L1.98994975,21.5427136 L0.696482412,20.7844766 L0.696482412,18.3919598 Z M0.696482412,15.7386935 L1.98994975,16.4969304 L1.98994975,18.8894472 L0.696482412,18.1312103 L0.696482412,15.7386935 Z M0.696482412,13.0854271 L1.98994975,13.8436641 L1.98994975,16.2361809 L0.696482412,15.477944 L0.696482412,13.0854271 Z M0.696482412,10.4321608 L1.98994975,11.1903977 L1.98994975,13.5829146 L0.696482412,12.8246776 L0.696482412,10.4321608 Z" id="形状结合" fill="#FFFFFF" opacity="0.5"></path>
                        <path d="M2.28844221,24.560804 L3.58190955,25.3190409 L3.58190955,27.7115578 L2.28844221,26.9533209 L2.28844221,24.560804 Z M2.28844221,21.9075377 L3.58190955,22.6657746 L3.58190955,25.0582915 L2.28844221,24.3000545 L2.28844221,21.9075377 Z M2.28844221,19.2542714 L3.58190955,20.0125083 L3.58190955,22.4050251 L2.28844221,21.6467882 L2.28844221,19.2542714 Z M2.28844221,16.601005 L3.58190955,17.3592419 L3.58190955,19.7517588 L2.28844221,18.9935219 L2.28844221,16.601005 Z M2.28844221,13.9477387 L3.58190955,14.7059756 L3.58190955,17.0984925 L2.28844221,16.3402555 L2.28844221,13.9477387 Z M2.28844221,11.2944724 L3.58190955,12.0527093 L3.58190955,14.4452261 L2.28844221,13.6869892 L2.28844221,11.2944724 Z" id="形状结合备份" fill="#FFFFFF" opacity="0.5"></path>
                        <path d="M3.88040201,25.5557789 L5.17386935,26.3140158 L5.17386935,28.7065327 L3.88040201,27.9482957 L3.88040201,25.5557789 Z M3.88040201,22.9025126 L5.17386935,23.6607495 L5.17386935,26.0532663 L3.88040201,25.2950294 L3.88040201,22.9025126 Z M3.88040201,20.2492462 L5.17386935,21.0074832 L5.17386935,23.4 L3.88040201,22.6417631 L3.88040201,20.2492462 Z M3.88040201,17.5959799 L5.17386935,18.3542168 L5.17386935,20.7467337 L3.88040201,19.9884967 L3.88040201,17.5959799 Z M3.88040201,14.9427136 L5.17386935,15.7009505 L5.17386935,18.0934673 L3.88040201,17.3352304 L3.88040201,14.9427136 Z M3.88040201,12.2894472 L5.17386935,13.0476842 L5.17386935,15.440201 L3.88040201,14.6819641 L3.88040201,12.2894472 Z" id="形状结合备份-2" fill="#FFFFFF" opacity="0.5"></path>
                        <polygon id="路径-40" fill="url(#linearGradient-5)" points="6.3678392 13.2 21.159799 2.78592965 21.159799 19.5527638 6.3678392 29.9668342"></polygon>
                        <polygon id="路径备份-7" fill="#FFFFFF" opacity="0.779999971" points="8.4241206 12.8201005 8.4241206 15.4019076 7.09748744 16.3356784 7.09748744 13.7538713"></polygon>
                        <polygon id="路径备份-8" fill="#FFFFFF" opacity="0.779999971" points="8.4241206 15.8713568 8.4241206 18.4531639 7.09748744 19.3869347 7.09748744 16.8051276"></polygon>
                        <polygon id="路径备份-9" fill="#FFFFFF" opacity="0.779999971" points="8.4241206 18.9557789 8.4241206 21.537586 7.09748744 22.4713568 7.09748744 19.8895497"></polygon>
                        <polygon id="路径备份-10" fill="#FFFFFF" opacity="0.779999971" points="8.4241206 22.0070352 8.4241206 24.5888423 7.09748744 25.5226131 7.09748744 22.940806"></polygon>
                        <polygon id="路径备份-11" fill="#FFFFFF" opacity="0.779999971" points="8.4241206 25.0914573 8.4241206 27.6732644 7.09748744 28.6070352 7.09748744 26.0252281"></polygon>
                        <polygon id="路径备份-16" fill="#FFFFFF" opacity="0.779999971" points="10.1487437 11.6924955 10.1487437 14.2743026 8.82211055 15.2080734 8.82211055 12.6262663"></polygon>
                        <polygon id="路径备份-15" fill="#FFFFFF" opacity="0.779999971" points="10.1487437 14.7437518 10.1487437 17.3255589 8.82211055 18.2593296 8.82211055 15.6775226"></polygon>
                        <polygon id="路径备份-14" fill="#FFFFFF" opacity="0.779999971" points="10.1487437 17.8281739 10.1487437 20.409981 8.82211055 21.3437518 8.82211055 18.7619447"></polygon>
                        <polygon id="路径备份-13" fill="#FFFFFF" opacity="0.779999971" points="10.1487437 20.8794302 10.1487437 23.4612372 8.82211055 24.395008 8.82211055 21.8132009"></polygon>
                        <polygon id="路径备份-12" fill="#FFFFFF" opacity="0.779999971" points="10.1487437 23.9638523 10.1487437 26.5456594 8.82211055 27.4794302 8.82211055 24.8976231"></polygon>
                        <polygon id="路径备份-28" fill="#FFFFFF" opacity="0.779999971" points="11.9728643 10.2994975 11.9728643 12.8813046 10.6462312 13.8150754 10.6462312 11.2332683"></polygon>
                        <polygon id="路径备份-27" fill="#FFFFFF" opacity="0.779999971" points="11.9728643 13.3507538 11.9728643 15.9325609 10.6462312 16.8663317 10.6462312 14.2845246"></polygon>
                        <polygon id="路径备份-26" fill="#FFFFFF" opacity="0.779999971" points="11.9728643 16.4351759 11.9728643 19.016983 10.6462312 19.9507538 10.6462312 17.3689467"></polygon>
                        <polygon id="路径备份-25" fill="#FFFFFF" opacity="0.779999971" points="11.9728643 19.4864322 11.9728643 22.0682393 10.6462312 23.0020101 10.6462312 20.420203"></polygon>
                        <polygon id="路径备份-24" fill="#FFFFFF" opacity="0.779999971" points="11.9728643 22.5708543 11.9728643 25.1526614 10.6462312 26.0864322 10.6462312 23.5046251"></polygon>
                        <polygon id="路径备份-22" fill="#FFFFFF" opacity="0.779999971" points="13.7638191 9.07239497 13.7638191 11.6542021 12.4371859 12.5879729 12.4371859 10.0061658"></polygon>
                        <polygon id="路径备份-21" fill="#FFFFFF" opacity="0.779999971" points="13.7638191 12.1236513 13.7638191 14.7054583 12.4371859 15.6392291 12.4371859 13.0574221"></polygon>
                        <polygon id="路径备份-20" fill="#FFFFFF" opacity="0.779999971" points="13.7638191 15.2080734 13.7638191 17.7898805 12.4371859 18.7236513 12.4371859 16.1418442"></polygon>
                        <polygon id="路径备份-19" fill="#FFFFFF" opacity="0.779999971" points="13.7638191 18.2593296 13.7638191 20.8411367 12.4371859 21.7749075 12.4371859 19.1931004"></polygon>
                        <polygon id="路径备份-18" fill="#FFFFFF" opacity="0.779999971" points="13.7638191 21.3437518 13.7638191 23.9255589 12.4371859 24.8593296 12.4371859 22.2775226"></polygon>
                        <polygon id="路径备份-34" fill="#FFFFFF" opacity="0.779999971" points="15.5547739 7.81209347 15.5547739 10.3939006 14.2281407 11.3276714 14.2281407 8.74586426"></polygon>
                        <polygon id="路径备份-33" fill="#FFFFFF" opacity="0.779999971" points="15.5547739 10.8633497 15.5547739 13.4451568 14.2281407 14.3789276 14.2281407 11.7971205"></polygon>
                        <polygon id="路径备份-32" fill="#FFFFFF" opacity="0.779999971" points="15.5547739 13.9477719 15.5547739 16.529579 14.2281407 17.4633497 14.2281407 14.8815427"></polygon>
                        <polygon id="路径备份-31" fill="#FFFFFF" opacity="0.779999971" points="15.5547739 16.9990281 15.5547739 19.5808352 14.2281407 20.514606 14.2281407 17.9327989"></polygon>
                        <polygon id="路径备份-30" fill="#FFFFFF" opacity="0.779999971" points="15.5547739 20.0834503 15.5547739 22.6652573 14.2281407 23.5990281 14.2281407 21.017221"></polygon>
                        <polygon id="路径备份-40" fill="#FFFFFF" opacity="0.779999971" points="17.279397 6.58495779 17.279397 9.16676488 15.9527638 10.1005357 15.9527638 7.51872858"></polygon>
                        <polygon id="路径备份-39" fill="#FFFFFF" opacity="0.779999971" points="17.279397 9.63621407 17.279397 12.2180212 15.9527638 13.151792 15.9527638 10.5699849"></polygon>
                        <polygon id="路径备份-38" fill="#FFFFFF" opacity="0.779999971" points="17.279397 12.7206362 17.279397 15.3024433 15.9527638 16.2362141 15.9527638 13.654407"></polygon>
                        <polygon id="路径备份-37" fill="#FFFFFF" opacity="0.779999971" points="17.279397 15.7718925 17.279397 18.3536996 15.9527638 19.2874704 15.9527638 16.7056633"></polygon>
                        <polygon id="路径备份-36" fill="#FFFFFF" opacity="0.779999971" points="17.279397 18.8563146 17.279397 21.4381217 15.9527638 22.3718925 15.9527638 19.7900854"></polygon>
                        <polygon id="路径备份-46" fill="#FFFFFF" opacity="0.779999971" points="19.0040201 5.49048543 19.0040201 8.07229252 17.6773869 9.00606332 17.6773869 6.42425622"></polygon>
                        <polygon id="路径备份-45" fill="#FFFFFF" opacity="0.779999971" points="19.0040201 8.54174171 19.0040201 11.1235488 17.6773869 12.0573196 17.6773869 9.4755125"></polygon>
                        <polygon id="路径备份-44" fill="#FFFFFF" opacity="0.779999971" points="19.0040201 11.6261638 19.0040201 14.2079709 17.6773869 15.1417417 17.6773869 12.5599346"></polygon>
                        <polygon id="路径备份-43" fill="#FFFFFF" opacity="0.779999971" points="19.0040201 14.6774201 19.0040201 17.2592272 17.6773869 18.192998 17.6773869 15.6111909"></polygon>
                        <polygon id="路径备份-42" fill="#FFFFFF" opacity="0.779999971" points="19.0040201 17.7618422 19.0040201 20.3436493 17.6773869 21.2774201 17.6773869 18.695613"></polygon>
                        <polygon id="路径备份-52" fill="#FFFFFF" opacity="0.779999971" points="20.6623116 4.32968141 20.6623116 6.9114885 19.3356784 7.8452593 19.3356784 5.2634522"></polygon>
                        <polygon id="路径备份-51" fill="#FFFFFF" opacity="0.779999971" points="20.6623116 7.38093769 20.6623116 9.96274478 19.3356784 10.8965156 19.3356784 8.31470848"></polygon>
                        <polygon id="路径备份-50" fill="#FFFFFF" opacity="0.779999971" points="20.6623116 10.4653598 20.6623116 13.0471669 19.3356784 13.9809377 19.3356784 11.3991306"></polygon>
                        <polygon id="路径备份-49" fill="#FFFFFF" opacity="0.779999971" points="20.6623116 13.5166161 20.6623116 16.0984232 19.3356784 17.032194 19.3356784 14.4503869"></polygon>
                        <polygon id="路径备份-48" fill="#FFFFFF" opacity="0.779999971" points="20.6623116 16.6010382 20.6623116 19.1828453 19.3356784 20.1166161 19.3356784 17.534809"></polygon>
                        <polygon id="路径-40备份" fill="url(#linearGradient-6)" points="16.6492462 21.1712563 19.601005 19.0884422 19.601005 24.3684422 16.6492462 26.4512563"></polygon>
                        <polygon id="路径-40备份-2" fill="#AFDFFF" points="17.1135678 22.4237295 19.1366834 20.9788945 19.1366834 24.6415972 17.1135678 26.0864322"></polygon>
                        <polygon id="路径-41" fill="url(#linearGradient-7)" points="17.2130653 17.4301508 19.601005 19.0884422 16.6492462 21.2110553 14.2281407 19.4201005"></polygon>
                        <polygon id="路径-42" fill="url(#linearGradient-8)" points="14.2281407 19.4201005 16.6492462 21.2110553 16.6492462 26.4512563 14.2613065 24.759799"></polygon>
                    </g>
                </g>
            </g>
        </g>
    </g>
</svg>