<?xml version="1.0" encoding="UTF-8"?>
<svg width="30px" height="30px" viewBox="0 0 30 30" version="1.1" xmlns="http://www.w3.org/2000/svg" xmlns:xlink="http://www.w3.org/1999/xlink">
    <title>雇员备份</title>
    <defs>
        <rect id="path-1" x="0" y="0" width="30" height="30"></rect>
        <polygon id="path-3" points="9.46001898e-14 0 4.99389163 0 4.99389163 9.45812808 9.46001898e-14 9.45812808"></polygon>
        <path d="M0.520197044,6.16551724 C1.06206897,3.64334975 2.95862069,1.84039409 6.20985222,0.756650246 L12.3871921,11.320197 L14.6921482,0.00392042297 C15.449175,0.198531213 15.9943538,0.360771203 16.3276847,0.490640394 C17.2751847,0.859796244 17.9232636,1.49033812 18.2719212,2.38226601 C18.9438424,4.47093596 19.355665,6.23448276 19.5073892,7.6729064 C19.7349754,9.83054187 19.9625616,12.9044335 19.2472906,13.879803 C18.5320197,14.8551724 6.75605911,17.5152709 4.67527094,17.5152709 C2.59448276,17.5152709 0.0975369458,16.7586207 0.0975369458,14.8669951 C0.0975369458,12.9753695 -0.292610837,9.94876847 0.520197044,6.16551724 Z" id="path-5"></path>
        <path d="M4.16157635,9.27990881 C6.23011399,9.27990881 7.49083744,6.49067543 7.49083744,3.98335708 C7.49083744,-1.31319464 5.81395636,0.20010585 3.74541872,0.20010585 C1.67688108,0.20010585 0,1.47603873 0,3.98335708 C0,6.49067543 2.09303871,9.27990881 4.16157635,9.27990881 Z" id="path-7"></path>
    </defs>
    <g id="多色设计方案" stroke="none" stroke-width="1" fill="none" fill-rule="evenodd">
        <g id="控件库30*30" transform="translate(-516.000000, -860.000000)">
            <g id="雇员备份" transform="translate(516.000000, 860.000000)">
                <mask id="mask-2" fill="white">
                    <use xlink:href="#path-1"></use>
                </mask>
                <use id="蒙版" fill="#D8D8D8" opacity="0" xlink:href="#path-1"></use>
                <g id="编组-18" mask="url(#mask-2)">
                    <g transform="translate(5.100000, 0.000000)">
                        <g id="编组备份-3">
                            <g id="路径" transform="translate(8.004532, 9.463682)">
                                <mask id="mask-4" fill="white">
                                    <use xlink:href="#path-3"></use>
                                </mask>
                                <use id="蒙版" fill="#EED5BE" xlink:href="#path-3"></use>
                                <polygon fill="#D4B090" mask="url(#mask-4)" points="-2.49694581 -1.51330049 4.3826601 0.82203243 -4.46068966 12.349126"></polygon>
                            </g>
                            <path d="M0.523079022,18.5316622 C1.01076375,16.0489035 2.96150267,14.7424996 4.26199528,13.9917607 C5.12899035,13.4912681 6.37746326,12.9868346 8.007414,12.4784602 L11.6097785,14.2282139 L13.0013056,12.1001351 C14.273313,12.2354127 15.3830667,12.4876295 16.3305667,12.8567853 C17.2780667,13.2259412 17.9261455,13.856483 18.2748032,14.7484109 C18.9467243,16.8370809 19.358547,18.6006277 19.5102711,20.0390513 C19.7378573,22.1966868 19.9654436,25.2705784 19.2501726,26.2459479 C18.5349017,27.2213173 6.75894109,29.8814158 4.67815291,29.8814158 C2.59736474,29.8814158 0.100418924,29.1247656 0.100418924,27.23314 C0.100418924,25.3415144 0.0353942934,21.0144208 0.523079022,18.5316622 Z" id="蒙版" fill="#FFFFFF"></path>
                            <polygon id="路径-11" fill="#000000" points="11.444335 15.2035833 11.1192118 22.3562927 12.5497537 24.2479183 13.6551724 22.1493961 12.3871921 14.9671301"></polygon>
                            <g id="路径-2" transform="translate(0.000000, 12.377968)">
                                <mask id="mask-6" fill="white">
                                    <use xlink:href="#path-5"></use>
                                </mask>
                                <use id="蒙版" fill="#1A1A1A" xlink:href="#path-5"></use>
                                <polygon id="路径-8" fill="#000000" mask="url(#mask-6)" points="14.7280788 0.0472906404 16.3211823 1.76157635 14.2729064 4.21477833 15.3133005 5.13103448 12.3546798 11.3083744"></polygon>
                                <polygon id="路径-7" fill="#000000" mask="url(#mask-6)" points="6.14482759 0.756650246 5.46206897 3.77142857 8.03054187 5.89950739 7.18522167 7.0817734 12.3871921 11.3083744"></polygon>
                                <path d="M0.0975369458,4.27389163 C3.14935961,4.27389163 4.67527094,5.78719212 4.67527094,8.8137931 C4.67527094,11.8403941 4.67527094,15.2453202 4.67527094,19.0285714 L0.0975369458,19.0285714 L0.0975369458,4.27389163 Z" fill="#343434" mask="url(#mask-6)"></path>
                            </g>
                            <path d="M10.5560932,8.39154073 C13.1705734,8.08779379 14.7725318,6.15812384 14.5980296,3.93103448 C14.4235274,1.69705411 13.0049261,0.0591133005 9.91625616,0.0591133005 C5.5270936,-0.325123153 4.55172414,2.03940887 4.77931034,4.58128079 C5.00689655,7.12315271 7.94161312,8.70584292 10.5560932,8.39154073 Z" id="椭圆形" fill="#111514"></path>
                            <g id="路径-5" transform="translate(6.756059, 2.506926)">
                                <mask id="mask-8" fill="white">
                                    <use xlink:href="#path-7"></use>
                                </mask>
                                <use id="蒙版" fill="#EED5BE" xlink:href="#path-7"></use>
                                <path d="M3.69665025,-1.08820655 C5.80648682,-1.08820655 7.51684729,-0.208214503 7.51684729,0.877310694 C7.51684729,1.96283589 5.80648682,2.84282794 3.69665025,2.84282794 C3.08094546,2.84282794 2.49926097,2.76788578 1.98417563,2.6347635 C1.67017645,3.35042044 1.09465372,3.88670792 0.520519333,3.93280609 C-0.224656987,3.99263749 -0.685311421,3.2040501 -0.508381144,2.17144686 C-0.44196208,1.78381089 -0.295134619,1.41689197 -0.0982075437,1.10659741 C-0.114742382,1.03202 -0.123546798,0.955194358 -0.123546798,0.877310694 C-0.123546798,-0.208214503 1.58681368,-1.08820655 3.69665025,-1.08820655 Z" id="形状结合" fill="#D4B090" opacity="0.4" mask="url(#mask-8)"></path>
                                <path d="M-2.77111667e-14,4.74000733 C0.277438424,6.00109107 1.24847291,7.13606644 2.91310345,8.14493344 C4.57773399,9.15380043 6.10364532,9.02769206 7.49083744,7.76660831 L2.08078818,10.7932093 L-2.77111667e-14,4.74000733 Z" fill="#D4B090" opacity="0.4" mask="url(#mask-8)"></path>
                            </g>
                            <path d="M10.7615764,5.34975369 C14.2078818,4.64039409 14.5655172,3.591133 14.2403941,2.74876847 C13.9152709,1.90640394 12.3512159,1.09359606 10.2413793,1.09359606 C8.13154274,1.09359606 6.63251232,2.00314475 6.63251232,3.08866995 C6.63251232,4.17419515 7.31527094,6.0591133 10.7615764,5.34975369 Z" id="椭圆形" fill="#111514"></path>
                            <path d="M7.15270936,8.03940887 C7.89788568,7.97957747 8.83803632,6.17869013 8.71330049,4.46305419 C8.58856467,2.74741825 7.31527094,2.39408867 6.46995074,3.10344828 C5.62463054,3.81280788 5.65714286,7.59605911 7.15270936,8.03940887 Z" id="椭圆形备份-2" fill="#111514"></path>
                            <path d="M6.90933456,8.38190846 C7.35561594,8.38190846 7.59623327,7.85920642 7.4467684,7.21442077 C7.29730353,6.56963513 6.81435577,6.04693309 6.36807439,6.04693309 C5.921793,6.04693309 5.68117567,6.56963513 5.83064054,7.21442077 C5.98010541,7.85920642 6.46305317,8.38190846 6.90933456,8.38190846 Z" id="椭圆形" fill="#EED5BE"></path>
                            <path d="M6.7212827,7.73200852 C6.85745797,7.73200852 6.93087831,7.52028111 6.88527162,7.25910211 C6.83966492,6.99792312 6.69230152,6.78619571 6.55612624,6.78619571 C6.41995097,6.78619571 6.34653063,6.99792312 6.39213732,7.25910211 C6.43774402,7.52028111 6.58510742,7.73200852 6.7212827,7.73200852 Z" id="椭圆形备份" fill="#D4B090" opacity="0.4"></path>
                            <polygon id="路径-6备份" fill="#EFECEC" points="8.06305419 12.6617114 11.6394089 14.2282139 10.826601 15.824273 6.37241379 13.0459479"></polygon>
                            <polygon id="路径-6" fill="#FFFFFF" points="8.03054187 12.4843715 11.6394089 14.2282139 10.7940887 15.5582631 6.37241379 13.0459479"></polygon>
                            <polygon id="路径-9" fill="#EFECEC" points="11.7044335 14.3168838 12.9724138 15.14447 14.0128079 12.2183617 13.0699507 12.188805"></polygon>
                            <polygon id="路径-9备份" fill="#FFFFFF" points="11.6394089 14.1986572 12.8748768 14.9671301 13.9802956 12.2183617 13.0049261 12.0705784"></polygon>
                            <polygon id="路径-10" fill="#000000" points="11.6394089 14.2282139 10.9891626 15.23314 11.964532 15.8833863 12.679803 14.8489035"></polygon>
                        </g>
                        <g id="编组-32" transform="translate(6.300000, 12.300000)">
                            <polyline id="路径-87" stroke="#B80100" stroke-width="0.668503363" points="0.075 0.751485149 6.04912892 9.0270665 8.025 0"></polyline>
                            <polygon id="矩形" fill="#FFFFFF" points="2.23865975 9.11131664 9.85959809 7.88531571 9.85959809 12.5659722 2.23865975 13.7919731"></polygon>
                            <path d="M5.33353289,10.510492 L5.33353289,9.68499389 L3.41307286,10.0222968 L3.41307286,10.847795 L5.33353289,10.510492 Z M4.99736918,10.2973924 L3.74923658,10.5166101 L3.74923658,10.2414441 L4.99736918,10.0222264 L4.99736918,10.2973924 Z M3.56284878,12.1912715 L3.56284878,11.2780831 L5.18375698,10.9933924 L5.18375698,11.8581999 L5.52990576,11.7974036 L5.52990576,10.6453347 L3.2167,11.0516182 L3.2167,12.2520679 L3.56284878,12.1912715 Z M3.04362561,12.8176791 C3.69598292,12.6486729 4.10204206,12.4533782 4.26845974,12.2366734 C4.42822071,12.0604472 4.53139968,11.7399449 4.57799663,11.2721428 L4.22519114,11.3038703 C4.20189267,11.6647711 4.11535547,11.9339696 3.96557956,12.1054182 C3.79250517,12.2870066 3.43969969,12.4366624 2.90716311,12.5543857 L3.04362561,12.8176791 Z M5.63974143,12.3647301 L5.82612923,12.0689228 C5.46666704,11.986915 5.07392131,11.9349434 4.6445637,11.9075449 L4.47148931,12.1707759 C4.87089174,12.197388 5.26030911,12.2620394 5.63974143,12.3647301 Z M9.19109472,11.5444356 L9.19109472,11.2390315 L7.8797234,11.4693562 L7.8797234,9.66112218 L8.98806515,9.46645687 L8.98806515,9.1640766 L6.42190452,9.61478817 L6.42190452,9.91716844 L7.52691792,9.72308771 L7.52691792,11.5313217 L6.21221825,11.762231 L6.21221825,12.0676351 L9.19109472,11.5444356 Z" id="员工" fill="#333333" fill-rule="nonzero"></path>
                        </g>
                    </g>
                </g>
            </g>
        </g>
    </g>
</svg>