<?xml version="1.0" encoding="UTF-8"?>
<svg width="30px" height="30px" viewBox="0 0 30 30" version="1.1" xmlns="http://www.w3.org/2000/svg" xmlns:xlink="http://www.w3.org/1999/xlink">
    <title>雇主备份</title>
    <defs>
        <rect id="path-1" x="0" y="0" width="30" height="30"></rect>
        <polygon id="path-3" points="9.82869916e-14 0 5.18851585 0 5.18851585 9.87160551 9.82869916e-14 9.87160551"></polygon>
        <path d="M0.540470402,6.43505284 C1.1034604,3.8026247 3.07392541,1.9208499 6.45186542,0.789728441 L12.8699514,11.8150778 L15.2647373,0.00409181063 C16.0512673,0.207210327 16.6176931,0.376542902 16.9640147,0.512089536 C17.9484411,0.897383633 18.6217772,1.55549067 18.9840229,2.48641064 C19.6821305,4.66639019 20.1100029,6.5070333 20.2676401,8.00833997 C20.504094,10.2603 20.7405517,13.4685718 19.9974049,14.4865811 C19.2542581,15.5045904 7.01935934,18.2809794 4.85747773,18.2809794 C2.69559613,18.2809794 0.1013382,17.491251 0.1013382,15.5169299 C0.1013382,13.5426088 -0.304014601,10.383695 0.540470402,6.43505284 Z" id="path-5"></path>
        <path d="M4.32376321,9.68559509 C6.47291685,9.68559509 7.78277378,6.77442585 7.78277378,4.15749601 C7.78277378,-1.37060308 6.04054053,0.208853802 3.89138689,0.208853802 C1.74223326,0.208853802 0,1.54056616 0,4.15749601 C0,6.77442585 2.17460958,9.68559509 4.32376321,9.68559509 Z" id="path-7"></path>
    </defs>
    <g id="多色设计方案" stroke="none" stroke-width="1" fill="none" fill-rule="evenodd">
        <g id="控件库30*30" transform="translate(-466.000000, -860.000000)">
            <g id="雇主备份" transform="translate(466.000000, 860.000000)">
                <mask id="mask-2" fill="white">
                    <use xlink:href="#path-1"></use>
                </mask>
                <use id="蒙版" fill="#D8D8D8" opacity="0" xlink:href="#path-1"></use>
                <g id="编组-17" mask="url(#mask-2)">
                    <g transform="translate(4.800000, 0.000000)">
                        <g id="编组" stroke-width="1" fill="none">
                            <g id="路径" transform="translate(8.316488, 8.550905)">
                                <mask id="mask-4" fill="white">
                                    <use xlink:href="#path-3"></use>
                                </mask>
                                <use id="蒙版" fill="#EED5BE" xlink:href="#path-3"></use>
                                <polygon fill="#D4B090" mask="url(#mask-4)" points="-2.59425793 -1.57945688 4.55346313 0.857968913 -4.63453369 12.8889881"></polygon>
                            </g>
                            <path d="M0.543464697,18.0153069 C1.0501557,15.4240104 3.0769197,14.0604949 4.42809571,13.2769362 C5.32887971,12.7545638 6.62600867,12.2280781 8.3194826,11.6974793 L12.0622401,13.5237264 L13.5079985,11.3026151 C14.8295791,11.4438067 15.9825826,11.7070495 16.967009,12.0923436 C17.9514354,12.4776377 18.6247715,13.1357447 18.9870171,14.0666647 C19.6851248,16.2466442 20.1129972,18.0872873 20.2706344,19.588594 C20.5070902,21.840554 20.743546,25.0488258 20.0003992,26.0668351 C19.2572523,27.0848444 7.02235364,29.8612335 4.86047203,29.8612335 C2.69859042,29.8612335 0.104332496,29.071505 0.104332496,27.0971839 C0.104332496,25.1228628 0.0367736959,20.6066033 0.543464697,18.0153069 Z" id="蒙版" fill="#EAF0FC"></path>
                            <polygon id="路径-11" fill="#B80100" points="11.8903488 14.5417357 11.5525548 22.0071373 13.0388484 23.9814584 14.187348 21.791196 12.8699514 14.2949455"></polygon>
                            <g id="路径-2" transform="translate(0.000000, 11.592594)">
                                <mask id="mask-6" fill="white">
                                    <use xlink:href="#path-5"></use>
                                </mask>
                                <use id="蒙版" fill="#232434" xlink:href="#path-5"></use>
                                <polygon id="路径-8" fill="#040408" mask="url(#mask-6)" points="15.3020682 0.0493580275 16.9572588 1.83858653 14.8291566 4.3990342 15.9100974 5.35534599 12.836172 11.8027383"></polygon>
                                <polygon id="路径-7" fill="#040408" mask="url(#mask-6)" points="6.38430662 0.789728441 5.67493922 3.9363027 8.34351182 6.15741394 7.46524742 7.39136462 12.8699514 11.8027383"></polygon>
                                <path d="M0.1013382,4.46073174 C3.27209789,4.46073174 4.85747773,6.04018862 4.85747773,9.19910238 C4.85747773,12.3580161 4.85747773,15.9117941 4.85747773,19.8604363 L0.1013382,19.8604363 L0.1013382,4.46073174 Z" fill="#38394D" mask="url(#mask-6)"></path>
                            </g>
                            <g id="路径-5" transform="translate(7.019359, 1.290023)">
                                <mask id="mask-8" fill="white">
                                    <use xlink:href="#path-7"></use>
                                </mask>
                                <use id="蒙版" fill="#EED5BE" xlink:href="#path-7"></use>
                                <path d="M-2.77111667e-14,4.94722445 C0.288250881,6.26343851 1.29712896,7.44803117 3.02663425,8.50100243 C4.75613953,9.55397368 6.34151938,9.42235228 7.78277378,8.10613821 L2.16188161,11.265052 L-2.77111667e-14,4.94722445 Z" fill="#D4B090" opacity="0.4" mask="url(#mask-8)"></path>
                                <polygon id="路径-86" fill="#363D42" mask="url(#mask-8)" points="0.986358483 1.84112677 0.901909983 3.49153582 1.25659368 3.76917472 0.597895382 4.5403939 0.901909983 6.53013939 0.631674782 6.73065638 -1.00662612 2.35013143"></polygon>
                            </g>
                            <path d="M10.2520479,2.6375696 C11.9105913,2.38108996 14.7886438,3.51286197 14.9911526,3.00201992 C15.1936613,2.49117787 14.8291566,-0.431882741 10.8262977,0.0616975344 C8.15772512,0.390751051 6.75588002,1.77380411 6.62076242,4.21085672 C7.93592385,3.33298506 9.14635236,2.80855602 10.2520479,2.6375696 Z" id="椭圆形" fill="#111514"></path>
                            <polygon id="路径-6备份" fill="#CED8EB" points="8.37729122 11.8887417 12.0930252 13.5237264 11.2485402 15.1895598 6.62076242 12.2897757"></polygon>
                            <polygon id="路径-6" fill="#EAF0FC" points="8.34351182 11.7036491 12.0930252 13.5237264 11.2147608 14.9119209 6.62076242 12.2897757"></polygon>
                            <polygon id="路径-9" fill="#CED8EB" points="12.160584 13.6162727 13.4779806 14.4800381 14.5589214 11.4260102 13.5793188 11.3951614"></polygon>
                            <polygon id="路径-9备份" fill="#EAF0FC" points="12.0930252 13.4928776 13.3766424 14.2949455 14.525142 11.4260102 13.51176 11.2717664"></polygon>
                            <polygon id="路径-10" fill="#B80100" points="12.0930252 13.5237264 11.4174372 14.5725844 12.4308192 15.2512573 13.173966 14.1715505"></polygon>
                            <path d="M7.04442304,7.21861153 C7.50809711,7.21861153 7.75809189,6.67305872 7.60280201,6.00008522 C7.44751213,5.32711173 6.94574271,4.78155892 6.48206864,4.78155892 C6.01839457,4.78155892 5.76839979,5.32711173 5.92368967,6.00008522 C6.07897955,6.67305872 6.58074898,7.21861153 7.04442304,7.21861153 Z" id="椭圆形" fill="#EED5BE"></path>
                            <path d="M6.84904235,6.54030016 C6.99052471,6.54030016 7.06680642,6.31931674 7.01942232,6.04671988 C6.97203822,5.77412302 6.8189317,5.55313961 6.67744934,5.55313961 C6.53596697,5.55313961 6.45968526,5.77412302 6.50706937,6.04671988 C6.55445347,6.31931674 6.70755999,6.54030016 6.84904235,6.54030016 Z" id="椭圆形备份" fill="#D4B090" opacity="0.4"></path>
                        </g>
                        <polygon id="矩形" fill="#111514" points="9 4.90093115 10.95 4.65 10.95 4.84906885 9 5.1"></polygon>
                        <polygon id="矩形" fill="#FFFFFF" points="9.15 5.01909648 10.95 4.8 10.95 5.93090352 9.15 6.15"></polygon>
                        <polygon id="矩形备份-18" fill="#FFFFFF" points="12.45 4.56909648 14.25 4.35 14.25 5.48090352 12.45 5.7"></polygon>
                        <polygon id="矩形备份-17" fill="#111514" points="12.3 4.45093115 14.25 4.2 14.25 4.39906885 12.3 4.65"></polygon>
                    </g>
                </g>
            </g>
        </g>
    </g>
</svg>