<?xml version="1.0" encoding="UTF-8"?>
<svg width="30px" height="30px" viewBox="0 0 30 30" version="1.1" xmlns="http://www.w3.org/2000/svg" xmlns:xlink="http://www.w3.org/1999/xlink">
    <title>商业险备份 4</title>
    <defs>
        <rect id="path-1" x="0" y="0" width="30" height="30"></rect>
        <linearGradient x1="52.9085315%" y1="91.7767422%" x2="52.9085315%" y2="13.923297%" id="linearGradient-3">
            <stop stop-color="#3D4141" offset="0%"></stop>
            <stop stop-color="#182020" offset="100%"></stop>
        </linearGradient>
        <polygon id="path-4" points="0 5.82183233 15.1162962 2.49685113e-13 15.1162962 18.7747544 0 24.6414292"></polygon>
        <path d="M16.5968579,0 L18.9276515,0.613344837 L16.5963954,2.87 L16.5968579,9.44546392 C16.5968579,11.9174523 15.7609236,15.8671783 8.53051388,21.5932324 L8.3055155,21.7710349 L8.08049118,21.7778011 C5.07123167,21.8636352 3.1725501,21.3461566 1.9779769,20.5371618 L1.88477846,20.473556 C0.291098185,19.3374286 0.0133953655,17.6625242 0.0133953655,16.2468693 L0.0133953655,6.80140535 L0.660106944,6.55754284 C5.68496734,4.66584039 7.82560188,1.54688186 7.84631553,1.51701206 L8.28939537,0.857 L8.30512661,0.826682172 L10.6359202,1.48002776 L10.5400475,1.54897679 C11.6250994,1.59921545 13.2303402,1.41046098 15.4163876,0.513893445 L15.4173209,0.513510677 C15.5914554,0.442092547 15.7712675,0.365555712 15.9520128,0.285845894 L16.5968579,0 Z" id="path-6"></path>
        <linearGradient x1="42.3971558%" y1="58.541061%" x2="92.320686%" y2="28.5469656%" id="linearGradient-8">
            <stop stop-color="#3D4141" offset="0%"></stop>
            <stop stop-color="#3B4141" offset="100%"></stop>
        </linearGradient>
        <linearGradient x1="56.4602873%" y1="107.094045%" x2="56.4602873%" y2="-12.2800752%" id="linearGradient-9">
            <stop stop-color="#3B4141" offset="0%"></stop>
            <stop stop-color="#000000" offset="100%"></stop>
            <stop stop-color="#3D4141" offset="100%"></stop>
        </linearGradient>
    </defs>
    <g id="多色设计方案" stroke="none" stroke-width="1" fill="none" fill-rule="evenodd">
        <g id="控件库30*30" transform="translate(-266.000000, -936.000000)">
            <g id="商业险备份-4" transform="translate(266.000000, 936.000000)">
                <mask id="mask-2" fill="white">
                    <use xlink:href="#path-1"></use>
                </mask>
                <use id="蒙版" fill="#D8D8D8" opacity="0" xlink:href="#path-1"></use>
                <g id="交强险备份-2" mask="url(#mask-2)">
                    <g transform="translate(3.600000, 0.000000)">
                        <g id="形状">
                            <mask id="mask-5" fill="white">
                                <use xlink:href="#path-4"></use>
                            </mask>
                            <use id="蒙版" fill="url(#linearGradient-3)" xlink:href="#path-4"></use>
                            <path d="M11.2839958,4.60187386 L11.2839958,8.99801216 C11.2839958,9.26205028 11.2217627,9.55163443 11.0972965,9.86676462 C10.9728303,10.1828584 10.8100668,10.5071861 10.609006,10.841675 C10.4079452,11.1752002 10.1781615,11.5088781 9.91965479,11.8417449 C9.66114808,12.1746118 9.39881164,12.4860419 9.1336029,12.7736852 C8.86743673,13.0627149 8.60893002,13.319454 8.3590402,13.5425161 C8.10819295,13.7669646 7.88798353,13.9412693 7.69936937,14.0669349 L7.61032817,14.1216611 L7.52798899,14.1425922 C7.33458768,14.1855705 7.10959109,14.206842 6.85395668,14.2069478 C6.59832226,14.2060899 6.33215609,14.1819357 6.0564156,14.1321352 C5.78067511,14.0832984 5.50972178,14.0072935 5.24451304,13.9056252 C4.9793043,13.8039569 4.7418611,13.6765402 4.53314087,13.5239163 C4.32442063,13.3703286 4.15591256,13.1932072 4.0266592,12.9881563 C3.89740584,12.7850327 3.83230045,12.5506996 3.83230045,12.2876251 L3.83230045,7.8914868 L4.13772134,7.70943771 L7.56532885,5.51596004 L11.0599566,4.65355931 L11.2839958,4.60187386 Z M7.55814811,6.17067733 L7.51701552,6.18018773 L4.57746998,8.00731973 L4.57746998,10.7727338 L7.55814811,9.45688862 L7.55814811,6.17067733 Z M7.58476131,9.44514 L7.58476131,13.3828986 C7.77451564,13.2529956 7.98143368,13.0905261 8.20456189,12.8968722 C8.4276901,12.7032183 8.64795769,12.4935269 8.86536467,12.2668368 C9.08277164,12.0411079 9.2925503,11.8033684 9.4937471,11.5559615 C9.69494391,11.3085547 9.87325577,11.0587559 10.0286827,10.8075263 C10.1841096,10.5572578 10.3071162,10.3136125 10.3996095,10.0757485 C10.4921028,9.83884556 10.5388262,9.61830362 10.5388262,9.41550472 L10.5388262,8.14104344 L7.58476131,9.44514 Z" fill="#E9CE89" opacity="0.5" mask="url(#mask-5)"></path>
                        </g>
                        <g id="编组-12" transform="translate(3.750000, 7.350000)">
                            <g id="路径-79" transform="translate(0.013395, 0.000000)">
                                <mask id="mask-7" fill="white">
                                    <use xlink:href="#path-6"></use>
                                </mask>
                                <use id="蒙版" fill="#060707" xlink:href="#path-6"></use>
                                <polygon fill="url(#linearGradient-8)" mask="url(#mask-7)" points="6.57712446 0.360006752 10.6359202 1.44002701 5.21079718 10.6001988 3.8444699 8.32015605 2.34418896 7.41347238 -3.08093407 6.08011404"></polygon>
                            </g>
                            <path d="M10.6506118,1.44438246 L11.1109524,1.75285192 C11.1278811,1.76359727 13.1555369,3.01591151 17.7605765,1.12723828 L17.7615098,1.12685551 C17.9356444,1.05543738 18.1154565,0.978900549 18.2962018,0.899190732 L18.9410468,0.613344837 L18.9410468,10.0588088 C18.9410468,12.5307972 18.1051126,16.4805231 10.8747028,22.2065773 L10.6497045,22.3843797 L10.4246801,22.3911459 C7.41542063,22.47698 5.51673907,21.9595014 4.32216586,21.1505066 L4.22896742,21.0869008 C2.63528715,19.9507734 2.35758433,18.275869 2.35758433,16.8602141 L2.35758433,7.41475019 L3.00429591,7.17088767 C8.02915631,5.27918523 10.1697908,2.16022669 10.1905045,2.1303569 L10.6506118,1.44438246 Z" id="形状结合" fill="url(#linearGradient-9)"></path>
                            <path d="M8.78735977,8.32015605 C8.61743251,9.01412374 8.3995936,9.72684438 8.13298981,10.4596158 L8.13298981,10.4596158 L8.13298979,16.8622339 L7.11616693,17.2803241 L7.11616693,12.964236 C6.89835389,13.4376012 6.65517586,13.9089053 6.3895029,14.377787 C6.3650946,14.1963934 6.31625216,13.9404528 6.24398393,13.6104978 C6.19516734,13.3912508 6.15852903,13.2139131 6.1350774,13.0795292 C6.81295071,11.6738817 7.34621,10.1358051 7.7339503,8.46564606 L7.7339503,8.46564606 Z M14.4715022,6.08011404 L14.4715022,9.24237037 L12.3944141,10.0930938 L12.3944141,11.0271069 L15.0910529,9.92263091 L15.0910529,10.8570786 L13.0130053,11.708195 C13.4988338,12.2041283 14.2163229,12.4850045 15.1635538,12.5519675 C15.1145716,12.6681436 15.0175926,12.851741 14.8716573,13.1027948 C14.7502002,13.3679601 14.6532212,13.5631659 14.5807203,13.688949 C13.6666931,13.5364885 12.978156,13.1809385 12.5151089,12.6218854 L12.394414,12.4643706 L12.394414,15.1233762 L11.3003663,15.5714708 L11.3003663,12.9485943 C10.742011,14.1112958 9.97673249,15.1554224 9.00504948,16.0803016 C8.76210927,15.8205071 8.5549787,15.6305261 8.38549881,15.507738 C9.22743566,14.7156132 9.91614223,13.8828097 10.451491,13.0080509 L10.6450579,12.6780472 L8.60396089,13.5140295 L8.60396089,12.5795819 L11.3003664,11.4752015 L11.3003664,10.5411885 L9.29694593,11.3617394 L9.29694593,8.19948312 L14.4715022,6.08011404 Z M13.341784,7.36013805 L10.3412222,8.60862132 L10.3412222,9.92018606 L13.341784,8.67170279 L13.341784,7.36013805 Z" id="形状结合" fill="#E9CE89"></path>
                        </g>
                    </g>
                </g>
            </g>
        </g>
    </g>
</svg>