<?xml version="1.0" encoding="UTF-8"?>
<svg width="30px" height="30px" viewBox="0 0 30 30" version="1.1" xmlns="http://www.w3.org/2000/svg" xmlns:xlink="http://www.w3.org/1999/xlink">
    <title>火车备份</title>
    <defs>
        <rect id="path-1" x="0" y="0" width="30" height="30"></rect>
        <linearGradient x1="94.5443039%" y1="33.4595564%" x2="30.2163304%" y2="29.3999209%" id="linearGradient-3">
            <stop stop-color="#8D98C8" offset="0%"></stop>
            <stop stop-color="#33355B" offset="100%"></stop>
        </linearGradient>
        <linearGradient x1="72.8227847%" y1="41.9291338%" x2="75.3020617%" y2="55.9299067%" id="linearGradient-4">
            <stop stop-color="#81B3FF" offset="0%"></stop>
            <stop stop-color="#66A2FF" offset="100%"></stop>
        </linearGradient>
        <path d="M0.772744186,0.021523998 L23.6652239,0.021523998 C24.2889747,0.021523998 24.8675382,0.346931118 25.1914933,0.879958585 L29.5507355,8.05254641 C30.0630414,8.89548172 29.7950133,9.99412181 28.952078,10.5064277 C28.6725024,10.6763438 28.3516267,10.7662048 28.0244661,10.7662048 L0,10.7662048 L0,10.7662048 L0,5.39386442 L0,2.71561802 L0,1.36857101 L0.772744186,0.021523998 Z" id="path-5"></path>
        <linearGradient x1="42.9658946%" y1="37.690927%" x2="66.9748043%" y2="62.309073%" id="linearGradient-7">
            <stop stop-color="#C6DDFF" offset="0%"></stop>
            <stop stop-color="#94BEFF" offset="100%"></stop>
        </linearGradient>
        <linearGradient x1="61.6007805%" y1="-8.44716528%" x2="61.6007805%" y2="121.699695%" id="linearGradient-8">
            <stop stop-color="#66A2FF" offset="0%"></stop>
            <stop stop-color="#2D6EDF" offset="100%"></stop>
        </linearGradient>
        <linearGradient x1="100%" y1="50.5220577%" x2="38.5208156%" y2="50%" id="linearGradient-9">
            <stop stop-color="#C6D8EF" offset="0%"></stop>
            <stop stop-color="#FFFFFF" offset="100%"></stop>
        </linearGradient>
        <linearGradient x1="50%" y1="100%" x2="50%" y2="0%" id="linearGradient-10">
            <stop stop-color="#4083F8" offset="0%"></stop>
            <stop stop-color="#2D6EDF" offset="100%"></stop>
        </linearGradient>
    </defs>
    <g id="多色设计方案" stroke="none" stroke-width="1" fill="none" fill-rule="evenodd">
        <g id="控件库30*30" transform="translate(-266.000000, -405.000000)">
            <g id="火车备份" transform="translate(266.000000, 405.000000)">
                <mask id="mask-2" fill="white">
                    <use xlink:href="#path-1"></use>
                </mask>
                <use id="蒙版" fill="#D8D8D8" opacity="0" xlink:href="#path-1"></use>
                <g id="火车" mask="url(#mask-2)">
                    <g transform="translate(0.000000, 7.500000)">
                        <path d="M7.956,1.36424205e-13 C12.0259207,1.36424205e-13 15.3677997,2.72747716 15.7244992,6.2074358 L15.756,6.20742459 L15.756,13.2066125 L10.7267564,13.2068522 C9.86576213,13.4932105 8.93180686,13.65 7.956,13.65 C6.98019314,13.65 6.04623787,13.4932105 5.18524362,13.2068522 L0.156,13.2066125 L0.156,6.20742459 L0.187500807,6.2074358 C0.544200304,2.72747716 3.88607934,1.36424205e-13 7.956,1.36424205e-13 Z" id="形状结合" fill="url(#linearGradient-3)"></path>
                        <g id="矩形备份-7" stroke-width="1" fill="none" transform="translate(0.000000, 4.200000)">
                            <mask id="mask-6" fill="white">
                                <use xlink:href="#path-5"></use>
                            </mask>
                            <use id="蒙版" fill="url(#linearGradient-4)" xlink:href="#path-5"></use>
                            <polygon id="矩形" fill="url(#linearGradient-7)" mask="url(#mask-6)" points="17.0148837 1.38829787 24.0893023 1.38829787 27.3544186 6.51843147 20.28 6.51843147"></polygon>
                            <polygon id="矩形备份-9" fill="#FFFFFF" mask="url(#mask-6)" transform="translate(29.463281, 9.542801) scale(-1, 1) translate(-29.463281, -9.542801) " points="27.8484375 9.35663038 31.078125 9.35663038 31.078125 9.72897081 28.2113237 9.72897081"></polygon>
                            <polygon id="矩形" fill="#FFFFFF" mask="url(#mask-6)" points="18.890625 7.92046017 30.46875 7.92046017 30.46875 8.55875804 18.890625 8.55875804"></polygon>
                            <path d="M-11.4257812,0.021523998 L13.6998563,0.021523998 C14.3235091,0.021523998 14.9019965,0.346829633 15.2259828,0.879723411 L19.5867386,8.05231124 C20.0991744,8.8951676 19.8313156,9.99384897 18.9884593,10.5062848 C18.7088299,10.6762925 18.3878662,10.7662048 18.0606122,10.7662048 L-11.4257812,10.7662048 L-11.4257812,10.7662048 L-11.4257812,0.021523998 Z" fill="url(#linearGradient-8)" mask="url(#mask-6)"></path>
                            <path d="M-1.2796875,5.84599208 L11.6805914,5.92155081 C12.0729635,5.92383835 12.4633224,5.97783538 12.8415819,6.0821467 L19.5304687,7.92671799 L19.5304687,7.92671799 L19.8960937,8.55875804 L12.8164044,6.70004051 C12.4547123,6.60508106 12.0825238,6.55593414 11.7085803,6.55375404 L-1.2796875,6.47803213 L-1.2796875,6.47803213 L-1.2796875,5.84599208 Z" id="矩形" fill="url(#linearGradient-9)" mask="url(#mask-6)"></path>
                            <path d="M7.20005451,0.872587828 L13.3623452,0.872587828 C13.6688982,0.872587828 13.9540256,1.02982606 14.1176043,1.28908799 L15.8937111,4.10410531 C16.1568875,4.52122338 16.0320931,5.07271104 15.6149751,5.33588748 C15.4723308,5.42588744 15.3071155,5.47365166 15.138452,5.47365166 L7.20005451,5.47365166 C6.70685138,5.47365166 6.30703125,5.07383153 6.30703125,4.5806284 L6.30703125,1.76561108 C6.30703125,1.27240796 6.70685138,0.872587828 7.20005451,0.872587828 Z" id="矩形" fill="url(#linearGradient-10)" mask="url(#mask-6)"></path>
                            <path d="M-4.31713299,0.872587828 L1.8451577,0.872587828 C2.1517107,0.872587828 2.43683808,1.02982606 2.60041678,1.28908799 L4.37652355,4.10410531 C4.63969999,4.52122338 4.51490564,5.07271104 4.09778757,5.33588748 C3.9551433,5.42588744 3.78992798,5.47365166 3.62126447,5.47365166 L-4.31713299,5.47365166 C-4.81033612,5.47365166 -5.21015625,5.07383153 -5.21015625,4.5806284 L-5.21015625,1.76561108 C-5.21015625,1.27240796 -4.81033612,0.872587828 -4.31713299,0.872587828 Z" id="矩形备份-8" fill="url(#linearGradient-10)" mask="url(#mask-6)" transform="translate(0.015234, 3.173120) scale(-1, 1) translate(-0.015234, -3.173120) "></path>
                        </g>
                    </g>
                </g>
            </g>
        </g>
    </g>
</svg>