<?xml version="1.0" encoding="UTF-8"?>
<svg width="30px" height="30px" viewBox="0 0 30 30" version="1.1" xmlns="http://www.w3.org/2000/svg" xmlns:xlink="http://www.w3.org/1999/xlink">
    <title>商业险备份 3</title>
    <defs>
        <rect id="path-1" x="0" y="0" width="30" height="30"></rect>
        <linearGradient x1="43.5379057%" y1="17.7662037%" x2="44.4483873%" y2="116.245714%" id="linearGradient-3">
            <stop stop-color="#3593DF" offset="0%"></stop>
            <stop stop-color="#004AA7" offset="100%"></stop>
        </linearGradient>
        <polygon id="path-4" points="0 5.82183233 15.1162962 2.49685113e-13 15.1162962 18.7747544 0 24.6414292"></polygon>
        <path d="M16.5968579,0 L18.9276515,0.613344837 L16.5963954,2.87 L16.5968579,9.44546392 C16.5968579,11.9174523 15.7609236,15.8671783 8.53051388,21.5932324 L8.3055155,21.7710349 L8.08049118,21.7778011 C5.07123167,21.8636352 3.1725501,21.3461566 1.9779769,20.5371618 L1.88477846,20.473556 C0.291098185,19.3374286 0.0133953655,17.6625242 0.0133953655,16.2468693 L0.0133953655,6.80140535 L0.660106944,6.55754284 C5.68496734,4.66584039 7.82560188,1.54688186 7.84631553,1.51701206 L8.28939537,0.857 L8.30512661,0.826682172 L10.6359202,1.48002776 L10.5400475,1.54897679 C11.6250994,1.59921545 13.2303402,1.41046098 15.4163876,0.513893445 L15.4173209,0.513510677 C15.5914554,0.442092547 15.7712675,0.365555712 15.9520128,0.285845894 L16.5968579,0 Z" id="path-6"></path>
        <linearGradient x1="50%" y1="9.77351458%" x2="50%" y2="86.5627233%" id="linearGradient-8">
            <stop stop-color="#2E6DBC" offset="0%"></stop>
            <stop stop-color="#004AA7" offset="100%"></stop>
        </linearGradient>
        <linearGradient x1="29.3795436%" y1="18.6065636%" x2="29.3795436%" y2="73.3858629%" id="linearGradient-9">
            <stop stop-color="#FFFFFF" offset="0%"></stop>
            <stop stop-color="#FFFFFF" stop-opacity="0" offset="100%"></stop>
        </linearGradient>
    </defs>
    <g id="多色设计方案" stroke="none" stroke-width="1" fill="none" fill-rule="evenodd">
        <g id="控件库30*30" transform="translate(-316.000000, -936.000000)">
            <g id="商业险备份-3" transform="translate(316.000000, 936.000000)">
                <mask id="mask-2" fill="white">
                    <use xlink:href="#path-1"></use>
                </mask>
                <use id="蒙版" fill="#D8D8D8" opacity="0" xlink:href="#path-1"></use>
                <g id="交强险备份-3" mask="url(#mask-2)">
                    <g transform="translate(3.600000, 0.500000)">
                        <g id="形状">
                            <mask id="mask-5" fill="white">
                                <use xlink:href="#path-4"></use>
                            </mask>
                            <use id="蒙版" fill="url(#linearGradient-3)" xlink:href="#path-4"></use>
                            <path d="M11.9227125,8.35253967 C11.9227125,10.3970648 2.13511418,12.6551531 1.39476059,12.6551531 C0.978780315,12.6551531 0.508031501,12.558168 0.508031482,12.1725133 C0.508031482,12.0431997 0.655710996,11.8573932 0.914557662,11.6324007 L0.226690604,10.4029427 C0.182247355,10.3236449 0.174052267,10.2290154 0.204199538,10.1432363 C0.23434681,10.0574572 0.299915589,9.98883912 0.384150218,9.95491705 L0.502163422,9.90756739 C0.716099499,9.82102953 0.957291589,9.83370107 1.16101619,9.94218162 L2.40797897,10.6073625 C2.93793351,10.293322 3.47716791,9.99526633 4.02495554,9.71359712 L1.59427463,8.12656757 C1.50439291,8.06767919 1.45049494,7.96711922 1.45115382,7.85954037 C1.45181271,7.75196151 1.50693838,7.65207151 1.59753465,7.59429222 L1.79607069,7.4682442 C2.12642599,7.25925095 2.52870281,7.19737686 2.90643808,7.29745891 L6.94985754,8.37213263 C8.21051246,7.86761397 9.35087215,7.52375757 10.0247211,7.52375757 C10.2046749,7.52375757 10.3859328,7.52832925 10.5600185,7.5410647 L9.33946202,8.09619848 L9.30979573,8.50960988 L11.1950731,7.63674363 C11.6475657,7.74548454 11.9227125,7.94729201 11.9227125,8.35253967 L11.9227125,8.35253967 Z M7.01177926,11.8905714 L8.51977531,13.6180423 C8.61121525,13.7234811 8.76138619,13.755125 8.88740435,13.6955088 L9.08914405,13.6007186 C9.45802413,13.4268384 9.67480995,13.0359594 9.62755111,12.6299355 L9.438522,11.0021579 C9.4332648,10.9546317 9.40668387,10.9121043 9.36632391,10.8866466 C9.32596395,10.861189 9.27623122,10.8555803 9.2312418,10.8714127 L7.07826536,11.636272 C7.02876766,11.6538195 6.9911552,11.6948239 6.97783954,11.7457543 C6.96452387,11.7966847 6.97723531,11.8509231 7.01177926,11.8905714 Z" fill="#FFFFFF" fill-rule="nonzero" opacity="0.699999988" mask="url(#mask-5)"></path>
                            <ellipse id="椭圆形" stroke="#C0DCF3" stroke-width="1.18046659" mask="url(#mask-5)" cx="9.92672269" cy="6.58174982" rx="3.29529355" ry="3.31600847"></ellipse>
                            <polyline id="路径-80" stroke="#BFDAF2" stroke-width="1.18046659" mask="url(#mask-5)" points="9.92672269 3.29087491 9.92672269 6.4078418 11.9227125 6.4078418"></polyline>
                        </g>
                        <g id="编组-12" transform="translate(3.750000, 7.350000)">
                            <g id="路径-79" transform="translate(0.013395, 0.000000)">
                                <mask id="mask-7" fill="white">
                                    <use xlink:href="#path-6"></use>
                                </mask>
                                <use id="蒙版" fill="#00367A" xlink:href="#path-6"></use>
                                <polygon fill="url(#linearGradient-8)" mask="url(#mask-7)" points="6.57712446 0.360006752 10.6359202 1.44002701 5.21079718 10.6001988 3.8444699 8.32015605 2.34418896 7.41347238 -3.08093407 6.08011404"></polygon>
                            </g>
                            <path d="M18.3975138,1.12774241 L18.6910468,10.0588088 C18.6910468,12.4891622 17.837958,16.3556103 10.7777458,21.9632814 C7.45702368,22.2132152 5.61912485,21.7269055 4.46706085,20.9467778 C2.86028526,19.8040151 2.60758433,18.2053106 2.60758433,16.8602141 L2.60758433,16.8602141 L2.60758433,7.5876632 L3.09237795,7.4048568 C8.18291155,5.48843046 10.3569656,2.32920025 10.397757,2.27015027 L10.397757,2.27015027 L10.719034,1.79116961 L10.9787944,1.96523233 C11.0030359,1.97926769 11.0742036,2.02016204 11.194523,2.0720787 L11.3097429,2.11890867 C12.0739083,2.41165213 14.1549026,2.87624902 17.855441,1.35854056 C18.032474,1.28593369 18.214305,1.20853913 18.3975138,1.12774241 L18.3975138,1.12774241 Z" id="形状结合" stroke="url(#linearGradient-9)" stroke-width="0.5" fill="#61ADFF"></path>
                            <path d="M8.78735977,8.32015605 C8.61743251,9.01412374 8.3995936,9.72684438 8.13298981,10.4596158 L8.13298981,10.4596158 L8.13298979,16.8622339 L7.11616693,17.2803241 L7.11616693,12.964236 C6.89835389,13.4376012 6.65517586,13.9089053 6.3895029,14.377787 C6.3650946,14.1963934 6.31625216,13.9404528 6.24398393,13.6104978 C6.19516734,13.3912508 6.15852903,13.2139131 6.1350774,13.0795292 C6.81295071,11.6738817 7.34621,10.1358051 7.7339503,8.46564606 L7.7339503,8.46564606 Z M14.4715022,6.08011404 L14.4715022,9.24237037 L12.3944141,10.0930938 L12.3944141,11.0271069 L15.0910529,9.92263091 L15.0910529,10.8570786 L13.0130053,11.708195 C13.4988338,12.2041283 14.2163229,12.4850045 15.1635538,12.5519675 C15.1145716,12.6681436 15.0175926,12.851741 14.8716573,13.1027948 C14.7502002,13.3679601 14.6532212,13.5631659 14.5807203,13.688949 C13.6666931,13.5364885 12.978156,13.1809385 12.5151089,12.6218854 L12.394414,12.4643706 L12.394414,15.1233762 L11.3003663,15.5714708 L11.3003663,12.9485943 C10.742011,14.1112958 9.97673249,15.1554224 9.00504948,16.0803016 C8.76210927,15.8205071 8.5549787,15.6305261 8.38549881,15.507738 C9.22743566,14.7156132 9.91614223,13.8828097 10.451491,13.0080509 L10.6450579,12.6780472 L8.60396089,13.5140295 L8.60396089,12.5795819 L11.3003664,11.4752015 L11.3003664,10.5411885 L9.29694593,11.3617394 L9.29694593,8.19948312 L14.4715022,6.08011404 Z M13.341784,7.36013805 L10.3412222,8.60862132 L10.3412222,9.92018606 L13.341784,8.67170279 L13.341784,7.36013805 Z" id="形状结合" fill="#FFFFFF"></path>
                        </g>
                    </g>
                </g>
            </g>
        </g>
    </g>
</svg>