<?xml version="1.0" encoding="UTF-8"?>
<svg width="30px" height="30px" viewBox="0 0 30 30" version="1.1" xmlns="http://www.w3.org/2000/svg" xmlns:xlink="http://www.w3.org/1999/xlink">
    <title>交强险备份 4</title>
    <defs>
        <rect id="path-1" x="0" y="0" width="30" height="30"></rect>
        <linearGradient x1="50%" y1="7.20108696%" x2="50%" y2="100%" id="linearGradient-3">
            <stop stop-color="#00B572" offset="0%"></stop>
            <stop stop-color="#007E3E" offset="100%"></stop>
        </linearGradient>
        <polygon id="path-4" points="0 5.82183233 15.1162962 2.49685113e-13 15.1162962 18.7747544 0 24.6414292"></polygon>
        <path d="M16.5968579,0 L18.9276515,0.613344837 L16.5963954,2.87 L16.5968579,9.44546392 C16.5968579,11.9174523 15.7609236,15.8671783 8.53051388,21.5932324 L8.3055155,21.7710349 L8.08049118,21.7778011 C5.07123167,21.8636352 3.1725501,21.3461566 1.9779769,20.5371618 L1.88477846,20.473556 C0.291098185,19.3374286 0.0133953655,17.6625242 0.0133953655,16.2468693 L0.0133953655,6.80140535 L0.660106944,6.55754284 C5.68496734,4.66584039 7.82560188,1.54688186 7.84631553,1.51701206 L8.28939537,0.857 L8.30512661,0.826682172 L10.6359202,1.48002776 L10.5400475,1.54897679 C11.6250994,1.59921545 13.2303402,1.41046098 15.4163876,0.513893445 L15.4173209,0.513510677 C15.5914554,0.442092547 15.7712675,0.365555712 15.9520128,0.285845894 L16.5968579,0 Z" id="path-6"></path>
        <linearGradient x1="50%" y1="0%" x2="50%" y2="100%" id="linearGradient-8">
            <stop stop-color="#00D9A8" stop-opacity="0" offset="0%"></stop>
            <stop stop-color="#00B26F" offset="100%"></stop>
        </linearGradient>
        <linearGradient x1="29.3795436%" y1="18.6065636%" x2="29.3795436%" y2="73.3858629%" id="linearGradient-9">
            <stop stop-color="#FFFFFF" offset="0%"></stop>
            <stop stop-color="#FFFFFF" stop-opacity="0" offset="100%"></stop>
        </linearGradient>
    </defs>
    <g id="多色设计方案" stroke="none" stroke-width="1" fill="none" fill-rule="evenodd">
        <g id="控件库30*30" transform="translate(-166.000000, -936.000000)">
            <g id="交强险备份-4" transform="translate(166.000000, 936.000000)">
                <mask id="mask-2" fill="white">
                    <use xlink:href="#path-1"></use>
                </mask>
                <use id="蒙版" fill="#D8D8D8" opacity="0" xlink:href="#path-1"></use>
                <g id="交强险" mask="url(#mask-2)">
                    <g transform="translate(3.600000, 0.150000)">
                        <g id="形状">
                            <mask id="mask-5" fill="white">
                                <use xlink:href="#path-4"></use>
                            </mask>
                            <use id="蒙版" fill="url(#linearGradient-3)" xlink:href="#path-4"></use>
                            <path d="M9.98992843,4.49199966 L5.10091547,6.49272022 C4.04375961,6.92531053 3.18927487,8.57481661 2.98604406,10.440081 C2.24342518,11.1854101 1.86048862,12.2445678 1.86292383,13.288557 C1.86463214,14.0637893 2.07977893,14.6719017 2.49400399,14.9910277 L2.49815653,16.7219254 L4.41920354,15.9359336 L4.41671201,14.9222115 L10.7117666,12.3458687 L10.7142581,13.3595817 L12.6353141,12.5733055 L12.6311616,10.8424079 C13.0431659,10.1857459 13.2552615,9.40242969 13.2533724,8.62730859 C13.251109,7.58515844 12.8634692,6.84033361 12.1183588,6.7033118 C11.9076624,5.00784308 11.0468135,4.05952313 9.98992843,4.49199966 Z M5.11275851,7.16430489 L9.99579279,5.1718934 C10.6755518,4.89449444 11.2715142,5.57675237 11.4969014,6.73859649 C11.3929174,6.75997577 11.283677,6.79153625 11.1705687,6.83075219 C11.1705687,6.82797574 11.1736162,6.82119572 11.1711277,6.82247647 C10.2524302,7.1973613 10.5394882,7.08008717 9.89262934,7.34414275 C9.24577048,7.60819833 9.47283467,7.5152601 8.8276438,7.77863909 L4.10612587,9.70524152 C3.93466463,9.77507334 3.7726073,9.85939518 3.61939487,9.95288997 C3.8403551,8.60833469 4.4329995,7.44142573 5.11275851,7.16430489 Z M3.03390452,12.7914669 C3.03280627,12.3116341 3.37131558,11.7836424 3.79113636,11.6118668 C4.2092981,11.4410487 4.54946645,11.6914864 4.55085678,12.1712153 C4.55195503,12.6527125 4.21371622,13.1789299 3.79528399,13.350132 C3.3751927,13.5217344 3.03502435,13.272129 3.03390452,12.7914669 Z M9.7636396,10.7865381 L5.34015582,12.5856149 C4.65059139,12.866912 4.6355918,11.6797645 5.3373751,11.3935107 L9.76086794,9.58913242 C10.4059589,9.32586978 10.4087487,10.5232664 9.7636396,10.7865381 Z M11.2724917,10.3001598 C10.8534993,10.4715597 10.5133301,10.2219304 10.512213,9.74126448 C10.511121,9.26142466 10.8496222,8.73318317 11.2683441,8.56215093 C11.687616,8.39063749 12.0280558,8.64098905 12.0291653,9.12109526 C12.0294353,9.60294457 11.6914841,10.1292981 11.2724917,10.3001598 Z" fill="#D2F4E3" mask="url(#mask-5)"></path>
                        </g>
                        <g id="编组-12" transform="translate(3.750000, 7.350000)">
                            <g id="路径-79" transform="translate(0.013395, 0.000000)">
                                <mask id="mask-7" fill="white">
                                    <use xlink:href="#path-6"></use>
                                </mask>
                                <use id="蒙版" fill="#006331" xlink:href="#path-6"></use>
                                <polygon fill="url(#linearGradient-8)" mask="url(#mask-7)" points="6.57712446 0.360006752 10.6359202 1.44002701 5.21079718 10.6001988 3.8444699 8.32015605 2.34418896 7.41347238 -3.08093407 6.08011404"></polygon>
                            </g>
                            <path d="M18.3975138,1.12774241 L18.6910468,10.0588088 C18.6910468,12.4891622 17.837958,16.3556103 10.7777458,21.9632814 C7.45702368,22.2132152 5.61912485,21.7269055 4.46706085,20.9467778 C2.86028526,19.8040151 2.60758433,18.2053106 2.60758433,16.8602141 L2.60758433,16.8602141 L2.60758433,7.5876632 L3.09237795,7.4048568 C8.18291155,5.48843046 10.3569656,2.32920025 10.397757,2.27015027 L10.397757,2.27015027 L10.719034,1.79116961 L10.9787944,1.96523233 C11.0030359,1.97926769 11.0742036,2.02016204 11.194523,2.0720787 L11.3097429,2.11890867 C12.0739083,2.41165213 14.1549026,2.87624902 17.855441,1.35854056 C18.032474,1.28593369 18.214305,1.20853913 18.3975138,1.12774241 L18.3975138,1.12774241 Z" id="形状结合" stroke="url(#linearGradient-9)" stroke-width="0.5" fill="#30BC76"></path>
                            <path d="M8.78735977,8.32015605 C8.61743251,9.01412374 8.3995936,9.72684438 8.13298981,10.4596158 L8.13298981,10.4596158 L8.13298979,16.8622339 L7.11616693,17.2803241 L7.11616693,12.964236 C6.89835389,13.4376012 6.65517586,13.9089053 6.3895029,14.377787 C6.3650946,14.1963934 6.31625216,13.9404528 6.24398393,13.6104978 C6.19516734,13.3912508 6.15852903,13.2139131 6.1350774,13.0795292 C6.81295071,11.6738817 7.34621,10.1358051 7.7339503,8.46564606 L7.7339503,8.46564606 Z M14.4715022,6.08011404 L14.4715022,9.24237037 L12.3944141,10.0930938 L12.3944141,11.0271069 L15.0910529,9.92263091 L15.0910529,10.8570786 L13.0130053,11.708195 C13.4988338,12.2041283 14.2163229,12.4850045 15.1635538,12.5519675 C15.1145716,12.6681436 15.0175926,12.851741 14.8716573,13.1027948 C14.7502002,13.3679601 14.6532212,13.5631659 14.5807203,13.688949 C13.6666931,13.5364885 12.978156,13.1809385 12.5151089,12.6218854 L12.394414,12.4643706 L12.394414,15.1233762 L11.3003663,15.5714708 L11.3003663,12.9485943 C10.742011,14.1112958 9.97673249,15.1554224 9.00504948,16.0803016 C8.76210927,15.8205071 8.5549787,15.6305261 8.38549881,15.507738 C9.22743566,14.7156132 9.91614223,13.8828097 10.451491,13.0080509 L10.6450579,12.6780472 L8.60396089,13.5140295 L8.60396089,12.5795819 L11.3003664,11.4752015 L11.3003664,10.5411885 L9.29694593,11.3617394 L9.29694593,8.19948312 L14.4715022,6.08011404 Z M13.341784,7.36013805 L10.3412222,8.60862132 L10.3412222,9.92018606 L13.341784,8.67170279 L13.341784,7.36013805 Z" id="形状结合" fill="#FFFFFF"></path>
                        </g>
                    </g>
                </g>
            </g>
        </g>
    </g>
</svg>