<?xml version="1.0" encoding="UTF-8"?>
<svg width="30px" height="30px" viewBox="0 0 30 30" version="1.1" xmlns="http://www.w3.org/2000/svg" xmlns:xlink="http://www.w3.org/1999/xlink">
    <title>驾驶员备份</title>
    <defs>
        <rect id="path-1" x="0" y="0" width="30" height="30"></rect>
        <linearGradient x1="70.3689396%" y1="85.912339%" x2="33.164671%" y2="14.1524635%" id="linearGradient-3">
            <stop stop-color="#3D4141" offset="0%"></stop>
            <stop stop-color="#000000" offset="0%"></stop>
            <stop stop-color="#3B4141" offset="100%"></stop>
        </linearGradient>
        <polygon id="path-4" points="1.97524295e-16 7.9030401 23.5509807 1.71063795e-13 23.5509807 16.6761134 1.97524295e-16 24.5791535"></polygon>
        <linearGradient x1="42.1086344%" y1="24.8638521%" x2="55.7775196%" y2="77.57733%" id="linearGradient-6">
            <stop stop-color="#949D9D" offset="0%"></stop>
            <stop stop-color="#404444" offset="100%"></stop>
        </linearGradient>
        <linearGradient x1="72.1862687%" y1="54.4227584%" x2="31.8937155%" y2="44.8707406%" id="linearGradient-7">
            <stop stop-color="#3D4141" offset="0%"></stop>
            <stop stop-color="#000000" offset="0%"></stop>
            <stop stop-color="#3C3F3F" offset="100%"></stop>
        </linearGradient>
        <path d="M4.17610832,10.6151203 L12.3737019,7.46272131 C12.4023509,7.45170429 12.4345065,7.46599782 12.4455236,7.4946468 C12.4479715,7.5010126 12.4492269,7.50777461 12.4492269,7.51459488 L12.4492269,17.872281 C12.4492269,17.8952783 12.4350629,17.9159002 12.4135981,17.9241546 L4.21600446,21.0765536 C4.18735548,21.0875706 4.15519984,21.0732771 4.14418282,21.0446281 C4.14173484,21.0382623 4.14047948,21.0315003 4.14047948,21.02468 L4.14047948,10.6669939 C4.14047948,10.6439966 4.15464345,10.6233747 4.17610832,10.6151203 Z" id="path-8"></path>
    </defs>
    <g id="多色设计方案" stroke="none" stroke-width="1" fill="none" fill-rule="evenodd">
        <g id="控件库30*30" transform="translate(-166.000000, -860.000000)">
            <g id="驾驶员备份" transform="translate(166.000000, 860.000000)">
                <mask id="mask-2" fill="white">
                    <use xlink:href="#path-1"></use>
                </mask>
                <use id="蒙版" fill="#D8D8D8" opacity="0" xlink:href="#path-1"></use>
                <g id="编组-2" mask="url(#mask-2)">
                    <g transform="translate(2.550000, 2.250000)">
                        <g id="编组" stroke="none" stroke-width="1" fill="none" fill-rule="evenodd">
                            <g id="椭圆形" transform="translate(1.194903, 0.778077)">
                                <mask id="mask-5" fill="white">
                                    <use xlink:href="#path-4"></use>
                                </mask>
                                <use id="蒙版" fill="url(#linearGradient-3)" xlink:href="#path-4"></use>
                                <ellipse fill="url(#linearGradient-6)" opacity="0.200000003" mask="url(#mask-5)" cx="-1.55615336" cy="8.68415843" rx="16.8675909" ry="17.673456"></ellipse>
                            </g>
                            <polygon id="路径-43" fill="#1A1A1A" points="0 7.90608175 1.19490347 8.68415843 1.19490347 25.3572302 0 24.5791535"></polygon>
                            <polygon id="路径-44" fill="url(#linearGradient-7)" points="0 7.90608175 23.5509807 -4.22773313e-13 24.7458842 0.778076681 1.19490347 8.68415843"></polygon>
                        </g>
                        <polygon id="路径" stroke="none" fill="#FFFFFF" fill-rule="evenodd" points="23.5923965 5.40512098 23.5923965 6.5238448 14.172111 9.93463881 14.172111 8.81591476"></polygon>
                        <polygon id="路径备份-54" stroke="none" fill="#FFFFFF" fill-rule="evenodd" points="21.9250893 8.73973533 21.9250893 9.85845915 14.172111 12.7134841 14.172111 11.5947601"></polygon>
                        <polygon id="路径备份" stroke="none" fill="#FFFFFF" fill-rule="evenodd" points="18.0624944 14.3925031 14.172111 15.8257908 14.172111 14.7025408 18.0624944 13.2692532"></polygon>
                        <path d="M9.4949089,11.1345896 C9.55097564,11.3566463 9.55650855,11.3748306 9.55134451,11.6274532 C9.54931578,11.7248166 9.49804421,12.191628 9.51187647,12.3232823 C9.52331113,12.4317335 9.54931578,12.430527 9.59062812,12.5075236 C9.66218699,12.6415091 9.63821109,12.8743645 9.610731,13.0485361 C9.59560773,13.1438452 9.56388575,13.2835647 9.51538063,13.3755873 C9.46208033,13.4770698 9.3552953,13.5192922 9.30826563,13.6316868 C9.24021092,13.7934176 9.27857238,13.9681388 9.2357846,14.1309473 C9.18709506,14.315421 9.0629736,14.3756066 9.05375209,14.5958995 C9.11442959,14.5813126 9.17510709,14.5671248 9.2357846,14.552538 C9.29664654,14.668566 9.40804231,14.9064629 9.52183568,14.9466917 C9.61718604,14.9374795 9.71235197,14.9285391 9.80770233,14.9191275 C10.1418897,14.9364851 10.512963,14.9683268 10.8475192,14.9899295 C11.1523822,15.0095943 11.5171849,14.9163972 11.6274741,15.2189736 C11.6274741,15.4536119 11.6479459,16.0000665 11.642413,16.3098969 L5.00292942,18.9103091 C4.99721208,18.6048849 5.01768383,18.0423944 5.01768383,17.8077562 C5.12778859,17.4188605 5.49277576,17.2264285 5.79763871,16.9677597 C6.13237935,16.684021 6.50363713,16.3614388 6.83745561,16.0824507 C6.93280597,16.0171728 7.02815633,15.9514958 7.12350669,15.8860184 C7.23730005,15.7566532 7.34869584,15.4314981 7.40937334,15.267868 L7.54474503,15.1793335 C7.51412963,15.0063671 7.40826676,15.0334637 7.36418796,14.9200404 C7.34685153,14.7299018 7.32969954,14.539691 7.31236311,14.3497519 C7.31310083,14.3588406 7.18787279,14.3737689 7.17127409,14.3692962 C6.99477448,14.3187104 6.99127031,13.8340465 6.97430274,13.6385759 C6.96655668,13.5492308 7.08514523,13.4269661 7.05231667,13.2704292 C6.85866507,12.3542496 7.13604794,11.7815212 7.57406942,11.455935 C7.87819465,11.2035408 8.44623936,10.7338529 8.97610703,10.8788815 L9.10742126,10.9591359 L9.32025359,10.9154832 C9.42685419,10.9403726 9.4949089,11.1345896 9.4949089,11.1345896 Z" id="路径" stroke="none" fill="#E9CE89" fill-rule="evenodd"></path>
                        <mask id="mask-9" fill="white">
                            <use xlink:href="#path-8"></use>
                        </mask>
                        <path stroke="#E9CE89" stroke-width="0.5" d="M12.1263402,7.82725769 L12.1979834,17.7017959 L4.4633662,20.7120172 L4.39172299,10.837479 L12.1263402,7.82725769 Z"></path>
                    </g>
                </g>
            </g>
        </g>
    </g>
</svg>