<?xml version="1.0" encoding="UTF-8"?>
<svg width="30px" height="30px" viewBox="0 0 30 30" version="1.1" xmlns="http://www.w3.org/2000/svg" xmlns:xlink="http://www.w3.org/1999/xlink">
    <title>交通银行备份 2</title>
    <defs>
        <rect id="path-1" x="0" y="0" width="30" height="30"></rect>
        <linearGradient x1="50%" y1="9.77351458%" x2="50%" y2="86.5627233%" id="linearGradient-3">
            <stop stop-color="#37208E" offset="0%"></stop>
            <stop stop-color="#170169" offset="100%"></stop>
        </linearGradient>
        <linearGradient x1="50%" y1="9.77351458%" x2="50%" y2="86.5627233%" id="linearGradient-4">
            <stop stop-color="#B5A3FF" offset="0.09765625%"></stop>
            <stop stop-color="#7B61E7" offset="100%"></stop>
            <stop stop-color="#7B61E7" offset="100%"></stop>
        </linearGradient>
    </defs>
    <g id="多色设计方案" stroke="none" stroke-width="1" fill="none" fill-rule="evenodd">
        <g id="控件库30*30" transform="translate(-316.000000, -253.000000)">
            <g id="交通银行备份-2" transform="translate(316.000000, 253.000000)">
                <mask id="mask-2" fill="white">
                    <use xlink:href="#path-1"></use>
                </mask>
                <use id="蒙版" fill="#D8D8D8" opacity="0" xlink:href="#path-1"></use>
                <g id="编组-22" mask="url(#mask-2)">
                    <g transform="translate(2.700000, 1.350000)">
                        <path d="M7.11325782,0 L9.69574468,0.393072289 L8.13532355,6.5536655 C9.90012919,3.96281832 11.4895049,3.18733108 13.7617021,2.90873494 C16.9675532,2.51566265 19.9509125,4.43684434 21.3067998,6.75993519 C22.662687,9.08302605 21.9524604,13.6273061 20.8548374,16.643121 C20.1230887,18.6536643 16.8517416,21.6984591 11.0407962,25.7775055 L6.30734519,26.1 C4.31033854,24.9996969 3.02572691,24.2129761 2.45351028,23.7398376 C1.59518533,23.0301298 0.777348574,21.8900424 0,20.3195753 L0,6.75492738 L7.11325782,0 Z" id="形状结合" fill="url(#linearGradient-3)"></path>
                        <path d="M13.2,27.0815085 C18.9989899,25.9488759 23.7,20.7297154 23.7,15.4241872 C23.7,10.1186591 18.9989899,6.7358589 13.2,7.86849152 C7.40101013,9.00112413 2.7,14.2202846 2.7,19.5258128 C2.7,24.8313409 7.40101013,28.2141411 13.2,27.0815085 Z" id="椭圆形" fill="#FFFFFF"></path>
                        <path d="M17.4370287,18.1329526 C16.5454042,22.4460209 9.15580362,23.0212137 9.9781757,17.6181347 C10.3924534,14.4348567 14.2538922,12.2061744 16.6480461,13.9926581 C17.1748589,14.5149759 17.4314637,15.0541385 17.6021214,16.3235925 C18.7843586,16.0044322 20.3802551,15.5895728 21.5624922,15.2724183 C21.6243247,8.61410443 14.6434369,6.83229912 9.40931682,11.2527815 C4.39161047,15.4875091 4.18083891,24.9530099 9.43721867,26.1587812 L9.43721867,26.30854 C6.57066455,26.9002682 2.63572229,24.529381 1.95,21.8337022 L1.99080944,7.36921603 C4.26439,5.17849397 7.23776034,2.49318759 9.5162875,0.3 C9.60532629,0.329831342 9.75469486,0.342235559 9.84620694,0.371502704 C9.84620694,1.81922675 9.85873361,4.20623589 9.88378695,7.53253012 C12.106773,4.44036145 14.9919746,3.18253012 18.5393917,3.75903614 C23.8605173,4.62379518 27.5311822,14.586789 21.4283157,19.4367695 C21.2910476,19.4680825 20.9923967,19.8290412 20.7697997,19.9272872 C20.7697997,19.8771448 20.9089228,19.6321361 21.0202213,19.3834462 C21.2001538,18.6036354 21.3825597,17.8239289 21.5624922,17.0447867 C20.1520932,17.4153256 18.848046,17.7616041 17.4370287,18.1329526 Z" id="Fill-1" fill="url(#linearGradient-4)"></path>
                    </g>
                </g>
            </g>
        </g>
    </g>
</svg>