<?xml version="1.0" encoding="UTF-8"?>
<svg width="30px" height="30px" viewBox="0 0 30 30" version="1.1" xmlns="http://www.w3.org/2000/svg" xmlns:xlink="http://www.w3.org/1999/xlink">
    <title>摩托车备份</title>
    <defs>
        <rect id="path-1" x="0" y="0" width="30" height="30"></rect>
        <linearGradient x1="40.1653561%" y1="-4.46863978%" x2="68.1148322%" y2="100%" id="linearGradient-3">
            <stop stop-color="#8D98C8" offset="0%"></stop>
            <stop stop-color="#33355B" offset="100%"></stop>
        </linearGradient>
        <linearGradient x1="50%" y1="0%" x2="50%" y2="100%" id="linearGradient-4">
            <stop stop-color="#AECDF2" offset="0%"></stop>
            <stop stop-color="#FFFFFF" offset="100%"></stop>
        </linearGradient>
        <linearGradient x1="0%" y1="50%" x2="133.874434%" y2="50%" id="linearGradient-5">
            <stop stop-color="#8D98C8" offset="0%"></stop>
            <stop stop-color="#33355B" offset="100%"></stop>
        </linearGradient>
        <linearGradient x1="66.1041661%" y1="44.4944638%" x2="4.69275862%" y2="44.4944638%" id="linearGradient-6">
            <stop stop-color="#343655" offset="0%"></stop>
            <stop stop-color="#3E4168" offset="100%"></stop>
        </linearGradient>
        <linearGradient x1="22.8547199%" y1="43.1560607%" x2="100%" y2="56.2824584%" id="linearGradient-7">
            <stop stop-color="#8D98C8" offset="0%"></stop>
            <stop stop-color="#33355B" offset="100%"></stop>
        </linearGradient>
        <linearGradient x1="66.1041661%" y1="44.4944638%" x2="4.69275862%" y2="44.4944638%" id="linearGradient-8">
            <stop stop-color="#3E4168" offset="0%"></stop>
            <stop stop-color="#343655" offset="100%"></stop>
        </linearGradient>
        <linearGradient x1="72.8227847%" y1="7.55576535%" x2="75.3020617%" y2="81.1850478%" id="linearGradient-9">
            <stop stop-color="#81B3FF" offset="0%"></stop>
            <stop stop-color="#66A2FF" offset="100%"></stop>
        </linearGradient>
        <path d="M17.2698213,0 L11.6043478,0 L11.2874558,0.320452608 C10.6512952,0.963761082 10.4251586,1.90720526 10.7005554,2.76900728 L11.8950216,6.50686255 C11.9712575,6.74542859 11.9459538,7.00485464 11.8250551,7.22419267 L8.17164808,13.8523105 L8.17164808,13.8523105 L0,13.8523105 L0.247542983,14.4617506 C0.661088341,15.4798812 1.65038655,16.14584 2.74929959,16.14584 L14.5427123,16.14584 C15.4841605,16.14584 16.3409128,15.6020927 16.7417114,14.7502211 L20.263541,7.26479944 C20.378139,7.02122885 20.379195,6.73945598 20.266426,6.49503323 L17.2698213,0 L17.2698213,0 Z" id="path-10"></path>
        <linearGradient x1="70.100256%" y1="-18.05222%" x2="72.2837802%" y2="100%" id="linearGradient-12">
            <stop stop-color="#81B3FF" offset="0%"></stop>
            <stop stop-color="#66A2FF" offset="100%"></stop>
        </linearGradient>
        <linearGradient x1="9.98340972%" y1="50%" x2="93.0584572%" y2="50%" id="linearGradient-13">
            <stop stop-color="#33355B" offset="0%"></stop>
            <stop stop-color="#8D98C8" offset="100%"></stop>
        </linearGradient>
        <path d="M1.37313194,0 L5.46188969,0 C5.73480925,2.82932397e-16 5.97423695,0.181985562 6.0472822,0.444948447 L6.62108649,2.51064387 C6.71089297,2.83394723 6.52160636,3.16883893 6.19830301,3.25864541 C6.14535191,3.27335405 6.09064998,3.28081038 6.03569397,3.28081038 L0.799327652,3.28081038 C0.463782923,3.28081038 0.191770175,3.00879763 0.191770175,2.6732529 C0.191770175,2.6182969 0.199226504,2.56359497 0.213935141,2.51064387 L0.787739426,0.444948447 C0.860784672,0.181985562 1.10021238,3.83201417e-16 1.37313194,0 Z" id="path-14"></path>
        <linearGradient x1="66.1041661%" y1="44.4944638%" x2="4.69275862%" y2="44.4944638%" id="linearGradient-16">
            <stop stop-color="#343655" offset="0%"></stop>
            <stop stop-color="#3E4168" offset="100%"></stop>
        </linearGradient>
        <linearGradient x1="66.1041661%" y1="44.4944638%" x2="4.69275862%" y2="44.4944638%" id="linearGradient-17">
            <stop stop-color="#343655" offset="0%"></stop>
            <stop stop-color="#3E4168" offset="100%"></stop>
        </linearGradient>
        <linearGradient x1="22.8547199%" y1="21.3174772%" x2="100%" y2="76.3293915%" id="linearGradient-18">
            <stop stop-color="#8D98C8" offset="0%"></stop>
            <stop stop-color="#33355B" offset="100%"></stop>
        </linearGradient>
        <linearGradient x1="-23.7697425%" y1="50%" x2="71.7893467%" y2="52.011273%" id="linearGradient-19">
            <stop stop-color="#FFFFFF" offset="0%"></stop>
            <stop stop-color="#FFFFFF" stop-opacity="0" offset="100%"></stop>
        </linearGradient>
        <linearGradient x1="46.0467761%" y1="28.9456192%" x2="50%" y2="59.8141324%" id="linearGradient-20">
            <stop stop-color="#8D98C8" offset="0%"></stop>
            <stop stop-color="#33355B" offset="100%"></stop>
        </linearGradient>
        <linearGradient x1="66.1041661%" y1="44.4944638%" x2="4.69275862%" y2="44.4944638%" id="linearGradient-21">
            <stop stop-color="#343655" offset="0%"></stop>
            <stop stop-color="#3E4168" offset="100%"></stop>
        </linearGradient>
    </defs>
    <g id="多色设计方案" stroke="none" stroke-width="1" fill="none" fill-rule="evenodd">
        <g id="控件库30*30" transform="translate(-416.000000, -405.000000)">
            <g id="摩托车备份" transform="translate(416.000000, 405.000000)">
                <mask id="mask-2" fill="white">
                    <use xlink:href="#path-1"></use>
                </mask>
                <use id="蒙版" fill="#D8D8D8" opacity="0" xlink:href="#path-1"></use>
                <g id="摩托车" mask="url(#mask-2)">
                    <g transform="translate(1.500000, 4.500000)">
                        <g id="编组-15" stroke="none" stroke-width="1" fill-rule="evenodd" transform="translate(0.000000, 2.490986)">
                            <g id="编组-2" transform="translate(0.000000, 8.748828)">
                                <path d="M2.91627589,9.56903028 L2.9158659,8.62256638 C2.21537981,7.7528883 1.76191669,6.36427599 1.76191669,4.79970408 C1.76191669,3.23513216 2.21537981,1.84651985 2.9158659,0.976841769 L2.91627589,0.0303778739 L4.67819258,0.0303778739 C6.24292041,0.07190457 7.50333485,2.19126182 7.50333485,4.79970408 C7.50333485,7.4337302 6.21807462,9.56903028 4.63262577,9.56903028 L4.67791669,9.56637787 L4.67819258,9.56903028 L2.91627589,9.56903028 Z" id="形状结合" fill="url(#linearGradient-3)"></path>
                                <ellipse id="椭圆形" fill="#343655" cx="2.87070908" cy="4.78451514" rx="2.87070908" ry="4.78451514"></ellipse>
                                <ellipse id="椭圆形备份-20" fill="url(#linearGradient-4)" cx="2.71881971" cy="4.66300364" rx="1.62521625" ry="2.71881971"></ellipse>
                            </g>
                            <path d="M3.63015593,11.4524585 L6.986911,11.4524585 L6.986911,11.4524585 L6.986911,15.0674255 L3.63015593,15.0674255 C2.63191036,15.0674255 1.82267243,14.2581875 1.82267243,13.259942 C1.82267243,12.2616964 2.63191036,11.4524585 3.63015593,11.4524585 Z" id="矩形" fill="url(#linearGradient-5)"></path>
                            <polygon id="矩形" fill="url(#linearGradient-6)" points="4.55668108 7.41220123 12.3030389 7.41220123 12.3030389 14.702891 6.37935352 14.702891"></polygon>
                            <path d="M10.2069656,7.38182336 L14.3383565,7.38182336 L13.6013148,8.99410205 C13.2932645,9.66796209 13.2421136,10.4311745 13.4574878,11.1401147 L14.945914,16.0395174 L14.945914,16.0395174 L10.8145231,16.0395174 L9.32609697,11.1401147 C9.11072272,10.4311745 9.16187364,9.66796209 9.46992394,8.99410205 L10.2069656,7.38182336 L10.2069656,7.38182336 Z" id="矩形" fill="#555B85"></path>
                            <path d="M6.10595265,4.98197132 L11.638101,4.98197132 C13.3158247,4.98197132 14.6758884,6.34203506 14.6758884,8.01975871 L14.6758884,8.01975871 L14.6758884,8.01975871 L6.10595265,8.01975871 L6.10595265,4.98197132 Z" id="矩形备份" fill="url(#linearGradient-7)"></path>
                            <path d="M3.4934555,4.98197132 L7.16917824,4.98197132 C8.84690189,4.98197132 10.2069656,6.34203506 10.2069656,8.01975871 L10.2069656,8.01975871 L10.2069656,8.01975871 L1.9745618,8.01975871 L1.9745618,6.50086501 C1.9745618,5.66200319 2.65459367,4.98197132 3.4934555,4.98197132 Z" id="矩形" fill="url(#linearGradient-8)"></path>
                            <g id="编组" transform="translate(5.680662, 0.000000)">
                                <g id="矩形">
                                    <mask id="mask-11" fill="white">
                                        <use xlink:href="#path-10"></use>
                                    </mask>
                                    <use id="蒙版" fill="url(#linearGradient-9)" xlink:href="#path-10"></use>
                                    <path d="M11.3613248,-2.49098566 L15.3104484,-2.49098566 L18.4595693,5.17643901 C18.5870491,5.48682454 18.4387746,5.84178449 18.1283891,5.96926426 C18.0551515,5.999344 17.9767407,6.01481903 17.8975666,6.01481903 L15.2620526,6.01481903 C15.015657,6.01481903 14.7936602,5.86600489 14.7000499,5.63808409 L11.3613248,-2.49098566 L11.3613248,-2.49098566 Z" fill="#3E4168" mask="url(#mask-11)"></path>
                                    <path d="M10.7993342,-2.18720692 L13.7114791,6.47750025 C13.8205242,6.80194958 13.7876719,7.15734272 13.620999,7.45630485 L7.12529909,19.1076827 L7.12529909,19.1076827 L-0.683502163,19.1076827 L-0.683502163,12.4397394 L8.18683702,12.4397394 L10.3436661,5.71104029 L9.70573071,-0.607557478 L10.7993342,-2.18720692 Z" id="路径" fill="#4280ED" mask="url(#mask-11)"></path>
                                </g>
                                <path d="M15.0795715,7.77673572 L18.2783196,7.77673572 C18.3454286,7.77673572 18.3998311,7.83113827 18.3998311,7.89824721 C18.3998311,7.91612539 18.395886,7.93378331 18.3882772,7.94996154 L15.5022899,14.0862921 C15.4822535,14.1288945 15.4394112,14.1560892 15.3923323,14.1560892 L12.3976235,14.1560892 C12.3305145,14.1560892 12.276112,14.1016867 12.276112,14.0345777 C12.276112,14.0178292 12.2795744,14.0012615 12.2862819,13.9859147 L14.9682299,7.84958419 C14.9875701,7.8053335 15.031279,7.77673572 15.0795715,7.77673572 Z" id="路径-68" fill="#3E4168"></path>
                                <path d="M16.5255634,18.317858 L16.5251534,17.3713941 C15.8246673,16.501716 15.3712042,15.1131037 15.3712042,13.5485318 C15.3712042,11.9839598 15.8246673,10.5953475 16.5251534,9.72566945 L16.5255634,8.77920556 L18.2874801,8.77920556 C19.8522079,8.82073225 21.1126224,10.9400895 21.1126224,13.5485318 C21.1126224,16.1825579 19.8273621,18.317858 18.2419133,18.317858 L18.2872042,18.3152056 L18.2874801,18.317858 L16.5255634,18.317858 Z" id="形状结合" fill="url(#linearGradient-3)"></path>
                                <ellipse id="椭圆形" fill="#343655" cx="16.4799966" cy="13.5333428" rx="2.87070908" ry="4.78451514"></ellipse>
                                <ellipse id="椭圆形备份-20" fill="url(#linearGradient-4)" cx="16.3281072" cy="13.4118313" rx="1.62521625" ry="2.71881971"></ellipse>
                                <path d="M14.9703815,7.86786934 L16.8574404,12.9785831 C16.9636746,13.285331 16.8021999,13.6204926 16.4967765,13.7271875 L16.4807396,13.7325305 C16.1621113,13.8335863 15.8217701,13.6587387 15.7168932,13.3401105 L14.3079786,9.35185886 L14.9703815,7.86786934 Z" id="路径" fill="#4280ED"></path>
                                <g id="编组-13" transform="translate(14.216845, 8.475427)"></g>
                                <path d="M16.5616475,5.31612793 C17.2829233,5.31612793 17.627067,4.64289638 17.3303139,3.81242317 C17.0335608,2.98194997 16.2082853,2.30871842 15.4870095,2.30871842 C14.7657336,2.30871842 14.42159,2.98194997 14.7183431,3.81242317 C15.0150962,4.64289638 15.8403717,5.31612793 16.5616475,5.31612793 Z" id="椭圆形" fill="#FFFFFF"></path>
                                <path d="M16.3767635,4.79970408 C16.8498584,4.79970408 17.0755871,4.35768336 16.8809425,3.81242317 C16.686298,3.26716299 16.1449883,2.82514227 15.6718934,2.82514227 C15.1987985,2.82514227 14.9730699,3.26716299 15.1677144,3.81242317 C15.3623589,4.35768336 15.9036687,4.79970408 16.3767635,4.79970408 Z" id="椭圆形备份" fill="url(#linearGradient-12)"></path>
                            </g>
                            <g id="矩形备份-13" transform="translate(0.182267, 6.683132)">
                                <mask id="mask-15" fill="white">
                                    <use xlink:href="#path-14"></use>
                                </mask>
                                <use id="蒙版" fill="url(#linearGradient-13)" xlink:href="#path-14"></use>
                                <path d="M0.46179572,0.6986911 L4.55055347,0.6986911 C4.82347303,0.6986911 5.06290074,0.880676662 5.13594598,1.14363955 L5.70975027,3.20933497 C5.79955676,3.53263833 5.61027014,3.86753003 5.28696679,3.95733651 C5.23401569,3.97204515 5.17931376,3.97950148 5.12435776,3.97950148 L-0.112008564,3.97950148 C-0.447553294,3.97950148 -0.719566042,3.70748873 -0.719566042,3.371944 C-0.719566042,3.316988 -0.712109713,3.26228607 -0.697401076,3.20933497 L-0.123596791,1.14363955 C-0.0505515451,0.880676662 0.188876159,0.6986911 0.46179572,0.6986911 Z" fill="url(#linearGradient-16)" mask="url(#mask-15)"></path>
                            </g>
                        </g>
                        <path d="M16.1762178,1.29105964 L17.0789505,1.29105964 C17.3216923,1.29105964 17.5485137,1.41187243 17.683963,1.61330988 L17.8429605,1.84976774 C17.9784098,2.0512052 18.2052312,2.17201798 18.447973,2.17201798 L21.5126134,2.17201798 C21.7887644,2.17201798 22.0412141,2.01599549 22.1647125,1.76899857 L22.2021723,1.69407906 C22.3256708,1.44708213 22.5781204,1.29105964 22.8542714,1.29105964 L23.117562,1.29105964 L23.117562,1.29105964" id="路径-69" stroke="#575C86" stroke-width="0.5"></path>
                        <g id="编组-4" stroke="none" stroke-width="1" fill-rule="evenodd" transform="translate(17.953323, 0.000000)">
                            <path d="M0.607557478,0 L2.52136353,0 L3.31545958,1.0852646 C3.39163754,1.18937448 3.43269975,1.31502969 3.43269975,1.44403336 L3.43269975,2.49098566 L3.43269975,2.49098566 L0.607557478,2.49098566 L0.129935393,1.51186039 C0.0479300761,1.34374949 0.0479300761,1.14723617 0.129935393,0.979125274 L0.607557478,0 L0.607557478,0 Z" id="矩形备份-2" fill="url(#linearGradient-17)"></path>
                            <path d="M2.97169226,0.25 L3.64934973,1.17613187 L3.73816083,2.24098566 L1.34094427,2.24098566 L0.931807109,1.40225448 L1.34094427,0.25 L2.97169226,0.25 Z" id="矩形" stroke="url(#linearGradient-19)" stroke-width="0.5" fill="url(#linearGradient-18)"></path>
                        </g>
                        <g id="编组-3" stroke="none" stroke-width="1" fill-rule="evenodd" transform="translate(22.631516, 0.759447)">
                            <path d="M0.486045982,1.06322559 L0.486045982,0 L2.36947416,0 C2.65611717,0.00831962635 2.88589802,0.243132114 2.88589802,0.531612793 C2.88589802,0.825214432 2.64788687,1.06322559 2.35428523,1.06322559 L2.36904598,1.062 L2.36947416,1.06322559 L0.486045982,1.06322559 Z" id="形状结合" fill="url(#linearGradient-20)"></path>
                            <circle id="椭圆形" fill="url(#linearGradient-21)" cx="0.531612793" cy="0.531612793" r="1"></circle>
                        </g>
                        <g id="编组-3备份" stroke="none" stroke-width="1" fill-rule="evenodd" transform="translate(13.821933, 0.759447)">
                            <path d="M0.486045982,1.06322559 L0.486045982,0 L2.36947416,0 C2.65611717,0.00831962635 2.88589802,0.243132114 2.88589802,0.531612793 C2.88589802,0.825214432 2.64788687,1.06322559 2.35428523,1.06322559 L2.36904598,1.062 L2.36947416,1.06322559 L0.486045982,1.06322559 Z" id="形状结合" fill="url(#linearGradient-20)"></path>
                            <circle id="椭圆形" fill="url(#linearGradient-21)" cx="0.531612793" cy="0.531612793" r="1"></circle>
                        </g>
                    </g>
                </g>
            </g>
        </g>
    </g>
</svg>