<?xml version="1.0" encoding="UTF-8"?>
<svg width="30px" height="30px" viewBox="0 0 30 30" version="1.1" xmlns="http://www.w3.org/2000/svg" xmlns:xlink="http://www.w3.org/1999/xlink">
    <title>女人备份 2</title>
    <defs>
        <rect id="path-1" x="0" y="0" width="30" height="30"></rect>
        <polygon id="path-3" points="9.32225171e-14 0 4.92116505 0 4.92116505 9.40795153 9.32225171e-14 9.40795153"></polygon>
        <path d="M0.448543689,6.35489936 C0.929126214,3.9017213 2.85145631,2.61088236 4.13300971,1.86908805 C4.98737864,1.3745585 6.2176699,0.876135021 7.8238835,0.373817609 L12.3349515,5.60726414 L12.7450485,6.21776792e-14 C13.9985315,0.133665897 15.0921238,0.382877636 16.0258252,0.747635218 C16.9595267,1.1123928 17.5981675,1.73542215 17.9417476,2.61672326 C18.6038835,4.68050798 19.0097087,6.42304319 19.1592233,7.84432889 C19.3834951,9.97625744 19.607767,13.0135255 18.9029126,13.977274 C18.1980583,14.9410226 6.59359223,17.5694276 4.5431068,17.5694276 C2.49262136,17.5694276 0.032038835,16.8217924 0.032038835,14.9527044 C0.032038835,13.0836163 -0.032038835,8.80807742 0.448543689,6.35489936 Z" id="path-5"></path>
        <path d="M4.10097087,9.21774962 C6.13938418,9.21774962 7.38174757,6.44719924 7.38174757,3.95667554 C7.38174757,-1.30439853 5.72928709,0.19876549 3.69087379,0.19876549 C1.65246048,0.19876549 0,1.46615185 0,3.95667554 C0,6.44719924 2.06255757,9.21774962 4.10097087,9.21774962 Z" id="path-7"></path>
    </defs>
    <g id="多色设计方案" stroke="none" stroke-width="1" fill="none" fill-rule="evenodd">
        <g id="控件库30*30" transform="translate(-216.000000, -101.000000)">
            <g id="女人备份-2" transform="translate(216.000000, 101.000000)">
                <mask id="mask-2" fill="white">
                    <use xlink:href="#path-1"></use>
                </mask>
                <use id="蒙版" fill="#D8D8D8" opacity="0" xlink:href="#path-1"></use>
                <g id="女人备份" mask="url(#mask-2)">
                    <g transform="translate(5.250000, 0.000000)">
                        <path d="M9.08084577,0 C5.39129353,0 4.16144279,2.62742283 4.16144279,4.50415342 C4.16144279,6.38088401 4.15989353,6.43309453 3.7835199,10.5683391 C3.53260415,13.3251689 2.47143085,15.9330424 0.6,18.3919598 L16.05,13.1371141 C15.2300995,12.8868834 14.6834992,12.3864219 14.410199,11.6357297 C14.410199,9.13342221 14.410199,6.50599938 14.410199,3.75346118 C13.3169983,1.25115373 11.5405473,0 9.08084577,0 Z" id="路径-3" fill="#67430C"></path>
                        <g id="路径" stroke-width="1" fill="none" transform="translate(7.800000, 9.648241)">
                            <mask id="mask-4" fill="white">
                                <use xlink:href="#path-3"></use>
                            </mask>
                            <use id="蒙版" fill="#EED5BE" xlink:href="#path-3"></use>
                            <path d="M-2.46058252,-1.50527225 C3.2807767,-0.250878708 6.15145631,0.376318061 6.15145631,0.376318061 C6.15145631,0.376318061 3.00737864,3.76318061 -3.2807767,10.5369057 L-2.46058252,-1.50527225 Z" fill="#D4B090" mask="url(#mask-4)"></path>
                        </g>
                        <g id="路径-2" stroke-width="1" fill="none" transform="translate(0.000000, 12.361809)">
                            <mask id="mask-6" fill="white">
                                <use xlink:href="#path-5"></use>
                            </mask>
                            <use id="蒙版" fill="#A000B9" xlink:href="#path-5"></use>
                            <path d="M0.032038835,4.48581131 C3.03941748,4.48581131 4.5431068,5.98108175 4.5431068,8.97162262 C4.5431068,11.9621635 4.5431068,15.326522 4.5431068,19.0646981 L0.032038835,19.0646981 L0.032038835,4.48581131 Z" fill="#C10ADE" mask="url(#mask-6)"></path>
                        </g>
                        <g id="路径-5" stroke-width="1" fill="none" transform="translate(6.600000, 3.165829)">
                            <mask id="mask-8" fill="white">
                                <use xlink:href="#path-7"></use>
                            </mask>
                            <use id="蒙版" fill="#EED5BE" xlink:href="#path-7"></use>
                            <path d="M-1.69907551,2.93551879 C-0.880980429,3.90429647 0.086666427,4.3664642 1.19945973,4.32202198 C2.86735127,4.25535865 3.1281701,2.82627131 4.52637301,2.68553129 C5.92267514,2.54479128 7.84966522,3.30378664 7.84367319,2.92799563 C7.83965517,2.6774683 7.69397564,2.1819689 7.40763267,1.44149744 L6.15145631,-0.387460082 L3.28094712,-0.270799249 L-0.00547769048,-0.137472583 L-1.69907551,2.93551879 Z" id="路径-4" fill="#D4B090" opacity="0.4" mask="url(#mask-8)"></path>
                            <path d="M0,4.70825755 C0.273398058,5.96089424 1.23029126,7.08826725 2.87067961,8.0903766 C4.51106796,9.09248595 6.01475728,8.96722228 7.38174757,7.7145856 L2.05048544,10.7209136 L0,4.70825755 Z" fill="#D4B090" opacity="0.4" mask="url(#mask-8)"></path>
                        </g>
                        <path d="M6.78692782,9.04522613 C7.21885877,9.04522613 7.45173891,8.53901542 7.30708017,7.91457286 C7.16242143,7.29013031 6.69500313,6.7839196 6.26307218,6.7839196 C5.83114123,6.7839196 5.59826109,7.29013031 5.74291983,7.91457286 C5.88757857,8.53901542 6.35499687,9.04522613 6.78692782,9.04522613 Z" id="椭圆形" fill="#EED5BE"></path>
                        <path d="M6.6440581,8.59296482 C6.84039035,8.59296482 6.94624496,8.25549102 6.88049099,7.83919598 C6.81473701,7.42290094 6.60227415,7.08542714 6.4059419,7.08542714 C6.20960965,7.08542714 6.10375504,7.42290094 6.16950901,7.83919598 C6.23526299,8.25549102 6.44772585,8.59296482 6.6440581,8.59296482 Z" id="椭圆形备份" fill="#D4B090" opacity="0.4"></path>
                        <path d="M4.95,5.57788945 C5.77173913,6.58291457 6.73043478,7.08542714 7.82608696,7.08542714 C9.46956522,7.08542714 9.72695108,5.66265222 11.1130435,5.57788945 C12.4991359,5.49312668 14.4,6.33165829 14.4,5.95477387 C14.4,5.70351759 14.2630435,5.20100503 13.9891304,4.44723618 L12.7565217,2.56281407 L9.88043478,2.56281407 L6.59347826,2.56281407 L4.95,5.57788945 Z" id="路径-4" fill="#67430C"></path>
                    </g>
                </g>
            </g>
        </g>
    </g>
</svg>