<?xml version="1.0" encoding="UTF-8"?>
<svg width="30px" height="30px" viewBox="0 0 30 30" version="1.1" xmlns="http://www.w3.org/2000/svg" xmlns:xlink="http://www.w3.org/1999/xlink">
    <title>男人备份</title>
    <defs>
        <rect id="path-1" x="0" y="0" width="30" height="30"></rect>
        <polygon id="path-3" points="9.32225171e-14 0 4.92116505 0 4.92116505 9.36091178 9.32225171e-14 9.36091178"></polygon>
        <path d="M0.512621359,6.10443238 C1.04660194,3.60725327 2.91553398,1.82216039 6.11941748,0.749153734 L12.2067961,11.2080422 L14.4781849,0.00388158138 C15.224187,0.196564265 15.7614263,0.357196862 16.0899029,0.485779375 C17.0236044,0.851277813 17.6622452,1.47557259 18.0058252,2.35866371 C18.6679612,4.42664017 19.0737864,6.17271462 19.223301,7.59688709 C19.4475728,9.73314578 19.6718447,12.7765828 18.9669903,13.7422888 C18.2621359,14.7079948 6.6576699,17.3417384 4.60718447,17.3417384 C2.55669903,17.3417384 0.0961165049,16.5925847 0.0961165049,14.7197003 C0.0961165049,12.846816 -0.288349515,9.85020105 0.512621359,6.10443238 Z" id="path-5"></path>
        <path d="M4.10097087,9.17166087 C6.13938418,9.17166087 7.38174757,6.41496324 7.38174757,3.93689217 C7.38174757,-1.29787654 5.72928709,0.197771663 3.69087379,0.197771663 C1.65246048,0.197771663 0,1.45882109 0,3.93689217 C0,6.41496324 2.06255757,9.17166087 4.10097087,9.17166087 Z" id="path-7"></path>
    </defs>
    <g id="多色设计方案" stroke="none" stroke-width="1" fill="none" fill-rule="evenodd">
        <g id="控件库30*30" transform="translate(-266.000000, -101.000000)">
            <g id="男人备份" transform="translate(266.000000, 101.000000)">
                <mask id="mask-2" fill="white">
                    <use xlink:href="#path-1"></use>
                </mask>
                <use id="蒙版" fill="#D8D8D8" opacity="0" xlink:href="#path-1"></use>
                <g id="编组备份-2" mask="url(#mask-2)">
                    <g transform="translate(5.250000, 0.000000)">
                        <g id="路径" stroke-width="1" fill="none" transform="translate(7.950000, 9.750000)">
                            <mask id="mask-4" fill="white">
                                <use xlink:href="#path-3"></use>
                            </mask>
                            <use id="蒙版" fill="#EED5BE" xlink:href="#path-3"></use>
                            <polygon fill="#D4B090" mask="url(#mask-4)" points="-2.46058252 -1.49774588 4.31883495 0.813583089 -4.39572816 12.2221943"></polygon>
                        </g>
                        <path d="M0.569336288,18.7021277 C1.04990899,16.2307181 2.97219978,14.9302859 4.25372697,14.1829787 C5.10807844,13.6847739 6.33834455,13.1826463 7.9445253,12.6765957 L11.4943556,14.4183511 L12.8655897,12.3 C14.1190471,12.4346593 15.212617,12.6857231 16.1462993,13.0531915 C17.0799817,13.4206599 17.7186094,14.0483194 18.0621825,14.9361702 C18.7243049,17.0152926 19.1301218,18.7707779 19.2796333,20.2026263 C19.5039006,22.3503989 19.7281679,25.4102394 19.0233279,26.3811503 C18.3184879,27.3520612 6.71425919,30 4.66381568,30 C2.61337216,30 0.152839949,29.2468085 0.152839949,27.3638298 C0.152839949,25.4808511 0.0887635897,21.1735372 0.569336288,18.7021277 Z" id="蒙版" fill="#FFFFFF"></path>
                        <polygon id="路径-11" fill="#192633" points="11.2769231 15.383121 10.95 22.4350318 12.3884615 24.3 13.5 22.231051 12.225 15.15"></polygon>
                        <g id="路径-2" stroke-width="1" fill="none" transform="translate(0.000000, 12.600000)">
                            <mask id="mask-6" fill="white">
                                <use xlink:href="#path-5"></use>
                            </mask>
                            <use id="蒙版" fill="#263748" xlink:href="#path-5"></use>
                            <polygon id="路径-8" fill="#192633" mask="url(#mask-6)" points="14.5135922 0.0468221084 16.0834951 1.74412354 14.0650485 4.17302041 15.0902913 5.08019876 12.1747573 11.1963367"></polygon>
                            <polygon id="路径-7" fill="#192633" mask="url(#mask-6)" points="6.05533981 0.749153734 5.38252427 3.73406315 7.91359223 5.84105802 7.08058252 7.01161073 12.2067961 11.1963367"></polygon>
                            <path d="M0.0961165049,4.23154805 C3.10349515,4.23154805 4.60718447,5.72985552 4.60718447,8.72647045 C4.60718447,11.7230854 4.60718447,15.0942772 4.60718447,18.8400459 L0.0961165049,18.8400459 L0.0961165049,4.23154805 Z" fill="#39475A" mask="url(#mask-6)"></path>
                        </g>
                        <path d="M10.3596612,8.6652851 C12.9219865,8.36424836 14.8605215,6.34359597 14.6895004,4.13637794 C14.5184792,1.92233039 12.3026641,0.063840353 9.74033882,0.000977961951 C7.17801351,-0.0514233541 5.23947847,2.00862552 5.41049961,4.58657219 C5.58152076,7.15768934 7.79733587,8.97678291 10.3596612,8.6652851 Z" id="椭圆形" fill="#111514"></path>
                        <g id="路径-5" stroke-width="1" fill="none" transform="translate(6.600000, 2.700000)">
                            <mask id="mask-8" fill="white">
                                <use xlink:href="#path-7"></use>
                            </mask>
                            <use id="蒙版" fill="#EED5BE" xlink:href="#path-7"></use>
                            <path d="M3.64281553,-1.07551288 C5.72192633,-1.07551288 7.40737864,-0.205785731 7.40737864,0.867077073 C7.40737864,1.93993988 5.72192633,2.80966702 3.64281553,2.80966702 C3.0362737,2.80966702 2.46323504,2.73564699 1.95577276,2.60415735 C1.64629317,3.3109276 1.07893147,3.84135273 0.512938955,3.88693084 C-0.221385283,3.94606432 -0.675331158,3.16667562 -0.500977535,2.14611745 C-0.435568031,1.76325071 -0.291023494,1.40083291 -0.0971534571,1.09428377 C-0.113069974,1.019994 -0.121747573,0.944058463 -0.121747573,0.867077073 C-0.121747573,-0.205785731 1.56370474,-1.07551288 3.64281553,-1.07551288 Z" id="形状结合" fill="#D4B090" opacity="0.4" mask="url(#mask-8)"></path>
                            <path d="M-2.77111667e-14,4.68471627 C0.273398058,5.93108977 1.23029126,7.05282592 2.87067961,8.04992472 C4.51106796,9.04702352 6.01475728,8.92238617 7.38174757,7.67601267 L2.05048544,10.6673091 L-2.77111667e-14,4.68471627 Z" fill="#D4B090" opacity="0.4" mask="url(#mask-8)"></path>
                        </g>
                        <ellipse id="椭圆形" fill="#111514" cx="10.35" cy="3.45" rx="3.75" ry="1.95"></ellipse>
                        <path d="M6.73820494,6.59680486 C7.46345733,6.53690589 8.19098595,5.65031261 8.3631856,4.61654334 C8.53538526,3.58277406 8.08704744,2.79329618 7.36179506,2.85319514 C6.63654267,2.91309411 5.90901405,3.79968739 5.7368144,4.83345666 C5.56461474,5.86722594 6.01295256,6.65670382 6.73820494,6.59680486 Z" id="椭圆形备份-2" fill="#111514"></path>
                        <path d="M6.78692782,8.7 C7.21885877,8.7 7.45173891,8.19632034 7.30708017,7.575 C7.16242143,6.95367966 6.69500313,6.45 6.26307218,6.45 C5.83114123,6.45 5.59826109,6.95367966 5.74291983,7.575 C5.88757857,8.19632034 6.35499687,8.7 6.78692782,8.7 Z" id="椭圆形" fill="#EED5BE"></path>
                        <path d="M6.59643486,8.1 C6.71423421,8.1 6.77774698,7.89852814 6.73829459,7.65 C6.69884221,7.40147186 6.57136449,7.2 6.45356514,7.2 C6.33576579,7.2 6.27225302,7.40147186 6.31170541,7.65 C6.35115779,7.89852814 6.47863551,8.1 6.59643486,8.1 Z" id="椭圆形备份" fill="#D4B090" opacity="0.4"></path>
                        <polygon id="路径-6备份" fill="#EFECEC" points="7.98518519 12.9 11.55 14.4602804 10.7398148 16.05 6.3 13.2827103"></polygon>
                        <polygon id="路径-6" fill="#FFFFFF" points="7.95277778 12.6 11.55 14.3870192 10.7074074 15.75 6.3 13.1754808"></polygon>
                        <polygon id="路径-9" fill="#EFECEC" points="11.55 14.46 12.7859155 15.3 13.8 12.33 12.8809859 12.3"></polygon>
                        <polygon id="路径-9备份" fill="#FFFFFF" points="11.55 14.3540816 12.7375 15.15 13.8 12.3030612 12.8625 12.15"></polygon>
                        <polygon id="路径-10" fill="#192633" points="11.4346154 14.4 10.8 15.4017857 11.7519231 16.05 12.45 15.01875"></polygon>
                    </g>
                </g>
            </g>
        </g>
    </g>
</svg>