<?xml version="1.0" encoding="UTF-8"?>
<svg width="30px" height="30px" viewBox="0 0 30 30" version="1.1" xmlns="http://www.w3.org/2000/svg" xmlns:xlink="http://www.w3.org/1999/xlink">
    <title>前科人员备份</title>
    <defs>
        <rect id="path-1" x="0" y="0" width="30" height="30"></rect>
        <polygon id="path-3" points="9.72562926e-14 0 5.13410583 0 5.13410583 9.43197472 9.72562926e-14 9.43197472"></polygon>
        <path d="M13.5347376,0.00598320164 L15.106657,0.295729489 C15.8852505,0.489707637 16.4459608,0.651420217 16.7887879,0.780867228 C17.7632811,1.14882302 18.4298229,1.77731513 18.7884133,2.66634353 C19.4794767,4.74822362 19.9030317,6.50603747 20.0590783,7.93978508 C20.2931482,10.0904065 20.527218,13.1543055 19.7915699,14.1265042 C19.4172928,14.6211316 16.0984038,15.5504316 12.6462197,16.344072 L11.9309949,16.5061507 C11.2157124,16.6659196 10.5030236,16.8181977 9.81782661,16.9579338 L9.14271573,17.0933023 C7.15040792,17.4857434 5.48022173,17.750154 4.804411,17.750154 C2.66434369,17.750154 0.0962629194,16.9959635 0.0962629194,15.1104872 C0.0962629194,13.2250109 -0.304999701,10.2082488 0.530964092,6.43729615 C1.08827329,3.92332774 3.03885547,2.12623313 6.38271064,1.04601233 L8.15574023,0.414306982 C8.15521698,0.427451814 8.15495388,0.440635051 8.15495388,0.453854931 C8.15495388,1.35687445 9.38257174,2.08891642 10.8969151,2.08891642 C12.4112585,2.08891642 13.6388764,1.35687445 13.6388764,0.453854931 C13.6388764,0.29855623 13.6025682,0.148314385 13.5347376,0.00598320164 Z" id="path-5"></path>
        <path d="M4.27842152,9.25424825 C6.40503779,9.25424825 7.70115874,6.47272759 7.70115874,3.97234241 C7.70115874,-1.30956343 5.97719563,0.199552523 3.85057937,0.199552523 C1.72396311,0.199552523 0,1.47195723 0,3.97234241 C0,6.47272759 2.15180526,9.25424825 4.27842152,9.25424825 Z" id="path-7"></path>
    </defs>
    <g id="多色设计方案" stroke="none" stroke-width="1" fill="none" fill-rule="evenodd">
        <g id="控件库30*30" transform="translate(-516.000000, -101.000000)">
            <g id="前科人员备份" transform="translate(516.000000, 101.000000)">
                <mask id="mask-2" fill="white">
                    <use xlink:href="#path-1"></use>
                </mask>
                <use id="蒙版" fill="#D8D8D8" opacity="0" xlink:href="#path-1"></use>
                <g id="编组-20" mask="url(#mask-2)">
                    <g transform="translate(3.750000, 0.000000)">
                        <g id="编组" transform="translate(2.250000, 0.000000)">
                            <g id="路径" transform="translate(8.229276, 8.612215)">
                                <mask id="mask-4" fill="white">
                                    <use xlink:href="#path-3"></use>
                                </mask>
                                <use id="蒙版" fill="#D4B090" xlink:href="#path-3"></use>
                                <polygon fill="#D4B090" mask="url(#mask-4)" points="-2.56705291 -1.50911595 4.50571267 0.819759368 -4.58593307 12.3149786"></polygon>
                            </g>
                            <path d="M0.537765586,17.6551211 C1.03914311,15.1792277 3.0446532,13.8764362 4.38165992,13.1277732 C5.27299774,12.6286646 6.5565242,12.1256259 8.23223929,11.6186573 L11.9357479,13.3635726 L13.3663451,11.2413783 C14.6740668,11.3762819 15.8149792,11.6278012 16.7890823,11.9959363 C17.7631854,12.3640714 18.4294605,12.9928697 18.7879074,13.8823312 C19.4786942,15.9652256 19.9020797,17.7238959 20.0580638,19.1583421 C20.29204,21.3100113 20.5260161,24.3754031 19.7906624,25.3480755 C19.0553087,26.3207479 6.94871284,28.9734908 4.80950207,28.9734908 C2.67029131,28.9734908 0.1032384,28.2189328 0.1032384,26.3325379 C0.1032384,24.4461429 0.0363880639,20.1310145 0.537765586,17.6551211 Z" id="蒙版" fill="#D4B090"></path>
                            <g id="路径-2" transform="translate(0.000000, 11.223693)">
                                <mask id="mask-6" fill="white">
                                    <use xlink:href="#path-5"></use>
                                </mask>
                                <use id="形状结合" fill="#205EA6" xlink:href="#path-5"></use>
                                <polygon id="矩形备份-19" fill="#FFFFFF" opacity="0.800000012" mask="url(#mask-6)" points="2.27291143 2.1873957 17.3810874 -0.141123056 17.3810874 0.448375364 2.27291143 2.77689412"></polygon>
                                <polygon id="矩形备份-20" fill="#FFFFFF" opacity="0.5" mask="url(#mask-6)" points="-0.0668503363 4.86961351 20.3893526 1.95159633 20.3893526 2.54109475 -0.0668503363 5.45911193"></polygon>
                                <polygon id="矩形备份-21" fill="#FFFFFF" opacity="0.800000012" mask="url(#mask-6)" points="-0.0668503363 7.55183132 20.3893526 4.63381415 20.3893526 5.22331257 -0.0668503363 8.14132974"></polygon>
                                <polygon id="矩形备份-22" fill="#FFFFFF" opacity="0.5" mask="url(#mask-6)" points="-0.0668503363 10.2045742 20.3893526 7.28655703 20.3893526 7.87605545 -0.0668503363 10.7940726"></polygon>
                                <polygon id="矩形备份-23" fill="#FFFFFF" opacity="0.800000012" mask="url(#mask-6)" points="-0.0668503363 12.886792 20.3893526 9.96877485 20.3893526 10.5582733 -0.0668503363 13.4762904"></polygon>
                                <polygon id="矩形备份-24" fill="#FFFFFF" opacity="0.5" mask="url(#mask-6)" points="-0.0668503363 15.5690098 20.3893526 12.6509927 20.3893526 13.2404911 -0.0668503363 16.1585083"></polygon>
                            </g>
                            <path d="M10.8524782,8.72203572 C13.5403654,8.4191287 15.5738947,6.38592235 15.394493,4.16499128 C15.2150913,1.93718825 12.8906943,0.0671517442 10.2028071,0.00389880042 C7.51491981,-0.0488280755 5.4813905,2.02401951 5.66079222,4.61798251 C5.84019394,7.20507354 8.16459091,9.03546881 10.8524782,8.72203572 Z" id="椭圆形" fill="#111514"></path>
                            <g id="路径-5" transform="translate(6.945750, 2.853693)">
                                <mask id="mask-8" fill="white">
                                    <use xlink:href="#path-7"></use>
                                </mask>
                                <use id="蒙版" fill="#EED5BE" xlink:href="#path-7"></use>
                                <path d="M3.80044162,-1.08519747 C5.96951637,-1.08519747 7.72789887,-0.207638754 7.72789887,0.874884779 C7.72789887,1.95740831 5.96951637,2.83496702 3.80044162,2.83496702 C3.16727818,2.83496702 2.56910919,2.76019161 2.03945541,2.62737006 C1.71714361,3.34108961 1.12542507,3.87595765 0.535134028,3.9219312 C-0.230964713,3.98159715 -0.704553007,3.19519035 -0.522655033,2.16544244 C-0.454316066,1.77856672 -0.303177734,1.4123841 -0.100475218,1.10278925 C-0.11802137,1.02868009 -0.127015639,0.95230664 -0.127015639,0.874884779 C-0.127015639,-0.207638754 1.63136687,-1.08519747 3.80044162,-1.08519747 Z" id="形状结合" fill="#D4B090" opacity="0.4" mask="url(#mask-8)"></path>
                                <path d="M-2.77111667e-14,4.72690039 C0.285228101,5.98449702 1.28352646,7.11633398 2.99489507,8.12241129 C4.70626367,9.12848859 6.27501823,9.00272893 7.70115874,7.7451323 L2.13921076,10.7633642 L-2.77111667e-14,4.72690039 Z" fill="#D4B090" opacity="0.4" mask="url(#mask-8)"></path>
                            </g>
                            <ellipse id="椭圆形" fill="#111514" cx="10.7461916" cy="3.4338283" rx="3.92745726" ry="1.96008225"></ellipse>
                            <path d="M7.04635678,6.65772424 C7.81245552,6.59805829 8.5809587,5.71491386 8.76285668,4.68516595 C8.94475465,3.65541804 8.47116636,2.86901123 7.70506761,2.92867718 C6.93896887,2.98834314 6.17046569,3.87148757 5.98856772,4.90123548 C5.80666975,5.93098339 6.28025804,6.7173902 7.04635678,6.65772424 Z" id="椭圆形备份-2" fill="#111514"></path>
                            <path d="M7.10332892,8.71243008 C7.56214061,8.71243008 7.80951378,8.1911734 7.65585237,7.5481707 C7.50219096,6.905168 7.0056834,6.38391132 6.54687171,6.38391132 C6.08806002,6.38391132 5.84068684,6.905168 5.99434826,7.5481707 C6.14800967,8.1911734 6.64451723,8.71243008 7.10332892,8.71243008 Z" id="椭圆形" fill="#EED5BE"></path>
                            <path d="M6.9099971,8.06432723 C7.04999579,8.06432723 7.12547756,7.85318528 7.07859036,7.59272849 C7.03170316,7.3322717 6.88020221,7.12112976 6.74020352,7.12112976 C6.60020484,7.12112976 6.52472306,7.3322717 6.57161026,7.59272849 C6.61849747,7.85318528 6.76999841,8.06432723 6.9099971,8.06432723 Z" id="椭圆形备份" fill="#D4B090" opacity="0.4"></path>
                        </g>
                        <g id="编组-6" transform="translate(0.000000, 12.000000)">
                            <polygon id="矩形备份-4" fill="#D8D8D8" points="1.44950718e-13 3.19057358 11.444335 1.63501285e-13 12.4197044 0.28687337 11.444335 14.394764 0.975369458 17.872211 1.44950718e-13 17.5853376"></polygon>
                            <polygon id="矩形" fill="#EFECEC" points="0.975369458 3.47744695 12.4197044 0.28687337 12.4197044 14.6816374 0.975369458 17.872211"></polygon>
                            <polygon id="矩形备份-3" fill="#FFFFFF" points="1.69064039 4.16679224 11.7044335 1.37699218 11.7044335 13.9636048 1.69064039 16.7534048"></polygon>
                            <path d="M4.97936946,5.56747307 L4.97936946,5.23942253 L8.38319212,4.2433077 L8.38319212,4.57135824 L8.91776683,4.41491713 L8.91776683,3.67197914 L6.94856814,4.24825711 C6.88856486,4.13073719 6.82856158,4.02286582 6.76855829,3.92946726 L6.17943514,4.18870866 C6.25034811,4.25479317 6.31580624,4.33212257 6.38126437,4.41427624 L4.44479475,4.98097619 L4.44479475,5.72391418 L4.97936946,5.56747307 Z M8.51956322,6.16687822 L8.84139901,5.68675248 C8.38319212,5.69541377 7.93044007,5.71212727 7.4885977,5.74494518 C7.66315271,5.57325555 7.82679803,5.37581296 7.99044335,5.14942474 L8.87412808,4.89081801 L8.87412808,4.49522765 L6.5830936,5.16568955 C6.64855172,5.07416941 6.71400985,4.97782499 6.79037767,4.8782879 L6.27762233,4.88843975 C6.1739803,5.03455271 6.06488342,5.19191056 5.95033169,5.35086474 L4.49934319,5.77549062 L4.49934319,6.17108097 L5.56849261,5.85819875 C5.4430312,6.02034561 5.31211494,6.18408881 5.17574384,6.34942835 C5.49757964,6.30831141 5.82487028,6.27524668 6.15216092,6.24700623 C5.72668309,6.45353322 5.14846962,6.66616349 4.41752053,6.88007276 L4.72299179,7.20556529 C5.62849589,6.92610039 6.36489984,6.58998796 6.93765846,6.19563167 C7.46677833,6.16621798 7.99589819,6.15610139 8.51956322,6.16687822 Z M6.8558358,5.79986501 C6.56672906,5.82657965 6.28307718,5.86134649 6.00488013,5.90416554 C6.05942857,5.83513516 6.1248867,5.75808783 6.19034483,5.67621624 L7.3522266,5.33619627 C7.2158555,5.49188726 7.05221018,5.6459114 6.8558358,5.79986501 Z M6.98129721,8.34895939 L6.98129721,7.24420095 C7.39041051,7.53936306 8.02317241,7.69188695 8.88503777,7.70500057 L9.13596059,7.18773594 C8.39955665,7.23921628 7.84316256,7.1801262 7.46132348,7.02171058 L9.04322824,6.5587726 L9.04322824,6.12458806 L6.98129721,6.72800377 L6.98129721,6.39512896 L6.40308374,6.56434077 L6.40308374,6.89721559 L4.32478818,7.50542031 L4.32478818,7.93960485 L5.92305747,7.47187786 C5.5794023,7.82330932 5.01209852,8.21606928 4.22660099,8.65338565 L4.53207225,9.00782382 C5.40484729,8.45330486 6.03215435,7.9175541 6.40308374,7.40376422 L6.40308374,8.5181712 L6.98129721,8.34895939 Z" id="案" fill="#333333" fill-rule="nonzero"></path>
                            <path d="M4.63089535,14.5444799 C4.96942052,13.8023636 5.14960328,12.8939336 5.17144361,11.824024 L5.17144361,10.799186 L9.14638439,9.63467467 L9.14638439,9.1512605 L7.17529425,9.72871736 C7.09885308,9.60125342 7.01695183,9.48989151 6.94051066,9.38659827 L6.34536156,9.6479696 C6.4327229,9.71905878 6.50916407,9.80784959 6.58014515,9.90307414 L4.60359493,10.4821306 L4.60359493,11.9903828 C4.59267476,12.9410738 4.45617268,13.7206875 4.19408867,14.3292241 L4.63089535,14.5444799 Z M8.60037604,13.3573974 C8.82969954,13.2902141 9.02626255,12.9329116 9.20098522,12.2822907 L8.73687813,12.1427109 C8.67135712,12.5776423 8.61129621,12.8079402 8.5457752,12.8368037 C8.45295378,12.863997 8.34375212,12.8138086 8.2181702,12.695907 C8.08712819,12.5699367 7.97792652,12.3602217 7.87964502,12.0747953 C7.85780469,12.0135157 7.83596435,11.9425679 7.8195841,11.8651863 L8.99896213,11.5196719 L8.99896213,11.0459261 L7.72676268,11.4186337 C7.69400218,11.2348656 7.66124168,11.0220927 7.63940135,10.7771158 C8.05982777,10.6056049 8.46387395,10.4340587 8.85699996,10.2560434 L8.56761554,9.92508618 C7.62848118,10.3549105 6.63474599,10.7475553 5.58094987,11.1046202 L5.58094987,13.5603642 C5.58094987,13.6522129 5.50450871,13.7374512 5.36254653,13.8080457 L5.49358854,14.2240645 C5.95223555,14.0026833 6.35628173,13.7924639 6.6948069,13.606274 L6.59106532,13.1725888 C6.44364306,13.2592854 6.29076073,13.3427474 6.13787839,13.4262095 L6.13787839,12.3578642 L7.28449592,12.0219474 C7.33909675,12.2428243 7.40461776,12.4218289 7.47013876,12.5573262 C7.63394126,12.8767329 7.81412402,13.1091603 8.02160719,13.241741 C8.2181702,13.3726868 8.4147332,13.4117839 8.60037604,13.3573974 Z M7.18075433,11.578594 L6.13787839,11.8841183 L6.13787839,11.3426944 C6.45456323,11.2305808 6.77124807,11.1136331 7.07701275,10.9998846 C7.10977325,11.2029892 7.14253375,11.3964256 7.18075433,11.578594 Z M7.21351483,13.7588626 L7.66124168,13.352149 C7.53019968,13.168169 7.33363667,12.9598769 7.08247283,12.7337419 L6.66750649,13.0873505 C6.89682999,13.3247181 7.08247283,13.5458777 7.21351483,13.7588626 Z" id="底" fill="#333333" fill-rule="nonzero"></path>
                        </g>
                    </g>
                </g>
            </g>
        </g>
    </g>
</svg>