<?xml version="1.0" encoding="UTF-8"?>
<svg width="30px" height="30px" viewBox="0 0 30 30" version="1.1" xmlns="http://www.w3.org/2000/svg" xmlns:xlink="http://www.w3.org/1999/xlink">
    <title>qq备份</title>
    <defs>
        <rect id="path-1" x="0" y="0" width="30" height="30"></rect>
    </defs>
    <g id="多色设计方案" stroke="none" stroke-width="1" fill="none" fill-rule="evenodd">
        <g id="控件库30*30" transform="translate(-166.000000, -557.000000)">
            <g id="qq备份" transform="translate(166.000000, 557.000000)">
                <mask id="mask-2" fill="white">
                    <use xlink:href="#path-1"></use>
                </mask>
                <use id="蒙版" fill="#D8D8D8" opacity="0" xlink:href="#path-1"></use>
                <g id="qq" mask="url(#mask-2)">
                    <g transform="translate(2.400000, 0.900000)">
                        <path d="M20.9175073,8.21654593 L20.9163332,8.07735133 C21.6456882,9.78582677 21.8507644,10.485584 21.9083888,10.7514696 L21.9211641,10.8161314 C21.9274372,10.852036 21.9296543,10.8742012 21.9304024,10.8866313 L21.9306982,10.8998602 L21.8940623,10.9452977 L21.8940623,10.9452977 L21.9291004,11.0430679 L21.9616338,11.0756548 C22.3062826,11.4277416 25.2302717,14.5878689 23.0474125,18.3564343 C23.0258861,18.3801748 23.0059983,18.4060398 22.9867458,18.4319342 L22.9487905,18.4831415 C22.7602769,18.7331669 22.5684098,18.8464699 21.3699444,16.7280756 C21.3699444,16.7280756 21.3623784,16.754599 21.3462821,16.8046958 L21.3156195,16.8971522 C21.1263346,17.4522952 20.4148894,19.2877763 18.7560601,21.1025435 C20.1300665,21.1232182 21.0902766,21.5309031 21.1786095,22.2225603 L21.1859022,22.3288894 C21.1859022,22.6424892 21.0159502,22.9745995 20.7138834,23.3008079 L20.6949735,23.3191463 C19.9515576,24.1099005 18.4352123,24.8625087 16.6858143,25.2300635 C16.0073675,25.3726076 15.3643769,25.4424307 14.78804,25.4466367 C14.6687285,25.4468905 14.5508147,25.4450501 14.4351313,25.4403295 C14.3899654,25.4384864 14.3453621,25.4362134 14.3013324,25.4335163 C14.2809635,25.4324602 14.2605023,25.4310787 14.2401549,25.4296037 C14.1223993,25.4211015 14.0089073,25.4096479 13.8998749,25.3952266 C13.8901385,25.3935219 13.8799366,25.3921251 13.8697712,25.3907018 C13.8218383,25.3845184 13.7752564,25.3773822 13.7295545,25.3696875 L13.6970307,25.3633463 L13.6970307,25.3633463 C13.1329804,25.2649138 12.7062361,25.0795129 12.4522815,24.8271966 L12.3261714,24.8588718 L11.9722886,24.9403153 L11.9722886,24.9427068 L11.925,24.9514465 L11.8777114,24.9625778 C11.7109051,24.9940661 11.5468753,25.0243462 11.385581,25.0511698 C11.1162168,25.43387 10.6516428,25.8173578 10.0536654,26.1623514 C9.96227677,26.2148136 9.86804074,26.2665867 9.77090554,26.317325 C9.74500444,26.3309159 9.71931585,26.3441362 9.6934325,26.3572828 L9.66799627,26.3701438 C8.95051237,26.7319974 8.08508145,27.0371082 7.15268304,27.2330084 C6.51133879,27.3677572 5.90131726,27.437592 5.34916366,27.4484853 L5.14481744,27.4492885 C5.0776581,27.4488233 5.01145494,27.4474488 4.94625979,27.4451767 L4.75380375,27.4361893 C3.55770443,27.3592799 2.74204934,26.9643063 2.65950421,26.3306154 L2.65259521,26.2228035 L2.6597189,26.1097317 C2.75109072,25.3806884 3.71354586,24.5697225 5.09009788,23.9714497 C4.68608859,23.6987343 4.33835663,23.4012016 4.04074165,23.1002881 L1.2,23.1 L1.2160023,23.0518886 C1.07286428,23.1977192 0.994244866,23.1637229 0.918750252,23.1083649 L0.876619045,23.0763273 L0.876619045,23.0763273 L0.840834998,23.0509885 C0.828569059,23.043105 0.815892545,23.0359718 0.802587499,23.0301515 C-1.47020852,20.0613612 1.79333135,15.4257708 1.91729291,15.2518998 L1.92089958,15.2468625 L1.956,15.131 L1.92057986,15.1034136 L1.92074238,15.0926742 C1.92455934,15.0157001 1.98846306,14.4731872 2.93249275,11.8517688 C2.93249275,11.8517688 2.9332781,11.8529226 2.93485792,11.855181 L2.93764303,11.6036384 C3.15922733,2.0523153 11.4716597,0.273827644 11.925,0.178343153 C12.3672126,0.0856719822 20.9175073,-1.67789169 20.9175073,8.21654593 Z" id="形状结合" fill="#000000" fill-rule="nonzero"></path>
                        <g id="编组-30" stroke-width="1" fill="none" fill-rule="evenodd" transform="translate(2.850000, 0.900000)">
                            <path d="M2.5847554,25.2775597 C2.5847554,26.3514732 4.54798616,26.9627278 6.96975403,26.642835 C9.39152191,26.3229422 11.3547527,25.1930389 11.3547527,24.1191253 C11.3547527,23.0452118 9.39152191,22.4339572 6.96975403,22.75385 C4.54798616,23.0737429 2.5847554,24.2036462 2.5847554,25.2775597 Z" id="路径" fill="#FFBD14" fill-rule="nonzero"></path>
                            <path d="M7.0998967,26.2790717 C4.67824666,26.598949 2.71489809,25.9879933 2.71489809,24.9137964 C2.71489809,24.8656448 2.72361579,24.8169361 2.73108806,24.768392 C2.63867763,24.929233 2.58825641,25.1048796 2.5847554,25.2781542 C2.5847554,26.3517565 4.54810398,26.9633067 6.96975402,26.6434294 C9.28243293,26.3379462 11.1723038,25.2941078 11.33794,24.2652064 C10.8478812,25.1657553 9.13921374,26.009697 7.0998967,26.2790717 Z" id="路径" fill="#EF9E0D" fill-rule="nonzero"></path>
                            <path d="M14.0659546,25.4449809 C15.4226779,25.6131206 17.0942299,25.3923243 18.4509532,24.8657637 C19.8076766,24.3392031 20.6434525,23.5868755 20.6434525,22.8921752 C20.6434525,21.8182617 18.6802218,21.2070071 16.2584539,21.5268999 C13.836686,21.8467927 11.8734553,22.976696 11.8734553,24.0506096 C11.8734553,24.7453098 12.7092312,25.2768412 14.0659546,25.4449809 Z" id="路径" fill="#FFBD14" fill-rule="nonzero"></path>
                            <path d="M16.1289339,25.0864206 C18.550584,24.7665433 20.5139325,23.6369078 20.5139326,22.5627109 C20.5139326,22.5145593 20.5052149,22.4681537 20.4977426,22.4215836 C20.589901,22.5663489 20.6440752,22.7226706 20.6440752,22.8926874 C20.6440752,23.9662898 18.6807266,25.0965198 16.2590766,25.4163971 C13.9463977,25.7218802 12.0565268,25.1773103 11.8908907,24.1921668 C12.3803268,24.9633336 14.0896169,25.3557952 16.1289339,25.0864206 Z" id="路径" fill="#EF9E0D" fill-rule="nonzero"></path>
                            <path d="M21.377425,11.644765 L20.3912807,8.75829351 C20.3912807,-1.06253224 12.0560877,0.00346012022 11.625,0.0600427412 C11.1770924,0.119317301 2.85934233,1.24828891 2.8593423,11.0691147 L1.87257506,14.2156285 C1.87257506,14.2156285 -1.47583019,18.6626844 0.782396619,21.8514912 C1.03531801,21.984911 1.05525271,22.5947127 2.4176643,19.6698883 C2.4176643,19.6698883 4.24667227,25.5679422 11.578901,24.6537304 L11.578901,24.6561042 L11.625,24.6488411 L11.671099,24.6439519 L11.671099,24.6415781 C19.0027048,23.6230031 20.8323357,17.2427173 20.8323357,17.2427173 C22.1953703,19.8077171 22.2227805,19.2480517 22.4676034,18.9932428 C24.7258302,15.2091386 21.377425,11.644765 21.377425,11.644765 Z" id="路径" fill="#2F2F3D" fill-rule="nonzero"></path>
                            <path d="M13.8,8.53829618 C14.7941125,8.40853627 15.6,7.23406846 15.6,5.9150489 C15.6,4.59602934 14.7941125,3.63194391 13.8,3.76170382 C12.8058875,3.89146373 12,5.06593154 12,6.3849511 C12,7.70397066 12.8058875,8.66805609 13.8,8.53829618 Z" id="路径" fill="#FFFFFF" fill-rule="nonzero"></path>
                            <path d="M9.3,9.13829618 C10.2941125,9.00853627 11.1,7.83406846 11.1,6.5150489 C11.1,5.19602934 10.2941125,4.23194391 9.3,4.36170382 C8.30588745,4.49146373 7.5,5.66593154 7.5,6.9849511 C7.5,8.30397066 8.30588745,9.26805609 9.3,9.13829618 Z" id="路径" fill="#FFFFFF" fill-rule="nonzero"></path>
                            <path d="M8.85,6.86745089 C8.85,7.52696203 9.25294373,8.00901688 9.75,7.94415055 C10.2470563,7.87928421 10.65,7.29206024 10.65,6.63254911 C10.65,5.97303797 10.2470563,5.49098312 9.75,5.55584945 C9.25294373,5.62071579 8.85,6.20793976 8.85,6.86745089 Z" id="路径" fill="#161616" fill-rule="nonzero"></path>
                            <path d="M12.4661234,7.06552229 C12.4541528,6.96266883 12.3634279,6.04647249 12.7912211,5.55256183 C13.0816668,5.216784 13.619086,5.14795679 13.9095317,5.40933991 C14.3373249,5.79367571 14.24534,6.73327169 14.2339993,6.83911062 C14.2304787,6.88639522 14.206084,6.93289112 14.1666537,6.96747034 C14.1272235,7.00204956 14.0763062,7.02160009 14.0260881,7.02144284 C13.9221196,7.02465233 13.8465952,6.94824643 13.8572389,6.8506229 C13.8843303,6.60630615 13.896301,5.91955424 13.6285365,5.67917611 C13.5576692,5.61509908 13.4565285,5.58625593 13.3503764,5.59985082 C13.2442243,5.61344571 13.1430836,5.66819502 13.0722163,5.75042397 C12.8031917,6.06071496 12.8151624,6.74381756 12.8428839,6.98053123 C12.8481676,7.02611819 12.8333266,7.07432528 12.8016417,7.11449579 C12.7699567,7.1546663 12.7240374,7.18349182 12.6740347,7.19460016 C12.6671043,7.19665408 12.660174,7.19754165 12.6545037,7.19826784 C12.5575318,7.21086831 12.4761437,7.15351669 12.4661234,7.06552229 Z" id="路径" fill="#181818" fill-rule="nonzero"></path>
                            <path d="M9.75,6.56173864 C9.75,6.76783393 9.88431458,6.91845873 10.05,6.89816854 C10.2156854,6.87787834 10.35,6.69435665 10.35,6.48826136 C10.35,6.28216607 10.2156854,6.13154127 10.05,6.15183146 C9.88431458,6.17212166 9.75,6.35564335 9.75,6.56173864 Z" id="路径" fill="#FFFFFF" fill-rule="nonzero"></path>
                            <path d="M16.349367,9.32837458 C14.9090798,8.87481824 12.6001371,8.96877313 11.6660988,9.09215084 C10.7320604,9.21552854 8.42311766,9.73095855 6.98283056,10.5656062 C6.29537834,10.8793363 6.02263915,11.0889461 6.02263915,11.2993864 C6.02263915,11.5098268 7.76119584,12.5190432 9.61619597,13.0289846 C10.4879651,13.3347128 10.745137,13.6603936 11.6660988,13.5387432 C12.5870606,13.4170928 12.8436097,13.0241487 13.7160016,12.4874387 C15.5710017,11.4868466 17.3095584,10.0189306 17.3095584,9.80849026 C17.3095584,9.59804993 17.0368192,9.46049267 16.349367,9.32837458 Z" id="路径" fill="#FAB718" fill-rule="nonzero"></path>
                            <path d="M11.5496553,11.9193477 C14.0796538,11.5851586 16.1420104,10.0245367 16.1420104,10.0245367 C16.1420104,10.0245367 14.611433,11.192716 13.4308085,12.0174376 C12.2501841,12.8421593 12.094511,13.0487896 11.4979719,13.1275868 C10.9014327,13.206384 10.1355213,12.613814 9.79179518,12.4981172 C9.44806907,12.3830148 8.5009542,11.8393476 7.0998967,11.2189151 C7.0998967,11.2189151 9.01965683,12.2535367 11.5496553,11.9193477 Z" id="路径" fill="#8C2B01" fill-rule="nonzero"></path>
                            <path d="M11.6206422,13.9905958 C11.6206422,13.9905958 7.45109512,14.8136184 4.44037821,12.8150206 C4.44037821,12.8150206 1.57350321,25.5228959 11.6206422,24.1957631 C21.6677813,22.8686302 18.8009063,10.9181296 18.8009063,10.9181296 C15.7901894,13.7121023 11.6206422,13.9905958 11.6206422,13.9905958 Z" id="路径" fill="#F9F9F9" fill-rule="nonzero"></path>
                            <path d="M11.6206422,13.9662227 C5.25735043,14.8067539 2.85749459,11.0118433 2.85749459,11.0118433 C1.84561972,13.795624 1.87140023,14.1637278 1.87140023,14.1637278 C2.85378609,15.0744319 4.02508983,15.7817312 5.32896002,16.2513544 C5.24427389,17.1459145 5.12845314,18.520753 5.14090696,19.2122533 C5.16021041,20.2874671 5.8495307,20.2707224 7.45109512,20.2077868 C9.05203682,20.1449335 8.72138725,19.7796178 8.72138725,19.0924172 L8.72138725,16.9220283 C10.4194689,17.0098213 11.6206422,16.7405873 11.6206422,16.7405873 C11.6206422,16.7405873 17.1924922,16.5497218 21.3698842,11.5888174 C21.3698842,11.5882229 21.3956647,11.2132464 20.3837899,8.6967841 C20.3837899,8.6967841 17.983934,13.1256916 11.6206422,13.9662227 Z" id="路径" fill="#E32B10" fill-rule="nonzero"></path>
                        </g>
                    </g>
                </g>
            </g>
        </g>
    </g>
</svg>