<?xml version="1.0" encoding="UTF-8"?>
<svg width="30px" height="30px" viewBox="0 0 30 30" version="1.1" xmlns="http://www.w3.org/2000/svg" xmlns:xlink="http://www.w3.org/1999/xlink">
    <title>人备份</title>
    <defs>
        <rect id="path-1" x="0" y="0" width="30" height="30"></rect>
        <polygon id="path-3" points="1.05007907e-13 0 5.54330924 0 5.54330924 9.60862374 1.05007907e-13 9.60862374"></polygon>
        <path d="M0.573844408,6.31032008 C1.171599,3.72891717 3.26374007,1.88361743 6.85026762,0.774420872 L12.9473645,3.41834213 L16.2073337,0.0040124977 C17.0424318,0.2031939 17.6438344,0.369244246 18.0115414,0.502163534 C19.056756,0.879989348 19.7716705,1.52534007 20.1562848,2.43821571 C20.8975005,4.57594 21.351794,6.38090531 21.5191653,7.85311166 C21.7702222,10.0614212 22.0212792,13.207506 21.2322431,14.2057829 C20.443207,15.2040598 7.45280425,17.9266332 5.15742662,17.9266332 C2.86204898,17.9266332 0.107595826,17.1522123 0.107595826,15.2161601 C0.107595826,13.2801079 -0.322787479,10.1824244 0.573844408,6.31032008 Z" id="path-5"></path>
        <path d="M4.55931173,9.41046651 C6.82554624,9.41046651 8.56295735,6.58199182 8.56295735,4.03939836 C8.56295735,-1.33166979 6.36961507,0.202921111 4.10338056,0.202921111 C1.83714605,0.202921111 0,1.49680491 0,4.03939836 C0,6.58199182 2.29307723,9.41046651 4.55931173,9.41046651 Z" id="path-7"></path>
    </defs>
    <g id="多色设计方案" stroke="none" stroke-width="1" fill="none" fill-rule="evenodd">
        <g id="控件库30*30" transform="translate(-166.000000, -101.000000)">
            <g id="人备份" transform="translate(166.000000, 101.000000)">
                <mask id="mask-2" fill="white">
                    <use xlink:href="#path-1"></use>
                </mask>
                <use id="蒙版" fill="#D8D8D8" opacity="0" xlink:href="#path-1"></use>
                <g id="编组备份-2" mask="url(#mask-2)">
                    <g transform="translate(3.900000, 0.300000)">
                        <g id="路径" stroke-width="1" fill="none" transform="translate(8.700000, 9.030612)">
                            <mask id="mask-4" fill="white">
                                <use xlink:href="#path-3"></use>
                            </mask>
                            <use id="蒙版" fill="#EED5BE" xlink:href="#path-3"></use>
                            <polygon fill="#D4B090" mask="url(#mask-4)" points="-2.77165462 -1.5373798 4.86483128 0.83511243 -4.95144549 12.5456226"></polygon>
                        </g>
                        <path d="M0.47134699,18.1654364 C1.0115256,15.6435899 3.17224006,14.3166183 4.61271637,13.5540599 C5.5730339,13.0456877 6.95589116,12.5333125 8.76128812,12.0169344 C10.1468188,13.123987 11.4157747,13.6374839 12.5681558,13.5574253 C13.7205368,13.4773667 14.2953906,12.8357759 14.2927171,11.6326531 C15.7016421,11.7700605 16.9308485,12.0262481 17.9803365,12.4012158 C19.0298244,12.7761835 19.7476618,13.4166525 20.1338485,14.3226227 C20.8780946,16.4441761 21.3342455,18.2354877 21.502301,19.6965575 C21.7543844,21.8881622 22.0064677,25.0104483 21.2142058,26.0011737 C20.4219438,26.9918992 7.37843087,29.6938776 5.07366878,29.6938776 C2.7689067,29.6938776 0.00319219126,28.9253148 0.00319219126,27.0039079 C0.00319219126,25.0825011 -0.068831624,20.6872829 0.47134699,18.1654364 Z" id="蒙版" fill="#FFFFFF"></path>
                        <g id="路径-2" stroke-width="1" fill="none" transform="translate(0.000000, 11.938776)">
                            <mask id="mask-6" fill="white">
                                <use xlink:href="#path-5"></use>
                            </mask>
                            <use id="蒙版" fill="#263748" xlink:href="#path-5"></use>
                            <path d="M2.76637972e-14,3.89907841 C3.25242431,3.89907841 4.87863646,5.39541286 4.87863646,8.38808177 C4.87863646,11.3807507 4.87863646,14.7475032 4.87863646,18.4883394 L2.76637972e-14,18.4883394 L2.76637972e-14,3.89907841 Z" fill="#39475A" mask="url(#mask-6)"></path>
                        </g>
                        <path d="M11.1996448,7.92742479 C13.8859536,7.65202172 15.9182887,5.80343051 15.7389923,3.78415998 C15.559696,1.75864146 13.236664,0.0584042639 10.5503552,0.000894687218 C7.86404642,-0.0470445885 5.83171129,1.83758844 6.01100766,4.1960196 C6.19030403,6.54820278 8.513336,8.21239816 11.1996448,7.92742479 Z" id="椭圆形" fill="#EED5BE"></path>
                        <g id="路径-5" stroke-width="1" fill="none" transform="translate(7.500000, 1.836735)">
                            <mask id="mask-8" fill="white">
                                <use xlink:href="#path-7"></use>
                            </mask>
                            <use id="蒙版" fill="#EED5BE" xlink:href="#path-7"></use>
                            <path d="M-2.97638457e-14,4.80669381 C0.303954116,6.08551956 1.36779352,7.23646274 3.19151821,8.25952334 C5.01524291,9.28258394 6.68699054,9.15470136 8.20676112,7.87587561 L2.27965587,10.9450574 L-2.97638457e-14,4.80669381 Z" fill="#D4B090" opacity="0.4" mask="url(#mask-8)"></path>
                        </g>
                        <path d="M7.58455106,7.95918367 C8.09501491,7.95918367 8.3702369,7.41096092 8.19927657,6.73469388 C8.02831624,6.05842684 7.47591279,5.51020408 6.96544894,5.51020408 C6.45498509,5.51020408 6.1797631,6.05842684 6.35072343,6.73469388 C6.52168376,7.41096092 7.07408721,7.95918367 7.58455106,7.95918367 Z" id="椭圆形" fill="#EED5BE"></path>
                        <path d="M7.44524648,7.19387755 C7.60231228,7.19387755 7.68699597,6.98829402 7.63439279,6.73469388 C7.58178961,6.48109374 7.41181932,6.2755102 7.25475352,6.2755102 C7.09768772,6.2755102 7.01300403,6.48109374 7.06560721,6.73469388 C7.11821039,6.98829402 7.28818068,7.19387755 7.44524648,7.19387755 Z" id="椭圆形备份" fill="#D4B090" opacity="0.4"></path>
                    </g>
                </g>
            </g>
        </g>
    </g>
</svg>