<?xml version="1.0" encoding="UTF-8"?>
<svg width="30px" height="30px" viewBox="0 0 30 30" version="1.1" xmlns="http://www.w3.org/2000/svg" xmlns:xlink="http://www.w3.org/1999/xlink">
    <title>手机号备份</title>
    <defs>
        <rect id="path-1" x="0" y="0" width="30" height="30"></rect>
        <linearGradient x1="47.9718302%" y1="16.7048432%" x2="90.7402482%" y2="70.9534348%" id="linearGradient-3">
            <stop stop-color="#484C4C" offset="0%"></stop>
            <stop stop-color="#262828" offset="100%"></stop>
        </linearGradient>
    </defs>
    <g id="多色设计方案" stroke="none" stroke-width="1" fill="none" fill-rule="evenodd">
        <g id="控件库30*30" transform="translate(-416.000000, -557.000000)">
            <g id="手机号备份" transform="translate(416.000000, 557.000000)">
                <mask id="mask-2" fill="white">
                    <use xlink:href="#path-1"></use>
                </mask>
                <use id="蒙版" fill="#D8D8D8" opacity="0" xlink:href="#path-1"></use>
                <g id="编组-23" mask="url(#mask-2)">
                    <g transform="translate(3.300000, 1.500000)">
                        <path d="M21.3,0 L21.3,22.6124962 L3.707,24.957 L3.70727848,26.25 L1.37781785,24.7227301 C1.26470253,24.6590903 1.15637545,24.5874479 1.05369396,24.5084584 L0.943670886,24.4369231 L0.942985704,24.4185723 C0.456097894,24.0015845 0.115066256,23.4106899 0.0236815659,22.7252592 C0.00791120253,22.6069737 6.94570138e-13,22.4877727 6.96331881e-13,22.3684405 L6.96331881e-13,4.02176903 C6.96693107e-13,3.34514103 0.500897282,2.77302966 1.17159061,2.68360981 L21.3,0 Z" id="形状结合" fill="#000000" fill-rule="evenodd"></path>
                        <path d="M2.23218959,3.3075231 L21.45,0.9 L21.45,0.9 L21.45,23.3943774 L4.08562081,25.5697107 C2.60601722,25.755069 1.25629897,24.7058758 1.07094071,23.2262722 C1.0569938,23.1149424 1.05,23.0028515 1.05,22.8906514 L1.05,4.64705274 C1.05,3.96635591 1.55677213,3.39213644 2.23218959,3.3075231 Z" id="矩形备份-15" fill="#FFFFFF" fill-rule="evenodd"></path>
                        <path d="M3.42229529,4.32272925 L23.55,1.65 L23.55,1.65 L23.55,24.1716033 L5.30540941,26.5942765 C3.82721599,26.7905637 2.46978124,25.7513734 2.27349404,24.27318 C2.25784842,24.1553564 2.25,24.0366284 2.25,23.9177706 L2.25,5.66098223 C2.25,4.98408376 2.75128686,4.4118315 3.42229529,4.32272925 Z" id="矩形" fill="url(#linearGradient-3)" fill-rule="evenodd"></path>
                        <path d="M18.7240158,19.9198409 C19.0718084,19.7261691 19.397176,19.5294564 19.6629738,19.3327995 C19.6928614,19.3098335 19.8243517,19.2180628 19.8569071,19.1914402 C20.0043113,19.0695208 20.1,18.8856996 20.1,18.6791922 C20.1,18.4824607 20.0142925,18.3045162 19.8767389,18.1867945 L17.1669525,15.9533282 C17.0553499,15.861968 16.9111919,15.8061294 16.7534707,15.8061294 C16.5761789,15.8061294 16.4152675,15.8745983 16.2968926,15.9859955 C16.2508299,16.0320394 15.8439525,16.4489907 15.8439525,16.4489907 C15.5617744,16.73184 15.105103,16.73184 14.8229436,16.4489907 L12.0577851,13.6810566 C11.7754205,13.3988977 11.7754205,12.9389621 12.0577851,12.6567845 L12.5076842,12.2066435 C12.6258725,12.0887352 12.6948079,11.9244845 12.6948079,11.7476594 C12.6948079,11.5699015 12.6258538,11.4122365 12.5141766,11.2940484 L10.1928539,8.48965976 C10.0714194,8.34484899 9.8875419,8.25 9.68388863,8.25 C9.46732513,8.25 9.2769552,8.35488612 9.15529681,8.515816 L9.11555868,8.56818443 C8.60991423,9.25139945 7.95,10.3354093 7.95,11.3531704 C7.95,14.1577829 14.2022825,20.4 16.9802952,20.4 C17.0326637,20.4 17.0847897,20.3962874 17.1344904,20.3962874 C17.8552058,20.3383034 18.4029951,20.0990541 18.7240158,19.9198409 L18.7240158,19.9198409 Z" id="路径" fill="#FFFFFF" fill-rule="nonzero"></path>
                        <polygon id="路径-112" fill="#000000" fill-rule="evenodd" points="0.9 24.3786585 3 25.8 2.86451613 4.54756098 0.9 3.6"></polygon>
                    </g>
                </g>
            </g>
        </g>
    </g>
</svg>