<?xml version="1.0" encoding="UTF-8"?>
<svg width="30px" height="30px" viewBox="0 0 30 30" version="1.1" xmlns="http://www.w3.org/2000/svg" xmlns:xlink="http://www.w3.org/1999/xlink">
    <title>手枪备份</title>
    <defs>
        <rect id="path-1" x="0" y="0" width="30" height="30"></rect>
        <linearGradient x1="70.6083837%" y1="0%" x2="31.3750637%" y2="80.6031051%" id="linearGradient-3">
            <stop stop-color="#484C4C" offset="0%"></stop>
            <stop stop-color="#262828" offset="100%"></stop>
        </linearGradient>
        <linearGradient x1="50%" y1="0%" x2="50%" y2="100%" id="linearGradient-4">
            <stop stop-color="#FCFDFE" stop-opacity="0.3" offset="0%"></stop>
            <stop stop-color="#FEFFFF" stop-opacity="0" offset="100%"></stop>
        </linearGradient>
        <linearGradient x1="49.0301135%" y1="16.7048432%" x2="69.4823033%" y2="70.9534348%" id="linearGradient-5">
            <stop stop-color="#484C4C" offset="0%"></stop>
            <stop stop-color="#262828" offset="100%"></stop>
        </linearGradient>
    </defs>
    <g id="多色设计方案" stroke="none" stroke-width="1" fill="none" fill-rule="evenodd">
        <g id="控件库30*30" transform="translate(-216.000000, -481.000000)">
            <g id="手枪备份" transform="translate(216.000000, 481.000000)">
                <mask id="mask-2" fill="white">
                    <use xlink:href="#path-1"></use>
                </mask>
                <use id="蒙版" fill="#D8D8D8" opacity="0" xlink:href="#path-1"></use>
                <g id="编组-19" mask="url(#mask-2)">
                    <g transform="translate(1.350000, 2.250000)">
                        <path d="M22.8366104,0.00193270636 C23.0928346,-0.0441483438 23.1125632,0.7473381 23.1137199,0.929351483 L23.1137083,0.966258039 L23.2584783,0.920253173 L23.5961528,1.02584655 L23.59605,1.41229025 L24.6925961,1.0638346 L24.6986455,1.06274114 C24.7688321,1.05970895 24.825,1.39475206 24.825,1.82694171 L24.825,1.86386385 C24.8216882,2.29270973 24.7635494,2.65207185 24.6925961,2.67461931 L23.5959878,3.02309832 L23.5959005,3.4410675 C23.5965451,3.71074529 23.6032823,3.81013124 23.4752406,3.91497087 L23.4672487,3.92141765 L23.4495028,3.93536992 L23.4495028,3.93536992 L23.4276005,3.95223874 L23.4273257,5.60458076 C23.419072,6.04060759 23.2244334,6.17912643 22.7825592,6.31954475 L18.1192816,7.80143615 L18.0721324,7.81652259 C17.034667,8.15082123 17.0317847,8.31034984 16.8357874,8.60888349 L16.8161624,8.65881707 C16.5797984,9.27690373 16.313798,10.5625309 16.1732612,11.1904294 L16.1650171,11.2277519 C16.0265724,11.8637738 15.9721822,12.574491 15.5585017,12.7842467 L15.5081226,12.8104402 C13.9376644,13.6174149 10.9730988,14.2706275 10.597111,14.3515541 L10.5575625,14.3599945 L10.5575625,14.3599945 L9.78657911,14.3454729 L9.74238662,14.3488095 C9.61021207,14.3621895 9.48183478,14.4053674 9.36187305,14.4639089 L9.32138215,14.4843246 C9.00004174,14.6520774 8.74193398,14.9221618 8.62978725,15.0126569 L8.6246679,15.0176486 C8.52097143,15.1342713 8.14834242,16.4084854 7.80366675,17.6992217 L7.68366064,18.1536036 C7.48719636,18.9058568 7.31249025,19.617376 7.21997093,20.055906 L7.20857052,20.1108028 C6.95139071,21.3691827 7.03916677,22.3314295 7.03916677,22.3314295 C7.0383878,22.3327494 7.03474128,22.3387675 7.02722123,22.34884 L6.99203458,22.3905769 C6.8943963,22.4958018 6.62109674,22.7238073 5.95484862,22.9355269 L5.86616842,22.963761 C5.29303702,23.1465217 3.9699101,23.5731061 2.90542633,23.9167026 L2.90588235,25.3493621 L0.641176471,25.3493621 C0.450172412,25.3584771 0.387874518,25.2770565 0.319764498,24.90621 L0.318788097,24.8322544 C0.30342278,22.368871 1.94753663,17.6614478 2.50221135,16.0810197 L2.51912788,16.0319935 C3.04707396,14.4747193 2.2941649,14.0249453 1.38178305,13.9194205 L1.34155629,13.9149466 C0.453066372,13.8200706 0.226850732,14.0566965 0.351440069,13.347822 L0.358526216,13.3077966 C0.484645449,12.5998303 0.65869311,11.8517237 0.65869311,11.8517237 L0.65869311,11.7514436 C0.661618222,11.7400412 0.682845119,11.6572963 0.71717298,11.523478 L0.761866781,11.3492173 L0.765444946,11.3353006 C0.824486171,11.1051396 0.902977478,10.799149 0.987783449,10.4685218 L0.996063284,10.4360549 C0.996063284,10.4360549 0.152732876,10.0674928 0.0803858715,9.77101525 C0.0139938743,9.3590599 0.580353087,8.98594557 0.737210516,9.10934893 C0.811510265,9.1679351 0.873612138,9.22288212 0.918348198,9.26443701 L1.37489721,8.95911901 C1.47090401,8.5846986 1.5432168,8.30257634 1.56233381,8.22773021 L1.56729445,8.20778805 C1.63237094,7.93860056 1.59047981,7.80590075 1.99641583,7.67690283 L2.76440906,7.43283675 L2.76438372,7.32633217 L1.98275733,7.57471658 L1.71385707,7.56511137 L1.71385707,6.55362653 L1.87869674,6.50124395 L2.30137556,6.55418047 L2.50692468,6.48881928 C2.63278963,6.44882205 2.74344455,6.63864996 2.76173717,6.67196594 L2.76438372,6.67689224 L3.04467452,6.58784974 L3.0451125,6.5877141 L4.8069766,6.02786927 C5.01727151,5.96104197 5.05269753,6.00498499 5.05866536,6.13668228 L5.059,6.188 L5.05987436,6.14740569 L5.27691537,6.07843463 C5.34913567,6.05548454 5.4169214,6.07371959 5.4169214,6.18856555 L5.4168375,6.58986538 L11.0699466,4.79352586 L11.0699466,5.04310575 L14.2482,4.03302678 L14.1245106,3.82283574 L21.4630309,1.49080854 L21.8726594,0.215118749 C21.8726594,0.215118749 22.5474757,0.0537575651 22.8366104,0.00193270636 Z M15.4063379,8.71914924 L15.3522325,8.71980988 C15.3473095,8.72009712 15.3446705,8.72034024 15.3446705,8.72034024 L15.2214335,8.8664972 L12.5498393,9.74920698 L12.5498393,9.44194068 L12.0274067,9.61454099 L12.0274067,9.92180729 C12.0274067,10.1575361 11.8935458,10.3451268 11.8935458,10.3451268 C11.7330626,10.5927964 11.643947,10.9296506 11.6616951,11.6206303 C11.7137036,12.6891575 12.8021506,12.563221 12.8625797,12.5554001 L12.8651936,12.5550496 C13.0742967,12.5470118 12.8740677,12.838842 12.0809011,12.9268055 C10.930772,12.9995483 10.930772,11.3702756 11.0645079,11.1621844 C11.1982438,10.9540931 11.224866,10.2688515 11.224866,10.2688515 C11.4833389,9.91726804 11.1090032,10.0306079 11.1090032,10.0306079 L11.1090032,9.91798667 L10.6952842,10.0546961 L10.6948233,10.0775623 C10.6877752,10.251513 10.6003515,10.3933287 10.4636835,10.4384846 L10.1428423,10.5444924 L10.1279545,10.549891 C9.80881876,10.6757915 9.39477281,11.4867323 9.46528848,12.6740144 L9.46922643,12.726902 C9.49033362,12.9698894 9.5494463,13.1595924 9.63752038,13.3051892 L9.65781565,13.3372202 C10.2395304,14.2134526 11.9416885,13.3652805 12.4695977,13.0954595 L12.5113675,13.0745439 C13.0990057,12.7863882 13.2158858,12.9923876 13.4949899,12.90017 L14.4845109,12.5732266 L14.5129301,12.5637327 C14.9083545,12.430105 15.200677,12.2641552 15.3315469,11.7604215 L15.3633584,11.6374313 C15.5469869,10.9313867 15.7845618,10.0767735 15.910986,9.38650452 L15.9172568,9.34877897 C16.0009417,8.78760262 15.5706422,8.72347008 15.4063379,8.71914924 Z" id="形状结合" stroke="none" fill="#000000"></path>
                        <polygon id="路径-99" stroke="none" fill="#000000" points="22.9717742 0 25.275 0 24.1233871 2.4 22.725 1.40689655"></polygon>
                        <polygon id="路径-98" stroke="none" fill="#000000" points="16.3675926 8.46481481 18.975 7.65 17.9972222 12.3759259 13.2712963 14.25 12.375 13.7611111 15.8787037 12.212963"></polygon>
                        <path d="M25.103631,0.282988651 C25.2367612,0.561265825 25.2590659,0.782636567 25.2629291,0.891404997 L25.263725,0.930963641 L26.9035675,1.29866547 C26.9533621,1.4766577 26.9692028,1.60513072 26.97355,1.73077645 L26.9750063,1.82521019 L25.7557631,2.86539575 L25.5807624,5.54396237 C25.4186809,5.90392382 25.3113478,6.00380524 25.1641123,6.06140277 L25.1068437,6.08144517 L20.4426266,7.56367447 C19.3410592,7.91852948 19.2485331,8.11629833 19.0775502,8.39171198 C19.0378795,8.48609865 18.9993353,8.5866187 18.9619612,8.69160192 C18.7661867,8.73896019 18.5597227,8.78826567 18.3441809,8.84011481 L18.3441809,8.84011481 L17.937,8.938 L17.8638925,8.79012137 C17.8283937,8.72274448 17.7901602,8.653896 17.7490281,8.5835028 L17.7490281,8.5835028 L14.803771,9.2179074 L14.361,9.826 L14.3386513,9.8328676 C13.7424438,9.98377988 13.1088746,10.1451914 12.4362077,10.3176001 C12.2214581,10.4023218 11.9410648,10.7149941 11.7700984,11.2630271 C11.6530633,11.6381831 11.5819958,12.1220492 11.6196866,12.7423841 C11.6450633,13.0355029 11.7167192,13.2584761 11.844397,13.4677576 C11.9828526,13.6766483 12.1610356,13.8084351 12.3685757,13.8865247 C12.581715,13.9667211 12.8282974,13.9884619 13.0878558,13.9661441 C13.8077334,13.9042465 14.6351796,13.4963478 15.0249416,13.2975855 C15.3630519,13.1318201 15.5279943,13.15861 15.9376077,13.14971 L15.9376077,13.14971 L16.991385,12.8014195 L17.0701056,12.7742016 C17.4848521,12.6263972 17.8187977,12.4187873 18.1079464,11.3098067 L18.1079464,11.3098067 L18.1383851,11.1936087 C18.2392496,10.8035121 18.3286775,10.3832796 18.2428971,9.85977153 L18.2428971,9.85977153 L18.215,9.719 L18.3399961,9.67662588 C18.4602739,9.63581038 18.5804425,9.59495474 18.7001651,9.55415547 C18.5750368,10.0218082 18.4708219,10.4938224 18.3900226,10.8615252 C18.1828373,11.892291 18.1511145,12.4065998 17.8442085,12.562224 C16.2867909,13.3627938 13.4614381,13.9955245 12.9776052,14.1003992 L12.9336652,14.1098614 L12.1423032,14.0949556 C11.3649437,14.3918254 11.0560943,14.6610664 10.9111661,14.7859402 C10.6598314,15.0519186 9.65106186,18.697957 9.37504032,20.0063209 C9.15401795,21.0870812 9.16794679,21.9373971 9.18264611,22.2376537 C9.03729618,22.373618 8.78104867,22.5383433 8.27891464,22.697915 C7.79677158,22.8516208 7.05006821,23.0919329 6.27606788,23.3414745 C4.95485471,23.7676442 4.01972651,24.0698017 3.75978998,24.1538093 L3.69655408,24.1742477 L3.23797251,25.205592 C2.9569355,22.3502369 4.59255092,17.7186943 5.13896257,16.1617292 C5.41372162,15.3516962 5.37310963,14.8082521 5.18199144,14.4395259 C4.933415,13.9599448 4.41282433,13.7410914 3.80837587,13.6711892 C3.23361818,12.668791 3.28072582,12.0557261 3.29866129,11.9302314 L3.30274809,11.9062176 C3.46756208,11.1640237 3.54559578,10.8597511 3.62989871,10.5310768 C3.23999156,10.1137583 2.85796703,9.93245986 2.74977433,9.76957301 L2.72579742,9.7210417 L3.98198272,9.1582489 C4.05520838,8.87268393 4.11786331,8.62829377 4.15878045,8.46860136 L4.18063286,8.38329783 L6.31872698,6.96940981 L4.56562843,7.28762772 L4.42522006,6.75444415 L7.25531934,6.2733024 L13.5281261,5.03678255 L16.7190233,4.27323883 L24.0631311,1.68540345 L24.4675426,0.425928975 C24.6267234,0.388576177 24.8944811,0.326671219 25.103631,0.282988651 Z M13.814,11.228 L13.8138651,11.2415369 C13.8089798,11.3579017 13.808144,11.4858736 13.8117776,11.6273419 L13.8117776,11.6273419 L13.8220445,11.7493138 C13.8560482,12.0235262 13.9633065,12.2263956 14.2051588,12.3868592 L14.2051588,12.3868592 L14.261,12.42 L14.1880024,12.4058222 C14.1036615,12.3894038 13.9907533,12.3683099 13.8412246,12.3413269 C13.7432398,12.1712053 13.6927148,11.96858 13.6748211,11.2976258 C13.6813759,11.2874263 13.7213001,11.2672797 13.7904787,11.2383657 L13.7904787,11.2383657 L13.814,11.228 Z" id="形状结合" stroke="url(#linearGradient-4)" stroke-width="0.5" fill="url(#linearGradient-3)"></path>
                        <path d="M10.4687966,10.6194594 L8.86956482,11.0326798 C8.19504801,11.2069661 6.59001949,12.0720583 5.2434252,16.6760337 C3.89661256,21.2797786 3.61749002,22.2918047 3.98498231,22.4122831 C4.35246937,22.5329063 4.82350671,22.4727284 5.33331225,21.7885045 C5.8432322,21.104251 6.44474067,21.0089268 7.26547244,21.5646475 C7.77462303,21.7919545 7.97575633,21.5954057 8.03242644,21.3664767 C8.08919524,21.1379525 8.83266105,17.1192505 9.78244128,14.1117857 C10.7317744,11.1041497 10.8714932,10.5154078 10.6701449,10.5674336 L10.4687966,10.6194594 Z" id="Fill-129" stroke="none" fill="url(#linearGradient-5)"></path>
                        <path d="M5.51864959,19.5022289 C5.15942591,19.5950476 4.85605525,20.0050475 4.84112662,20.4179705 C4.82619799,20.8308936 5.10536458,21.0903735 5.46458826,20.9975548 L8.22958097,20.283117 C8.31695101,19.8570698 8.42742683,19.331105 8.55712987,18.7466724 C8.50014628,18.7428935 8.44003044,18.7473825 8.3772235,18.763611 L5.51864959,19.5022289 Z" id="Fill-131" stroke="none" fill="#000000"></path>
                    </g>
                </g>
            </g>
        </g>
    </g>
</svg>