<?xml version="1.0" encoding="UTF-8"?>
<svg width="30px" height="30px" viewBox="0 0 30 30" version="1.1" xmlns="http://www.w3.org/2000/svg" xmlns:xlink="http://www.w3.org/1999/xlink">
    <title>商业险备份 5</title>
    <defs>
        <rect id="path-1" x="0" y="0" width="30" height="30"></rect>
        <linearGradient x1="50%" y1="0%" x2="50%" y2="100%" id="linearGradient-3">
            <stop stop-color="#FF532E" offset="0%"></stop>
            <stop stop-color="#9A2E16" offset="100%"></stop>
        </linearGradient>
        <polygon id="path-4" points="0 5.82183233 15.1162962 2.49685113e-13 15.1162962 18.7747544 0 24.6414292"></polygon>
        <path d="M16.5968579,0 L18.9276515,0.613344837 L16.5963954,2.87 L16.5968579,9.44546392 C16.5968579,11.9174523 15.7609236,15.8671783 8.53051388,21.5932324 L8.3055155,21.7710349 L8.08049118,21.7778011 C5.07123167,21.8636352 3.1725501,21.3461566 1.9779769,20.5371618 L1.88477846,20.473556 C0.291098185,19.3374286 0.0133953655,17.6625242 0.0133953655,16.2468693 L0.0133953655,6.80140535 L0.660106944,6.55754284 C5.68496734,4.66584039 7.82560188,1.54688186 7.84631553,1.51701206 L8.28939537,0.857 L8.30512661,0.826682172 L10.6359202,1.48002776 L10.5400475,1.54897679 C11.6250994,1.59921545 13.2303402,1.41046098 15.4163876,0.513893445 L15.4173209,0.513510677 C15.5914554,0.442092547 15.7712675,0.365555712 15.9520128,0.285845894 L16.5968579,0 Z" id="path-6"></path>
        <linearGradient x1="33.4918187%" y1="59.7621106%" x2="89.482052%" y2="26.1823142%" id="linearGradient-8">
            <stop stop-color="#E05434" offset="0%"></stop>
            <stop stop-color="#B80700" offset="100%"></stop>
        </linearGradient>
        <linearGradient x1="29.3795436%" y1="18.6065636%" x2="29.3795436%" y2="73.3858629%" id="linearGradient-9">
            <stop stop-color="#FFFFFF" offset="0%"></stop>
            <stop stop-color="#FFFFFF" stop-opacity="0" offset="100%"></stop>
        </linearGradient>
    </defs>
    <g id="多色设计方案" stroke="none" stroke-width="1" fill="none" fill-rule="evenodd">
        <g id="控件库30*30" transform="translate(-216.000000, -936.000000)">
            <g id="商业险备份-5" transform="translate(216.000000, 936.000000)">
                <mask id="mask-2" fill="white">
                    <use xlink:href="#path-1"></use>
                </mask>
                <use id="蒙版" fill="#D8D8D8" opacity="0" xlink:href="#path-1"></use>
                <g id="交强险备份" mask="url(#mask-2)">
                    <g transform="translate(3.600000, 0.500000)">
                        <g id="形状">
                            <mask id="mask-5" fill="white">
                                <use xlink:href="#path-4"></use>
                            </mask>
                            <use id="蒙版" fill="url(#linearGradient-3)" xlink:href="#path-4"></use>
                            <path d="M8.89903632,3.5627607 L6.20322544,4.6737899 C5.62030772,4.91401359 5.14914324,5.83000829 5.03708139,6.86581673 C4.62759995,7.2797088 4.41644802,7.86787447 4.4177908,8.44761685 C4.41873276,8.87811461 4.53736511,9.21580826 4.76576958,9.39302356 L4.7680593,10.3542162 L5.8273282,9.91774351 L5.82595437,9.35480894 L9.29705921,7.92412831 L9.29843305,8.48705786 L10.3577069,8.0504273 L10.3554172,7.08923467 C10.5825972,6.72458071 10.6995471,6.28959386 10.6985054,5.85915784 C10.6972574,5.28043672 10.4835121,4.86682467 10.0726568,4.79073447 C9.95647844,3.84921605 9.48180471,3.3226002 8.89903632,3.5627607 Z M6.19822494,5.04109508 L8.88719314,3.94031525 C9.2615199,3.78705616 9.58970188,4.16399424 9.71381711,4.80589707 C9.65655569,4.81770883 9.59639967,4.83514555 9.53411366,4.85681182 C9.53411366,4.85527787 9.53579183,4.851532 9.53442149,4.8522396 C9.0285171,5.05935829 9.18659298,4.99456595 8.83038354,5.14045301 C8.4741741,5.28634008 8.59921283,5.23499299 8.24392191,5.38050624 L5.64389683,6.44492747 C5.5494773,6.48350859 5.46023627,6.53009524 5.37586591,6.58174982 C5.49754333,5.8389016 5.82389819,5.19420051 6.19822494,5.04109508 Z M5.05650754,8.17061586 C5.05591025,7.90636016 5.2400118,7.61558208 5.46833538,7.52098104 C5.69575668,7.42690732 5.88076052,7.56482951 5.88151666,7.82902807 C5.88211395,8.09420042 5.69815951,8.38400129 5.47059111,8.4782865 C5.24212041,8.57279219 5.05711657,8.43532833 5.05650754,8.17061586 Z M8.73039096,7.05499926 L6.30181162,8.05622458 C5.92322723,8.21277256 5.91499216,7.55209913 6.30028495,7.39279266 L8.72886926,6.38861695 C9.08303687,6.24210557 9.08456851,6.90848282 8.73039096,7.05499926 Z M9.59503806,6.7660203 C9.36716501,6.86041441 9.18216067,6.72293742 9.18155316,6.45822286 C9.18095924,6.19396325 9.36505639,5.90304765 9.59278233,5.80885598 C9.82080741,5.7143993 10.0059589,5.85227407 10.0065623,6.11668039 C10.0067091,6.38204668 9.82291112,6.67192252 9.59503806,6.7660203 Z" fill="#E8EDF1" mask="url(#mask-5)"></path>
                            <path d="M11.56454,7.51509574 C11.8081978,7.64951538 11.8277705,8.0207312 11.6219373,8.32778158 L11.6144903,8.33871987 L9.37926989,11.5729662 C9.25593014,11.7515112 9.07872637,11.886875 8.89211631,11.9455856 L8.8790823,11.9495569 L6.76907982,12.571083 C6.62103538,12.6147206 6.47389339,12.6832143 6.33386285,12.7736205 L6.31291239,12.7873454 L5.53893749,13.3015106 L5.60239619,13.4722746 C5.62880197,13.5429669 5.58686831,13.6410364 5.50865035,13.6915164 L4.50253626,14.3387455 C4.46494075,14.3627712 4.42389653,14.3722826 4.38846326,14.3651801 C4.35302999,14.3580776 4.32612105,14.3349453 4.31367603,14.3008891 L3.36116357,11.7376614 C3.33475779,11.6669692 3.37669146,11.5688997 3.45490941,11.5184197 L4.4610235,10.8711906 C4.49858863,10.8470828 4.53963984,10.8374697 4.5751159,10.8444732 C4.61059197,10.8514766 4.637576,10.8745208 4.65011183,10.9085191 L4.72479751,11.1096522 L5.21377695,10.5482257 C5.42891216,10.3013408 5.69622951,10.1126911 5.97644293,10.009699 L5.9947356,10.0031039 L6.62401858,9.78077995 L8.29336331,9.31563877 C8.60778401,9.22871213 8.85597704,9.41582044 8.84806291,9.73381693 C8.84079409,10.0481246 8.58588352,10.3734593 8.27611098,10.4663177 L8.26576518,10.4693265 L7.6533604,10.6402857 C7.57493801,10.6623091 7.50058514,10.7216115 7.45416176,10.7991626 C7.40773839,10.8767137 7.39508378,10.962759 7.42025884,11.0296862 C7.4513641,11.1135983 7.53579203,11.1526456 7.63310892,11.1290892 L7.64172813,11.1268478 L8.36452543,10.9251362 C8.55497656,10.8718104 8.73777635,10.7377255 8.86587214,10.5579006 L8.87452062,10.5455693 L10.7594045,7.81848356 C10.966645,7.51845708 11.325149,7.38336709 11.56454,7.51509574 Z M4.71508521,13.2686249 C4.60786196,13.3342689 4.53280246,13.4493522 4.52492596,13.5601824 C4.51704946,13.6710126 4.57790815,13.7557487 4.67910822,13.7748568 C4.78030828,13.793965 4.90190659,13.7436796 4.98717106,13.6474615 C5.07243554,13.5512434 5.10456341,13.4280539 5.06856532,13.3353675 C5.01947652,13.2089757 4.86130023,13.1791095 4.71508521,13.2686249 Z M8.15815221,9.59589216 C7.96315443,9.72002967 7.8581352,9.96235848 7.92357189,10.1371794 C7.98900857,10.3120004 8.20012739,10.3531278 8.39514573,10.2290452 C8.59016407,10.1049626 8.69524964,9.86264674 8.62987424,9.68778678 C8.56376018,9.51368074 8.35317083,9.47265652 8.15815221,9.59589216 Z" id="形状结合" fill="#E8EDF1" mask="url(#mask-5)"></path>
                        </g>
                        <g id="编组-12" transform="translate(3.750000, 7.350000)">
                            <g id="路径-79" transform="translate(0.013395, 0.000000)">
                                <mask id="mask-7" fill="white">
                                    <use xlink:href="#path-6"></use>
                                </mask>
                                <use id="蒙版" fill="#8B1B02" xlink:href="#path-6"></use>
                                <polygon fill="url(#linearGradient-8)" mask="url(#mask-7)" points="6.57712446 0.360006752 10.6359202 1.44002701 5.21079718 10.6001988 3.8444699 8.32015605 2.34418896 7.41347238 -3.08093407 6.08011404"></polygon>
                            </g>
                            <path d="M18.3975138,1.12774241 L18.6910468,10.0588088 C18.6910468,12.4891622 17.837958,16.3556103 10.7777458,21.9632814 C7.45702368,22.2132152 5.61912485,21.7269055 4.46706085,20.9467778 C2.86028526,19.8040151 2.60758433,18.2053106 2.60758433,16.8602141 L2.60758433,16.8602141 L2.60758433,7.5876632 L3.09237795,7.4048568 C8.18291155,5.48843046 10.3569656,2.32920025 10.397757,2.27015027 L10.397757,2.27015027 L10.719034,1.79116961 L10.9787944,1.96523233 C11.0030359,1.97926769 11.0742036,2.02016204 11.194523,2.0720787 L11.3097429,2.11890867 C12.0739083,2.41165213 14.1549026,2.87624902 17.855441,1.35854056 C18.032474,1.28593369 18.214305,1.20853913 18.3975138,1.12774241 L18.3975138,1.12774241 Z" id="形状结合" stroke="url(#linearGradient-9)" stroke-width="0.5" fill="#DB4625"></path>
                            <path d="M8.78735977,8.32015605 C8.61743251,9.01412374 8.3995936,9.72684438 8.13298981,10.4596158 L8.13298981,10.4596158 L8.13298979,16.8622339 L7.11616693,17.2803241 L7.11616693,12.964236 C6.89835389,13.4376012 6.65517586,13.9089053 6.3895029,14.377787 C6.3650946,14.1963934 6.31625216,13.9404528 6.24398393,13.6104978 C6.19516734,13.3912508 6.15852903,13.2139131 6.1350774,13.0795292 C6.81295071,11.6738817 7.34621,10.1358051 7.7339503,8.46564606 L7.7339503,8.46564606 Z M14.4715022,6.08011404 L14.4715022,9.24237037 L12.3944141,10.0930938 L12.3944141,11.0271069 L15.0910529,9.92263091 L15.0910529,10.8570786 L13.0130053,11.708195 C13.4988338,12.2041283 14.2163229,12.4850045 15.1635538,12.5519675 C15.1145716,12.6681436 15.0175926,12.851741 14.8716573,13.1027948 C14.7502002,13.3679601 14.6532212,13.5631659 14.5807203,13.688949 C13.6666931,13.5364885 12.978156,13.1809385 12.5151089,12.6218854 L12.394414,12.4643706 L12.394414,15.1233762 L11.3003663,15.5714708 L11.3003663,12.9485943 C10.742011,14.1112958 9.97673249,15.1554224 9.00504948,16.0803016 C8.76210927,15.8205071 8.5549787,15.6305261 8.38549881,15.507738 C9.22743566,14.7156132 9.91614223,13.8828097 10.451491,13.0080509 L10.6450579,12.6780472 L8.60396089,13.5140295 L8.60396089,12.5795819 L11.3003664,11.4752015 L11.3003664,10.5411885 L9.29694593,11.3617394 L9.29694593,8.19948312 L14.4715022,6.08011404 Z M13.341784,7.36013805 L10.3412222,8.60862132 L10.3412222,9.92018606 L13.341784,8.67170279 L13.341784,7.36013805 Z" id="形状结合" fill="#FFFFFF"></path>
                        </g>
                    </g>
                </g>
            </g>
        </g>
    </g>
</svg>