<?xml version="1.0" encoding="UTF-8"?>
<svg width="30px" height="30px" viewBox="0 0 30 30" version="1.1" xmlns="http://www.w3.org/2000/svg" xmlns:xlink="http://www.w3.org/1999/xlink">
    <title>投保人备份</title>
    <defs>
        <rect id="path-1" x="0" y="0" width="30" height="30"></rect>
        <linearGradient x1="50%" y1="0%" x2="50%" y2="100%" id="linearGradient-3">
            <stop stop-color="#A2B8C8" offset="0%"></stop>
            <stop stop-color="#7592A8" offset="100%"></stop>
        </linearGradient>
        <linearGradient x1="50%" y1="-27.668318%" x2="27.8904378%" y2="134.594095%" id="linearGradient-4">
            <stop stop-color="#7692A8" offset="0%"></stop>
            <stop stop-color="#E4F1F8" offset="100%"></stop>
        </linearGradient>
        <polygon id="path-5" points="17.786772 0.710760118 17.786772 4.2112537 20.1145114 2.94965449"></polygon>
        <filter x="-85.9%" y="-28.6%" width="271.8%" height="214.3%" filterUnits="objectBoundingBox" id="filter-6">
            <feOffset dx="0" dy="1" in="SourceAlpha" result="shadowOffsetOuter1"></feOffset>
            <feGaussianBlur stdDeviation="0.5" in="shadowOffsetOuter1" result="shadowBlurOuter1"></feGaussianBlur>
            <feColorMatrix values="0 0 0 0 0.17254902   0 0 0 0 0.247058824   0 0 0 0 0.305882353  0 0 0 1 0" type="matrix" in="shadowBlurOuter1"></feColorMatrix>
        </filter>
    </defs>
    <g id="多色设计方案" stroke="none" stroke-width="1" fill="none" fill-rule="evenodd">
        <g id="控件库30*30" transform="translate(-266.000000, -860.000000)">
            <g id="投保人备份" transform="translate(266.000000, 860.000000)">
                <mask id="mask-2" fill="white">
                    <use xlink:href="#path-1"></use>
                </mask>
                <use id="蒙版" fill="#D8D8D8" opacity="0" xlink:href="#path-1"></use>
                <g id="税" mask="url(#mask-2)">
                    <g transform="translate(4.950000, 0.000000)">
                        <g id="编组" stroke-width="1" fill="none" fill-rule="evenodd" transform="translate(-0.000000, 0.000000)">
                            <polygon id="矩形备份" fill="#2C3F4E" points="0 6.26451359 16.2734452 0 18.5982231 2.23364651 18.5982231 22.0704251 1.52910821 29.94077 0 29.2298692"></polygon>
                            <polygon id="矩形" fill="url(#linearGradient-3)" points="1.53998026 6.98772057 17.8134255 0.710760118 20.1382034 2.94884463 20.1382034 22.8263309 1.53998026 30"></polygon>
                            <polygon id="路径-77" fill="#496175" points="16.269466 0 17.798618 0.710155731 1.52915199 6.95952616 0 6.24937043"></polygon>
                            <g id="路径-78">
                                <use fill="black" fill-opacity="1" filter="url(#filter-6)" xlink:href="#path-5"></use>
                                <use fill="url(#linearGradient-4)" fill-rule="evenodd" xlink:href="#path-5"></use>
                            </g>
                        </g>
                        <path d="M9.30550222,11.1800114 C9.49362236,11.1051791 9.96821615,10.9396422 10.4683131,10.9505103 C10.8617738,10.9587553 11.1849332,11.0758113 11.4332557,11.3000872 C11.5908667,11.4425603 11.7201305,11.6293303 11.8176452,11.8583518 C11.9945325,12.2736804 11.9979341,12.8255196 11.9378378,13.3380446 C12.0886455,13.407135 12.1986331,13.5414214 12.2473905,13.7252243 C12.3301646,14.036258 12.2360516,14.4431351 11.967319,14.9369956 C11.9208294,15.0215016 11.8698043,15.1089602 11.8131097,15.1998257 C11.7541473,15.3779308 11.6532308,15.6682595 11.5341721,15.969263 C11.4275862,16.2402798 11.3051258,16.5187911 11.1837993,16.7343717 C11.1565859,16.7827581 11.1293725,16.8288725 11.1010252,16.8743053 C10.9967071,17.0433153 10.8855856,17.1968753 10.7710624,17.3347589 L10.7710624,17.7493762 C10.7710624,17.9220388 10.9876359,18.0079521 11.334607,18.0416343 C11.8312519,18.0892001 12.5932277,18.0304868 13.3733458,17.9645066 C14.6988661,17.8515904 14.7,20.063943 14.7,20.063943 C14.7,20.063943 13.1363622,21.2786788 9.24937869,22.8356223 C5.36239516,24.3925658 3.75,24.45 3.75,24.45 C3.75,24.45 3.75,22.2371932 5.07438646,21.2886809 C5.84656727,20.7362907 6.60287357,20.1879873 7.09951849,19.744828 C7.45556074,19.4272797 7.67780367,19.1633252 7.67780367,18.9883908 L7.67780367,18.5578703 C7.57008388,18.5124147 7.46463187,18.4501475 7.36598323,18.3692521 C7.3387698,18.3472104 7.31155638,18.3228967 7.28547686,18.296993 C7.16415036,18.1786078 7.04282386,17.998882 6.93623797,17.8143878 C6.81717925,17.607627 6.71626282,17.3981431 6.65730041,17.2661372 C6.59493632,17.2161455 6.53824169,17.1650187 6.48835043,17.1111669 C6.23095683,16.8348635 6.14251321,16.5090616 6.22301958,16.139441 C6.27177696,15.9165782 6.38176453,15.695316 6.53257223,15.5042767 C6.47247593,15.0398952 6.4758776,14.4853309 6.65276484,13.9282968 C6.74007456,13.6547777 6.85119603,13.3955754 6.98612924,13.1518258 C7.24125505,12.690678 7.5814228,12.2840696 8.00323082,11.9379068 C8.51008077,11.5213301 8.98971731,11.3064914 9.172274,11.2333678 L9.30550222,11.1800114 Z M8.31314403,18.6846806 C8.31314402,19.3671169 7.61671546,20.0230558 7.2,20.3796875 C7.37581967,21.6945828 8.65222482,22.0879735 9.03925644,22.1779598 C9.1088993,22.1935701 9.15,22.2 9.15,22.2 C9.15,22.2 9.19110071,22.1616987 9.26074356,22.0889937 C9.64663349,21.6896903 10.9196136,20.2745666 11.1,18.8223265 C10.6867096,18.8036761 9.96630562,18.714551 9.96630562,18.0206451 L9.96630562,18 C9.6123829,18.2614453 9.30526932,18.4008628 9.16370024,18.4577277 L9.12931984,18.4715241 C8.98239593,18.52998 8.67043744,18.6366709 8.31314403,18.6571537 L8.31314403,18.6846806 Z M9.55720859,18.75 L9.9,18.9795002 C9.9,18.9795002 9.70329755,19.4616592 9.38696319,19.7428109 L9.9,20.8034017 C9.9,20.8034017 9.52384969,21.469714 9.15,21.7497359 C8.77500001,21.761326 8.4,21.3875217 8.4,21.3875217 L8.91303681,19.9273641 C8.59555215,19.89303 8.4,19.5636202 8.4,19.5636202 L8.74279141,19.0671449 L9.55720859,18.75 Z" id="形状结合" fill="#FFFFFF" fill-rule="nonzero"></path>
                        <path d="M15.4505159,8.73184938 L15.6337254,8.85502719 C15.6404628,8.85931801 16.4474431,9.35939128 18.2801883,8.60520758 L18.2805598,8.60505473 C18.3498631,8.57653609 18.4214259,8.54597346 18.4933602,8.51414379 L18.75,8.4 L18.75,12.1717562 C18.75,13.1588689 18.4173092,14.7360708 15.5397012,17.0225948 L15.4501548,17.0935947 L15.3605981,17.0962966 C14.1629523,17.1305718 13.407302,16.9239326 12.9318776,16.6008854 L12.8947859,16.5754864 C12.2605221,16.1218088 12.15,15.4529871 12.15,14.8876887 L12.15,11.1159325 L12.4073827,11.0185535 C14.4072111,10.2631602 15.2591555,9.0176998 15.2673992,9.00577222 L15.4505159,8.73184938 Z M16.9743252,10.5 L14.9130698,11.3583284 L14.9130698,12.6390182 L15.7111211,12.3067013 L15.7111211,12.6849694 L14.6370231,13.1322351 L14.6370231,13.5106793 L15.4500826,13.1721128 C15.2273551,13.5754553 14.9273034,13.957211 14.55,14.3181161 C14.6175114,14.3678443 14.7000207,14.4447852 14.7967945,14.55 C15.183859,14.1754309 15.4887033,13.7525676 15.7111211,13.2816823 L15.7111211,14.3439274 L16.1469288,14.1624525 L16.1469288,13.0855754 C16.3303333,13.3489193 16.6206342,13.5141618 17.0178316,13.5815204 C17.0467119,13.5305792 17.0853429,13.4515223 17.1337247,13.3441324 C17.1918572,13.2424575 17.2304882,13.1681019 17.25,13.1210515 C16.8726759,13.093932 16.5868682,12.9801793 16.3933411,12.77933 L17.2211197,12.4346344 L17.2211197,12.0561901 L16.1469288,12.5034945 L16.1469288,12.1252263 L16.9743252,11.7806898 L16.9743252,10.5 Z M14.2829705,11.4584547 C14.1294698,12.1294882 13.9183602,12.7474538 13.65,13.3122123 C13.6592842,13.3662048 13.6737887,13.4374552 13.6931145,13.5255439 C13.7217244,13.6581126 13.7410605,13.7609439 13.7507234,13.8338239 C13.8558994,13.6454375 13.9521701,13.4560778 14.0383991,13.26589 L14.0383991,15 L14.4409444,14.8320205 L14.4409445,12.2595882 C14.546489,11.9651767 14.6327283,11.6788211 14.7,11.4 L14.2829705,11.4584547 Z M16.5,11.1 L16.5,11.6379364 L15.3,12.15 L15.3,11.6120636 L16.5,11.1 Z" id="形状结合" fill="#FFFFFF" fill-rule="nonzero"></path>
                    </g>
                </g>
            </g>
        </g>
    </g>
</svg>