<?xml version="1.0" encoding="UTF-8"?>
<svg width="30px" height="31px" viewBox="0 0 30 31" version="1.1" xmlns="http://www.w3.org/2000/svg" xmlns:xlink="http://www.w3.org/1999/xlink">
    <title>人群/团伙备份</title>
    <defs>
        <polygon id="path-1" points="7.33352515e-14 0 3.87132731 0 3.87132731 7.35778583 7.33352515e-14 7.35778583"></polygon>
        <path d="M0.403263262,4.80689808 C0.82332916,2.84050961 2.2935598,1.43484909 4.81395519,0.589916543 L9.09862735,2.60392849 L11.3895372,0.00305652761 C11.9763939,0.154783332 12.3990233,0.281272493 12.6574256,0.382524008 C13.3919395,0.670333527 13.8943383,1.16193065 14.1646221,1.85731537 C14.6855038,3.48573082 15.0047539,4.86066652 15.1223723,5.98212245 C15.2988,7.66430634 15.4752277,10.0608423 14.9207407,10.8212816 C14.3662537,11.5817209 5.23738161,13.6556462 3.62432857,13.6556462 C2.01127552,13.6556462 0.0756118616,13.0657297 0.0756118616,11.5909383 C0.0756118616,10.116147 -0.226835585,7.7564808 0.403263262,4.80689808 Z" id="path-3"></path>
        <path d="M3.76953083,6.0173347 C5.65139938,5.8082892 7.07513279,4.4051107 6.94952839,2.87237757 C6.82392399,1.33490188 5.19654563,0.0443319253 3.31467708,0.000679114918 C1.43280852,-0.0357093309 0.00907512237,1.39482682 0.134679518,3.1850008 C0.260283914,4.97043224 1.88766228,6.23364455 3.76953083,6.0173347 Z" id="path-5"></path>
        <path d="M3.2261061,7.20674775 C4.82966237,7.20674775 6.05903051,5.04063796 6.05903051,3.09346248 C6.05903051,-1.01982279 4.50705176,0.155401569 2.90349549,0.155401569 C1.29993921,0.155401569 0,1.146287 0,3.09346248 C0,5.04063796 1.62254982,7.20674775 3.2261061,7.20674775 Z" id="path-7"></path>
        <polygon id="path-9" points="6.60017264e-14 0 3.48419458 0 3.48419458 6.40476945 6.60017264e-14 6.40476945"></polygon>
        <path d="M0.362936936,4.18389879 C0.740996244,2.47236461 2.06420382,1.2488851 4.33255967,0.513460254 L8.18876461,2.26644565 L10.2505835,0.00266038554 C10.7787545,0.134722598 11.159121,0.244818097 11.3916831,0.332946884 C12.0527456,0.583454773 12.5049045,1.01133832 12.7481599,1.61659752 C13.2169534,3.03396176 13.5042785,4.23069855 13.6101351,5.20680789 C13.76892,6.6709719 13.9277049,8.75690418 13.4286666,9.41878654 C12.9296283,10.0806689 4.71364345,11.8858026 3.26189571,11.8858026 C1.81014797,11.8858026 0.0680506755,11.3723424 0.0680506755,10.0886917 C0.0680506755,8.80504108 -0.204152026,6.75120006 0.362936936,4.18389879 Z" id="path-11"></path>
        <path d="M2.90349549,6.26732698 C4.34669614,6.26732698 5.45312746,4.38357597 5.45312746,2.69022054 C5.45312746,-0.886885894 4.05634659,0.135144517 2.61314594,0.135144517 C1.16994529,0.135144517 0,0.996865115 0,2.69022054 C0,4.38357597 1.46029484,6.26732698 2.90349549,6.26732698 Z" id="path-13"></path>
        <polygon id="path-15" points="9.16690644e-14 0 4.83915914 0 4.83915914 9.22961691 9.16690644e-14 9.22961691"></polygon>
        <path d="M0.499715157,6.08586735 C1.02422492,3.6212365 2.86000911,1.85941054 6.00706771,0.800389467 L11.3570673,3.3247106 L14.2175819,0.0648311991 C14.9503527,0.255002454 15.4780634,0.413541365 15.8007141,0.540447931 C16.7178552,0.901182459 17.3451689,1.51734017 17.6826551,2.38892107 C18.3330472,4.4299435 18.7316747,6.1532596 18.8785374,7.55886939 C19.0988315,9.66728406 19.3191256,12.6710529 18.6267727,13.6241719 C17.9344198,14.5772908 6.53577356,17.1767062 4.52165605,17.1767062 C2.50753854,17.1767062 0.0905975388,16.4373169 0.0905975388,14.5888438 C0.0905975388,12.7403707 -0.287049493,9.78281364 0.499715157,6.08586735 Z" id="path-17"></path>
        <path d="M4.03263262,9.04376188 C6.03707797,9.04376188 7.57378814,6.32550646 7.57378814,3.88199213 C7.57378814,-1.27977762 5.63381471,0.195013733 3.62936936,0.195013733 C1.62492401,0.195013733 0,1.4384778 0,3.88199213 C0,6.32550646 2.02818727,9.04376188 4.03263262,9.04376188 Z" id="path-19"></path>
    </defs>
    <g id="多色设计方案" stroke="none" stroke-width="1" fill="none" fill-rule="evenodd">
        <g id="控件库30*30" transform="translate(-566.000000, -101.000000)">
            <g id="人群/团伙备份" transform="translate(566.000000, 101.000000)">
                <rect id="矩形" fill="#D8D8D8" opacity="0" x="0" y="0" width="30" height="30"></rect>
                <g id="编组-33" transform="translate(1.650000, 0.750000)">
                    <g id="编组备份-13" transform="translate(11.400000, 3.135000)">
                        <g id="路径" transform="translate(6.270000, 6.840000)">
                            <mask id="mask-2" fill="white">
                                <use xlink:href="#path-1"></use>
                            </mask>
                            <use id="蒙版" fill="#EED5BE" xlink:href="#path-1"></use>
                            <polygon fill="#D4B090" mask="url(#mask-2)" points="-1.93566366 -1.17724573 3.39749298 0.639485797 -3.45798247 9.60678728"></polygon>
                        </g>
                        <path d="M0.330430494,13.9771277 C0.709114329,12.0471243 2.22384967,11.031575 3.23367323,10.4479787 C3.90688894,10.0589146 4.87631956,9.6667869 6.14196509,9.27159574 C7.11326989,10.1188381 8.00285172,10.5118242 8.81071057,10.4505543 C9.61856942,10.3892843 10.0215618,9.89826625 10.0196876,8.9775 C11.0073925,9.08265976 11.8691086,9.27872359 12.6048359,9.56569149 C13.3405631,9.85265939 13.8437919,10.342819 14.1145221,11.0361702 C14.6362643,12.6598238 14.9560417,14.0307389 15.0738545,15.1489154 C15.2505736,16.8261802 15.4272927,19.2157081 14.8718898,19.9739237 C14.3164868,20.7321393 5.17253447,22.8 3.55681677,22.8 C1.94109907,22.8 0.00223783615,22.2118085 0.00223783615,20.7413298 C0.00223783615,19.2708511 -0.0482533419,15.907131 0.330430494,13.9771277 Z" id="蒙版" fill="#FFFFFF"></path>
                        <g id="路径-2" transform="translate(0.000000, 9.120000)">
                            <mask id="mask-4" fill="white">
                                <use xlink:href="#path-3"></use>
                            </mask>
                            <use id="蒙版" fill="#34475B" xlink:href="#path-3"></use>
                            <path d="M1.94404493e-14,2.97013025 C2.28560777,2.97013025 3.42841165,4.10996581 3.42841165,6.38963693 C3.42841165,8.66930805 3.42841165,11.2339381 3.42841165,14.083527 L1.94404493e-14,14.083527 L1.94404493e-14,2.97013025 Z" fill="#536378" mask="url(#mask-4)"></path>
                        </g>
                        <g id="椭圆形" transform="translate(4.132500, 0.000000)">
                            <mask id="mask-6" fill="white">
                                <use xlink:href="#path-5"></use>
                            </mask>
                            <use id="蒙版" fill="#EED5BE" xlink:href="#path-5"></use>
                        </g>
                        <g id="路径-5" transform="translate(5.272500, 1.425000)">
                            <mask id="mask-8" fill="white">
                                <use xlink:href="#path-7"></use>
                            </mask>
                            <use id="蒙版" fill="#EED5BE" xlink:href="#path-7"></use>
                            <path d="M-2.10604867e-14,3.68107466 C0.21507374,4.66042829 0.967831829,5.54184657 2.25827427,6.32532948 C3.54871671,7.10881239 4.73162227,7.01087702 5.80699097,6.03152339 L1.61305305,8.38197211 L-2.10604867e-14,3.68107466 Z" fill="#D4B090" opacity="0.4" mask="url(#mask-8)"></path>
                        </g>
                        <path d="M5.40483935,5.985 C5.7405675,5.985 5.92157888,5.57030375 5.80913959,5.05875 C5.6967003,4.54719625 5.3333888,4.1325 4.99766065,4.1325 C4.6619325,4.1325 4.48092112,4.54719625 4.59336041,5.05875 C4.7057997,5.57030375 5.0691112,5.985 5.40483935,5.985 Z" id="椭圆形" fill="#EED5BE"></path>
                        <path d="M5.26911312,5.415 C5.3810225,5.415 5.44135963,5.25550144 5.40387986,5.05875 C5.3664001,4.86199856 5.24529627,4.7025 5.13338688,4.7025 C5.0214775,4.7025 4.96114037,4.86199856 4.99862014,5.05875 C5.0360999,5.25550144 5.15720373,5.415 5.26911312,5.415 Z" id="椭圆形备份" fill="#D4B090" opacity="0.4"></path>
                    </g>
                    <g id="编组备份-21" transform="translate(0.000000, 5.985000)">
                        <g id="路径" transform="translate(5.557500, 5.985000)">
                            <mask id="mask-10" fill="white">
                                <use xlink:href="#path-9"></use>
                            </mask>
                            <use id="蒙版" fill="#EED5BE" xlink:href="#path-9"></use>
                            <polygon fill="#D4B090" mask="url(#mask-10)" points="-1.74209729 -1.02476311 3.05774368 0.556656471 -3.11218422 8.36246924"></polygon>
                        </g>
                        <path d="M0.438961004,12.076117 C0.778714725,10.384877 2.13772961,9.4949626 3.04373954,8.98356383 C3.64774615,8.64263132 4.51751568,8.2990143 5.65304812,7.95271277 C6.52449916,8.6951416 7.32262865,9.03951093 8.04743659,8.98582077 C8.77224453,8.93213061 9.13380774,8.50185702 9.13212623,7.695 C10.0182914,7.78715031 10.7914199,7.95895882 11.4515116,8.21042553 C12.1116034,8.46189224 12.5630983,8.89141352 12.8059965,9.49898936 C13.2741016,10.9217786 13.5610047,12.1230959 13.6667059,13.1029413 C13.8252576,14.5727094 13.9838094,16.6666257 13.4855039,17.3310414 C12.9871985,17.9954571 4.78327859,19.8075 3.33366271,19.8075 C1.88404683,19.8075 0.144507778,19.2920745 0.144507778,18.0035106 C0.144507778,16.7149468 0.099207282,13.767357 0.438961004,12.076117 Z" id="蒙版" fill="#FFFFFF"></path>
                        <g id="路径-2" transform="translate(0.000000, 7.980000)">
                            <mask id="mask-12" fill="white">
                                <use xlink:href="#path-11"></use>
                            </mask>
                            <use id="蒙版" fill="#34475B" xlink:href="#path-11"></use>
                            <path d="M1.74964043e-14,2.58518573 C2.05704699,2.58518573 3.08557049,3.57729261 3.08557049,5.56150635 C3.08557049,7.5457201 3.08557049,9.77796057 3.08557049,12.2582278 L1.74964043e-14,12.2582278 L1.74964043e-14,2.58518573 Z" fill="#536378" mask="url(#mask-12)"></path>
                        </g>
                        <path d="M7.11527676,5.25146157 C8.80351852,5.06902293 10.080763,3.8444379 9.96808211,2.50678767 C9.85540124,1.16499851 8.39546499,0.0386894553 6.70722324,0.000592678665 C5.01898148,-0.0311643258 3.74173702,1.21729633 3.85441789,2.77962091 C3.96709876,4.33780656 5.42703501,5.44023999 7.11527676,5.25146157 Z" id="椭圆形" fill="#EED5BE"></path>
                        <g id="路径-5" transform="translate(4.702500, 1.282500)">
                            <mask id="mask-14" fill="white">
                                <use xlink:href="#path-13"></use>
                            </mask>
                            <use id="蒙版" fill="#EED5BE" xlink:href="#path-13"></use>
                            <path d="M-1.8954438e-14,3.20123575 C0.193566366,4.05292776 0.871048646,4.81945057 2.03244684,5.50080418 C3.19384503,6.18215778 4.25846005,6.09698858 5.22629187,5.24529657 L1.45174774,7.28935739 L-1.8954438e-14,3.20123575 Z" fill="#D4B090" opacity="0.4" mask="url(#mask-14)"></path>
                        </g>
                        <path d="M4.88346831,5.2725 C5.18189333,5.2725 5.34279234,4.92160317 5.2428463,4.48875 C5.14290026,4.05589683 4.81995671,3.705 4.52153169,3.705 C4.22310667,3.705 4.06220766,4.05589683 4.1621537,4.48875 C4.26209974,4.92160317 4.58504329,5.2725 4.88346831,5.2725 Z" id="椭圆形" fill="#EED5BE"></path>
                        <path d="M4.69911312,4.845 C4.8110225,4.845 4.87135963,4.68550144 4.83387986,4.48875 C4.7964001,4.29199856 4.67529627,4.1325 4.56338688,4.1325 C4.4514775,4.1325 4.39114037,4.29199856 4.42862014,4.48875 C4.4660999,4.68550144 4.58720373,4.845 4.69911312,4.845 Z" id="椭圆形备份" fill="#D4B090" opacity="0.4"></path>
                    </g>
                    <g id="编组备份-2" transform="translate(3.990000, 0.000000)">
                        <g id="路径" transform="translate(7.695000, 8.550000)">
                            <mask id="mask-16" fill="white">
                                <use xlink:href="#path-15"></use>
                            </mask>
                            <use id="蒙版" fill="#EED5BE" xlink:href="#path-15"></use>
                            <polygon fill="#D4B090" mask="url(#mask-16)" points="-2.41957957 -1.47673871 4.24686623 0.802171884 -4.32247809 12.0507675"></polygon>
                        </g>
                        <path d="M0.55013388,17.4031915 C1.01729525,14.9757646 2.88594072,13.6984757 4.13170436,12.9644681 C4.96221346,12.4751297 6.15814656,11.9819382 7.71950366,11.4848936 C8.91774884,12.5504974 10.0151769,13.0447686 11.0117878,12.9677075 C12.0083987,12.8906463 12.5055481,12.2730771 12.5032361,11.115 C13.7217132,11.2472628 14.7847649,11.4938585 15.692391,11.8547872 C16.6000171,12.2157159 17.2208227,12.8322053 17.5548076,13.7042553 C18.1984522,15.7463763 18.592944,17.47062 18.7382831,18.8769864 C18.9562917,20.9865359 19.1743004,23.9919215 18.4891304,24.9455535 C17.8039604,25.8991855 6.52357056,28.5 4.53034873,28.5 C2.53712689,28.5 0.145260695,27.7602128 0.145260695,25.9107447 C0.145260695,24.0612766 0.0829725128,19.8306184 0.55013388,17.4031915 Z" id="蒙版" fill="#FFFFFF"></path>
                        <g id="路径-2" transform="translate(0.000000, 11.257500)">
                            <mask id="mask-18" fill="white">
                                <use xlink:href="#path-17"></use>
                            </mask>
                            <use id="蒙版" fill="#263748" xlink:href="#path-17"></use>
                            <path d="M0,3.8529562 C2.85700971,3.8529562 4.28551456,5.28146105 4.28551456,8.13847076 C4.28551456,10.9954805 4.28551456,14.2096164 4.28551456,17.7808785 L0,17.7808785 L0,3.8529562 Z" fill="#39475A" mask="url(#mask-18)"></path>
                        </g>
                        <path d="M9.83218851,7.52236387 C12.1878747,7.26103285 13.9700762,5.50689753 13.8128471,3.59080396 C13.655618,1.66878164 11.6184977,0.0554200306 9.26281149,0.000848972142 C6.90712532,-0.044640791 5.12492375,1.74369474 5.28215287,3.98161914 C5.43938199,6.2136148 7.47650234,7.7927762 9.83218851,7.52236387 Z" id="椭圆形" fill="#EED5BE"></path>
                        <g id="路径-5" transform="translate(6.555000, 1.710000)">
                            <mask id="mask-20" fill="white">
                                <use xlink:href="#path-19"></use>
                            </mask>
                            <use id="蒙版" fill="#EED5BE" xlink:href="#path-19"></use>
                            <path d="M-2.63256084e-14,4.61938781 C0.268842175,5.84838061 1.20978979,6.95447412 2.82284283,7.93766836 C4.43589588,8.9208626 5.91452784,8.79796332 7.25873871,7.56897052 L2.01631631,10.5185532 L-2.63256084e-14,4.61938781 Z" fill="#D4B090" opacity="0.4" mask="url(#mask-20)"></path>
                        </g>
                        <path d="M6.68395247,7.5525 C7.13159,7.5525 7.37293851,7.04210461 7.22301945,6.4125 C7.07310039,5.78289539 6.58868507,5.2725 6.14104753,5.2725 C5.69341,5.2725 5.45206149,5.78289539 5.60198055,6.4125 C5.75189961,7.04210461 6.23631493,7.5525 6.68395247,7.5525 Z" id="椭圆形" fill="#EED5BE"></path>
                        <path d="M6.50298416,6.84 C6.65219667,6.84 6.73264617,6.64860173 6.68267315,6.4125 C6.63270013,6.17639827 6.47122836,5.985 6.32201584,5.985 C6.17280333,5.985 6.09235383,6.17639827 6.14232685,6.4125 C6.19229987,6.64860173 6.35377164,6.84 6.50298416,6.84 Z" id="椭圆形备份" fill="#D4B090" opacity="0.4"></path>
                    </g>
                </g>
            </g>
        </g>
    </g>
</svg>