<?xml version="1.0" encoding="UTF-8"?>
<svg width="30px" height="30px" viewBox="0 0 30 30" version="1.1" xmlns="http://www.w3.org/2000/svg" xmlns:xlink="http://www.w3.org/1999/xlink">
    <title>通用银行备份 2</title>
    <defs>
        <rect id="path-1" x="0" y="0" width="30" height="30"></rect>
        <linearGradient x1="50%" y1="12.8626779%" x2="50%" y2="87.0567845%" id="linearGradient-3">
            <stop stop-color="#4996D9" offset="0%"></stop>
            <stop stop-color="#1777CA" offset="100%"></stop>
        </linearGradient>
    </defs>
    <g id="多色设计方案" stroke="none" stroke-width="1" fill="none" fill-rule="evenodd">
        <g id="控件库30*30" transform="translate(-166.000000, -253.000000)">
            <g id="通用银行备份-2" transform="translate(166.000000, 253.000000)">
                <mask id="mask-2" fill="white">
                    <use xlink:href="#path-1"></use>
                </mask>
                <use id="蒙版" fill="#D8D8D8" opacity="0" xlink:href="#path-1"></use>
                <g id="通用银行" mask="url(#mask-2)">
                    <g transform="translate(1.650000, 1.800000)">
                        <g id="通用银行" stroke-width="1" fill="none">
                            <path d="M12.0580645,0 L0,6.38478261 L0,8.03478261 L0.143548387,7.81956522 L2.58387097,9.1826087 L2.58387097,20.5891304 C1.99777574,20.7146609 1.57903226,21.2325882 1.57903226,21.8319759 L1.57903226,22.3826087 L1.57903226,22.3826087 L0.25992231,23.5212835 C0.0948780394,23.6637521 5.25721716e-15,23.8709896 0,24.0890192 L0,25.826087 L0,25.826087 L24.116129,22.2391304 L24.116129,18.3652174 L21.9629032,17.7913043 L20.9580645,17.9347826 L20.9580645,5.81086957 L22.5370968,5.52391304 L22.9677419,4.73478261 L24.116129,4.51956522 L24.116129,2.94130435 L12.0580645,0 Z" id="路径-105" fill="#165388"></path>
                            <path d="M4.52177419,8.1568586 L25.5516129,5.38043478 L25.5516129,5.73913043 L25.1209677,6.10141984 L25.1209677,18.5086957 L25.5516129,19.4413043 L25.5516129,20.8723041 L3.73225806,23.9608696 L3.73490546,23.1024712 C3.73755526,22.2432915 4.17364981,21.4434824 4.89443421,20.9758643 L4.89443421,20.9758643 L4.89443421,20.9758643 L4.95241935,9.54130435 C4.67868329,9.34334189 4.51730003,9.02545052 4.51904012,8.68763765 L4.52177419,8.1568586 L4.52177419,8.1568586 Z" id="路径-109" fill="#FFFFFF"></path>
                            <path d="M14.6419857,0.573913043 L26.7,3.50796972 L26.7,5.1239648 L25.0933174,5.3554383 C25.0933174,5.56570124 25.0089154,5.76820089 24.8370671,5.94778624 C24.6725451,6.12301287 24.4540633,6.23726671 24.2281214,6.26599145 L5.05872684,9.02771103 C4.83281847,9.064084 4.61430321,9.01278799 4.44991497,8.8849472 C4.27810016,8.75487311 4.19366469,8.57964124 4.19366469,8.36643481 L2.58387097,8.59835652 L2.58387097,6.98236144 L14.6419857,0.573913043 Z M5.77404274,9.93417373 L8.99964286,9.45825697 L8.99964286,20.64847 L10.6107824,20.4107566 L10.6107824,9.22054359 L13.8362483,8.74464663 L13.8362483,19.9348596 L15.447522,19.6971265 L15.447522,8.50691346 L18.6729544,8.03102144 L18.6729544,19.2212345 L20.2842617,18.9834963 L20.2842617,7.79328332 L23.509694,7.3173913 L23.509694,18.5076043 L24.2533537,18.3978821 C24.479927,18.3606952 24.6991536,18.4214774 24.8640013,18.5513446 C25.0363298,18.6833335 25.1209677,18.8547625 25.1209677,19.0715654 L25.1209677,19.8642928 L4.16290323,22.9565217 L4.16290323,22.1637944 C4.16290323,21.9499841 4.24757468,21.750582 4.4198697,21.5677461 C4.58471738,21.3893674 4.80384335,21.263909 5.03038311,21.234375 L5.77404274,21.1246528 L5.77404274,9.93417373 Z M26.4438501,20.6735856 C26.6155645,20.8059413 26.7,20.9780293 26.7,21.1956983 L26.7,22.8059028 L2.58387097,26.4 L2.58387097,24.7897955 C2.58387097,24.5755296 2.66827299,24.37541 2.84012125,24.1918187 C3.00450949,24.0126424 3.22299129,23.8956029 3.44906693,23.8657137 L25.8349044,20.5294869 C26.0608462,20.4916436 26.279328,20.5433943 26.4438501,20.6735856 Z" id="yinhang-(2)" fill="url(#linearGradient-3)"></path>
                        </g>
                        <polygon id="路径-110" fill="#0A365B" points="0 6.3 2.7 6.88064516 2.7 8.55 0 7.96935484"></polygon>
                        <polygon id="路径-100" fill="#165388" points="0 6.4685567 11.9823529 0 14.55 0.581443299 2.56764706 7.05"></polygon>
                        <polygon id="路径-111" fill="#0A365B" points="0 25.8181818 2.7 26.4 2.7 24.6545455 0 24"></polygon>
                    </g>
                </g>
            </g>
        </g>
    </g>
</svg>