<?xml version="1.0" encoding="UTF-8"?>
<svg width="30px" height="30px" viewBox="0 0 30 30" version="1.1" xmlns="http://www.w3.org/2000/svg" xmlns:xlink="http://www.w3.org/1999/xlink">
    <title>微博备份 2</title>
    <defs>
        <rect id="path-1" x="0" y="0" width="30" height="30"></rect>
        <linearGradient x1="50%" y1="0%" x2="81.6110308%" y2="85.3416134%" id="linearGradient-3">
            <stop stop-color="#FFD766" offset="0%"></stop>
            <stop stop-color="#FFAE36" offset="100%"></stop>
        </linearGradient>
        <linearGradient x1="50%" y1="0%" x2="50%" y2="100%" id="linearGradient-4">
            <stop stop-color="#EE400E" offset="0%"></stop>
            <stop stop-color="#D81E06" offset="100%"></stop>
        </linearGradient>
        <linearGradient x1="50%" y1="0%" x2="50%" y2="100%" id="linearGradient-5">
            <stop stop-color="#EE400E" offset="0%"></stop>
            <stop stop-color="#D81E06" offset="100%"></stop>
        </linearGradient>
        <linearGradient x1="50%" y1="0.163573257%" x2="50%" y2="100%" id="linearGradient-6">
            <stop stop-color="#636363" offset="0.0818201014%"></stop>
            <stop stop-color="#000000" offset="100%"></stop>
        </linearGradient>
    </defs>
    <g id="多色设计方案" stroke="none" stroke-width="1" fill="none" fill-rule="evenodd">
        <g id="控件库30*30" transform="translate(-266.000000, -557.000000)">
            <g id="微博备份-2" transform="translate(266.000000, 557.000000)">
                <mask id="mask-2" fill="white">
                    <use xlink:href="#path-1"></use>
                </mask>
                <use id="蒙版" fill="#D8D8D8" opacity="0" xlink:href="#path-1"></use>
                <g id="编组-29" mask="url(#mask-2)">
                    <g transform="translate(0.600000, 1.050000)">
                        <g id="编组-10备份" transform="translate(0.000000, 0.811682)">
                            <path d="M26.4709078,1.65592817 C24.7902821,-0.147282481 22.2693435,-0.431186733 20.0285272,0.577643383 C19.4683096,0.849689019 19.1882144,1.46194197 19.2582382,2.0827878 C19.3982858,2.68947165 19.8884796,2.90782087 20.4486701,2.71515285 C22.0592991,1.99255007 23.8799454,2.17993801 25.0704044,3.44727475 C26.2608363,4.7146476 26.6109825,6.70756929 26.0507649,8.64649128 C25.980714,8.97814732 25.980714,9.21626375 26.1207887,9.50545355 C26.2608363,9.71524602 26.4709078,9.9108765 26.6809792,9.94776269 C27.171173,10.0073676 27.7313636,9.57658316 27.9414621,8.97845607 C28.5716764,6.23162545 28.1515335,3.45913883 26.4709078,1.65592817 Z" id="路径" fill="#CE8519" fill-rule="nonzero"></path>
                            <path d="M22.9949169,9.63342164 C23.4102483,9.70721294 23.8948283,9.36909617 24.033272,8.7839483 C24.3793815,7.44034585 24.1717158,6.13087753 23.3410531,5.26750736 C22.5103369,4.40411745 21.333538,4.24803817 20.2259343,4.71403861 C19.741381,4.89308599 19.4644667,5.50666354 19.6029373,5.95545629 C19.6721859,6.49796236 20.1567391,6.71663618 20.5720705,6.47226896 C21.1258724,6.19950276 21.6796475,6.32443253 22.0950056,6.71634615 C22.5103369,7.10826526 22.5795588,7.80987144 22.441115,8.47458198 C22.3026713,9.05972984 22.5795588,9.55963583 22.9949169,9.63342164 Z" id="路径" fill="#981402" fill-rule="nonzero"></path>
                            <path d="M21.2032822,11.285824 C20.8177793,11.1890577 20.5093458,11.1641303 20.740649,10.5927396 C21.2032822,9.18765619 21.2032822,8.05115143 20.740649,7.35806701 C19.8154422,6.05934072 17.271034,6.66229973 14.4182243,8.6390924 C14.4182243,8.6390924 13.4929869,9.26366457 13.7242886,8.4300115 C14.1869218,6.67521095 14.1098213,5.37948632 13.4158879,4.733301 C11.8738452,3.29725912 7.71026548,5.9767391 4.1635514,10.7168548 C1.54204118,14.3078458 0,17.7675062 0,20.5650745 C0,25.8979149 6.01402316,27.9140493 11.8738452,26.7267548 C19.5841121,25.1645304 24.6728972,19.0628824 24.6728972,15.0413884 C24.6728972,12.5935372 22.822424,11.5697057 21.2032822,11.285824 Z" id="路径" fill="#981402" fill-rule="nonzero"></path>
                        </g>
                        <g id="编组-10" transform="translate(2.102804, 0.000000)">
                            <path d="M24.7984779,1.65592817 C23.1178522,-0.147282481 20.5969136,-0.431186733 18.3560973,0.577643383 C17.7958797,0.849689019 17.5157845,1.46194197 17.5858083,2.0827878 C17.7258559,2.68947165 18.2160497,2.90782087 18.7762402,2.71515285 C20.3868692,1.99255007 22.2075155,2.17993801 23.3979745,3.44727475 C24.5884064,4.7146476 24.9385526,6.70756929 24.378335,8.64649128 C24.3082841,8.97814732 24.3082841,9.21626375 24.4483588,9.50545355 C24.5884064,9.71524602 24.7984779,9.9108765 25.0085493,9.94776269 C25.4987431,10.0073676 26.0589337,9.57658316 26.2690322,8.97845607 C26.8992465,6.23162545 26.4791036,3.45913883 24.7984779,1.65592817 Z" id="路径" fill="url(#linearGradient-3)" fill-rule="nonzero"></path>
                            <path d="M21.0323001,9.46379547 C21.4476315,9.53758677 21.9322114,9.19947 22.0706552,8.61432214 C22.4167647,7.27071968 22.209099,5.96125136 21.3784363,5.09788119 C20.5477201,4.23449128 19.3709212,4.078412 18.2633175,4.54441245 C17.7787642,4.72345982 17.5018499,5.33703738 17.6403204,5.78583012 C17.7095691,6.32833619 18.1941223,6.54701001 18.6094537,6.30264279 C19.1632555,6.02987659 19.7170307,6.15480636 20.1323888,6.54671998 C20.5477201,6.93863909 20.616942,7.64024527 20.4784982,8.30495581 C20.3400544,8.89010368 20.616942,9.39000966 21.0323001,9.46379547 Z" id="路径" fill="url(#linearGradient-4)" fill-rule="nonzero"></path>
                            <path d="M19.2757111,13.6979016 C18.9252539,13.6100951 18.6448598,13.5874758 18.8551354,13.0689916 C19.2757111,11.7940086 19.2757111,10.7627357 18.8551354,10.1338258 C18.0140383,8.95535192 15.70094,9.50248139 13.1074766,11.2962377 C13.1074766,11.2962377 12.2663518,11.8629791 12.476626,11.1065161 C12.8972017,9.51419713 12.8271102,8.338447 12.1962617,7.75209365 C10.7944047,6.44901862 7.00933226,8.8803986 3.78504673,13.1816147 C1.40185562,16.4401065 0,19.579428 0,22.1179622 C0,26.9570211 5.46729378,28.7864764 10.7944047,27.7091165 C17.8037383,26.2915426 22.4299065,20.7548619 22.4299065,17.1057285 C22.4299065,14.8845302 20.7476581,13.9554979 19.2757111,13.6979016 Z" id="路径" fill="url(#linearGradient-5)" fill-rule="nonzero"></path>
                            <path d="M10.7232212,25.9709441 C6.45690993,27.3094161 2.8200615,25.8278045 2.54031224,22.7956938 C2.26053597,19.6843931 5.4777335,16.1030577 9.74407179,14.7645802 C14.0103561,13.4260831 17.6472045,14.9077253 17.9269808,17.9397999 C18.20673,21.0511062 14.9895055,24.6324776 10.7232212,25.9709441 Z" id="路径" fill="#FFFFFF"></path>
                            <path d="M5.96044186,20.5193905 C5.05068986,22.7520879 5.96044186,24.8544275 7.98990943,25.1546042 C10.0893288,25.5195242 12.6086483,23.8293236 13.4484214,21.4530722 C14.2881946,19.1556978 13.2384579,17.1604276 11.1390385,16.9531398 C9.10959796,16.7317432 6.80021502,18.3796482 5.96044186,20.5193905 Z M9.59836774,22.5179694 C9.17991176,23.297397 8.34297286,23.8504281 7.64551928,23.6020916 C7.01783531,23.4172674 6.80858038,22.6077547 7.2270633,21.8283217 C7.64551928,21.0488941 8.48245818,20.5732299 9.11016909,20.7580488 C9.80759573,20.8516867 10.0168507,21.6611695 9.59836774,22.5179694 Z" id="形状" fill="url(#linearGradient-6)" fill-rule="nonzero"></path>
                        </g>
                    </g>
                </g>
            </g>
        </g>
    </g>
</svg>