<?xml version="1.0" encoding="UTF-8"?>
<svg width="30px" height="30px" viewBox="0 0 30 30" version="1.1" xmlns="http://www.w3.org/2000/svg" xmlns:xlink="http://www.w3.org/1999/xlink">
    <title>未成年人备份</title>
    <defs>
        <rect id="path-1" x="0" y="0" width="30" height="30"></rect>
        <polygon id="path-3" points="9.35388789e-14 0 4.93786561 0 4.93786561 9.39267915 9.35388789e-14 9.39267915"></polygon>
        <path d="M0.450065876,6.34458314 C0.932279315,3.89538744 2.86113307,2.60664399 4.14703557,1.86605387 C5.00430391,1.37232711 6.23877031,0.874712749 7.85043478,0.373210773 L12.3768116,5.5981616 L12.7883004,6.18667908e-14 C14.0460372,0.133448911 15.1433407,0.382256093 16.0802108,0.746421546 C17.0170809,1.110587 17.657889,1.73260495 18.002635,2.61247541 C18.667018,4.67290989 19.0742205,6.41261636 19.2242424,7.83159482 C19.4492754,9.96006251 19.6743083,12.9924 18.9670619,13.9545841 C18.2598155,14.9167681 6.61596838,17.5409063 4.55852437,17.5409063 C2.50108037,17.5409063 0.0321475626,16.7944848 0.0321475626,14.9284309 C0.0321475626,13.0623771 -0.0321475626,8.79377884 0.450065876,6.34458314 Z" id="path-5"></path>
        <path d="M4.11488801,9.202786 C6.16021892,9.202786 7.40679842,6.43673319 7.40679842,3.95025248 C7.40679842,-1.30228104 5.74873012,0.198442825 3.70339921,0.198442825 C1.6580683,0.198442825 0,1.46377177 0,3.95025248 C0,6.43673319 2.0695571,9.202786 4.11488801,9.202786 Z" id="path-7"></path>
    </defs>
    <g id="多色设计方案" stroke="none" stroke-width="1" fill="none" fill-rule="evenodd">
        <g id="控件库30*30" transform="translate(-316.000000, -101.000000)">
            <g id="未成年人备份" transform="translate(316.000000, 101.000000)">
                <mask id="mask-2" fill="white">
                    <use xlink:href="#path-1"></use>
                </mask>
                <use id="蒙版" fill="#D8D8D8" opacity="0" xlink:href="#path-1"></use>
                <g id="女人备份" mask="url(#mask-2)">
                    <g transform="translate(5.250000, 0.150000)">
                        <path d="M9.05501541,0 C5.36222051,0 4.13128888,2.63207226 4.13128888,4.51212387 C4.13128888,6.39217549 4.12973826,6.4444784 3.75303385,10.5870407 C3.53826192,12.9400427 14.799363,12.784351 14.3890525,11.65632 C14.3890525,9.14958452 14.3890525,6.51751226 14.3890525,3.76010323 C13.294891,1.25336774 11.5168787,0 9.05501541,0 Z" id="路径-3" fill="#111514"></path>
                        <g id="路径" stroke-width="1" fill="none" transform="translate(7.800000, 9.750000)">
                            <mask id="mask-4" fill="white">
                                <use xlink:href="#path-3"></use>
                            </mask>
                            <use id="蒙版" fill="#EED5BE" xlink:href="#path-3"></use>
                            <path d="M-2.46893281,-1.50282866 C3.29191041,-0.250471444 6.17233202,0.375707166 6.17233202,0.375707166 C6.17233202,0.375707166 3.01758454,3.75707166 -3.29191041,10.5198007 L-2.46893281,-1.50282866 Z" fill="#D4B090" mask="url(#mask-4)"></path>
                            <path d="M-0.938708827,3.83632239 C0.93433252,4.37856667 2.40776247,4.60359961 3.48158103,4.51142121 C4.55539958,4.4192428 5.58947951,3.97896097 6.58382082,3.1905757 L6.90529644,11.4678742 L1.24732543,11.4531981 L-0.938708827,3.83632239 Z" id="路径-92" fill="#FFFFFF" mask="url(#mask-4)"></path>
                        </g>
                        <g id="路径-2" stroke-width="1" fill="none" transform="translate(0.000000, 12.300000)">
                            <mask id="mask-6" fill="white">
                                <use xlink:href="#path-5"></use>
                            </mask>
                            <use id="蒙版" fill="#174DC6" xlink:href="#path-5"></use>
                            <polygon id="路径-91" fill="#E3F1FF" mask="url(#mask-6)" points="-3.24690382 5.13456384 12.4732543 6.66531115 21.9246377 1.73776266 20.3494071 -3.71461348 8.55125165 -1.73193124"></polygon>
                            <path d="M0.0321475626,2.63171431 C3.0497321,2.63171431 4.55852437,4.1245574 4.55852437,7.11024359 C4.55852437,10.0959298 4.55852437,14.5239201 4.55852437,20.3942145 L0.0321475626,20.3942145 L0.0321475626,2.63171431 Z" fill="#F2F9FF" mask="url(#mask-6)"></path>
                            <path d="M8.96916996,0.381957901 L3.51174648,3.72731035 C2.55827948,4.31177721 1.9770751,5.34976079 1.9770751,6.46810816 L1.9770751,17.1618641 L1.9770751,17.1618641" id="路径-93" stroke="#174DC6" stroke-width="0.5" mask="url(#mask-6)"></path>
                            <path d="M9.12990777,1.31498483 L4.78135148,4.0163817 C3.83717253,4.60292167 3.2629776,5.63559055 3.2629776,6.74712237 L3.2629776,17.4534351 L3.2629776,17.4534351" id="路径-93备份" stroke="#174DC6" stroke-width="0.5" mask="url(#mask-6)"></path>
                            <polygon id="路径-94" fill="#174DC6" mask="url(#mask-6)" points="7.84400527 0.381957901 7.37786561 0.498586267 9.12990777 5.4407133 12.3768116 5.6010773"></polygon>
                            <polygon id="路径-95" fill="#174DC6" mask="url(#mask-6)" points="12.7947299 0.00291570916 13.2126482 -0.0116628367 15.0289855 4.44937218 12.3768116 5.6010773"></polygon>
                            <line x1="12.375" y1="6.21552716" x2="13.275" y2="16.555062" id="路径-90" stroke="#E3F1FF" stroke-width="0.5" mask="url(#mask-6)"></line>
                        </g>
                        <g id="路径-5" stroke-width="1" fill="none" transform="translate(6.600000, 3.150000)">
                            <mask id="mask-8" fill="white">
                                <use xlink:href="#path-7"></use>
                            </mask>
                            <use id="蒙版" fill="#EED5BE" xlink:href="#path-7"></use>
                            <path d="M-1.70484152,2.93075342 C-0.883970141,3.89795844 0.0869605399,4.35937591 1.20353024,4.31500583 C2.87708197,4.24845072 3.13878592,2.82168329 4.5417338,2.68117174 C5.94277445,2.5406602 7.876304,3.29842344 7.87029164,2.92324248 C7.86625998,2.67312183 7.72008607,2.1784268 7.43277136,1.43915739 L6.17233202,-0.3868311 L3.2920814,-0.270359648 L-0.00549627968,-0.137249417 L-1.70484152,2.93075342 Z" id="路径-4" fill="#D4B090" opacity="0.4" mask="url(#mask-8)"></path>
                            <path d="M0,4.70061441 C0.274325867,5.95121763 1.2344664,7.07676053 2.88042161,8.0772431 C4.52637681,9.07772568 6.03516908,8.95266536 7.40679842,7.70206214 L2.05744401,10.7035099 L0,4.70061441 Z" fill="#D4B090" opacity="0.4" mask="url(#mask-8)"></path>
                        </g>
                        <path d="M6.78692782,9 C7.21885877,9 7.45173891,8.49632034 7.30708017,7.875 C7.16242143,7.25367966 6.69500313,6.75 6.26307218,6.75 C5.83114123,6.75 5.59826109,7.25367966 5.74291983,7.875 C5.88757857,8.49632034 6.35499687,9 6.78692782,9 Z" id="椭圆形" fill="#EED5BE"></path>
                        <path d="M6.6440581,8.55 C6.84039035,8.55 6.94624496,8.21421356 6.88049099,7.8 C6.81473701,7.38578644 6.60227415,7.05 6.4059419,7.05 C6.20960965,7.05 6.10375504,7.38578644 6.16950901,7.8 C6.23526299,8.21421356 6.44772585,8.55 6.6440581,8.55 Z" id="椭圆形备份" fill="#D4B090" opacity="0.4"></path>
                        <path d="M4.95,5.55 C5.77173913,6.55 6.73043478,7.05 7.82608696,7.05 C9.46956522,7.05 9.72695108,5.63433896 11.1130435,5.55 C12.4991359,5.46566104 14.4,6.3 14.4,5.925 C14.4,5.675 14.2630435,5.175 13.9891304,4.425 L12.7565217,2.55 L9.88043478,2.55 L6.59347826,2.55 L4.95,5.55 Z" id="路径-4" fill="#111514"></path>
                    </g>
                </g>
            </g>
        </g>
    </g>
</svg>