<?xml version="1.0" encoding="UTF-8"?>
<svg width="30px" height="30px" viewBox="0 0 30 30" version="1.1" xmlns="http://www.w3.org/2000/svg" xmlns:xlink="http://www.w3.org/1999/xlink">
    <title>微信备份 2</title>
    <defs>
        <rect id="path-1" x="0" y="0" width="30" height="30"></rect>
        <linearGradient x1="50%" y1="0%" x2="50%" y2="100%" id="linearGradient-3">
            <stop stop-color="#E6EFF9" offset="0%"></stop>
            <stop stop-color="#9EB4CD" offset="100%"></stop>
        </linearGradient>
        <linearGradient x1="50%" y1="0%" x2="50%" y2="89.2755817%" id="linearGradient-4">
            <stop stop-color="#83D944" offset="0%"></stop>
            <stop stop-color="#5AAA1E" offset="100%"></stop>
        </linearGradient>
    </defs>
    <g id="多色设计方案" stroke="none" stroke-width="1" fill="none" fill-rule="evenodd">
        <g id="控件库30*30" transform="translate(-216.000000, -557.000000)">
            <g id="微信备份-2" transform="translate(216.000000, 557.000000)">
                <mask id="mask-2" fill="white">
                    <use xlink:href="#path-1"></use>
                </mask>
                <use id="蒙版" fill="#D8D8D8" opacity="0" xlink:href="#path-1"></use>
                <g id="编组-11" mask="url(#mask-2)" fill-rule="nonzero">
                    <g transform="translate(0.000000, 4.050000)" id="形状结合">
                        <path d="M21.2264151,5.89773181 C20.891354,5.91397635 20.5533538,5.9395534 20.2094752,5.992674 C17.1498894,6.46530317 14.4833401,8.26347755 12.8672473,10.637067 C14.4293149,8.68356067 17.0333565,7.25589031 20.0292805,6.97762205 C24.6313006,6.55017592 28.7264151,9.30915793 28.7264151,13.1575626 C28.7264151,15.3280412 27.1943069,17.3945492 25.1382063,19.0334124 L25.9071082,21.3679245 L23.0991924,20.1835487 C22.0768377,20.5193709 21.0487874,20.8557221 20.0292805,20.9504162 C15.1567208,21.4029907 11.3207547,18.6280574 11.3207547,14.7742401 C11.3207547,14.6529294 11.324561,14.5319741 11.3320861,14.4114581 C11.2631593,14.8406534 11.2274863,15.2747562 11.2274863,15.7111561 C11.2274863,16.4747069 11.3450516,17.1964208 11.55373,17.8655866 C11.2245471,17.9430725 10.8983034,18.0082665 10.5661814,18.059571 C9.42382136,18.2360369 8.47392555,18.1800638 7.37870201,18.1254938 L4.88207547,20.5188679 L3.18396227,20.5188679 L3.18600001,20.508 L3.171324,20.5188679 L4.22941171,17.1887558 C1.58419244,15.7565672 8.52526938e-09,13.6277667 8.52526938e-09,10.736336 C8.52526938e-09,5.72590377 4.75845557,1.0458294 10.5661814,0.151639434 C15.7596286,-0.65061773 20.3123449,1.79797029 21.2264151,5.89773181 Z" fill="#42751C"></path>
                        <path d="M30,13.3966203 C30,15.6102315 28.5146781,17.8004799 26.5213651,19.5828601 L27.2667869,21.922274 L24.5446171,20.8658793 C23.5534822,21.2635422 22.5568257,21.6620521 21.5684517,21.8136415 C16.8446865,22.5381372 13.1258602,19.9150513 13.1258602,15.9846493 C13.1258602,12.0570075 16.8446865,8.28766994 21.5684517,7.56317425 C26.029939,6.87890479 30,9.47173853 30,13.3966203 Z M18.8324778,11.9159595 C18.3382908,11.9917542 17.8385821,12.5624561 17.8385821,13.0509962 C17.8385821,13.5478167 18.3382908,13.9569552 18.8324778,13.8811605 C19.5834212,13.7659864 20.0748474,13.2048351 20.0748474,12.7080146 C20.0748474,12.2167144 19.5834212,11.8007854 18.8324778,11.9159595 Z M24.2906215,11.0788303 C23.7991953,11.1542016 23.3050083,11.7240566 23.3050083,12.2125968 C23.3050083,12.7094173 23.7991953,13.1194026 24.2906215,13.0440313 C25.0360433,12.9297041 25.5329911,12.367706 25.5329911,11.8708855 C25.5329911,11.3795852 25.0360433,10.9645031 24.2906215,11.0788303 Z" fill="url(#linearGradient-3)"></path>
                        <path d="M21.7782741,6.9154879 C21.4635405,6.93063802 21.1460461,6.95449191 20.82303,7.0040337 C16.1075472,7.72725909 12.38596,11.7785516 12.38596,16.0677684 C12.38596,16.7798777 12.4963929,17.4529688 12.6924112,18.0770519 C12.3831992,18.1493176 12.0767481,18.2101193 11.7647752,18.2579674 C10.5279273,18.4476658 9.53127081,18.3493552 8.28890122,18.2970105 L4.81854883,20.5515781 L5.81244451,17.4458201 C3.32770533,16.1101201 1.83962264,14.1247398 1.83962264,11.4281087 C1.83962264,6.75523614 6.30939234,2.39046477 11.7647752,1.55651761 C16.6431465,0.808309607 20.9196587,3.09193291 21.7782741,6.9154879 Z M8.54013596,6.22438212 C7.79471421,6.33870932 7.04377081,6.93966341 7.04377081,7.67937389 C7.04377081,8.41356414 7.79471421,8.79245043 8.54013596,8.67812323 C9.28555771,8.56379604 9.77974473,7.99670109 9.77974473,7.25975072 C9.77974473,6.52004024 9.28279689,6.11047836 8.54013596,6.22438212 Z M15.4863624,5.159022 C14.7437014,5.27292577 13.9982797,5.87303298 13.9955189,6.6131669 C13.9955189,7.34735715 14.7409406,7.72709031 15.4863624,7.61276311 C16.234545,7.49801248 16.728732,6.93091754 16.728732,6.19396717 C16.728732,5.45425669 16.234545,5.04427137 15.4863624,5.159022 Z" fill="url(#linearGradient-4)"></path>
                    </g>
                </g>
            </g>
        </g>
    </g>
</svg>