<?xml version="1.0" encoding="UTF-8"?>
<svg width="30px" height="30px" viewBox="0 0 30 30" version="1.1" xmlns="http://www.w3.org/2000/svg" xmlns:xlink="http://www.w3.org/1999/xlink">
    <title>小汽车备份 2</title>
    <defs>
        <rect id="path-1" x="0" y="0" width="30" height="30"></rect>
        <path d="M0,0 L10.761208,0 C12.09575,-2.45151381e-16 13.3626839,0.587237595 14.2252041,1.60559965 L17.1537499,5.06328132 L17.1537499,5.06328132 L0,5.06328132 L0,0 Z" id="path-3"></path>
        <linearGradient x1="52.1467082%" y1="43.3175071%" x2="83.8705576%" y2="72.8790358%" id="linearGradient-5">
            <stop stop-color="#D3EEFF" offset="0%"></stop>
            <stop stop-color="#A8D9FF" offset="100%"></stop>
        </linearGradient>
        <linearGradient x1="50%" y1="0%" x2="50%" y2="100%" id="linearGradient-6">
            <stop stop-color="#8D98C8" offset="0%"></stop>
            <stop stop-color="#7680B1" offset="100%"></stop>
        </linearGradient>
        <path d="M0,5.93626085 L0,4.39981687 L1.785,4.399 L1.7853083,0 L13.7873809,0 L13.7873809,4.12046342 C13.7873809,5.12330065 12.9744207,5.93626085 11.9715835,5.93626085 L0,5.93626085 Z" id="path-7"></path>
        <linearGradient x1="50%" y1="0%" x2="50%" y2="40.2338098%" id="linearGradient-9">
            <stop stop-color="#7680B1" offset="0%"></stop>
            <stop stop-color="#4D5681" offset="100%"></stop>
        </linearGradient>
        <linearGradient x1="13.9840999%" y1="49.3236735%" x2="82.3035871%" y2="50.6763265%" id="linearGradient-10">
            <stop stop-color="#8D98C8" offset="0%"></stop>
            <stop stop-color="#7680B1" offset="100%"></stop>
        </linearGradient>
        <linearGradient x1="5.88625118%" y1="43.9765107%" x2="100%" y2="51.5522669%" id="linearGradient-11">
            <stop stop-color="#8D98C8" offset="0%"></stop>
            <stop stop-color="#33355B" offset="100%"></stop>
        </linearGradient>
        <path d="M13.1340985,0.0174595907 L17.905274,1.97293375 L17.905274,6.09339717 C17.905274,7.04609254 17.1715774,7.8274239 16.2384001,7.90317529 L16.0894765,7.90919461 L14.5977211,7.90928142 C14.647448,7.58850697 14.6741614,7.248545 14.6741614,6.89653835 C14.6741614,4.94871987 13.8562137,3.36970101 12.847224,3.36970101 C11.8382343,3.36970101 11.0202865,4.94871987 11.0202865,6.89653835 C11.0202865,7.248545 11.047,7.58850697 11.0967269,7.90928142 L6.53756538,7.90928142 C6.5856484,7.58850697 6.61147878,7.248545 6.61147878,6.89653835 C6.61147878,4.94871987 5.82057061,3.36970101 4.84493595,3.36970101 C3.86930129,3.36970101 3.07839312,4.94871987 3.07839312,6.89653835 C3.07839312,7.248545 3.1042235,7.58850697 3.15230652,7.90928142 L3.09713039,7.90919461 C2.626507,7.90919461 2.17671937,7.72660953 1.84030141,7.40394372 L1.71963961,7.27646078 L0.620329335,5.99648753 C0.312089399,5.63759079 0.157609162,5.17454745 0.185146275,4.70681306 L0.204059947,4.53138702 L0.828693281,0.558706904 L2.02148716,0.0174595907 L13.1340985,0.0174595907 Z" id="path-12"></path>
        <linearGradient x1="-10.7000926%" y1="67.1682122%" x2="50%" y2="44.7546727%" id="linearGradient-14">
            <stop stop-color="#8D98C8" offset="0%"></stop>
            <stop stop-color="#33355B" offset="100%"></stop>
        </linearGradient>
        <linearGradient x1="50%" y1="0%" x2="50%" y2="100%" id="linearGradient-15">
            <stop stop-color="#AECDF2" offset="0%"></stop>
            <stop stop-color="#FFFFFF" offset="100%"></stop>
        </linearGradient>
        <linearGradient x1="63.9521176%" y1="-3.55575771%" x2="63.9521176%" y2="96.3131421%" id="linearGradient-16">
            <stop stop-color="#8CC3FE" offset="0%"></stop>
            <stop stop-color="#8CC3FE" stop-opacity="0" offset="100%"></stop>
        </linearGradient>
    </defs>
    <g id="多色设计方案" stroke="none" stroke-width="1" fill="none" fill-rule="evenodd">
        <g id="控件库30*30" transform="translate(-166.000000, -405.000000)">
            <g id="小汽车备份-2" transform="translate(166.000000, 405.000000)">
                <mask id="mask-2" fill="white">
                    <use xlink:href="#path-1"></use>
                </mask>
                <use id="蒙版" fill="#D8D8D8" opacity="0" xlink:href="#path-1"></use>
                <g id="小汽车" mask="url(#mask-2)">
                    <g transform="translate(0.000000, 7.500000)">
                        <ellipse id="椭圆形备份-18" fill="#212240" cx="26.0447761" cy="11.4807692" rx="2.46268657" ry="3.51923077"></ellipse>
                        <g id="椭圆形" stroke-width="1" fill="none" transform="translate(7.761194, 0.000000)">
                            <mask id="mask-4" fill="white">
                                <use xlink:href="#path-3"></use>
                            </mask>
                            <use id="蒙版" fill="#A8D9FF" xlink:href="#path-3"></use>
                            <ellipse fill="url(#linearGradient-5)" mask="url(#mask-4)" cx="5.34544673" cy="-2.13007007" rx="8.19937167" ry="5.13311968"></ellipse>
                        </g>
                        <path d="M13.2835821,6.46153846 C13.2835821,2.89292931 11.3476677,0 8.21530645,0 C5.08294518,0 1.94029851,2.89292931 1.94029851,6.46153846 L13.2835821,6.46153846 Z" id="路径" fill="#8CC3FE"></path>
                        <g id="路径-57" stroke-width="1" fill="none" transform="translate(16.119403, 7.038462)">
                            <mask id="mask-8" fill="white">
                                <use xlink:href="#path-7"></use>
                            </mask>
                            <use id="蒙版" fill="url(#linearGradient-6)" xlink:href="#path-7"></use>
                            <path d="M-0.480082905,4.66171073 L3.66076052,4.66171073 C4.02439468,4.66171073 4.36210332,4.47343241 4.5532863,4.16411239 C4.74446928,3.85479238 5.08217792,3.66651406 5.44581208,3.66651406 L9.58678388,3.66651406 C9.95041804,3.66651406 10.2881267,3.85479238 10.4793097,4.16411239 C10.6704926,4.47343241 11.0082013,4.66171073 11.3718354,4.66171073 L15.5876918,4.66171073 L15.5876918,4.66171073 L15.5876918,8.06633093 L-0.480082905,8.06633093 L-0.480082905,4.66171073 Z" fill="url(#linearGradient-9)" mask="url(#mask-8)"></path>
                        </g>
                        <polygon id="矩形备份" fill="url(#linearGradient-10)" points="13.1343284 5.07692308 24.93201 5.07692308 30 7.03846154 17.9000662 7.03846154"></polygon>
                        <ellipse id="椭圆形备份" fill="#212240" cx="13.358209" cy="11.4807692" rx="2.46268657" ry="3.51923077"></ellipse>
                        <ellipse id="椭圆形备份-17" fill="#212240" cx="5.44776119" cy="11.4807692" rx="2.46268657" ry="3.51923077"></ellipse>
                        <g id="路径-58" stroke-width="1" fill="none" transform="translate(0.000000, 5.076923)">
                            <mask id="mask-13" fill="white">
                                <use xlink:href="#path-12"></use>
                            </mask>
                            <use id="形状结合" fill="url(#linearGradient-11)" xlink:href="#path-12"></use>
                            <path d="M-0.907652234,-0.9428179 C1.26655432,1.18725217 3.25454412,2.25228721 5.05631714,2.25228721 C7.75897668,2.25228721 12.364067,1.62374194 14.2363004,1.62374194 C15.484456,1.62374194 16.7124801,2.21736802 17.9203726,3.4046202 L17.9203726,11.5931683 L-0.907652234,11.5931683 L-0.907652234,-0.9428179 Z" fill="url(#linearGradient-14)" mask="url(#mask-13)"></path>
                        </g>
                        <ellipse id="椭圆形" fill="url(#linearGradient-15)" cx="12.8358209" cy="11.7692308" rx="1.04477612" ry="2.53846154"></ellipse>
                        <path d="M12.8187719,9.23076923 C12.875637,9.23076923 12.9314234,9.24217652 12.9857766,9.26411518 C12.4966079,9.45971835 12.1235447,10.5068656 12.1235447,11.7692308 C12.1235447,13.0315959 12.4966079,14.0787432 12.9852739,14.2747514 C12.9314234,14.296285 12.875637,14.3076923 12.8187719,14.3076923 C12.2511739,14.3076923 11.7910448,13.1711844 11.7910448,11.7692308 C11.7910448,10.3672772 12.2511739,9.23076923 12.8187719,9.23076923 Z" id="形状结合" fill="url(#linearGradient-16)"></path>
                        <ellipse id="椭圆形备份" fill="url(#linearGradient-15)" cx="4.7761194" cy="11.7692308" rx="1.04477612" ry="2.53846154"></ellipse>
                        <path d="M4.75907042,9.23076923 C4.81593552,9.23076923 4.87172195,9.24217652 4.92607507,9.26411518 C4.43690645,9.45971835 4.06384324,10.5068656 4.06384324,11.7692308 C4.06384324,13.0315959 4.43690645,14.0787432 4.92557242,14.2747514 C4.87172195,14.296285 4.81593552,14.3076923 4.75907042,14.3076923 C4.19147239,14.3076923 3.73134328,13.1711844 3.73134328,11.7692308 C3.73134328,10.3672772 4.19147239,9.23076923 4.75907042,9.23076923 Z" id="形状结合" fill="url(#linearGradient-16)"></path>
                        <rect id="矩形" fill="#FFFFFF" x="17.9104478" y="7.03846154" width="2.8358209" height="1"></rect>
                        <rect id="矩形备份-6" fill="#FFFFFF" x="27.1641791" y="7.15384615" width="2.8358209" height="1"></rect>
                    </g>
                </g>
            </g>
        </g>
    </g>
</svg>