<?xml version="1.0" encoding="UTF-8"?>
<svg width="30px" height="30px" viewBox="0 0 30 30" version="1.1" xmlns="http://www.w3.org/2000/svg" xmlns:xlink="http://www.w3.org/1999/xlink">
    <title>嫌疑人备份 3</title>
    <defs>
        <rect id="path-1" x="0" y="0" width="30" height="30"></rect>
        <polygon id="path-3" points="9.32225171e-14 0 4.92116505 0 4.92116505 9.33884456 9.32225171e-14 9.33884456"></polygon>
        <path d="M0.512621359,6.0877593 C1.04660194,3.59740075 2.91553398,1.8171835 6.11941748,0.747107565 L13.1679612,13.8039796 L14.4781849,0.00387097959 C15.224187,0.196027387 15.7614263,0.356221248 16.0899029,0.484452562 C17.0236044,0.848952711 17.6622452,1.47154235 18.0058252,2.35222147 C18.6679612,4.41454965 19.0737864,6.15585504 19.223301,7.57613765 C19.4475728,9.70656157 19.6718447,12.7416861 18.9669903,13.7047544 C18.2621359,14.6678227 6.6576699,17.2943728 4.60718447,17.2943728 C2.55669903,17.2943728 0.0961165049,16.5472652 0.0961165049,14.6794963 C0.0961165049,12.8117274 -0.288349515,9.82329713 0.512621359,6.0877593 Z" id="path-5"></path>
        <path d="M4.10097087,8.57920833 C5.50427184,8.57300534 7.38174757,6.40881668 7.38174757,3.93311999 C7.38174757,-1.29663296 5.72928709,0.197582166 3.69087379,0.197582166 C1.65246048,0.197582166 0,1.4574233 0,3.93311999 C0,6.40881668 2.6976699,8.58538498 4.10097087,8.57920833 Z" id="path-7"></path>
        <linearGradient x1="50%" y1="0%" x2="50%" y2="100%" id="linearGradient-9">
            <stop stop-color="#262828" offset="0%"></stop>
            <stop stop-color="#4E5151" offset="100%"></stop>
        </linearGradient>
    </defs>
    <g id="多色设计方案" stroke="none" stroke-width="1" fill="none" fill-rule="evenodd">
        <g id="控件库30*30" transform="translate(-416.000000, -101.000000)">
            <g id="嫌疑人备份-3" transform="translate(416.000000, 101.000000)">
                <mask id="mask-2" fill="white">
                    <use xlink:href="#path-1"></use>
                </mask>
                <use id="蒙版" fill="#D8D8D8" opacity="0" xlink:href="#path-1"></use>
                <g id="编组-2备份" mask="url(#mask-2)">
                    <g transform="translate(5.250000, 0.000000)">
                        <g id="编组备份" stroke-width="1" fill="none" transform="translate(0.000000, 2.400000)">
                            <g id="路径" transform="translate(7.887961, 7.359824)">
                                <mask id="mask-4" fill="white">
                                    <use xlink:href="#path-3"></use>
                                </mask>
                                <use id="蒙版" fill="#EED5BE" xlink:href="#path-3"></use>
                                <polygon fill="#D4B090" mask="url(#mask-4)" points="-2.46058252 -1.49421513 5.28 0.25717127 1.8838835 7.61151136"></polygon>
                            </g>
                            <path d="M0.515461367,16.3134411 C0.996043891,13.8619944 2.91837399,12.5720665 4.19992739,11.8307957 C5.05429632,11.3366151 6.28458758,10.8385434 7.89080117,10.3365805 C9.60039415,11.5771552 10.7836951,12.1725065 11.4407041,12.1226346 C12.0977131,12.0727626 12.5548004,11.3528933 12.8119662,9.96302675 C14.0654492,10.0965983 15.1590414,10.3456342 16.0927429,10.7101343 C17.0264444,11.0746345 17.6650852,11.6972241 18.0086653,12.5779032 C18.6708012,14.6402314 19.0766264,16.3815368 19.226141,17.8018194 C19.4504128,19.9322433 19.6746847,22.9673678 18.9698303,23.9304362 C18.2649759,24.8935045 6.66050991,27.5200545 4.61002447,27.5200545 C2.55953904,27.5200545 0.0989565124,26.772947 0.0989565124,24.9051781 C0.0989565124,23.0374091 0.0348788425,18.7648878 0.515461367,16.3134411 Z" id="蒙版" fill="#262828"></path>
                            <g id="路径-2" transform="translate(0.000000, 10.237355)">
                                <mask id="mask-6" fill="white">
                                    <use xlink:href="#path-5"></use>
                                </mask>
                                <use id="蒙版" fill="#1A1A1A" xlink:href="#path-5"></use>
                                <polygon id="路径-8" fill="#000000" mask="url(#mask-6)" points="14.5135922 0.0466942228 16.0834951 1.7393598 15.0582524 6.80603602 16.0834951 7.71073659 13.1679612 13.8101694"></polygon>
                                <polygon id="路径-7" fill="#000000" mask="url(#mask-6)" points="6.05533981 0.747107565 5.38252427 3.72386427 9.03495146 8.70298882 8.20194175 9.87034439 13.3281553 14.0436406"></polygon>
                                <path d="M0.0961165049,4.21999039 C3.10349515,4.21999039 4.60718447,5.71420552 4.60718447,8.70263578 C4.60718447,11.691066 4.60718447,15.0530501 4.60718447,18.7885879 L0.0961165049,18.7885879 L0.0961165049,4.21999039 Z" fill="#1A1A1A" mask="url(#mask-6)"></path>
                            </g>
                            <path d="M10.4023637,7.17672095 C12.9787689,6.8768048 14.9279561,4.86367408 14.7559952,2.66467221 C14.5840343,0.458866228 12.3482498,1.43427119 9.77184466,1.3716428 C7.19543949,1.31943654 5.25404584,0.544840127 5.42600674,3.11319065 C5.59796765,5.67473707 7.82595856,7.48705924 10.4023637,7.17672095 Z" id="椭圆形" fill="#111514"></path>
                            <g id="路径-5" transform="translate(6.657670, 1.366321)">
                                <mask id="mask-8" fill="white">
                                    <use xlink:href="#path-7"></use>
                                </mask>
                                <use id="蒙版" fill="#EED5BE" xlink:href="#path-7"></use>
                                <path d="M3.32242718,-0.986930694 C5.40153798,-0.986930694 7.08699029,-0.118036887 7.08699029,0.953797942 C7.08699029,2.02563277 5.40153798,2.89452658 3.32242718,2.89452658 C2.7154818,2.89452658 2.14208417,2.82047903 1.6343716,2.68895153 C1.32543118,3.39574916 0.758306869,3.92524278 0.192550605,3.9707582 C-0.541773633,4.02983502 -0.995719507,3.2511931 -0.821365885,2.23161279 C-0.755956381,1.8491129 -0.611411844,1.48704236 -0.417541807,1.18078693 C-0.433458323,1.10656835 -0.442135922,1.03070557 -0.442135922,0.953797942 C-0.442135922,-0.118036887 1.24331639,-0.986930694 3.32242718,-0.986930694 Z" id="形状结合" fill="#D4B090" opacity="0.4" mask="url(#mask-8)"></path>
                                <path d="M-5.54223334e-14,4.09654977 C0.158058252,5.4509176 1.05728155,6.62617322 2.6976699,7.62231664 C4.33805825,8.61846006 6.71961165,8.44335672 9.8423301,7.09700663 L2.05048544,10.0734103 L-5.54223334e-14,4.09654977 Z" fill="#D4B090" opacity="0.4" mask="url(#mask-8)"></path>
                            </g>
                            <ellipse id="椭圆形" fill="#111514" cx="10.3004854" cy="1.94072864" rx="3.76456311" ry="1.94072864"></ellipse>
                            <path d="M6.754104,5.13279223 C7.48842824,5.07371541 8.22505719,4.19929104 8.39941081,3.17971073 C8.57376444,2.16013043 8.11981856,1.3814885 7.38549432,1.44056532 C6.65117009,1.49964214 5.91454114,2.37406652 5.74018751,3.39364682 C5.56583389,4.41322713 6.01977977,5.19186905 6.754104,5.13279223 Z" id="椭圆形备份-2" fill="#111514"></path>
                            <path d="M7.37739286,7.35570419 C7.69662798,7.27365146 7.7508113,6.86074447 7.49841468,6.43345062 C7.24601806,6.00615676 6.78261897,5.72628354 6.46338384,5.80833627 C6.14414872,5.89038901 6.0899654,6.303296 6.34236202,6.73058985 C6.59475864,7.1578837 7.05815773,7.43775693 7.37739286,7.35570419 Z" id="椭圆形" fill="#EED5BE"></path>
                            <path d="M7.10097356,6.92898067 C7.19767489,6.9039898 7.20238819,6.74145729 7.11150101,6.56595414 C7.02061384,6.390451 6.86854331,6.2684367 6.77184198,6.29342757 C6.67514065,6.31841844 6.67042735,6.48095096 6.76131452,6.6564541 C6.8522017,6.83195725 7.00427223,6.95397155 7.10097356,6.92898067 Z" id="椭圆形备份" fill="#D4B090" opacity="0.4"></path>
                        </g>
                        <path d="M9.1902439,8.11524215 L10.7597561,7.65865461 C10.8648249,7.628089 10.95,7.68106054 10.95,7.77696987 L10.95,8.9057547 C10.95,9.00166403 10.8648249,9.10419223 10.7597561,9.13475785 L9.1902439,9.59134539 C9.0851751,9.621911 9,9.56893946 9,9.47303013 L9,8.3442453 C9,8.24833597 9.0851751,8.14580777 9.1902439,8.11524215 Z" id="矩形" fill="#000000"></path>
                        <path d="M12.0402439,7.36524215 L13.6097561,6.90865461 C13.7148249,6.878089 13.8,6.93106054 13.8,7.02696987 L13.8,8.1557547 C13.8,8.25166403 13.7148249,8.35419223 13.6097561,8.38475785 L12.0402439,8.84134539 C11.9351751,8.871911 11.85,8.81893946 11.85,8.72303013 L11.85,7.5942453 C11.85,7.49833597 11.9351751,7.39580777 12.0402439,7.36524215 Z" id="矩形备份" fill="#000000"></path>
                        <ellipse id="椭圆形" fill="url(#linearGradient-9)" cx="10.125" cy="5.55" rx="5.775" ry="2.85"></ellipse>
                        <path d="M11.6212928,0.0134432498 C12.3452471,0.110036754 13.2714829,1.71348893 14.4,4.82379978 L14.3682616,4.82324878 C14.3892118,4.90888721 14.4,4.99611018 14.4,5.08460225 C14.4,6.25290417 12.5195959,7.2 10.2,7.2 C7.88040405,7.2 6,6.25290417 6,5.08460225 C6,4.99611018 6.01078822,4.90888721 6.03173836,4.82324878 L6,4.82379978 C6.80912548,2.33168736 7.5756654,0.998696998 8.29961977,0.824828689 C9.38555133,0.564026227 9.48136882,1.1146092 10.0562738,1.02767505 C10.6311787,0.940740895 10.5353612,-0.131447007 11.6212928,0.0134432498 Z" id="形状结合" fill="#262828"></path>
                        <path d="M14.3110814,4.64972044 C14.3693613,4.79012187 14.4,4.93563692 14.4,5.08475597 C14.4,6.25297299 12.5195959,7.2 10.2,7.2 C7.88040405,7.2 6,6.25297299 6,5.08475597 C6,4.93563692 6.0306387,4.79012187 6.08891863,4.64972044 C6.48685833,5.60988343 8.17628172,6.33072163 10.2,6.33072163 C12.1996517,6.33072163 13.8729122,5.62692629 14.296458,4.68434866 Z" id="形状结合" fill="#000000"></path>
                    </g>
                </g>
            </g>
        </g>
    </g>
</svg>