<?xml version="1.0" encoding="UTF-8"?>
<svg width="30px" height="30px" viewBox="0 0 30 30" version="1.1" xmlns="http://www.w3.org/2000/svg" xmlns:xlink="http://www.w3.org/1999/xlink">
    <title>嫌疑人备份 2</title>
    <defs>
        <rect id="path-1" x="0" y="0" width="30" height="30"></rect>
        <polygon id="path-3" points="10.4826792 0.0138029525 0.0139582945 3.841838 0.0139582945 12.6895143 8.99145133 9.47217749 8.99145133 2.81407762"></polygon>
    </defs>
    <g id="多色设计方案" stroke="none" stroke-width="1" fill="none" fill-rule="evenodd">
        <g id="控件库30*30" transform="translate(-466.000000, -101.000000)">
            <g id="嫌疑人备份-2" transform="translate(466.000000, 101.000000)">
                <mask id="mask-2" fill="white">
                    <use xlink:href="#path-1"></use>
                </mask>
                <use id="蒙版" fill="#D8D8D8" opacity="0" xlink:href="#path-1"></use>
                <g id="编组-6备份" mask="url(#mask-2)">
                    <g transform="translate(5.850000, 0.000000)">
                        <g id="编组-5" transform="translate(7.500000, 0.000000)">
                            <path d="M1.82661758,1.05365854 C1.98374597,0.8 2.86759319,0.497560976 4.47815923,0.146341463 C6.89400828,-0.380487805 13.6112471,0.263414634 14.377248,11.7365854 C15.143249,23.2097561 9.8107041,28.9170732 7.2180856,29.4439024 C5.48967326,29.795122 4.4290566,29.9414634 4.03623562,29.8829268 L4.77277497,19.1414634 L7.2180856,19.1414634 C8.19362803,17.5557707 8.78285951,15.9655268 8.98578003,14.3707317 C9.18870055,12.7759366 9.04139268,10.8930098 8.54385642,8.72195122 L4.77277497,9.39512195 L1.82661758,1.05365854 Z" id="路径-18" fill="#12CA59"></path>
                            <path d="M4.5677596,9.9804878 C6.84140025,9.9804878 8.49274517,7.85766233 8.25614171,5.23902439 C8.01953824,2.62038645 5.98458331,0.497560976 3.71094266,0.497560976 C1.437302,0.497560976 -0.214042919,2.62038645 0.0225605458,5.23902439 C0.259164011,7.85766233 2.29411894,9.9804878 4.5677596,9.9804878 Z" id="椭圆形" fill="#00AC48"></path>
                            <path d="M4.02919012,29.8829268 C6.30572654,29.8829268 8.31925826,27.4783683 8.5265391,24.5121951 C8.73381995,21.5460219 7.05635687,19.1414634 4.77982046,19.1414634 C2.50328405,19.1414634 0.489752324,21.5460219 0.28247148,24.5121951 C0.0751906366,27.4783683 1.75265371,29.8829268 4.02919012,29.8829268 Z" id="椭圆形备份-9" fill="#00AC48"></path>
                            <path d="M2.86594145,23.6487805 C3.17380046,23.6487805 3.44609301,23.321184 3.47412387,22.9170732 C3.50215473,22.5129624 3.27530919,22.1853659 2.96745018,22.1853659 C2.65959116,22.1853659 2.38729861,22.5129624 2.35926775,22.9170732 C2.33123689,23.321184 2.55808243,23.6487805 2.86594145,23.6487805 Z" id="椭圆形备份-10" fill="#008236"></path>
                            <path d="M6.10671457,24.7609756 C6.41457359,24.7609756 6.68686614,24.4333791 6.714897,24.0292683 C6.74292786,23.6251575 6.51608232,23.297561 6.2082233,23.297561 C5.90036428,23.297561 5.62807174,23.6251575 5.60004088,24.0292683 C5.57201002,24.4333791 5.79885556,24.7609756 6.10671457,24.7609756 Z" id="椭圆形备份-11" fill="#008236"></path>
                            <path d="M2.07047895,4.62439024 C2.37833797,4.62439024 2.65063052,4.29679372 2.67866138,3.89268293 C2.70669224,3.48857213 2.4798467,3.16097561 2.17198768,3.16097561 C1.86412867,3.16097561 1.59183612,3.48857213 1.56380526,3.89268293 C1.5357744,4.29679372 1.76261994,4.62439024 2.07047895,4.62439024 Z" id="椭圆形备份-13" fill="#008236"></path>
                            <path d="M4.25063542,7.40487805 C4.55849444,7.40487805 4.83078698,7.07728152 4.85881784,6.67317073 C4.88684871,6.26905994 4.66000316,5.94146341 4.35214415,5.94146341 C4.04428513,5.94146341 3.77199259,6.26905994 3.74396172,6.67317073 C3.71593086,7.07728152 3.9427764,7.40487805 4.25063542,7.40487805 Z" id="椭圆形备份-15" fill="#008236"></path>
                            <path d="M5.37017523,3.89268293 C5.67803424,3.89268293 5.95032679,3.5650864 5.97835765,3.16097561 C6.00638851,2.75686482 5.77954297,2.42926829 5.47168395,2.42926829 C5.16382494,2.42926829 4.89153239,2.75686482 4.86350153,3.16097561 C4.83547067,3.5650864 5.06231621,3.89268293 5.37017523,3.89268293 Z" id="椭圆形备份-14" fill="#008236"></path>
                            <path d="M3.80871181,27.6 C4.11657083,27.6 4.38886337,27.2724035 4.41689424,26.8682927 C4.4449251,26.4641819 4.21807956,26.1365854 3.91022054,26.1365854 C3.60236152,26.1365854 3.33006898,26.4641819 3.30203812,26.8682927 C3.27400725,27.2724035 3.50085279,27.6 3.80871181,27.6 Z" id="椭圆形备份-12" fill="#008236"></path>
                        </g>
                        <g id="编组-7" transform="translate(0.000000, 3.750000)">
                            <polygon id="路径-19" fill="#EFECEC" points="14.1 0.6 1.2 5.35646298 1.2 16.35 12.262446 12.3523502 12.262446 4.07943596"></polygon>
                            <g id="椭圆形-+-椭圆形备份-16-蒙版" transform="translate(2.100000, 2.100000)">
                                <mask id="mask-4" fill="white">
                                    <use xlink:href="#path-3"></use>
                                </mask>
                                <use id="蒙版" fill="#FFFFFF" xlink:href="#path-3"></use>
                                <path d="M4.56203593,7.57183141 C5.60916874,7.2203408 6.45803761,6.06982214 6.45803761,5.00207606 C6.45803761,3.93432997 5.60916874,3.35369018 4.56203593,3.70518079 C3.51490312,4.05667139 2.66603426,5.20719005 2.66603426,6.27493614 C2.66603426,7.34268222 3.51490312,7.92332202 4.56203593,7.57183141 Z" id="椭圆形" fill="#00AC48" mask="url(#mask-4)"></path>
                                <path d="M4.31991721,12.9064125 C6.40771979,12.4164561 8.21547456,10.8818942 8.37674651,9.4788727 C8.53801846,8.07585116 7.08039524,7.33566566 5.10195792,7.82562211 C3.10242774,8.31557857 1.24661308,9.85014043 0.975975872,11.253162 C0.705338663,12.6561835 2.21102177,13.396369 4.31991721,12.9064125 Z" id="椭圆形备份-16" fill="#00AC48" mask="url(#mask-4)"></path>
                            </g>
                            <polygon id="路径-20" fill="#D8D8D8" points="0 4.65 1.2 5.37085308 1.2 16.35 0 15.7770142"></polygon>
                            <polygon id="路径-21" fill="#D8D8D8" points="0 4.67128028 1.23976378 5.4 14.1 0.621300499 13.2488189 0"></polygon>
                        </g>
                    </g>
                </g>
            </g>
        </g>
    </g>
</svg>