<?xml version="1.0" encoding="UTF-8"?>
<svg width="30px" height="30px" viewBox="0 0 30 30" version="1.1" xmlns="http://www.w3.org/2000/svg" xmlns:xlink="http://www.w3.org/1999/xlink">
    <title>银行卡备份</title>
    <defs>
        <rect id="path-1" x="0" y="0" width="30" height="30"></rect>
        <polygon id="path-3" points="0 10.4645918 28.4361702 -6.69475557e-15 28.4361702 18.5524295 2.26855626e-16 29.0170213"></polygon>
        <path d="M4.12484885,12.2158173 L9.48655097,10.2492938 C9.61893635,10.2007385 9.76561773,10.2686962 9.81417301,10.4010816 C9.82450168,10.4292426 9.82978723,10.4590033 9.82978723,10.4889987 L9.82978723,14.2061799 C9.82978723,14.3132844 9.76293965,14.4090043 9.6623852,14.4458848 L4.30068307,16.4124083 C4.1682977,16.4609636 4.02161632,16.3930059 3.97306104,16.2606205 C3.96273237,16.2324595 3.95744681,16.2026988 3.95744681,16.1727034 L3.95744681,12.4555222 C3.95744681,12.3484177 4.02429439,12.2526979 4.12484885,12.2158173 Z" id="path-5"></path>
        <path d="M4.84749841,21.9802558 L4.84749841,20.1676038 L4.61791988,20.2512666 C4.55530755,20.337552 4.47704215,20.4244641 4.38312366,20.5145419 C4.28920517,20.5995421 4.20050438,20.6674086 4.11702128,20.7181413 L4.11702128,21.0126338 C4.28920517,20.9016508 4.4300829,20.7766891 4.54226332,20.636798 L4.54226332,22.0914894 L4.84749841,21.9802558 Z M6.84065743,21.2539103 L6.84065743,20.9924213 L5.92234332,21.3270726 C5.96408487,21.220467 6.07887414,21.072009 6.26931996,20.8807479 C6.45193924,20.6948777 6.58238159,20.5508703 6.6554293,20.4480885 C6.77543626,20.2748805 6.83804858,20.1098946 6.83804858,19.9524934 C6.83804858,19.7900148 6.78065395,19.6814554 6.66586469,19.6217376 C6.54846658,19.5629706 6.39976231,19.5663868 6.21975187,19.631986 C6.01887066,19.705191 5.85712215,19.8301422 5.73450635,20.0068396 C5.61449939,20.1749702 5.55449591,20.3593152 5.55188707,20.5633642 L5.85712215,20.4521307 C5.86233985,20.3080604 5.89364601,20.1874866 5.95104064,20.0954865 C6.00843527,19.9984089 6.09452722,19.9289544 6.20931648,19.887123 C6.3162792,19.8481437 6.39715346,19.8415201 6.45193924,19.869791 C6.50411618,19.8990125 6.5328135,19.9621778 6.5328135,20.0611882 C6.5328135,20.1627373 6.49107195,20.2744205 6.41019769,20.3927481 C6.35802075,20.4650757 6.27453765,20.5640442 6.1545307,20.6890163 C5.93799641,20.9126331 5.79450983,21.0766264 5.72667981,21.1775068 C5.60145516,21.3602324 5.54145168,21.5420387 5.54145168,21.7273659 L6.84065743,21.2539103 Z M8.09029509,20.8340605 C8.29378515,20.7599048 8.4581425,20.6441578 8.58336715,20.4893582 C8.70337411,20.3389988 8.76337759,20.1800411 8.76337759,20.012485 C8.76337759,19.9058584 8.73207142,19.8284115 8.6694591,19.7826829 C8.61206447,19.7375917 8.52597252,19.7207294 8.41640095,19.727656 C8.62249986,19.5865426 8.72685373,19.4165002 8.72685373,19.2184794 C8.72685373,19.0610782 8.6694591,18.960135 8.55727868,18.9121602 C8.44248942,18.8651361 8.28856745,18.8780698 8.10073048,18.9465212 C7.91811119,19.0130712 7.76679808,19.1164485 7.64939997,19.2607797 C7.52417531,19.4079631 7.4563453,19.5748505 7.44069221,19.7633432 L7.74070961,19.6540111 C7.75114499,19.5410429 7.78766885,19.4464936 7.85028118,19.3703632 C7.91028465,19.2951835 7.99376775,19.2393733 8.10333932,19.1994434 C8.21030205,19.1604641 8.2911763,19.1538405 8.34596208,19.1795726 C8.39553018,19.2072062 8.42161864,19.263706 8.42161864,19.3525615 C8.42161864,19.4414169 8.39292133,19.5204205 8.33813554,19.5860826 C8.28074091,19.6526954 8.19725781,19.7059668 8.08768624,19.7458968 L7.9572439,19.7934325 L7.9572439,20.0168406 L8.08768624,19.9693049 C8.2076932,19.925572 8.29900284,19.9151456 8.36161517,19.943103 C8.42422749,19.9685217 8.4581425,20.0323243 8.4581425,20.1364122 C8.4581425,20.2227289 8.42683634,20.3052219 8.36683286,20.3854791 C8.29900284,20.4736658 8.20508435,20.540895 8.08768624,20.5836771 C7.98072352,20.6226564 7.89463157,20.6235652 7.8294104,20.5889423 C7.75636269,20.5520941 7.71983883,20.4740099 7.71462114,20.3591298 L7.40416836,20.4722648 C7.41982144,20.6696588 7.49286915,20.8004399 7.6233115,20.8595308 C7.74070961,20.9132204 7.89724042,20.9044134 8.09029509,20.8340605 Z M10.4304307,19.9457279 L10.4304307,19.5573024 L10.7069685,19.4565268 L10.7069685,19.220425 L10.4304307,19.3212007 L10.4304307,18.1330758 L10.1512841,18.2348022 L9.24079657,19.7090292 L9.24079657,19.990828 L10.1408487,19.6628317 L10.1408487,20.0512571 L10.4304307,19.9457279 Z M10.1408487,19.42673 L9.48863702,19.6644085 L10.1330222,18.617189 L10.1408487,18.6143369 L10.1408487,19.42673 Z M13.0392776,19.0305561 C13.2245058,18.9630554 13.3836454,18.8517485 13.5193055,18.6956848 C13.6654009,18.5231246 13.7384486,18.3441809 13.7384486,18.156315 C13.7384486,17.9608329 13.681054,17.8268862 13.5714824,17.7551121 C13.4619108,17.6833381 13.3184243,17.6797753 13.1436315,17.7434732 C13.0601484,17.773896 12.9844919,17.8141604 12.9166618,17.8642662 C12.8410053,17.9172242 12.7757841,17.9816117 12.7183895,18.0583794 L12.7105629,18.0612316 L12.7627399,17.5446265 L13.6523567,17.2204331 L13.6523567,16.9589441 L12.5175083,17.3725046 L12.4157632,18.4301513 L12.7001275,18.3265235 C12.7366514,18.2497453 12.7862195,18.1859846 12.8514407,18.131752 C12.9088353,18.0829103 12.9792742,18.0445473 13.0601484,18.0150752 C13.1801554,17.9713424 13.2740739,17.9701201 13.3366862,18.0183874 C13.3992985,18.0641159 13.4332135,18.1482283 13.4332135,18.2700873 C13.4332135,18.3817913 13.3940808,18.4849075 13.3210331,18.5775345 C13.2453765,18.6711121 13.1514581,18.7383413 13.0418865,18.7782713 C12.9401415,18.8153491 12.8592672,18.8219727 12.8018726,18.8022687 C12.7340426,18.7787515 12.6949098,18.7193891 12.6818656,18.6251322 L12.3818482,18.7344643 C12.3948925,18.8972668 12.4679402,19.0051994 12.6036002,19.0547727 C12.7236072,19.0998954 12.8697026,19.0923525 13.0392776,19.0305561 Z M14.975042,18.3251263 C15.1602702,18.2576256 15.316801,18.1396533 15.4420256,17.9772375 C15.5672503,17.8148217 15.6324714,17.6412689 15.6324714,17.4584805 C15.6324714,17.2807695 15.5776857,17.1534882 15.4681141,17.0791754 C15.3585425,17.0048627 15.2124471,17.0022506 15.0298278,17.0688006 C14.9359093,17.1030263 14.8524262,17.1486815 14.7793785,17.2108437 C14.7011131,17.2749073 14.6358919,17.3519885 14.583715,17.4471646 L14.5706708,17.4519182 L14.5706708,17.4290696 C14.5706708,17.2615135 14.6045858,17.1095242 14.6776335,16.9712002 C14.7506812,16.8252599 14.8498174,16.7307421 14.975042,16.6851078 C15.1524436,16.6204592 15.2620152,16.6643073 15.298539,16.8185534 L15.5959476,16.710172 C15.5489883,16.3972501 15.3428894,16.3073392 14.9776509,16.4404392 C14.7611166,16.5193484 14.5889327,16.6734898 14.463708,16.9019125 C14.3358745,17.1312859 14.2732622,17.3927435 14.2732622,17.6897747 C14.2732622,17.9664961 14.3306568,18.1613723 14.4506638,18.2750406 C14.5706708,18.3912477 14.7454635,18.4087891 14.975042,18.3251263 Z M14.9646066,18.0826725 C14.8576439,18.1216518 14.771552,18.1200219 14.703722,18.0787335 C14.6358919,18.0374451 14.6019769,17.9584102 14.6019769,17.8441674 C14.6019769,17.7273859 14.6332831,17.6220444 14.6985043,17.5322696 C14.7611166,17.4409068 14.8498174,17.3755791 14.9646066,17.3337476 C15.0767871,17.2928669 15.1654879,17.2935461 15.2333179,17.3373732 C15.2959302,17.380563 15.3298452,17.4570592 15.3298452,17.5687633 C15.3298452,17.6804673 15.2959302,17.7842208 15.2281002,17.8800238 C15.1602702,17.9758268 15.0741782,18.0427425 14.9646066,18.0826725 Z M16.7464491,17.6440493 L17.3986608,15.8323592 L17.3986608,15.5937188 L16.1385877,16.0529136 L16.1385877,16.3220188 L17.0908169,15.9750082 L16.4229521,17.7619378 L16.7464491,17.6440493 Z M18.6117746,16.999831 C18.8335266,16.9190203 19.0057105,16.8054986 19.1283263,16.6618046 C19.2483332,16.5165227 19.3109456,16.3642304 19.3109456,16.2017518 C19.3109456,16.0900477 19.2744217,16.0043473 19.2039828,15.9436998 C19.1413705,15.8878164 19.065714,15.8646125 18.979622,15.8731375 L18.979622,15.8680601 C19.0709316,15.7992429 19.1387617,15.721211 19.1857209,15.6380912 C19.2274625,15.5594116 19.2483332,15.4731053 19.2483332,15.3817111 C19.2483332,15.2446198 19.1935475,15.150342 19.0891936,15.0969763 C18.9691866,15.0366213 18.810047,15.0438403 18.6117746,15.1160946 C18.4108934,15.1892995 18.2517537,15.2980677 18.1343556,15.4449376 C18.0273929,15.5753111 17.975216,15.7085682 17.975216,15.8456595 C17.975216,15.9370537 17.9960867,16.0081486 18.0378283,16.0564054 C18.0821787,16.1062502 18.1500087,16.1348449 18.2439272,16.1361614 L18.2439272,16.1412389 C18.1552264,16.1964117 18.0821787,16.2738063 18.0195664,16.375324 C17.9465186,16.4882607 17.9126036,16.5996304 17.9126036,16.7113345 C17.9126036,16.8738131 17.9726071,16.9814218 18.0952229,17.0382874 C18.2152299,17.0935649 18.3874138,17.0815924 18.6117746,16.999831 Z M18.6117746,15.9107165 C18.4813323,15.9582522 18.3900226,15.9610625 18.332628,15.9235874 C18.2856687,15.8924644 18.2621891,15.8350139 18.2621891,15.7512359 C18.2621891,15.6776128 18.2908864,15.6062254 18.3482811,15.5345352 C18.4135022,15.4523766 18.502203,15.3921263 18.6117746,15.3521963 C18.7213462,15.3122663 18.8074381,15.3088188 18.8752681,15.3424909 C18.9326628,15.3723498 18.9613601,15.4228214 18.9613601,15.4964445 C18.9613601,15.5802226 18.9378805,15.6547859 18.8909212,15.7201346 C18.8335266,15.7994411 18.7396081,15.8641315 18.6117746,15.9107165 Z M18.6117746,16.7611905 C18.4839411,16.8077755 18.3874138,16.8150259 18.3195837,16.7838925 C18.2491449,16.7537097 18.2152299,16.6924459 18.2152299,16.6010516 C18.2152299,16.50458 18.246536,16.4144708 18.3143661,16.3313615 C18.3821961,16.2457135 18.4813323,16.1791216 18.6117746,16.1315859 C18.7422169,16.0840502 18.8413531,16.0783878 18.911792,16.1161867 C18.9744043,16.1492216 19.0083193,16.2155629 19.0083193,16.3120346 C19.0083193,16.4034288 18.9744043,16.4868725 18.9091831,16.5664924 C18.8361354,16.6489644 18.7369992,16.7155562 18.6117746,16.7611905 Z M21.6745608,15.8836928 C21.8884863,15.8057342 22.0606702,15.6515929 22.1885037,15.4222194 C22.3137283,15.1937967 22.3789495,14.9288497 22.3789495,14.6343572 C22.3789495,14.3550971 22.318946,14.1611716 22.1989391,14.0475033 C22.0789321,13.9312962 21.9041394,13.9162935 21.6771697,13.9990056 C21.4893327,14.067457 21.3328019,14.1828906 21.2075773,14.3478451 C21.0823526,14.5102609 21.0197403,14.682863 21.0197403,14.8656514 C21.0197403,15.0433624 21.0719172,15.1690557 21.1814888,15.2408297 C21.2910604,15.3176812 21.4397646,15.3218813 21.6223839,15.2553313 C21.7163024,15.2211056 21.7997855,15.1729117 21.8728332,15.1132882 C21.9484898,15.0501753 22.0137109,14.9705554 22.0684967,14.8769673 L22.081541,14.8722137 L22.081541,14.8950623 C22.081541,15.0626184 22.0450171,15.2155584 21.9745782,15.3529317 C21.8989217,15.497284 21.7997855,15.5943406 21.6771697,15.6390241 C21.4971593,15.7046234 21.3901965,15.6598246 21.3536727,15.5055786 L21.0562641,15.6139599 C21.1006145,15.9278325 21.3067134,16.0177434 21.6745608,15.8836928 Z M21.6876051,14.9903843 C21.5728158,15.0322157 21.484115,15.0289978 21.4215027,14.985808 C21.3536727,14.9445196 21.3223665,14.8670727 21.3223665,14.7553686 C21.3223665,14.6436646 21.3536727,14.5408618 21.4215027,14.4450588 C21.4893327,14.3492559 21.5780335,14.2813894 21.6876051,14.2414594 C21.791959,14.2034308 21.8806597,14.20411 21.9484898,14.2453984 C22.0163198,14.2866868 22.0502348,14.363183 22.0502348,14.4799645 C22.0502348,14.596746 22.0163198,14.7004995 21.9537075,14.7918623 C21.8884863,14.8816371 21.7997855,14.9495036 21.6876051,14.9903843 Z M23.5659748,15.1944251 C23.7799003,15.1164666 23.9520842,14.9623252 24.0799177,14.7329518 C24.2051423,14.5045291 24.2703635,14.239582 24.2703635,13.9450895 C24.2703635,13.6658294 24.21036,13.4719039 24.0903531,13.3582356 C23.9703461,13.2420286 23.7955534,13.2270258 23.5685837,13.309738 C23.3807467,13.3781894 23.2242159,13.493623 23.0989912,13.6585775 C22.9737666,13.8209932 22.9111543,13.9935954 22.9111543,14.1763838 C22.9111543,14.3540948 22.9633312,14.479788 23.0729028,14.5515621 C23.1824743,14.6284136 23.3311786,14.6326136 23.5137979,14.5660637 C23.6077164,14.531838 23.6911995,14.483644 23.7642472,14.4240206 C23.8399038,14.3609076 23.9051249,14.2812878 23.9599107,14.1876997 L23.972955,14.1829461 L23.972955,14.2057946 C23.972955,14.3733507 23.9364311,14.5262908 23.8659922,14.6636641 C23.7903357,14.8080163 23.6911995,14.9050729 23.5685837,14.9497565 C23.3885733,15.0153557 23.2816105,14.970557 23.2450867,14.8163109 L22.9476781,14.9246923 C22.9920285,15.2385648 23.1981274,15.3284758 23.5659748,15.1944251 Z M23.5790191,14.3011166 C23.4642298,14.342948 23.375529,14.3397301 23.3129167,14.2965403 C23.2450867,14.2552519 23.2137805,14.177805 23.2137805,14.066101 C23.2137805,13.9543969 23.2450867,13.8515941 23.3129167,13.7557912 C23.3807467,13.6599882 23.4694475,13.5921217 23.5790191,13.5521918 C23.6833729,13.5141632 23.7720737,13.5148424 23.8399038,13.5561308 C23.9077338,13.5974191 23.9416488,13.6739153 23.9416488,13.7906969 C23.9416488,13.9074784 23.9077338,14.0112319 23.8451215,14.1025947 C23.7799003,14.1923694 23.6911995,14.2602359 23.5790191,14.3011166 Z M25.4808685,14.496601 C25.6974027,14.4176918 25.8669778,14.2670399 25.9895936,14.0471841 C26.1043829,13.8377966 26.1617775,13.590934 26.1617775,13.3065965 C26.1617775,13.0222589 26.1043829,12.8172278 25.9895936,12.6915031 C25.8669778,12.5584757 25.6974027,12.5339553 25.4808685,12.6128646 C25.2617253,12.6927246 25.0921503,12.8408378 24.9721433,13.0622816 C24.857354,13.2716691 24.7999594,13.5185316 24.7999594,13.8028692 C24.7999594,14.0872067 24.857354,14.2922379 24.9721433,14.4179625 C25.0921503,14.5494019 25.2617253,14.576461 25.4808685,14.496601 Z M25.4808685,14.2452669 C25.3321642,14.2994576 25.2278103,14.2562469 25.1678068,14.1181734 C25.1260653,14.0216808 25.1051945,13.8795015 25.1051945,13.6916356 C25.1051945,13.501231 25.1260653,13.3438403 25.1678068,13.2194636 C25.2278103,13.0351185 25.3321642,12.9183894 25.4808685,12.8641987 C25.6269639,12.8109587 25.7313178,12.8516307 25.7939301,12.9912922 C25.8356716,13.0852461 25.8565424,13.2274254 25.8565424,13.41783 C25.8565424,13.6056959 25.8356716,13.7630866 25.7939301,13.8900021 C25.7313178,14.0727591 25.6269639,14.1920269 25.4808685,14.2452669 Z M27.3722825,13.8073334 C27.5888167,13.7284241 27.7583918,13.5777722 27.8810076,13.3579164 C27.9957969,13.1485289 28.0531915,12.9016664 28.0531915,12.6173288 C28.0531915,12.3329912 27.9957969,12.1279601 27.8810076,12.0022355 C27.7583918,11.8692081 27.5888167,11.8446877 27.3722825,11.923597 C27.1531393,12.0034569 26.9835643,12.1515701 26.8635573,12.3730139 C26.748768,12.5824014 26.6913734,12.829264 26.6913734,13.1136015 C26.6913734,13.3979391 26.748768,13.6029702 26.8635573,13.7286949 C26.9835643,13.8601343 27.1531393,13.8871934 27.3722825,13.8073334 Z M27.3722825,13.5559993 C27.2235782,13.61019 27.1192243,13.5669792 27.0592208,13.4289058 C27.0174793,13.3324131 26.9966085,13.1902339 26.9966085,13.002368 C26.9966085,12.8119634 27.0174793,12.6545727 27.0592208,12.5301959 C27.1192243,12.3458509 27.2235782,12.2291218 27.3722825,12.1749311 C27.5183779,12.1216911 27.6227318,12.1623631 27.6853441,12.3020246 C27.7270856,12.3959785 27.7479564,12.5381577 27.7479564,12.7285624 C27.7479564,12.9164283 27.7270856,13.0738189 27.6853441,13.2007344 C27.6227318,13.3834914 27.5183779,13.5027593 27.3722825,13.5559993 Z" id="path-7"></path>
        <filter x="-6.3%" y="-14.7%" width="112.5%" height="129.4%" filterUnits="objectBoundingBox" id="filter-8">
            <feOffset dx="0" dy="0" in="SourceAlpha" result="shadowOffsetOuter1"></feOffset>
            <feGaussianBlur stdDeviation="0.5" in="shadowOffsetOuter1" result="shadowBlurOuter1"></feGaussianBlur>
            <feColorMatrix values="0 0 0 0 0   0 0 0 0 0   0 0 0 0 0  0 0 0 0.5 0" type="matrix" in="shadowBlurOuter1"></feColorMatrix>
        </filter>
    </defs>
    <g id="多色设计方案" stroke="none" stroke-width="1" fill="none" fill-rule="evenodd">
        <g id="控件库30*30" transform="translate(-166.000000, -329.000000)">
            <g id="银行卡备份" transform="translate(166.000000, 329.000000)">
                <mask id="mask-2" fill="white">
                    <use xlink:href="#path-1"></use>
                </mask>
                <use id="蒙版" fill="#D8D8D8" opacity="0" xlink:href="#path-1"></use>
                <g id="银行卡" mask="url(#mask-2)">
                    <g id="编组">
                        <g id="椭圆形" transform="translate(1.372340, 0.893617)">
                            <mask id="mask-4" fill="white">
                                <use xlink:href="#path-3"></use>
                            </mask>
                            <use id="蒙版" fill="#135D97" xlink:href="#path-3"></use>
                            <ellipse fill="#246BA8" mask="url(#mask-4)" cx="-1.78723404" cy="10.7617021" rx="19.3723404" ry="20.2978723"></ellipse>
                        </g>
                        <polygon id="路径-43" fill="#0B406A" points="0 10.4680851 1.37234043 11.3617021 1.37234043 29.9106383 0 29.0170213"></polygon>
                        <polygon id="路径-44" fill="#0B406A" points="0 10.4680851 28.4361702 0 29.8085106 0.893617021 1.37234043 11.3617021"></polygon>
                    </g>
                    <mask id="mask-6" fill="white">
                        <use xlink:href="#path-5"></use>
                    </mask>
                    <use id="蒙版" fill="#E9CE89" xlink:href="#path-5"></use>
                    <g id="123456789900" fill-rule="nonzero">
                        <use fill="black" fill-opacity="1" filter="url(#filter-8)" xlink:href="#path-7"></use>
                        <use fill="#FFFFFF" xlink:href="#path-7"></use>
                    </g>
                    <polygon id="路径" fill="#FFFFFF" points="27.7340426 3.16595745 27.7340426 4.45080593 18.8297872 7.72978723 18.8297872 6.44493849"></polygon>
                    <polygon id="路径备份" fill="#FFFFFF" points="23.2978723 8.25387649 18.8297872 9.9 18.8297872 8.60995317 23.2978723 6.96382979"></polygon>
                    <polygon id="路径备份-2" fill="#FFFFFF" points="8.58510638 25.3602595 4.11702128 27.006383 4.11702128 25.7163361 8.58510638 24.0702128"></polygon>
                    <polygon id="路径备份-3" fill="#FFFFFF" points="14.2021277 23.3496212 9.73404255 24.9957447 9.73404255 23.7056978 14.2021277 22.0595745"></polygon>
                </g>
            </g>
        </g>
    </g>
</svg>