<?xml version="1.0" encoding="UTF-8"?>
<svg width="30px" height="30px" viewBox="0 0 30 30" version="1.1" xmlns="http://www.w3.org/2000/svg" xmlns:xlink="http://www.w3.org/1999/xlink">
    <title>邮箱备份 2</title>
    <defs>
        <rect id="path-1" x="0" y="0" width="30" height="30"></rect>
        <linearGradient x1="50%" y1="0%" x2="50%" y2="100%" id="linearGradient-3">
            <stop stop-color="#6C1313" offset="0%"></stop>
            <stop stop-color="#6C1313" offset="100%"></stop>
        </linearGradient>
        <linearGradient x1="50%" y1="0%" x2="50%" y2="100%" id="linearGradient-4">
            <stop stop-color="#EE400E" offset="0%"></stop>
            <stop stop-color="#D81E06" offset="100%"></stop>
        </linearGradient>
    </defs>
    <g id="多色设计方案" stroke="none" stroke-width="1" fill="none" fill-rule="evenodd">
        <g id="控件库30*30" transform="translate(-316.000000, -557.000000)">
            <g id="邮箱备份-2" transform="translate(316.000000, 557.000000)">
                <mask id="mask-2" fill="white">
                    <use xlink:href="#path-1"></use>
                </mask>
                <use id="蒙版" fill="#D8D8D8" opacity="0" xlink:href="#path-1"></use>
                <g id="邮箱" mask="url(#mask-2)">
                    <g transform="translate(0.750000, 1.050000)">
                        <path d="M24.6074791,3.17232983 C19.630406,-1.35026522 13.511849,0.28985645 13.511849,0.28985645 C6.95127373,1.30096102 3.09271195,6.85083662 3.09271195,6.85083662 C0.448751484,10.5450738 0.241486702,13.5370887 0.241486702,13.5370887 C-0.806047611,18.691908 1.8936376,22.4656187 1.8936376,22.4656187 C3.90993047,25.4530912 5.96659724,26.6255659 9.26901579,27.4875985 C12.5716201,28.3548542 17.5071742,27.2385836 20.5218423,25.1791746 C23.5364732,23.1187209 25.3509057,21.1289499 26.9563452,17.7026004 C28.560636,14.2743606 28.1722283,10.6817625 28.1722283,10.6817625 C27.8179502,5.88939743 24.6074791,3.17232983 24.6074791,3.17232983 Z" id="Fill-1" fill="url(#linearGradient-3)" fill-rule="evenodd"></path>
                        <path d="M25.4751196,4.1939896 C21.0760536,0.0673684471 15.4342242,1.78788585 15.4342242,1.78788585 C9.4090943,2.9273861 5.70451366,8.273086 5.70451366,8.273086 C3.16959262,11.8335504 2.88310505,14.6625436 2.88310505,14.6625436 C1.75888831,19.5560185 4.10215905,23.0404066 4.10215905,23.0404066 C5.84676956,25.8022542 7.68720522,26.8504082 10.6755669,27.5704256 C13.6639286,28.2953659 18.2082142,27.1025747 21.0286349,25.0741826 C23.8490557,23.0448059 25.5709448,21.1160516 27.1486022,17.8377131 C28.7252717,14.5576234 28.4871906,11.1787858 28.4871906,11.1787858 C28.3192496,6.66693584 25.4751196,4.1939896 25.4751196,4.1939896 Z" id="Fill-1备份-2" fill="url(#linearGradient-4)" fill-rule="nonzero"></path>
                        <path d="M15.9377716,15.7206829 C15.842385,15.8309372 15.7366302,15.9151313 15.6205072,15.9772746 C15.5043843,16.0394179 15.3758197,16.0714919 15.2348133,16.0714919 C15.1580892,16.0714919 15.0917333,16.0614688 15.0357454,16.0434272 C14.977684,16.023381 14.9299906,15.9893024 14.8905918,15.9411914 C14.851193,15.8950851 14.8200886,15.8309372 14.7993524,15.7507523 C14.7786161,15.6705674 14.768248,15.5683316 14.768248,15.444045 C14.768248,15.1052637 14.8138677,14.7664825 14.9071808,14.423692 C15.0004938,14.0829061 15.1290585,13.7621665 15.2949484,13.4594685 C15.4608382,13.1567704 15.6557588,12.8841417 15.8838574,12.6415824 C16.1098824,12.399023 16.3545699,12.2065792 16.6179201,12.0662556 L15.9377716,15.7206829 Z M21.864826,12.7883761 C21.7748652,13.1913821 21.6562805,13.5677938 21.5111165,13.9176112 C21.3639078,14.2694743 21.1982981,14.5906516 21.0101982,14.883189 C20.8220984,15.1736806 20.6299093,15.4253036 20.429542,15.6319209 C20.2312193,15.8385382 20.0349412,16.0001497 19.8447967,16.1147098 C19.6526077,16.2313156 19.4808643,16.2906414 19.327522,16.2906414 C19.2907198,16.2906414 19.2457394,16.2845042 19.1946253,16.2742756 C19.1435112,16.2640471 19.0964863,16.2456356 19.0515058,16.2169956 C19.0065254,16.1863099 18.9676787,16.1453955 18.9370103,16.0901612 C18.9042972,16.0328812 18.8899853,15.9612811 18.8899853,15.8692239 C18.8899853,15.7567096 18.9083864,15.5889609 18.9472331,15.3680236 C18.9840352,15.1470863 19.0474167,14.8729604 19.135333,14.5436002 C19.2232492,14.2142399 19.3377448,13.8275997 19.4788197,13.3857251 C19.6198947,12.9438505 19.7936826,12.4406044 20.0001836,11.8800783 C20.0942335,11.6264096 20.1596596,11.4116094 20.1964617,11.2397693 C20.2332639,11.0658835 20.2537095,10.9206377 20.2537095,10.7978947 C20.2537095,10.6935632 20.2209965,10.5830946 20.1555705,10.4726259 C20.0901444,10.3601116 19.998139,10.2496429 19.8815989,10.14122 C19.7650587,10.0348428 19.6280729,9.93051128 19.4685969,9.83231692 C19.3091209,9.73412257 19.1332884,9.64820251 18.9431439,9.57455675 C18.7509549,9.50091098 18.5505876,9.44363094 18.3399975,9.3986252 C18.1294074,9.35361945 17.9147282,9.33111658 17.6918707,9.33111658 C17.6428012,9.33111658 17.5773751,9.33520801 17.4955926,9.34543659 C17.41381,9.35566517 17.3279383,9.36998518 17.2400221,9.39044234 C17.1521058,9.41089949 17.0703232,9.43544808 16.9946744,9.46613382 C16.9190255,9.49681955 16.8617777,9.53364243 16.8208864,9.57251103 L16.6798115,10.9145005 C16.6348311,10.8654033 16.5530485,10.8285805 16.4385529,10.8060776 C16.3220128,10.7835747 16.1870715,10.7713004 16.0337292,10.7713004 C15.7413566,10.7713004 15.4510285,10.8203976 15.1607004,10.9165462 C14.8724168,11.0126949 14.590267,11.1456664 14.3162954,11.3154608 C14.0423238,11.4852552 13.7806196,11.6857353 13.5291382,11.9189469 C13.2776568,12.1542042 13.042532,12.4058273 12.8258082,12.6799532 C12.6090844,12.9540791 12.4107617,13.2445707 12.2328846,13.5473366 C12.0550075,13.8501025 11.9016652,14.1590056 11.7769468,14.4699544 C11.6501838,14.7829489 11.5540893,15.091852 11.4845741,15.400755 C11.4150589,15.7096581 11.3803013,16.0042412 11.3803013,16.2906414 C11.3803013,16.6997845 11.4355046,17.070059 11.5438665,17.3994193 C11.6522284,17.7267338 11.8014816,18.0049511 11.9875369,18.2320255 C12.1756368,18.4591 12.3964497,18.6329858 12.6540648,18.7557288 C12.9116799,18.8784717 13.1856514,18.9398432 13.4780241,18.9398432 C13.6579458,18.9398432 13.8521793,18.9071117 14.0607249,18.8396031 C14.2692704,18.7720945 14.4798605,18.6575344 14.6904506,18.4918314 C14.9030853,18.3281742 15.1095863,18.1092826 15.3099535,17.8372024 C15.5103208,17.5651222 15.692287,17.2234877 15.8538076,16.8102531 C15.8415402,16.9023103 15.8313174,17.0025504 15.81905,17.1130191 C15.8067826,17.221442 15.8026935,17.3237278 15.8026935,17.4137393 C15.8026935,17.7205966 15.8415402,17.9742654 15.9171891,18.1767912 C15.9948825,18.3793171 16.1011999,18.5409286 16.2402302,18.6636716 C16.3792606,18.7864145 16.5448703,18.8723346 16.7391038,18.9234774 C16.9312929,18.9746203 17.1439275,18.9991689 17.3729187,18.9991689 C17.8165891,18.9991689 18.2602595,18.9316603 18.7039299,18.7945974 C19.1476004,18.6595801 19.5830925,18.4713743 20.0063173,18.2299798 C20.429542,17.9885854 20.8384549,17.7021852 21.2310112,17.3687335 C21.6235675,17.0352819 21.991589,16.6731902 22.3350758,16.2804128 C22.6785626,15.8876354 22.9913809,15.4764465 23.2714861,15.0407091 C23.553636,14.6049716 23.7948945,14.1610513 23.9973064,13.7109939 C24.1997182,13.2609364 24.3571497,12.8088333 24.4675561,12.3587758 C24.5779626,11.9087183 24.6331658,11.4750266 24.6331658,11.0577006 C24.6331658,10.1759972 24.4818681,9.38839662 24.1792726,8.69285329 C23.8766771,7.99730995 23.4370958,7.41018955 22.8584842,6.92740065 C22.2798726,6.44665746 21.5704088,6.07638292 20.730093,5.82271417 C19.885688,5.56904543 18.928832,5.44221106 17.8513467,5.44221106 C17.1050808,5.44221106 16.3690377,5.5260854 15.6452621,5.6958798 C14.9214864,5.8656742 14.2222454,6.10502294 13.5495839,6.41801744 C12.8769223,6.72896622 12.2328846,7.10537791 11.6195153,7.54316107 C11.0061461,7.97889851 10.4357127,8.46577884 9.9082152,9.00380207 C9.38071766,9.5418253 8.90433423,10.1187171 8.4790649,10.738569 C8.05379556,11.3563751 7.68986315,12.0028213 7.38726767,12.6779074 C7.08467218,13.3509479 6.85159187,14.0444455 6.69007131,14.7584003 C6.52650618,15.4723551 6.44472362,16.1904013 6.44472362,16.9145846 C6.44472362,17.6019451 6.51219423,18.2463456 6.64918003,18.8518774 C6.78616582,19.4574092 6.9865331,20.0138439 7.25232644,20.5211814 C7.51607521,21.0285189 7.84320546,21.4847135 8.2337172,21.8877195 C8.62422895,22.2886798 9.07198848,22.6303143 9.57904038,22.9105773 C10.0860923,23.1887947 10.6483474,23.4035948 11.2698949,23.5508863 C11.8914424,23.7002236 12.564104,23.7738693 13.2878797,23.7738693 C13.7908424,23.7738693 14.2856269,23.718635 14.7701886,23.6102121 C15.2567949,23.4997434 15.7168218,23.3544976 16.1482248,23.1744746 C16.5816724,22.992406 16.9803624,22.783743 17.3463394,22.5505314 C17.7123164,22.3152741 18.0292238,22.0718339 18.2950171,21.8181651 C18.5608105,21.5644964 18.769356,21.3128734 18.9165646,21.0612503 C19.0637732,20.8096273 19.1394221,20.5764157 19.1394221,20.3616156 C19.1394221,20.1815926 19.0780852,20.0302096 18.9574559,19.905421 C18.834782,19.782678 18.6589495,19.7008494 18.4258692,19.6619808 C18.0701151,19.9504267 17.7204946,20.1979583 17.381097,20.4004842 C17.0416993,20.60301 16.7063908,20.7666673 16.3731269,20.8935017 C16.0419075,21.0182903 15.7086435,21.1103475 15.3774242,21.1655818 C15.0462048,21.2208162 14.7108963,21.2494562 14.3735432,21.2494562 C13.5659404,21.2494562 12.8462538,21.1328504 12.2144835,20.9016845 C11.5827132,20.6684729 11.049082,20.3288841 10.6135898,19.8829181 C10.1780977,19.4349064 9.84687828,18.8846088 9.6178871,18.2279341 C9.38889592,17.5733051 9.27440033,16.8204817 9.27440033,15.9715097 C9.27440033,15.5112237 9.327559,15.0386634 9.43183176,14.5538287 C9.53610453,14.0689941 9.68944684,13.5882509 9.88776956,13.1095535 C10.0860923,12.630856 10.3293954,12.1644328 10.6135898,11.7041468 C10.8977842,11.2459065 11.2228699,10.8122147 11.5847578,10.407163 C11.9466456,10.0021113 12.343291,9.62774536 12.7746941,9.28406512 C13.2060971,8.94038488 13.666124,8.64580182 14.1568194,8.39827023 C14.6454702,8.15073863 15.1627449,7.95639564 15.7045544,7.81728697 C16.2463639,7.6781783 16.808619,7.60862397 17.3892752,7.60862397 C18.1212292,7.60862397 18.7734451,7.70477261 19.3459231,7.89502417 C19.918401,8.08527573 20.4009181,8.3553102 20.7914299,8.70103615 C21.1839862,9.0467621 21.4824926,9.46204238 21.6889935,9.94483129 C21.8954945,10.4276202 21.9977227,10.9595063 21.9977227,11.5404895 C21.9997673,11.9680441 21.9547869,12.3853701 21.864826,12.7883761 L21.864826,12.7883761 Z" id="形状" fill="#FFFFFF" fill-rule="nonzero"></path>
                    </g>
                </g>
            </g>
        </g>
    </g>
</svg>