<?xml version="1.0" encoding="UTF-8"?>
<svg width="30px" height="30px" viewBox="0 0 30 30" version="1.1" xmlns="http://www.w3.org/2000/svg" xmlns:xlink="http://www.w3.org/1999/xlink">
    <title>支付宝备份</title>
    <defs>
        <rect id="path-1" x="0" y="0" width="30" height="30"></rect>
        <linearGradient x1="83.6436228%" y1="13.4930815%" x2="0%" y2="59.2836598%" id="linearGradient-3">
            <stop stop-color="#02A9F1" offset="0%"></stop>
            <stop stop-color="#006FB5" offset="100%"></stop>
        </linearGradient>
        <linearGradient x1="50%" y1="0%" x2="50%" y2="100%" id="linearGradient-4">
            <stop stop-color="#05D4F9" offset="0%"></stop>
            <stop stop-color="#02A9F1" offset="100%"></stop>
        </linearGradient>
    </defs>
    <g id="多色设计方案" stroke="none" stroke-width="1" fill="none" fill-rule="evenodd">
        <g id="控件库30*30" transform="translate(-366.000000, -557.000000)">
            <g id="支付宝备份" transform="translate(366.000000, 557.000000)">
                <mask id="mask-2" fill="white">
                    <use xlink:href="#path-1"></use>
                </mask>
                <use id="蒙版" fill="#D8D8D8" opacity="0" xlink:href="#path-1"></use>
                <g id="编组-28" mask="url(#mask-2)" fill-rule="nonzero">
                    <g transform="translate(1.500000, 1.800000)">
                        <path d="M25.9990727,17.4946936 C25.6117297,19.5151833 23.5910851,21.4110625 21.2142895,21.9846671 C12.0463335,24.7282224 6.76424927,26.1 5.36803694,26.1 C3.27371844,26.1 -0.0483040123,26.1 0.023913867,22.8623454 L0,6.62630769 C0.0439940849,3.84582315 2.22255308,1.40051353 4.86480917,1.17877432 L20.4198168,0.00950596321 C23.0581647,-0.109332113 26.0798939,0.884032335 26.1,3.10392828 L26.0408806,13.8764518 L25.9990727,17.4946936 Z" id="形状备份-2" fill="url(#linearGradient-3)"></path>
                        <path d="M26.8851017,20.0693208 C26.5107631,21.9915424 24.6543328,23.6094874 22.4895204,23.900235 L7.37880936,26.078045 C4.92903445,26.4554368 2.93655513,24.8734154 2.92777603,22.5392768 L2.88772891,8.14503263 C2.8790336,5.8108259 4.86974222,3.7509594 7.33432046,3.54986408 L22.5413824,2.46473224 C25.00919,2.30992458 27.0055914,3.93794811 26.9999882,6.09498651 L26.9620011,16.5608262 L26.8851017,20.0693208 Z" id="形状备份-2" fill="#FFFFFF"></path>
                        <path d="M19.2317977,14.6552131 C19.2317977,14.6552131 19.8288064,13.7329229 20.4660553,11.9945268 C21.1033971,10.2623687 21.1946803,9.34128002 21.1946803,9.34128002 L16.1660879,9.84576041 L16.1660879,8.1960494 L22.2559363,7.52810565 L22.2559363,6.38163123 L16.1648807,6.98865859 L16.1648807,4.3339252 L13.1822203,4.62194017 L13.1822203,7.29887035 L7.50019018,7.91296779 L7.50019018,9.10742409 L13.1822203,8.43575775 L13.1822203,10.2198882 L8.62456132,10.7468472 L8.62456132,11.6903014 L18.0055881,10.6029666 C18.0055881,10.6029666 17.9022947,11.3607715 17.5426718,12.3311842 C17.1831417,13.3034908 16.8127777,14.163433 16.8127777,14.163433 C16.8127777,14.163433 12.4080312,13.2144615 10.0869495,13.5006822 C7.7658679,13.7920163 4.94296087,15.0768552 4.66926608,17.7956179 C4.39687135,20.5168767 5.98422066,21.7322748 8.22055041,21.9304288 C10.4571587,22.1295469 12.5219727,21.2950697 14.319716,20.1871903 C16.1177378,19.0920938 17.881927,16.9433233 17.881927,16.9433233 L26.9355229,19.9078996 C26.5661804,21.9575415 24.7047649,23.6861341 22.5280834,24.0009506 L7.32180259,26.3398762 C4.85433972,26.7424897 2.85230039,25.0807332 2.85000195,22.6231848 L2.85000195,7.4667874 C2.84771921,5.00883767 4.84632265,2.81524827 7.31372361,2.57241402 L22.5281763,1.21615842 C24.9956391,1.01479213 26.9978023,2.71895638 27,5.01717107 L27,16.1688938 L19.2317977,14.6552131 Z M9.43325342,20.3566394 C6.09915395,20.8406095 5.39917367,19.2738269 5.39917367,18.0729699 C5.39917367,16.8735763 6.09227652,15.4767186 8.92906315,14.9186362 C11.7642698,14.371558 15.595837,16.0727643 15.595837,16.0727643 L15.594381,16.072951 C15.594412,16.072947 12.7659278,19.88342 9.43325342,20.3566394 Z" id="形状" fill="url(#linearGradient-4)"></path>
                    </g>
                </g>
            </g>
        </g>
    </g>
</svg>