<?xml version="1.0" encoding="UTF-8"?>
<svg width="30px" height="30px" viewBox="0 0 30 30" version="1.1" xmlns="http://www.w3.org/2000/svg" xmlns:xlink="http://www.w3.org/1999/xlink">
    <title>中国工商银行备份 2</title>
    <defs>
        <rect id="path-1" x="0" y="0" width="30" height="30"></rect>
        <linearGradient x1="50%" y1="9.77351458%" x2="50%" y2="86.5627233%" id="linearGradient-3">
            <stop stop-color="#FF2B7F" offset="0%"></stop>
            <stop stop-color="#DE035A" offset="100%"></stop>
        </linearGradient>
    </defs>
    <g id="多色设计方案" stroke="none" stroke-width="1" fill="none" fill-rule="evenodd">
        <g id="控件库30*30" transform="translate(-266.000000, -253.000000)">
            <g id="中国工商银行备份-2" transform="translate(266.000000, 253.000000)">
                <mask id="mask-2" fill="white">
                    <use xlink:href="#path-1"></use>
                </mask>
                <use id="蒙版" fill="#D8D8D8" opacity="0" xlink:href="#path-1"></use>
                <g id="中国工商银行" mask="url(#mask-2)">
                    <g transform="translate(1.350000, 1.500000)">
                        <path d="M13.2,0.205629021 C20.4898385,-1.07639252 26.4,3.76947656 26.4,11.0274708 C26.4,18.2877117 20.4898385,25.2123523 13.2,26.4943738 C5.91016152,27.7763954 0,22.9305263 0,15.6702854 C0,8.41229118 5.91016152,1.48765056 13.2,0.205629021 Z" id="路径" fill="#770532"></path>
                        <path d="M15.075,4.20942025 C20.7494765,3.21549344 25.35,6.97240317 25.35,12.5993874 C25.35,18.2281135 20.7494765,23.5966551 15.075,24.590582 C9.40052346,25.5845088 4.8,21.827599 4.8,16.1988729 C4.8,10.5718887 9.40052346,5.20334707 15.075,4.20942025 Z" id="路径" fill="#FFFFFF"></path>
                        <path d="M27.3,11.9438062 C27.3,18.918532 21.6920626,25.5708553 14.775,26.8024602 C7.85793736,28.0340652 2.25,23.378764 2.25,16.4040382 C2.25,9.43147074 7.85793736,2.77914745 14.775,1.54754249 C21.6920626,0.315937522 27.3,4.97123872 27.3,11.9438062 Z M24.6476471,12.4081008 C24.6476471,6.88647228 20.2272729,3.19990428 14.775,4.17522151 C9.32272709,5.15053873 4.90235294,10.4185635 4.90235294,15.9401921 C4.90235294,21.4635299 9.32272709,25.1500979 14.775,24.1747807 C20.2272729,23.1994634 24.6476471,17.9314386 24.6476471,12.4081008 Z M14.0105564,7.47742935 L14.0105564,9.16741903 L9.820243,9.91351764 L9.820243,12.4481608 L14.0105564,11.7020622 L14.0105564,16.7736716 L9.820243,17.5177203 L9.820243,20.0525 L14.0105564,19.3064014 L14.0105564,20.9962383 L8.14411765,22.0407763 L8.14411765,16.1263066 L12.334431,15.380208 L12.334431,13.6888077 L8.14411765,14.4349063 L8.14411765,8.52196739 L14.0105564,7.47742935 Z M21.5532353,6.13443142 L21.5532353,12.0473703 L17.3519502,12.7954225 L17.3684593,14.4838832 L21.5532353,13.7387706 L21.5532353,19.6532403 L15.6866817,20.6977988 L15.6866817,19.007962 L19.8769951,18.2618634 L19.8769951,15.7291336 L15.6866817,16.4752322 L15.6866817,11.4036228 L19.8769951,10.6575242 L19.8769951,8.12288099 L15.6866817,8.86897959 L15.6866817,7.17898991 L21.5532353,6.13443142 Z" id="形状结合" fill="url(#linearGradient-3)"></path>
                    </g>
                </g>
            </g>
        </g>
    </g>
</svg>