<?xml version="1.0" encoding="UTF-8"?>
<svg width="30px" height="30px" viewBox="0 0 30 30" version="1.1" xmlns="http://www.w3.org/2000/svg" xmlns:xlink="http://www.w3.org/1999/xlink">
    <title>中国建设银行备份 2</title>
    <defs>
        <rect id="path-1" x="0" y="0" width="30" height="30"></rect>
        <linearGradient x1="58.2895446%" y1="13.2003513%" x2="50%" y2="100%" id="linearGradient-3">
            <stop stop-color="#6BADFF" offset="0%"></stop>
            <stop stop-color="#2E6DBC" offset="100%"></stop>
        </linearGradient>
    </defs>
    <g id="多色设计方案" stroke="none" stroke-width="1" fill="none" fill-rule="evenodd">
        <g id="控件库30*30" transform="translate(-366.000000, -253.000000)">
            <g id="中国建设银行备份-2" transform="translate(366.000000, 253.000000)">
                <mask id="mask-2" fill="white">
                    <use xlink:href="#path-1"></use>
                </mask>
                <use id="蒙版" fill="#D8D8D8" opacity="0" xlink:href="#path-1"></use>
                <g id="中国建设银行" mask="url(#mask-2)">
                    <g transform="translate(2.400000, 1.500000)">
                        <path d="M16.0098463,-6.14619466e-13 L16.13714,0.00149430025 C16.1585069,0.00184570745 16.1799487,0.00225560534 16.2014641,0.00272532153 L16.331431,0.00627205933 C16.3750415,0.00770065911 16.4189371,0.00937915303 16.4631082,0.011318162 L16.5964383,0.017927355 L16.731364,0.0261633639 L16.8678277,0.0360899141 L17.0057721,0.047770731 L17.1451397,0.0612695401 L25.2,6.983 L19.3167546,13.9796341 L19.6592502,14.3908036 L24.86,14.39 L23.7628383,18.516495 C22.3837511,20.8916807 21.0627796,22.5231614 18.7223275,24.2235916 C15.8603922,26.301891 11.2492179,27.5240301 8.21686961,26.7812531 L8.12624754,26.7590188 L7.94707446,26.713911 C7.91744026,26.7063192 7.88791934,26.6986895 7.85851064,26.6910205 L7.6833964,26.6445234 L7.51092401,26.5970151 C7.45386782,26.5810028 7.39724341,26.5648107 7.34104221,26.5484273 L7.17369977,26.4986918 C4.76539701,25.7688781 3.14178175,24.6556431 1.59984472,22.2241446 L1.50407165,22.0723183 L1.45417525,21.9892211 L1.40610682,21.9059693 L1.34997447,21.8051613 L1.30854465,21.7283725 L1.26423841,21.6440361 L1.21733879,21.5522541 L1.16812881,21.4531287 L1.11689148,21.3467618 L1.06390982,21.2332555 L1.00946687,21.1127119 C0.394415066,19.7277303 -0.441024064,17.0455698 0.276534892,13.7057619 L0.309797365,13.5549135 L0.318223593,13.4869117 L0.336049747,13.3673788 L0.349575125,13.2865708 L0.366605388,13.1921994 L0.387463051,13.0846126 L0.412470626,12.9641587 L0.441950627,12.8311857 L0.464247908,12.7357541 L0.488771833,12.6350163 L0.515617961,12.5290755 L0.544881852,12.418035 L0.560450321,12.3606345 L0.560450321,12.3606345 L0.593520031,12.2421377 L0.629246403,12.118799 C0.641608588,12.0768906 0.654429477,12.0341924 0.667724996,11.9907216 L0.709051371,11.8580086 L0.753321086,11.7207632 C0.760949959,11.697517 0.768705453,11.6740862 0.776589558,11.6504731 L0.825453458,11.5066224 C0.875892551,11.3606174 0.931105004,11.2082005 0.991520834,11.0498361 L1.05368705,10.8895063 C1.06434247,10.86246 1.07514641,10.8352528 1.08610086,10.8078868 L1.15364963,10.6418029 C1.56997013,9.63407476 2.18651275,8.42616046 3.0961614,7.11832976 L3.2006637,6.96925889 L3.24410178,6.90896287 L3.30723234,6.82331776 L3.38982788,6.71390906 L3.4555931,6.62855088 L3.52984089,6.53380553 L3.61250384,6.43014278 L3.70351454,6.31803241 L3.80280557,6.19794418 C3.83727515,6.15663733 3.87311355,6.11407913 3.91030953,6.07034788 L4.02595901,5.93571326 L4.14968659,5.79451011 C5.64003516,4.11065041 8.76590008,1.1816262 13.045571,0.364350348 L13.1460845,0.336031703 L13.2478299,0.309743469 L13.334068,0.288775264 L13.4617669,0.259588094 L13.5792873,0.23447815 L13.7446359,0.201726856 L13.8533395,0.181731038 L14.0089527,0.155113478 L14.0912051,0.141966737 L14.2199795,0.1226284 L14.3550565,0.10393937 L14.4485138,0.0919469519 L14.5936648,0.0748180416 L14.7446017,0.0589119676 L14.9011309,0.0444438035 L15.0084948,0.0357034086 L15.1182006,0.0277613984 L15.2301908,0.0206814985 L15.3444081,0.0145274341 L15.4607951,0.00936293094 L15.5792942,0.00525171432 L15.6998482,0.00225750976 C15.7201086,0.00185510031 15.7404522,0.00150188825 15.7608779,0.00119920121 L15.8844064,-6.14619466e-13 L16.0098463,-6.14619466e-13 Z" id="形状结合" fill="#00367A"></path>
                        <polygon id="矩形" fill="#FFFFFF" transform="translate(13.473602, 15.418655) rotate(-315.000000) translate(-13.473602, -15.418655) " points="8.40253579 10.3475887 18.5409931 10.3512633 18.5446678 20.4897206 8.40621047 20.4860459"></polygon>
                        <path d="M22.2632618,10.4363537 L19.6191171,13.4969797 C19.6191171,13.4969797 19.1898728,14.1884058 18.8329223,13.6721673 L13.9747809,9.73410083 C13.9747809,9.73410083 13.5464403,9.23319355 13.224733,9.79619038 L8.33134832,15.7063901 C8.33134832,15.7063901 8.01054471,16.2674032 8.40183475,16.4145496 L13.1885861,20.4044331 C13.1885861,20.4044331 13.5825872,20.9816338 13.938634,20.4116666 L18.9043124,14.4896248 C18.9043124,14.4896248 19.0470926,14.0329905 19.8341911,14.0008503 L24.9055991,13.1061437 C24.9055991,13.1061437 25.1206731,18.2619557 21.1906029,22.1979822 C21.1906029,22.1979822 16.083048,28.2563358 9.08229988,26.317154 C9.08229988,26.317154 2.33006161,25.1295204 2.40054804,16.2820451 C2.40054804,16.2820451 2.58128247,10.3367212 7.90300773,6.26280962 C7.90300773,6.26280962 11.7960273,2.65530692 14.9046595,4.26957332 L22.2632618,10.4363537 Z M18.4556385,2.04082166 C18.4556385,2.04082166 19.6322221,2.26317466 20.9884989,3.23937624 L25.2,6.92471459 L22.9506755,9.56538462 L16.5259692,4.16410787 C16.5259692,4.16410787 15.4550343,3.03221998 12.9230769,3.4403719 C12.9230769,3.4403719 14.956589,1.51552123 18.4556385,2.04082166 Z" id="建设银行icon" fill="url(#linearGradient-3)"></path>
                    </g>
                </g>
            </g>
        </g>
    </g>
</svg>