<?xml version="1.0" encoding="UTF-8"?>
<svg width="30px" height="30px" viewBox="0 0 30 30" version="1.1" xmlns="http://www.w3.org/2000/svg" xmlns:xlink="http://www.w3.org/1999/xlink">
    <title>北京银行备份 3</title>
    <defs>
        <rect id="path-1" x="0" y="0" width="30" height="30"></rect>
        <linearGradient x1="56.7121589%" y1="-7.66418783%" x2="39.8868643%" y2="100%" id="linearGradient-3">
            <stop stop-color="#39C2AC" offset="0%"></stop>
            <stop stop-color="#39C2AC" offset="100%"></stop>
        </linearGradient>
    </defs>
    <g id="多色设计方案" stroke="none" stroke-width="1" fill="none" fill-rule="evenodd">
        <g id="控件库30*30" transform="translate(-466.000000, -253.000000)">
            <g id="北京银行备份-3" transform="translate(466.000000, 253.000000)">
                <mask id="mask-2" fill="white">
                    <use xlink:href="#path-1"></use>
                </mask>
                <use id="蒙版" fill="#D8D8D8" opacity="0" xlink:href="#path-1"></use>
                <g id="中国农业" mask="url(#mask-2)">
                    <g transform="translate(1.500000, 1.500000)">
                        <path d="M22.4144814,3.25248472 C17.6125732,-1.18135393 11.9804612,0.205334307 11.9804612,0.205334307 C5.91376226,0.998429943 2.53651257,6.32783895 2.53651257,6.32783895 C0.219195792,9.91082643 0.141820093,12.8513278 0.141820093,12.8513278 C-0.633394889,17.920824 2.02216826,21.6230228 2.02216826,21.6230228 C4.0114192,24.5318311 5.96812658,25.6526809 9.07063843,26.4473954 C12.1732704,27.2378688 16.7182681,26.0959941 19.4426752,24.0963914 C22.1675275,22.1149606 23.7796923,20.2241476 25.144065,16.9923256 C26.5077535,13.7755117 26.0122227,10.397002 26.0122227,10.397002 C25.503432,5.88582049 22.4144814,3.25248472 22.4144814,3.25248472 Z" id="Fill-1" fill="#125349"></path>
                        <path d="M22.6804698,4.56752982 C18.6575939,0.855629398 13.7859029,2.17945652 13.7859029,2.17945652 C8.55460535,3.01479071 5.52865838,7.75535931 5.52865838,7.75535931 C3.45410755,10.9595014 3.31918912,13.5359682 3.31918912,13.5359682 C2.53510179,18.0034385 4.73074754,21.1412385 4.73074754,21.1412385 C6.37232554,23.6024501 8.0275507,24.4990711 10.6749038,25.0612044 C13.3224589,25.6176467 17.2543443,24.4408163 19.6418401,22.6060613 C22.0292954,20.7959669 23.4585598,19.1119663 24.7061164,16.2906094 C25.9527357,13.4893022 25.605575,10.6081379 25.605575,10.6081379 C25.2733809,6.75422477 22.6804698,4.56752982 22.6804698,4.56752982 Z" id="形状结合" fill="#FFFFFF"></path>
                        <path d="M14.3652672,0.789910327 L13.7844531,0.930502202 L13.5175844,8.75139153 L13.5632522,8.96277742 L13.6130453,9.00976809 L13.6092184,9.12185084 L13.7147997,9.10574413 L13.7676168,9.15148008 L13.9215507,9.18100021 L15.3936702,8.95643809 L15.5549634,8.87890311 L15.6084595,8.81702934 L15.661621,8.80892898 L15.7178282,8.68903886 L15.7705995,8.62650869 L16.0424709,0.6 L15.5193221,0.62104843 L14.3652672,0.789910327 Z M17.2262801,8.95164264 L17.1129456,9.13143621 L17.0069657,9.2036011 L16.8470974,9.28322979 L16.636281,9.37143758 L15.2157709,9.58861395 L15.1090983,9.6586592 L15.0522857,9.7740341 L14.9960606,9.89399739 L14.8672234,13.6826194 L14.9215603,13.6189105 L14.9765659,13.5574348 L18.0782814,13.0739538 L18.2921055,12.9870898 L18.3984854,12.9705156 L18.5037561,12.8982558 L18.5598137,12.7824649 L18.6156119,12.718699 L18.6716665,12.6029212 L18.9734637,3.61191156 L19.593153,3.84808134 L20.2088169,4.1389165 L20.7740769,4.49120665 L21.2840477,4.85054478 L21.7929563,5.26546516 L22.2485834,5.73903392 L22.7008424,6.27069692 L23.1033807,6.75357719 L23.3968344,7.36077788 L23.7434656,7.96023147 L23.9813573,8.62827737 L24.0767963,8.94138306 L24.1723214,9.2520714 L24.3559682,9.98553546 L24.4904624,10.7192175 L24.477797,11.1033038 L24.5176345,11.476906 L24.5449198,12.2312927 L24.4601542,13.2198111 L24.3915706,13.7173755 L24.2700785,14.1692719 L24.2014262,14.6684136 L24.0304811,15.1274428 L23.7363668,16.0420132 L23.5645913,16.5021845 L23.3418036,16.9713714 L23.1170157,17.3877603 L22.8920049,17.8552315 L22.6694171,18.2714977 L22.3936544,18.6941363 L22.1195912,19.0649182 L21.7913374,19.4947848 L21.5171656,19.8673965 L21.1898564,20.2448969 L20.4851101,20.9574906 L20.1062243,21.291268 L19.7821098,21.6146953 L19.4065924,21.8909555 L18.9784113,22.1797914 L18.6013378,22.4565117 L18.1723193,22.7464732 L17.7444884,22.9782843 L17.5322034,23.1229851 L17.3210808,23.2109901 L16.894965,23.3907583 L16.4678378,23.6218678 L15.9910646,23.7542086 L15.5138686,23.9424386 L15.722271,17.8065409 L17.9307286,17.4547907 L18.1447063,17.366434 L18.2530125,17.2941496 L18.3564567,17.277672 L18.4125982,17.1602343 L18.468455,17.0955454 L18.5245411,16.9796785 L18.6552377,13.0918587 L18.5451079,13.2199612 L18.3855014,13.3565803 L18.2248611,13.4351955 L18.0634946,13.5131617 L15.0657432,13.981453 L14.95973,14.0524623 L14.9028055,14.1702567 L14.8466552,14.2871581 L14.7232993,17.9111218 L13.9331083,18.0367809 L14.0605684,14.3019193 L13.9594003,14.2087585 L13.8556156,14.1704807 L10.857427,14.6386676 L10.7003938,14.6101297 L10.544888,14.5805605 L10.390666,14.4922517 L10.3408278,14.4461764 L10.289627,14.396407 L10.1601603,18.1431313 L10.2076764,18.3001197 L10.2039371,18.408301 L10.2537223,18.4565438 L10.3549028,18.5496418 L10.4613753,18.5327596 L10.5111903,18.5801995 L10.7207428,18.6015114 L12.9325911,18.2502699 L12.7218302,24.3987841 L12.2506455,24.3652601 L11.8315583,24.3791069 L11.4146882,24.2851991 L10.9450228,24.251073 L10.5290063,24.1544229 L10.1106972,24.0595644 L9.75221356,23.8964894 L9.33730801,23.7470594 L8.61498705,23.4264922 L8.25687482,23.2113275 L7.89733959,22.9946648 L7.28604244,22.4889653 L6.98170863,22.2099218 L6.67750985,21.9275703 L6.42688544,21.5857627 L6.17795198,21.2388393 L5.67648324,20.6068138 L5.28400558,19.8467526 L5.1412928,19.4299147 L5.00007066,19.0135 L4.90066482,18.8078249 L4.85445063,18.5953082 L4.71326538,18.1786418 L4.62380597,17.754525 L4.53713228,17.272745 L4.50214554,16.7843388 L4.46522474,16.3509492 L4.42955774,15.8609192 L4.44705989,15.3640991 L4.52753706,14.5817581 L4.54118088,14.194279 L4.60736424,13.7962841 L4.79105453,13.0025129 L4.97454749,12.2557689 L5.26430167,11.4950521 L5.38114762,11.0955161 L5.55092157,10.7372479 L5.89025743,10.0255402 L6.27780618,9.360679 L6.72067431,8.68835591 L7.16352042,8.01468646 L7.65589204,7.39249679 L8.19953007,6.81451468 L8.79277124,6.28572395 L9.38520955,5.75658147 L9.97641287,5.28272614 L10.618782,4.85627857 L10.3123657,13.7380254 L10.3598223,13.8961199 L10.356083,14.0044104 L10.4058639,14.0520756 L10.5070348,14.1440205 L10.5582894,14.192223 L10.6631991,14.1758808 L10.8726502,14.1970843 L13.9763043,13.7133603 L14.0774919,13.8057889 L14.2105576,9.90291126 L14.1093729,9.81165038 L14.0056253,9.77375822 L12.5864868,9.99101043 L12.4304035,9.95873822 L12.2750438,9.92712406 L12.1189637,9.89482857 L12.0683986,9.84871766 L12.0204953,9.74678109 L12.307933,1.36475432 L11.7778988,1.60709661 L11.2448125,1.8508477 L10.7138832,2.09601909 L10.2368954,2.33023994 L9.75575734,2.61926317 L9.27093375,2.97089363 L8.79426385,3.25803037 L8.31090755,3.60824063 L7.87957817,4.00260537 L7.44601426,4.39590694 L6.58163686,5.18573052 L6.20128825,5.62956411 L5.81948142,6.07140569 L5.43907256,6.51474349 L5.10794842,6.95312021 L4.77881076,7.4399523 L4.44569336,7.93298937 L4.11369385,8.47775703 L3.83521334,8.96112451 L3.5554413,9.5012662 L3.325925,10.0306695 L3.09929042,10.5620327 L2.86994929,11.1479972 L2.51574137,12.2498433 L2.39121084,12.8197567 L2.26657983,13.3920196 L2.14060136,13.9597641 L2.06649641,14.5774986 L1.99520459,15.1367083 L1.95,16.4091698 L1.97798167,17.0695015 L2.06171073,17.7139307 L2.14234767,18.3618045 L2.27820658,18.9460166 L2.41141308,19.5844921 L2.60360688,20.1586685 L2.7916755,20.6816221 L3.03728154,21.2445757 L3.27954365,21.7553942 L3.57577905,22.2597571 L3.87139241,22.7616056 L4.1705482,23.2063521 L4.52152125,23.6425748 L4.92498756,24.0724517 L5.33191106,24.4475828 L5.73668342,24.8212085 L6.19824299,25.129992 L6.65839865,25.4371463 L7.12151639,25.7458614 L7.63535329,25.9922667 L8.15147995,26.2379951 L8.66813131,26.4264836 L9.1864222,26.6113213 L9.75821906,26.7388947 L10.3317026,26.8612566 L10.9061579,26.9342139 L11.5310029,26.9963242 L12.160101,27 L12.791748,26.9510312 L13.4204406,26.9008358 L14.0520769,26.851546 L14.6867317,26.6915049 L15.3190572,26.5333411 L15.9544137,26.3730701 L16.5915129,26.1605849 L17.1779911,25.899228 L17.7615074,25.6361018 L18.4014155,25.3149765 L18.9356246,25.006853 L19.5224311,24.6422293 L20.0597675,24.2828766 L20.5974486,23.8672754 L21.1350721,23.4519016 L21.6219113,22.9918955 L22.1078653,22.5345952 L22.5953137,22.075758 L23.0320301,21.5707784 L23.4664914,21.0648944 L23.8524223,20.5140518 L24.2374722,19.965931 L24.6217184,19.4182116 L24.9552689,18.8235459 L25.2873463,18.2270633 L25.5705757,17.6410118 L25.8517189,17.0039406 L26.0810057,16.4238675 L26.3119342,15.7929043 L26.4899029,15.1166522 L26.6675929,14.4936543 L26.795337,13.8247661 L26.8682769,13.1675996 L26.9414353,12.503451 L27,10.7135804 L26.9162404,10.131155 L26.8807868,9.59814262 L26.7915885,9.0685996 L26.6529206,8.54872446 L26.3716539,7.5621086 L26.2315552,7.04178834 L26.0380828,6.58251041 L25.5449027,5.6806504 L25.2943306,5.28396424 L25.0492665,4.83365949 L24.7494232,4.44222593 L24.4471905,4.05628019 L23.790938,3.38950665 L23.43322,3.0628139 L23.0262413,2.74077608 L22.672334,2.4129968 L22.2628978,2.14427977 L21.8514998,1.93536115 L21.3896891,1.67620211 L20.9785545,1.46065842 L20.5130332,1.31425484 L20.0503943,1.10434522 L19.5326168,0.963727815 L19.0654073,0.869292914 L18.5444677,0.779505642 L17.5077376,0.602851227 L17.2262801,8.95164264 Z" id="中国农业银行icon" fill="url(#linearGradient-3)"></path>
                    </g>
                </g>
            </g>
        </g>
    </g>
</svg>