<?xml version="1.0" encoding="UTF-8"?>
<svg width="30px" height="30px" viewBox="0 0 30 30" version="1.1" xmlns="http://www.w3.org/2000/svg" xmlns:xlink="http://www.w3.org/1999/xlink">
    <title>中国银行备份 2</title>
    <defs>
        <rect id="path-1" x="0" y="0" width="30" height="30"></rect>
        <linearGradient x1="50%" y1="0%" x2="50%" y2="100%" id="linearGradient-3">
            <stop stop-color="#6C1313" offset="0%"></stop>
            <stop stop-color="#6C1313" offset="100%"></stop>
        </linearGradient>
        <linearGradient x1="87.2008303%" y1="0%" x2="7.54040252%" y2="88.5464593%" id="linearGradient-4">
            <stop stop-color="#F54B4B" offset="0%"></stop>
            <stop stop-color="#CC1313" offset="100%"></stop>
        </linearGradient>
    </defs>
    <g id="多色设计方案" stroke="none" stroke-width="1" fill="none" fill-rule="evenodd">
        <g id="控件库30*30" transform="translate(-216.000000, -253.000000)">
            <g id="中国银行备份-2" transform="translate(216.000000, 253.000000)">
                <mask id="mask-2" fill="white">
                    <use xlink:href="#path-1"></use>
                </mask>
                <use id="蒙版" fill="#D8D8D8" opacity="0" xlink:href="#path-1"></use>
                <g id="中国银行" mask="url(#mask-2)">
                    <g transform="translate(1.350000, 1.350000)">
                        <path d="M23.2907987,3.03445101 C18.5827252,-1.25826255 12.7921362,0.260964795 12.7921362,0.260964795 C6.583505,1.21967364 2.93006073,6.72003288 2.93006073,6.72003288 C0.426691839,10.4479769 0.229425025,13.4478438 0.229425025,13.4478438 C-0.763804696,18.6574167 1.78946861,22.308285 1.78946861,22.308285 C3.69634796,25.1714966 5.64212021,26.2079698 8.76686036,26.8472199 C11.8917743,27.4788039 16.5626937,26.0830182 19.4162428,23.9350581 C22.2697572,21.8199705 23.9875014,19.8596117 25.5080203,16.5855411 C27.0274529,13.3403542 26.6612644,10.0105755 26.6612644,10.0105755 C26.327827,5.56033636 23.2907987,3.03445101 23.2907987,3.03445101 Z" id="Fill-1" fill="url(#linearGradient-3)"></path>
                        <path d="M15.7567416,23.8706044 L15.7567416,19.2455422 L17.9579414,18.7524841 C17.9579414,18.7524841 20.3014352,17.7566621 20.4417931,15.270352 L20.4417931,10.3391622 C20.4417931,10.3391622 20.0652466,7.94816258 17.4681406,8.4099856 L15.7567416,8.79333074 L15.7567416,4.09904864 C15.7567416,4.09904864 18.6839308,3.67833017 21.0506562,5.34373469 C23.4164137,7.00740618 24.0252768,9.06461354 24.283729,10.1873602 C24.5412133,11.3093488 24.7280345,14.6407554 22.8549819,17.9382999 C20.9799933,21.2362781 17.4197413,23.3567358 15.7567416,23.8706044 Z M11.5899804,17.2659629 C11.5899804,17.2659629 11.1269972,17.4846722 11.0570225,16.9667466 L11.0570225,12.880593 C11.0570225,12.880593 11.1269972,12.4237517 11.4749535,12.3466275 L17.2042515,11.0767333 C17.2042515,11.0767333 17.6921572,10.8736072 17.7372094,11.3999351 L17.7372094,15.3690399 C17.7372094,15.3690399 17.855112,15.9713245 17.3902116,15.9803465 L11.5899804,17.2659629 Z M13.1932584,24.3781677 C13.1932584,24.3781677 8.56254374,25.1545617 6.01429779,21.2461271 C6.01429779,21.2461271 3.81586792,18.5792664 4.72712918,14.4380916 C5.64032312,10.2974584 7.76820996,8.24318153 8.18953542,7.74755924 C8.61086088,7.25291103 11.3359476,5.00846928 13.1932584,4.62197802 L13.1932584,9.31409743 L11.2296499,9.75360308 C11.2296499,9.75360308 8.56351009,10.5159459 8.46977483,13.506881 L8.46977483,17.843463 C8.46977483,17.843463 8.54031786,20.4927429 11.2992265,20.1810884 L13.1932584,19.7571558 L13.1932584,24.3781677 Z M24.1918798,3.91972196 C19.8899028,-0.143984739 14.3725907,1.55030166 14.3725907,1.55030166 C8.48043764,2.6724291 4.85761846,7.93662848 4.85761846,7.93662848 C2.37864407,11.44281 2.09847938,14.2286725 2.09847938,14.2286725 C0.999074524,19.0475414 3.29062841,22.4788066 3.29062841,22.4788066 C4.99673472,25.1985471 6.79655129,26.230721 9.71895875,26.9397609 C12.6413662,27.6536488 17.0853577,26.4790429 19.8435307,24.4815756 C22.6017037,22.4831388 24.2855901,20.5837903 25.828428,17.3554333 C27.3702998,14.1253518 27.1374733,10.7980279 27.1374733,10.7980279 C26.9732389,6.35496568 24.1918798,3.91972196 24.1918798,3.91972196 Z" id="Fill-1" fill="url(#linearGradient-4)"></path>
                        <path d="M15.75,23.85 L15.75,19.2643664 L17.9544027,18.7755115 C17.9544027,18.7755115 20.3013063,17.7881789 20.4418685,15.3230645 L20.4418685,10.4339129 C20.4418685,10.4339129 20.0647741,8.06329655 17.4638892,8.52118254 L15.75,8.90125968 L15.75,4.2469962 C15.75,4.2469962 18.6814484,3.82986435 21.0516175,5.48107134 C23.4208172,7.13056007 24.0305663,9.1702298 24.2893946,10.2834051 C24.5472534,11.3958288 24.7343465,14.6988352 22.8585685,17.9682683 C20.9808517,21.2381313 17.4154194,23.3405121 15.75,23.85 Z" id="路径" fill="#FFFFFF"></path>
                        <path d="M11.6255101,17.3550533 C11.6255101,17.3550533 11.1689968,17.5694527 11.1,17.0617332 L11.1,13.0561002 C11.1,13.0561002 11.1689968,12.6082613 11.5120906,12.5326569 L17.1613241,11.2877869 C17.1613241,11.2877869 17.6424116,11.0886636 17.6868342,11.6046198 L17.6868342,15.4955105 C17.6868342,15.4955105 17.8030891,16.0859266 17.3446856,16.0947708 L11.6255101,17.3550533 Z" id="路径" fill="#FFFFFF"></path>
                        <path d="M13.2,24.3877688 C13.2,24.3877688 8.56254744,25.157544 6.01059369,21.2824287 C6.01059369,21.2824287 3.80896503,18.6383029 4.7215522,14.5324315 C5.63607488,10.427097 7.76705788,8.39033285 8.18899638,7.89893573 C8.61093489,7.40850438 11.3399867,5.18319643 13.2,4.8 L13.2,9.45211923 L11.2335343,9.88787809 C11.2335343,9.88787809 8.56351519,10.6437219 8.46964355,13.6091594 L8.46964355,17.9087722 C8.46964355,17.9087722 8.54028922,20.5354671 11.3032122,20.2264694 L13.2,19.8061508 L13.2,24.3877688 Z" id="路径" fill="#FFFFFF"></path>
                    </g>
                </g>
            </g>
        </g>
    </g>
</svg>