<?xml version="1.0" encoding="UTF-8"?>
<svg width="30px" height="30px" viewBox="0 0 30 30" version="1.1" xmlns="http://www.w3.org/2000/svg" xmlns:xlink="http://www.w3.org/1999/xlink">
    <title>中国储蓄备份 2</title>
    <defs>
        <rect id="path-1" x="0" y="0" width="30" height="30"></rect>
        <linearGradient x1="54.5022161%" y1="0%" x2="50%" y2="93.4082031%" id="linearGradient-3">
            <stop stop-color="#04DD8C" offset="0%"></stop>
            <stop stop-color="#1DC084" offset="100%"></stop>
        </linearGradient>
    </defs>
    <g id="多色设计方案" stroke="none" stroke-width="1" fill="none" fill-rule="evenodd">
        <g id="控件库30*30" transform="translate(-516.000000, -253.000000)">
            <g id="中国储蓄备份-2" transform="translate(516.000000, 253.000000)">
                <mask id="mask-2" fill="white">
                    <use xlink:href="#path-1"></use>
                </mask>
                <use id="蒙版" fill="#D8D8D8" opacity="0" xlink:href="#path-1"></use>
                <g id="中国储蓄" mask="url(#mask-2)">
                    <g transform="translate(2.250000, 3.000000)">
                        <polygon id="路径-104" fill="#007E3E" points="25.35 0.282352941 22.6592179 0 13.0290503 1.41176471 12.3917598 4.58823529 7.2226257 5.36470588 5.87723464 11.6470588 1.20377095 12.3529412 0 18.1411765 2.69078212 18.4235294 4.67346369 18.1411765 3.39888268 23.7176471 6.0896648 24 9.91340782 5.64705882 15.0825419 4.87058824 15.7198324 1.69411765"></polygon>
                        <path d="M15.757725,1.71268194 L15.1017462,4.89880804 L9.92273654,5.66153569 L8.60903654,11.9601325 L3.90393461,12.6530664 L3.3551077,15.2103778 L3.24708461,15.8393208 L2.7,18.4007234 L7.44169039,17.702401 L6.12886154,24 L17.4364385,22.3347006 L17.9835231,19.7776458 L18.7483962,16.0363603 L22.2138462,15.5259935 L22.7234712,12.9709773 L17.8380404,13.6904688 L17.3284154,16.245485 L16.5243404,19.9925439 L8.09854039,21.2334357 L8.20830577,20.6398877 L15.7211365,19.5334515 L17.0348365,13.1957248 L22.8367212,12.3412645 L23.3820635,9.78446635 L16.1236096,10.8534397 L15.6131135,13.405106 L14.8116519,17.1917794 L8.7571327,18.0834459 L8.86515577,17.4918936 L14.0450365,16.7290376 L14.5546615,14.1740214 L14.7001442,13.5395616 L15.2115115,10.987767 L10.0316308,11.750623 L10.1797269,11.1549081 L17.6890731,10.0489851 L18.3467942,6.89999317 L24.1486788,6.04553293 L24.69315,3.48538484 L17.4364385,4.55410163 L16.8893538,7.11376507 L16.7813308,7.70357825 L10.6884808,8.6008898 L10.8348346,8.00543154 L16.0138442,7.24270389 L16.5234692,4.68855723 L16.6341058,4.06357708 L24.8055288,2.86014809 L25.35,0.3 L15.757725,1.71268194 Z M13.064625,14.5180444 L9.3534375,15.0646016 L9.49885616,14.3381432 L13.175625,13.7966549 L13.064625,14.5180444 Z M8.07851183,14.5473214 L7.9326334,15.2738475 L4.681875,15.7525961 L4.79063644,15.0315363 L8.079375,14.5471943 L8.07851183,14.5473214 Z" id="形状" fill="url(#linearGradient-3)"></path>
                        <polygon id="路径-101" fill="#FFFFFF" points="4.79375 15.0441176 8.1 14.55 7.95625 15.3264706 4.65 15.75"></polygon>
                    </g>
                </g>
            </g>
        </g>
    </g>
</svg>